<?xml version="1.0" encoding="UTF-8"?>
<svg width="154px" height="169px" viewBox="0 0 154 169" version="1.1" xmlns="http://www.w3.org/2000/svg" xmlns:xlink="http://www.w3.org/1999/xlink">
    <title>Chien</title>
    <defs>
        <filter x="-36.9%" y="-32.0%" width="173.7%" height="164.3%" filterUnits="objectBoundingBox" id="filter-1">
            <feOffset dx="0" dy="3" in="SourceAlpha" result="shadowOffsetOuter1"></feOffset>
            <feGaussianBlur stdDeviation="8" in="shadowOffsetOuter1" result="shadowBlurOuter1"></feGaussianBlur>
            <feColorMatrix values="0 0 0 0 0   0 0 0 0 0   0 0 0 0 0  0 0 0 0.2 0" type="matrix" in="shadowBlurOuter1" result="shadowMatrixOuter1"></feColorMatrix>
            <feMerge>
                <feMergeNode in="shadowMatrixOuter1"></feMergeNode>
                <feMergeNode in="SourceGraphic"></feMergeNode>
            </feMerge>
        </filter>
    </defs>
    <g id="5_MonDossier-+-Lien-Dossier" stroke="none" stroke-width="1" fill="none" fill-rule="evenodd">
        <g id="[RWD]/Proprietaire/Candidatures/Details/v0.3_BlocProprietaire1-Copy-4" transform="translate(-975.000000, -2816.000000)">
            <g id="Group-5-Copy-2" transform="translate(309.000000, 2660.000000)">
                <g id="illustration" transform="translate(8.889932, -7.003713)">
                    <g id="Chien" filter="url(#filter-1)" transform="translate(684.822171, 190.003713)">
                        <path d="M98.8229466,65.6110287 C98.1318417,67.1870114 92.2197535,77.1598296 90.6553434,76.4663972 C89.0909332,75.7729649 92.4584989,64.6717431 93.1684521,63.0957604 C93.9411159,61.6686627 95.6770977,61.076974 97.1562221,61.7365765 C98.6353465,62.3961791 99.3609158,64.0855749 98.8229466,65.6173327 L98.8229466,65.6110287 Z" id="Path" fill="#FFBB43" fill-rule="nonzero"></path>
                        <path d="M52.2990218,80.5639521 C52.2990218,80.5639521 49.0068494,90.4043878 53.8697147,96.7902695 C56.7472242,100.572628 63.6519904,102.331424 63.6519904,102.331424 L62.7724023,107.551079 C62.7724023,107.551079 56.3828234,107.399785 57.2184321,114 L71.9829457,114 C71.9829457,114 86.9108114,80.9169722 74.9986761,69.6581522" id="Path" fill="#E29A27" fill-rule="nonzero"></path>
                        <path d="M51.3754543,85.0145271 C50.973357,88.4312575 51.1115779,93.1655094 53.888563,96.7902695 C55.1279329,98.2695304 56.6709363,99.4629345 58.4121587,100.288951 C61.0212368,101.613083 63.8696643,102.395661 66.7870935,102.589886 C68.0436478,102.684445 69.3441816,102.734876 70.6572809,102.734876 C72.5273295,102.734876 74.396028,102.634081 76.2552305,102.432287 C78.1903242,96.1283568 79.9746314,88.1980121 79.572534,81.3582474 C76.6329734,80.8233616 73.6510644,80.5575041 70.6635636,80.5638376 C62.7598368,80.5638376 55.7671118,82.3164448 51.3754543,85.0145271 Z" id="Path" fill="#1E2454" fill-rule="nonzero"></path>
                        <path d="M18.3971854,65.1697536 C18.3971854,65.1697536 10.1290578,85.2919001 26.0558842,106.517234 C26.0558842,106.517234 20.8286181,108.8686 22.5061181,114 L38.9921112,114 L38.9921112,94.5397662 L18.3971854,65.1697536 Z" id="Path" fill="#FFBB43" fill-rule="nonzero"></path>
                        <path d="M26.8098168,49.0884266 C26.8098168,49.0884266 1.45883275,83.7600449 28.7386277,94.8990903 C56.0184227,106.038136 104.182151,90.927614 91.8239389,72.0158222 C79.4657269,53.1040304 57.9786475,65.9262253 44.3261844,51.8432443" id="Path" fill="#FFBB43" fill-rule="nonzero"></path>
                        <path d="M28.7386277,94.8990903 C41.0528603,99.9422348 57.6393778,99.6018225 70.9651367,95.9896703" id="Path" stroke="#1E2454" stroke-width="0.5" stroke-linecap="round"></path>
                        <path d="M40.6696113,65.1697536 C40.6696113,65.1697536 32.3952009,85.2919001 48.3220273,106.517234 C48.3220273,106.517234 43.1010439,108.8686 44.7722612,114 L61.239406,114 L61.239406,94.5397662 L40.6696113,65.1697536 Z" id="Path" fill="#FFBB43" fill-rule="nonzero"></path>
                        <path d="M41.6999858,94.8234431 C43.3789153,98.9996578 45.6059291,102.932317 48.3220273,106.517234 C48.3220273,106.517234 43.1010439,108.8686 44.7722612,114 L61.239406,114" id="Path" stroke="#1E2454" stroke-width="0.5" stroke-linecap="round"></path>
                        <path d="M50.9859225,47.5943951 C50.9859225,50.7085368 45.3314279,53.4381387 38.3575513,53.230109 C23.6495826,52.7888339 26.2318018,47.5565715 26.2318018,44.4550376 C26.2318018,41.3535038 31.3899574,41.9649851 38.3575513,41.9649851 C45.3251451,41.9649851 50.9859225,44.4865573 50.9859225,47.5943951 Z" id="Path" fill="#1E2454" fill-rule="nonzero"></path>
                        <path d="M32.7784499,19.6931983 C32.6590645,19.770735 32.5096807,19.7855631 32.3774679,19.7330004 C32.2452551,19.6804378 32.1465338,19.5669729 32.1124761,19.4284332 C31.1135154,15.715418 25.0192268,-4.52650311 12.2463519,0.926396862 C-1.79564302,6.92143486 -9.29098973,28.1782888 21.0422323,42.2360541 C51.3754543,56.2938193 56.3137129,37.9430773 52.569181,26.9931499 C50.3199487,20.5127092 40.6696113,13.1118947 32.7784499,19.6931983 Z" id="Path" fill="#FFBB43" fill-rule="nonzero"></path>
                        <path d="M36.9753415,47.8087287 C44.7596957,48.6345436 49.3524018,45.9175495 51.6770274,41.9775929 C49.120102,39.9531759 45.6827834,39.4467328 42.6537617,40.648135 C39.62474,41.8495371 37.4616052,44.5772904 36.9753415,47.8087287 L36.9753415,47.8087287 Z" id="Path" fill="#1E2454" fill-rule="nonzero"></path>
                        <ellipse id="Oval" fill="#1E2454" fill-rule="nonzero" transform="translate(35.069443, 23.826473) rotate(-26.940000) translate(-35.069443, -23.826473) " cx="35.0694428" cy="23.8264727" rx="1.28257239" ry="1.14652628"></ellipse>
                        <ellipse id="Oval" fill="#D86A61" fill-rule="nonzero" cx="32.8538432" cy="28.985192" rx="2.02305251" ry="2.02986565"></ellipse>
                        <path d="M26.2318018,6.22800249 C23.0024571,1.65134888 18.3971854,-1.67712648 12.2463519,0.945308654 C10.2426092,1.8030885 8.38048179,2.96153816 6.72379548,4.38095083 C8.15626744,7.99310306 12.2086552,10.5966264 16.9898445,10.5966264 C20.5853019,10.6869605 24.0118593,9.06724511 26.2318018,6.22800249 Z" id="Path" fill="#1E2454" fill-rule="nonzero"></path>
                        <path d="M33.8213901,36.2662318 C30.2842386,37.0780997 26.570087,36.3023835 23.6495826,34.1418072" id="Path" stroke="#1E2454" stroke-width="0.5" stroke-linecap="round"></path>
                        <path d="M41.9764278,34.1418072 C41.9764278,34.1418072 33.3376166,63.9783107 45.4696489,75.4199447 C57.6016812,86.8615788 58.8959321,47.4998361 53.1032166,28.985192" id="Path" fill="#FFBB43" fill-rule="nonzero"></path>
                        <path d="M41.9764278,34.1418072 C41.9764278,34.1418072 33.3376166,63.9783107 45.4696489,75.4199447 C53.0529544,82.568602 56.4016717,69.8724858 56.4330856,54.8313074" id="Path" stroke="#1E2454" stroke-width="0.5" stroke-linecap="round"></path>
                        <path d="M41.9764278,34.1418072 C41.9764278,34.1418072 33.3376166,63.9783107 45.4696489,75.4199447" id="Path" stroke="#1E2454" stroke-width="0.5" stroke-linecap="round"></path>
                        <path d="M67.4279362,80.5639521 C67.4279362,80.5639521 64.1357638,90.4043878 68.9986291,96.7902695 C71.8761386,100.572628 78.7809047,102.331424 78.7809047,102.331424 L77.9013167,107.551079 C77.9013167,107.551079 71.5117378,107.399785 72.3473465,114 L87.1118601,114 C87.1118601,114 102.039726,80.9169722 90.1275905,69.6581522" id="Path" fill="#FFBB43" fill-rule="nonzero"></path>
                        <path d="M94.6888828,81.4717181 C94.4312892,76.7437702 93.1307554,72.5138327 90.1275905,69.677064" id="Path" stroke="#1E2454" stroke-width="0.5" stroke-linecap="round"></path>
                        <path d="M67.4279362,80.5639521 C67.4279362,80.5639521 64.1357638,90.4043878 68.9986291,96.7902695 C71.8761386,100.572628 78.7809047,102.331424 78.7809047,102.331424 L77.9013167,107.551079 C77.9013167,107.551079 71.5117378,107.399785 72.3473465,114 L87.1118601,114" id="Path" stroke="#1E2454" stroke-width="0.5" stroke-linecap="round"></path>
                        <path d="M67.4279362,80.5639521 C67.4279362,80.5639521 64.1357638,90.4043878 68.9986291,96.7902695 C71.8761386,100.572628 78.7809047,102.331424 78.7809047,102.331424 L77.9013167,107.551079 C77.9013167,107.551079 71.5117378,107.399785 72.3473465,114 L87.1118601,114" id="Path" stroke="#1E2454" stroke-width="0.5" stroke-linecap="round"></path>
                    </g>
                </g>
            </g>
        </g>
    </g>
</svg>