<?xml version="1.0" encoding="UTF-8"?>
<svg width="109px" height="285px" viewBox="0 0 109 285" version="1.1" xmlns="http://www.w3.org/2000/svg" xmlns:xlink="http://www.w3.org/1999/xlink">
    <title>Homme</title>
    <g id="5_MonDossier-+-Lien-Dossier" stroke="none" stroke-width="1" fill="none" fill-rule="evenodd">
        <g id="[RWD]/Proprietaire/Candidatures/Details/v0.3_BlocProprietaire1-Copy-4" transform="translate(-317.000000, -3067.000000)">
            <g id="Homme" transform="translate(371.389932, 3209.132719) scale(-1, 1) translate(-371.389932, -3209.132719) translate(317.889932, 3067.132719)">
                <path d="M28.9065771,40.1470707 C25.8455676,45.1021939 17.3865342,71.1913443 14.9696676,78.7414996 C14.5916994,79.9268847 14.1711433,81.0909114 13.7186463,82.2495986 C11.1154573,88.8653288 1.52251953,116.828669 14.5384645,140.515012 L36.843908,50.318956 L36.843908,38.2194851 C36.843908,38.2194851 32.4999361,34.3536347 28.9065771,40.1470707 Z" id="Path" fill="#8FB8CC" fill-rule="nonzero"></path>
                <path d="M63.189884,90.6701042 L22.6567941,102.502597 C22.6567941,102.502597 -7.60727416,170.656898 16.060984,270.966104 L3.65724097,283.711663 L42.987221,283.711663 L44.7652683,184.6092 C44.7652683,184.6092 77.3876448,111.601228 63.189884,90.6701042 Z" id="Path" fill="#1E2454" fill-rule="nonzero"></path>
                <path d="M66.3786575,90.6701042 L33.2931369,102.502597 C33.2931369,102.502597 12.7018587,180.422976 50.8606699,270.966104 L37.0195833,283.733021 L80.5764183,283.733021 L72.0588265,185.949433 C71.7316777,182.21701 71.7691202,178.461446 72.1706199,174.736331 C74.5129576,152.982913 79.4584843,108.189241 66.3786575,90.6701042 Z" id="Path" fill="#1E2454" fill-rule="nonzero"></path>
                <line x1="50.8819639" y1="270.966104" x2="37.0195833" y2="283.733021" id="Path" stroke="#7F8AC9" stroke-width="0.5" stroke-linecap="round"></line>
                <path d="M30.4557141,196.22277 C33.9371074,221.937474 40.8058317,247.074967 50.8819639,270.976783" id="Path" stroke="#7F8AC9" stroke-width="0.5" stroke-linecap="round"></path>
                <path d="M38.2759281,16.7757626 C38.0416943,19.2693429 35.9761783,21.1114953 33.660458,20.8872333 C31.3447378,20.6629713 29.8648062,16.4019925 30.09904,13.9084122 C30.3332737,11.414832 32.2284379,11.6497731 34.5175407,11.8686956 C36.8066435,12.0876181 38.5101618,14.2875219 38.2759281,16.7757626 Z" id="Path" fill="#1E2454" fill-rule="nonzero"></path>
                <path d="M55.5346984,8.7236875 C52.3406015,3.65643335 46.665756,1.20556964 41.5285834,2.16669267 C40.0612988,2.44603704 38.5437961,2.11657292 37.3230225,1.25362579 C36.3572382,0.565604724 35.2282896,0.143962447 34.0490732,0.0308637285 C30.024511,-0.35358548 26.4258285,2.89821408 26.0105959,7.29268211 C25.6219808,11.4361903 28.2038758,15.1151556 31.8664403,15.8359979 C32.1020481,18.1633385 32.8807778,20.4023168 34.1395726,22.3716344 C38.2546341,28.8592148 46.3836108,31.0644582 52.2873666,27.2947201 C58.1911224,23.524982 59.64976,15.2112679 55.5346984,8.7236875 Z" id="Path" fill="#1E2454" fill-rule="nonzero"></path>
                <path d="M39.7398892,9.03872227 C31.3394143,8.50476503 32.0687331,16.0282225 32.0687331,16.0282225 L32.0687331,16.0282225 C32.2917708,18.4657161 32.2077073,20.9216852 31.8185288,23.338097 C30.9401522,28.2932201 32.5318771,31.7639422 36.748085,33.0347604 C41.8905811,34.5778968 46.9053132,32.6503112 48.8483889,27.0384206 C49.0719757,26.3923324 49.2955624,25.7462441 49.5510902,25.1054954 C50.8872874,21.714867 54.4167645,10.0051849 39.7398892,9.03872227 Z" id="Path" fill="#EFCE95" fill-rule="nonzero"></path>
                <path d="M54.1133253,15.1738909 C50.7116121,7.94944951 31.5896185,4.95394943 31.5896185,4.95394943 L31.8717638,15.8359979 C31.8717638,15.8359979 41.3422611,16.3272385 45.611704,13.0700994 C45.7443561,12.9588152 45.9260925,12.9268971 46.0885509,12.9863514 C46.2510093,13.0458058 46.3695495,13.1876152 46.3995812,13.3584363 C46.665756,14.8321583 47.3737808,17.8383375 48.9175943,19.6431129 C49.0886765,19.8510728 49.1297521,20.1374104 49.0240642,20.3853135 L48.2202165,22.3289178 C48.1324781,22.5466963 48.1716764,22.7952595 48.3221423,22.975246 C48.4726082,23.1552324 48.7097948,23.2372793 48.9388883,23.188589 L50.8127585,22.7827815 C50.8127585,22.7827815 57.5150385,22.4036718 54.1133253,15.1738909 Z" id="Path" fill="#1E2454" fill-rule="nonzero"></path>
                <path d="M41.6563473,16.2418054 C42.7279815,15.9322522 43.8786351,16.0669006 44.8504442,16.6155754" id="Path" stroke="#1E2454" stroke-width="0.816326531" stroke-linecap="round"></path>
                <path d="M38.0576648,17.4378696 C38.4412579,18.1799746 38.5810101,19.0247585 38.4569269,19.8513563 C38.3670538,20.2560868 38.2387028,20.651243 38.0736353,21.0314017 C37.92044,21.4145507 37.7426165,21.7873242 37.5412858,22.1473724 C37.4441652,22.3378132 37.3263311,22.5168888 37.1899351,22.6813296 C37.074069,22.8028372 36.9803726,22.9438062 36.9131134,23.0978162 C36.822614,23.3541157 36.9876423,23.6317735 37.2378466,23.8720542 C37.4836468,24.1262275 37.792251,24.3104753 38.1321937,24.4060115 C38.4866706,24.5130888 38.8688589,24.4766712 39.1968927,24.3045596 C39.2072427,24.2943839 39.2238071,24.2943839 39.2341571,24.3045596 C38.9433027,24.6467351 38.5037684,24.8242767 38.0576648,24.7797815 C37.6010456,24.745908 37.169389,24.5576645 36.833261,24.2458243 C36.6695566,24.0844516 36.5424553,23.8895813 36.4606163,23.6744901 C36.3594095,23.4245447 36.3594095,23.1448579 36.4606163,22.8949125 C36.5683606,22.6874316 36.7189967,22.5053942 36.9024664,22.3609553 C37.0514717,22.2409389 37.1919946,22.1106965 37.3230225,21.9711665 C37.5936447,21.6860607 37.7957554,21.3427132 37.9139304,20.9673269 C38.0029394,20.5861611 38.0370014,20.1941636 38.0150768,19.8033001 C38.0470178,19.0290621 38.0150768,18.2601637 38.0150768,17.4485487 C38.0148567,17.4327464 38.0261581,17.4191437 38.0416943,17.4165113 C38.0504394,17.4202581 38.0565273,17.4283998 38.0576648,17.4378696 Z" id="Path" fill="#1E2454" fill-rule="nonzero"></path>
                <ellipse id="Oval" fill="#1E2454" fill-rule="nonzero" transform="translate(35.131259, 19.992940) rotate(-78.690000) translate(-35.131259, -19.992940) " cx="35.1312591" cy="19.9929398" rx="1" ry="1"></ellipse>
                <path d="M36.9397309,16.5141235 C36.0791225,16.2049452 35.131352,16.2510365 34.3046009,16.6422733" id="Path" stroke="#1E2454" stroke-width="0.816326531" stroke-linecap="round"></path>
                <ellipse id="Oval" fill="#FFB89F" fill-rule="nonzero" cx="34.4749527" cy="23.0017039" rx="1" ry="1"></ellipse>
                <ellipse id="Oval" fill="#1E2454" fill-rule="nonzero" transform="translate(42.711032, 20.388955) rotate(-78.690000) translate(-42.711032, -20.388955) " cx="42.7110319" cy="20.3889551" rx="1" ry="1"></ellipse>
                <ellipse id="Oval" fill="#FFB89F" fill-rule="nonzero" cx="43.8443037" cy="23.2740221" rx="1" ry="1"></ellipse>
                <path d="M36.9450544,23.3220783 C36.9450544,23.3220783 37.0834652,23.8560355 38.1747817,23.7011879 C39.1436577,23.5463403 39.5695373,24.1924286 39.1170403,24.4594072 C38.5543834,24.7612639 37.8698924,24.7178371 37.34964,24.3472762 C37.1253137,24.1414979 36.9443102,23.8927742 36.8172905,23.6157548" id="Path" fill="#1E2454" fill-rule="nonzero"></path>
                <path d="M42.3430782,25.810319 C42.2684278,26.0361159 42.1588453,26.2487355 42.018345,26.4403885 C41.8266991,26.5151425 41.6403768,26.5952361 41.448731,26.6539714 C41.0635629,26.7767908 40.6649147,26.8520993 40.2615917,26.8782335 C39.859828,26.9057716 39.4562505,26.8878603 39.0584818,26.8248377 C38.8610957,26.7929036 38.6656066,26.7501226 38.4728974,26.696688 C38.3077686,26.5287081 38.1646559,26.3403054 38.0470178,26.1360329 L38.6805137,25.92245 C38.845542,25.9705062 39.0158939,26.0025436 39.1862457,26.034581 C39.5241125,26.0888533 39.8671598,26.1031901 40.2083567,26.0772976 C40.5482121,26.0553631 40.8842177,25.99262 41.2091737,25.8904126 C41.3709266,25.8383458 41.5291821,25.7759225 41.6829648,25.7035275 C41.8852576,25.7515837 42.0981974,25.772942 42.3430782,25.810319 Z" id="Path" fill="#1E2454" fill-rule="nonzero"></path>
                <path d="M53.2775366,22.6492922 C53.6288873,23.7172066 52.7718046,26.2588431 48.8803298,25.6341131 L48.8803298,25.5646987 C48.5825034,24.3121813 48.9417128,22.9937863 49.8332354,22.0672788 C51.2066971,20.6843295 52.819716,21.2076076 53.2775366,22.6492922 Z" id="Path" fill="#EFCE95" fill-rule="nonzero"></path>
                <path d="M48.8803298,25.6341131 C52.7718046,26.2588431 53.6288873,23.7385649 53.2775366,22.6492922 C52.7451871,20.9299499 50.5412602,20.5134632 49.0506817,23.0817975" id="Path" stroke="#1E2454" stroke-width="0.5" stroke-linecap="round"></path>
                <path d="M51.8987514,23.0550997 C51.6727385,22.9892439 51.43271,22.9892439 51.2066971,23.0550997 C50.9990808,23.1084954 50.786141,23.2152868 50.4880253,23.2953804 C50.5261572,23.1487893 50.6013319,23.0145376 50.7062886,22.9055916 C50.8150269,22.7942866 50.950798,22.7133141 51.1002272,22.6706505 C51.2569159,22.6148554 51.4279766,22.6148554 51.5846652,22.6706505 C51.7460685,22.7391332 51.8635284,22.882907 51.8987514,23.0550997 Z" id="Path" fill="#1E2454" fill-rule="nonzero"></path>
                <path d="M73.8049328,101.098289 C74.1775774,70.1287694 64.4515523,37.2743808 51.4462544,32.8959315 C46.2345529,38.1927873 39.7345657,40.3286162 36.3541464,37.9471669 C27.8365546,47.0244399 21.5548307,73.1563069 20.2612215,95.1446658 C20.0557809,97.9667567 19.2844367,100.718202 17.9934126,103.234118 C17.5142981,104.195241 14.554435,108.643105 14.5384645,109.678982 C14.4532886,117.117006 22.4917658,119.776113 38.0896058,119.962998 C53.6874457,120.149883 73.645228,114.367126 73.7570213,106.929102 C73.7570213,106.811631 73.7570213,106.6995 73.7570213,106.58203 C73.7250804,106.048073 73.7037864,105.514115 73.7250804,104.980158 C73.7605703,103.677302 73.7871878,102.383346 73.8049328,101.098289 Z" id="Path" fill="#8FB8CC" fill-rule="nonzero"></path>
                <path d="M23.7214931,69.5948122 C21.9509441,78.0046791 20.797974,86.5335138 20.2718684,95.1126284" id="Path" stroke="#1E2454" stroke-width="0.5" stroke-linecap="round"></path>
                <path d="M42.4069601,41.9358275 C43.5621585,41.3110975 45.2710003,39.9708648 44.8451207,37.6321322 C42.470842,38.7000466 40.1870627,39.1272124 38.3344865,38.7427632 L38.0044298,38.8976108 C37.9193716,40.0715569 38.4198298,41.211488 39.340627,41.941167 C39.8297054,42.3455514 40.0935068,42.9622837 40.0486519,43.5964345 C39.7079482,49.5820951 39.0584818,76.7978953 54.6829392,82.1054302 L59.0641755,83.1039302 C59.8002136,83.2711492 60.5720459,83.0901681 61.1578928,82.6129903 C61.7437397,82.1358126 62.0787373,81.4152706 62.0666266,80.6584061 L61.9708037,75.4576626 C61.9620885,74.884546 61.7529463,74.3327085 61.3798958,73.8985075 C58.3348567,70.3423523 44.0998315,53.3464936 41.6829648,43.6338115 C41.5032445,42.9679511 41.8027905,42.2654268 42.4069601,41.9358275 Z" id="Path" fill="#1E2454" fill-rule="nonzero"></path>
                <path d="M42.2791962,45.5667367 C42.0409501,44.9289059 41.8383429,44.2782483 41.6723178,43.6177928 C41.6191268,43.3876834 41.6191268,43.1484181 41.6723178,42.9183088 L40.0752693,43.6498302 C40.0380049,44.3706725 39.9954169,45.3851912 39.9741229,46.623972 L42.2791962,45.5667367 Z" id="Path" fill="#2E376D" fill-rule="nonzero"></path>
                <path d="M44.9782081,51.2960978 C44.5310345,50.4951619 44.1158019,49.7066851 43.7325103,48.9306672 L39.9687994,50.6286512 C39.9954169,51.5363785 40.0380049,52.4975016 40.1018868,53.4960016 L44.9782081,51.2960978 Z" id="Path" fill="#2E376D" fill-rule="nonzero"></path>
                <path d="M48.3000689,56.7317824 C47.7996604,55.9735632 47.3134479,55.2171237 46.8414313,54.4624642 L40.4532375,57.3404937 C40.5597074,58.248221 40.6821478,59.171967 40.8312056,60.1010526 L48.3000689,56.7317824 Z" id="Path" fill="#2E376D" fill-rule="nonzero"></path>
                <path d="M51.9732804,62.0072799 C51.4409309,61.2953369 50.9085814,60.5584759 50.3762319,59.7966969 L41.5179364,63.7853575 C41.7202293,64.6646071 41.9455905,65.5402969 42.1940203,66.4124271 L51.9732804,62.0072799 Z" id="Path" fill="#2E376D" fill-rule="nonzero"></path>
                <path d="M55.8860491,67.1759859 C55.3536996,66.4818415 54.7787622,65.7556597 54.2038247,65.00278 L43.3811596,69.8884887 C43.7112163,70.721462 44.0678905,71.5384165 44.4458586,72.3286732 L55.8860491,67.1759859 Z" id="Path" fill="#2E376D" fill-rule="nonzero"></path>
                <path d="M59.9904636,72.2645984 C59.4581141,71.6558871 58.8885002,70.9350449 58.2337103,70.1287694 L46.2931113,75.5110583 C46.8128839,76.2602675 47.3819912,76.9738001 47.9966297,77.6468873 L59.9904636,72.2645984 Z" id="Path" fill="#2E376D" fill-rule="nonzero"></path>
                <path d="M54.0281494,81.8758286 L62.0133917,78.2769568 L61.9601567,75.4630022 C61.9601567,75.4309648 61.9601567,75.4042669 61.9601567,75.377569 L51.0363453,80.2739569 C51.9719377,80.9164957 52.975258,81.4536935 54.0281494,81.8758286 Z" id="Path" fill="#2E376D" fill-rule="nonzero"></path>
                <path d="M65.6972501,51.4723037 C60.6026655,58.4404456 62.3913598,69.9739218 70.3127202,78.5599542 C71.0593308,79.3635361 71.8483394,80.126409 72.6763519,80.8452911 C71.3508017,69.9792614 68.933935,59.7272825 65.6972501,51.4723037 Z" id="Path" fill="#1E2454" fill-rule="nonzero"></path>
                <path d="M20.2718684,95.1233076 C20.0659427,97.953445 19.2908888,100.712469 17.9934126,103.234118 C17.5142981,104.195241 14.554435,108.643105 14.5384645,109.678982 C14.4532886,117.117006 24.0089618,121.377985 42.0928739,119.962998" id="Path" stroke="#1E2454" stroke-width="0.5" stroke-linecap="round"></path>
                <path d="M73.8155798,100.195901 L73.8155798,100.195901 C71.6979944,99.167997 69.5243366,98.2606109 67.3049456,97.478059 C50.3975259,91.5030775 34.2620129,93.5748316 31.2595618,102.112808 C30.3811852,104.622407 30.7272124,107.409664 32.100674,110.250316 C35.209595,116.711199 42.9818975,122.889084 50.0621457,121.863886 C62.5830056,120.053771 73.6718454,112.615747 73.7410509,106.913083 C73.7410509,106.795613 73.7410509,106.678142 73.7410509,106.566011 C73.7091099,106.032054 73.6878159,105.498097 73.7091099,104.937442 C73.7623448,103.372947 73.8049328,101.792433 73.8155798,100.195901 Z" id="Path" fill="#1E2454" fill-rule="nonzero"></path>
                <path d="M35.0126257,108.755236 C35.0126257,108.755236 34.9168028,83.4349837 32.2816729,78.4531627 C29.6465429,73.4713417 38.7869836,72.5796331 44.4724761,75.2494193 C47.666573,76.7338204 55.7636087,73.7917161 55.444199,79.4463232 C54.981055,87.5838314 61.2627789,113.368626 54.9118495,113.923942 C46.9266072,114.623426 45.5371751,114.853027 40.911058,114.238977 C34.5068937,113.379305 35.0711842,112.909423 35.0126257,108.755236 Z" id="Path" fill="#FFFFFF" fill-rule="nonzero"></path>
                <path d="M46.3995812,75.6552268 C48.392376,78.6474221 51.298883,80.9107024 54.6829392,82.1054302 L55.4814635,82.2869757 C55.4147508,81.3326781 55.4023092,80.3753428 55.444199,79.4196253 C55.7103738,74.6994434 50.1100572,75.964922 46.3995812,75.6552268 Z" id="Path" fill="#8FB8CC" fill-rule="nonzero"></path>
                <path d="M44.4724761,75.2227214 C47.666573,76.7071226 55.7636087,73.7650182 55.444199,79.4196253 C55.2206122,83.3121735 56.540839,91.2360989 57.2861282,98.5085964" id="Path" stroke="#1E2454" stroke-width="0.5" stroke-linecap="round"></path>
                <path d="M49.4180028,34.7380839 C49.4180028,34.7380839 53.8418271,27.3000597 65.8409845,35.886092 C77.8401419,44.4721243 139.305214,106.010696 84.7713322,110.106148 C30.2374508,114.2016 30.604772,109.57219 30.604772,103.725359 C30.604772,97.8785269 27.8418781,97.1096285 30.604772,95.5878504 C33.3676658,94.0660722 38.1534877,94.8242915 38.1534877,94.8242915 C38.1534877,94.8242915 35.4917403,87.9202245 44.1956544,90.6701042 C53.3307716,93.5534733 81.4920594,83.381588 81.4920594,83.381588 C81.4920594,83.381588 54.4912934,59.0758547 50.0834397,52.6096326 C43.2906602,42.6887072 49.4180028,34.7380839 49.4180028,34.7380839 Z" id="Path" fill="#8FB8CC" fill-rule="nonzero"></path>
                <path d="M50.0569404,101.562832 C50.0633634,98.1411339 49.7352851,94.7270419 49.0772992,91.3695882 C47.4215202,91.3492171 45.7753233,91.114105 44.1796839,90.6701042 C38.8189246,88.9774598 37.7648726,90.9424224 37.7542256,92.6991417 C37.7543221,93.2197435 37.5456201,93.7184988 37.1751195,94.0830878 C36.8046189,94.4476767 36.3034702,94.6474456 35.7845325,94.6374065 C34.187484,94.605369 33.3037839,93.2384385 31.8025583,94.0660722 C29.034341,95.5878504 30.5675075,97.8731873 30.5888015,103.725359 C30.5888015,107.820811 30.4397436,111.296872 49.1039166,111.606567 C49.7448594,108.297476 50.0639916,104.933786 50.0569404,101.562832 Z" id="Path" fill="#EFCE95" fill-rule="nonzero"></path>
                <path d="M49.1039166,111.606567 C49.7448594,108.297476 50.0639916,104.933786 50.0568222,101.562832" id="Path" stroke="#1E2454" stroke-width="0.5" stroke-linecap="round"></path>
                <path d="M75.2688939,110.741557 C42.8488102,112.786613 33.9638972,111.088629 31.5204131,107.922262 C31.0888227,107.348216 30.8086717,106.67419 30.7059184,105.962639" id="Path" stroke="#1E2454" stroke-width="0.5" stroke-linecap="round"></path>
                <path d="M44.1796839,90.6701042 C53.3148011,93.5534733 81.4760889,83.381588 81.4760889,83.381588" id="Path" stroke="#1E2454" stroke-width="0.5" stroke-linecap="round"></path>
                <path d="M34.5760991,94.3704279 C33.5930716,93.699619 32.3011478,93.699619 31.3181203,94.3704279 C29.6252489,95.5237755 29.497485,97.4940777 32.2231144,98.5085964" id="Path" stroke="#1E2454" stroke-width="0.5" stroke-linecap="round"></path>
                <path d="M30.1522749,97.8945456 C30.1522749,97.8945456 29.7210718,100.094449 30.6846244,101.066252 C31.648177,102.038054 32.143262,101.95796 32.143262,101.95796" id="Path" stroke="#1E2454" stroke-width="0.5" stroke-linecap="round"></path>
                <path d="M30.3279502,100.815292 C30.3279502,100.815292 29.8967472,103.015195 30.8602997,103.992337 C31.8238523,104.969479 32.3136138,104.884046 32.3136138,104.884046" id="Path" stroke="#1E2454" stroke-width="0.5" stroke-linecap="round"></path>
                <path d="M54.1612367,125.847207 C54.1612367,125.847207 57.1370704,132.206637 65.2500766,135.992394" id="Path" stroke="#7F8AC9" stroke-width="0.5" stroke-linecap="round"></path>
                <line x1="0" y1="283.733021" x2="106.288898" y2="283.733021" id="Path" stroke="#1E2454" stroke-width="0.816326531" stroke-linecap="round"></line>
            </g>
        </g>
    </g>
</svg>