<?xml version="1.0" encoding="UTF-8"?>
<svg width="40px" height="41px" viewBox="0 0 40 41" version="1.1" xmlns="http://www.w3.org/2000/svg" xmlns:xlink="http://www.w3.org/1999/xlink">
    <title>Group</title>
    <g id="🖥-[RWD]-Option-Alternative" stroke="none" stroke-width="1" fill="none" fill-rule="evenodd">
        <g id="Landing/v0.2_announcement2" transform="translate(-123.000000, -116.000000)">
            <g id="Group" transform="translate(123.000000, 116.871921)">
                <rect id="Rectangle" fill="#297254" x="0" y="0" width="40" height="39.9562124" rx="4"></rect>
                <g id="campaign_black_24dp" transform="translate(4.000000, 2.996716)">
                    <rect id="Rectangle" x="0" y="0" width="33" height="32.9638752"></rect>
                    <path d="M24.75,15.1084428 C24.75,16.0286843 24.75,16.9351909 24.75,17.8554324 C26.4,17.8554324 28.545,17.8554324 30.25,17.8554324 C30.25,16.9351909 30.25,16.0286843 30.25,15.1084428 C28.545,15.1084428 26.4,15.1084428 24.75,15.1084428 Z" id="Path" fill="#FFFFFF" fill-rule="nonzero"></path>
                    <path d="M22,24.1872434 C23.32,25.1624247 25.03875,26.4535099 26.4,27.469896 C26.95,26.7419438 27.5,26.0002566 28.05,25.2723043 C26.68875,24.2559182 24.97,22.9648331 23.65,21.9759168 C23.1,22.717604 22.55,23.4592912 22,24.1872434 Z" id="Path" fill="#FFFFFF" fill-rule="nonzero"></path>
                    <path d="M28.05,7.69157088 C27.5,6.96361864 26.95,6.22193144 26.4,5.4939792 C25.03875,6.51036535 23.32,7.80145047 22,8.79036672 C22.55,9.51831897 23.1,10.2600062 23.65,10.9879584 C24.97,9.99904215 26.68875,8.72169198 28.05,7.69157088 Z" id="Path" fill="#FFFFFF" fill-rule="nonzero"></path>
                    <path d="M5.5,12.3614532 C3.9875,12.3614532 2.75,13.5975985 2.75,15.1084428 L2.75,17.8554324 C2.75,19.3662767 3.9875,20.602422 5.5,20.602422 L6.875,20.602422 L6.875,26.0964012 L9.625,26.0964012 L9.625,20.602422 L11,20.602422 L17.875,24.7229064 L17.875,8.2409688 L11,12.3614532 L5.5,12.3614532 Z M12.41625,14.7101293 L15.125,13.0894054 L15.125,19.8744698 L12.41625,18.2537459 L11.75625,17.8554324 L11,17.8554324 L5.5,17.8554324 L5.5,15.1084428 L11,15.1084428 L11.75625,15.1084428 L12.41625,14.7101293 Z" id="Shape" fill="#FFFFFF" fill-rule="nonzero"></path>
                    <path d="M21.3125,16.4819376 C21.3125,14.6551895 20.515,13.0069958 19.25,11.88073 L19.25,21.0694102 C20.515,19.9568794 21.3125,18.3086857 21.3125,16.4819376 Z" id="Path" fill="#FFFFFF" fill-rule="nonzero"></path>
                </g>
            </g>
        </g>
    </g>
</svg>