<svg height="400" viewBox="0 0 400 400" width="400" xmlns="http://www.w3.org/2000/svg"><g fill="none" fill-rule="evenodd"><rect fill="#000091" height="400" rx="2" width="400"/><g fill-rule="nonzero" transform="translate(127 72)"><path d="m0 41.3090129v82.3819741l72.3801654 41.309013 72.6198346-41.309013v-82.3819741l-72.6198346-41.3090129z" fill="#fff"/><path d="m12.4285714 47.487661v70.024678l59.972137 35.112661 60.1707206-35.112661v-70.024678l-60.1707206-35.112661z" fill="#000091"/><path d="m97.3680163 51.240871c-.5151748-1.0278229-1.2879366-1.7986901-2.0606987-2.8265133-.772762-1.2847789-1.8031115-2.3126018-2.0606989-3.8543364-.5151747-1.5417347 0-2.8265133 0-4.3682479 0-2.8265136-.7727621-5.6530268-1.5455239-8.2225843-.5151747-1.284779-.7727621-2.8265136-1.2879368-4.1112924-.2575873-.7708673-.5151747-1.5417346-1.0303494-2.3126018-.2575874-.2569558-.2575874-1.0278231 0-1.2847789.7727621-.5139115 1.5455241-1.2847788 2.0606989-1.7986903.5151747-1.027823 0-2.3126019-.7727621-2.8265134-1.2879368-.5139115-1.0303495 1.2847788-2.0606989 1.7986904-.2575871 0-.2575871 0-.5151745 0-.2575873-.5139116.2575874-.7708673.5151745-1.0278231 0-.2569558 0-.5139115-.2575871-.5139115-.7727621 0-1.5455242-.2569558-1.8031115-.5139116-2.0606987-2.5695576-4.6365723-3.8543364-7.470033-4.8821594.7727621.2569557 1.5455242.2569557 2.318286.2569557 1.2879368.2569558 2.833461 0 3.8638101-.5139115 1.0303495-.5139115 1.0303495-1.7986904 1.2879369-2.8265134.2575873-.2569557 0-.5139115 0-1.027823 0-.51391157-.5151748-1.02782308-.7727621-1.54173461 0 0-.2575874-.25695575-.5151748-.77086729-2.0606986-2.31260186-10.0459063-8.99345169-24.9859722-7.96562864-6.4396838.51391152-14.4248915 2.31260186-23.6980357 6.9378056-.2575874 0-.5151748.25695575-1.0303495.25695575-1.5455242.77086729-3.6062228 2.05564611-4.8941596 3.59738069-1.545524 1.7986903-2.8334608 3.8543364-3.3486354 6.1669383-2.3182862 1.5417346-3.8638102 3.8543364-5.1517469 6.1669383-1.5455241 3.0834691-3.6062229 5.6530268-3.6062229 8.9934518v.5139114c.2575874 1.0278229.2575874 1.7986904.5151747 2.8265133.5151747 2.0556461 1.0303494 4.1112921 1.2879367 6.1669385.2575874 1.0278229.5151747 2.0556461.7727621 3.083469.5151747 1.0278232 0 2.3126018.772762 3.340425.2575874.5139114.2575874 1.2847789 1.0303494 1.5417346v.7708672c.2575873.2569557.2575873.2569557.5151747.2569557v.7708675c1.545524 1.7986901 3.3486355 3.3404247 4.3789848 5.3960708.5151747 1.0278232-1.8031114.5139117-2.8334608.2569557-1.8031114-.7708672-3.0910481-2.3126018-4.6365722-3.5973804 0 0-.2575873.2569557-.2575873.2569557.772762 1.2847786 3.6062228 2.8265132 2.0606988 3.8543364-.7727621.5139115-1.8031115-.5139117-2.3182861.2569558-.2575874.2569557 0 .7708671 0 1.0278229-1.0303494-.7708672-2.3182862-.2569558-3.3486355-.7708672-.7727621-.2569557-1.0303494-1.5417347-1.8031114-1.5417347-2.3182861-.5139114-4.6365723-1.0278228-7.2124457-1.0278228-.25758734 0-.5151747 0-.5151747 0-2.3182861-.2569558-4.6365722-.5139118-6.69727095-.2569558v2.5695576c2.06069875-.5139115 4.12139752-1.0278232 6.18209628-1.0278232h.51517467c.5151747 0 1.28793673-.2569558 1.80311143 0-.77276203 0-1.80311143 0-2.57587346.2569557-2.06069874.256956-4.12139751 1.0278232-6.18209627 1.7986904v2.5695578c1.03034938.2569557 2.3182861.2569557 3.34863547.5139114 1.28793673.2569558 2.57587346.5139115 3.86381019 1.0278232 1.80311141.5139115 3.09104814 1.2847786 4.63657224 2.0556461.772762.5139114 1.0303493 1.0278229 1.8031114 1.5417343 1.0303494.5139118 2.3182861.5139118 3.0910481 0h1.0303494c2.8334608-.7708671 5.6669216-1.5417343 7.470033-3.8543364 0 .256956.2575873.256956.2575873.256956-.5151747 1.5417344-.5151747 3.083469-1.545524 4.6252036 0 .2569558-.2575874.5139115.2575873.7708672h.2575874c-.2575874 0-.2575874 0-.2575874.2569557 0 .256956.5151747 0 .772762.256956-1.0303493.2569558-1.8031114.5139115-2.3182861 1.2847787 0 .2569557.2575874.2569557.5151747.2569557-.2575873.256956-1.0303493.256956-1.0303493.5139117 0 0 .2575873.2569558.2575873.2569558-.2575873 0-.2575873 0-.2575873.2569557v.5139114c-.5151747 0-.7727621.5139115-1.0303494.5139115.772762.5139117 1.2879367 0 2.0606987 0-2.0606987.7708674-3.6062228 2.055646-5.6669216 2.5695578-.2575873 0 0 .5139114-.2575873.5139114.5151747.2569558 1.0303494-.2569557 1.5455241-.2569557-1.0303494.7708672-2.0606988 1.2847789-3.0910482 1.7986904l6.1820963 3.5973807c2.5758735-1.5417346 4.8941596-3.340425 6.9548583-5.6530268 0 0 .2575874.2569557.2575874.2569557-.5151747 1.7986904-1.5455241 3.083469-3.0910482 4.3682479-1.0303494.5139114-1.8031114 1.5417346-2.5758734 1.7986904l4.6365722 2.5695575c1.0303494-.7708672 1.8031114-1.2847786 3.0910481-1.7986904.2575874 0 .5151747.2569561 1.0303495.2569561 1.5455238-1.5417347 3.3486354-3.340425 5.9245087-2.8265136 0 .2569557 0 .2569557.2575874.2569557s.2575874 0 .2575874-.2569557c0 .2569557 0 .2569557-.2575874.2569557-.7727621.5139118-1.2879365 1.0278232-2.0606986 1.5417347-.2575874.2569557 0 .2569557.2575874.2569557 1.0303491-.5139115 1.5455238-1.0278229 2.3182859-1.5417347-.2575873.2569561-.2575873.5139118-.2575873.7708675-2.318286 1.7986904-4.1213976 3.5973807-5.9245088 5.6530268l24.4707975 14.1325666c.7727621-1.0278229 1.8031116-2.5695573 2.833461-3.8543362 4.6365723-6.6808497 11.3338432-15.6743015 13.3945418-17.7299475.7727621-.5139115 1.5455242-.5139115 2.5758736-.7708675 3.0910481 0 6.4396835.7708675 9.5307316 1.0278232.2575874 0 .7727621.2569557 1.0303495.2569557 1.0303494.2569557 2.3182859 0 3.6062228-.2569557 1.2879368-.5139115 2.8334607-1.2847789 3.3486354-2.8265133.5151747-1.2847789.7727621-2.8265135 0-4.1112924-1.2879365-1.5417344 1.0303495-2.3126018 1.8031115-3.3404247.5151748-1.0278232-.5151747-1.5417347-.5151747-2.3126018-.2575873-.2569561-1.0303494-.2569561-1.2879368-.7708675 1.2879368-.5139115 3.3486354-1.7986904 2.3182863-3.340425-.5151748-1.0278229-1.5455242-2.3126018-.5151748-3.3404247 1.2879366-.7708675 3.3486355-.7708675 3.8638102-2.0556461 1.5455242-2.5695578-.7727621-4.3682482-1.8031115-6.1669385zm-7.9852077-9.2504072c-.2575874.2569557.5151747.5139114.5151747 1.0278228-.2575874.2569558-.7727621.5139115-1.0303495.5139115-.2575873.256956-.7727618.7708675-1.0303491 1.0278232.2575873 0 0 .5139114.5151747.5139114-.7727621 1.0278232.5151744 2.8265136-.7727621 3.0834693-1.2879368.5139114-2.833461.5139114-4.3789849 0 .7727621-.2569557 1.8031113.2569557 2.318286-.5139114 0-.2569561 0-.5139118 0-.7708675s-.2575874-.2569557-.2575874-.2569557c-.2575873.2569557-.2575873.2569557-.2575873.2569557 0-.2569557-.5151745-.7708672-.5151745-.7708672-1.0303494.2569557-2.0606989-.2569557-2.833461-1.0278232.5151748-.2569557 1.0303495-.5139114 1.8031116-.2569557.5151747 0 .2575873-1.0278229.7727621-1.2847789h.5151744c1.0303495-1.5417343 3.3486357-2.0556461 3.6062231-3.3404247 0-.2569557-1.0303495-.2569557-1.8031115-.5139118-1.0303495-.2569557-2.0606987 0-3.0910481 0-1.5455242.5139118-2.8334607.5139118-4.1213975 1.284779 1.0303494-.7708672 2.3182859-1.5417347 3.6062228-2.0556461 1.0303494-.2569557 1.8031112-.7708672 2.8334607-.7708672 1.0303494-.2569557 2.3182862-.5139117 3.091048-.2569557 1.0303495.2569557 2.3182863.2569557 2.5758737.7708672-.2575874 1.5417346-1.0303495 2.5695575-2.0606989 3.340425z" fill="#fff" transform="translate(4.919643 48.88889)"/></g><g fill="#f5f5fe" font-size="50" transform="translate(49 262)"><text font-family="Roboto-Italic, Roboto" font-style="italic"><tspan x=".514952" y="46">Dossier</tspan></text><text font-family="Roboto-Bold, Roboto" font-weight="bold"><tspan x="167.980673" y="46">Facile</tspan></text></g></g></svg>