<?xml version="1.0" encoding="UTF-8"?><svg xmlns="http://www.w3.org/2000/svg" xmlns:svg="http://www.w3.org/2000/svg" width="400" height="400" version="1.2" baseProfile="tiny-ps"><title>DossierFacile</title><g fill="none" fill-rule="evenodd" id="svg_1"><rect height="400" id="svg_2" rx="2" width="400" fill="#000091"></rect><g fill-rule="nonzero" id="svg_3" transform="translate(127 72)"><path d="m0,41.31l0,82.38l72.38,41.31l72.62,-41.31l0,-82.38l-72.62,-41.31l-72.38,41.31z" fill="#fff" id="svg_4"></path><path d="m12.43,47.49l0,70.02l59.97,35.12l60.17,-35.12l0,-70.02l-60.17,-35.11l-59.97,35.11z" fill="#000091" id="svg_5"></path><path d="m97.37,51.24c-0.52,-1.03 -1.29,-1.8 -2.06,-2.83c-0.78,-1.28 -1.81,-2.31 -2.06,-3.85c-0.52,-1.54 0,-2.83 0,-4.37c0,-2.82 -0.78,-5.65 -1.55,-8.22c-0.51,-1.29 -0.77,-2.83 -1.29,-4.11c-0.25,-0.77 -0.51,-1.54 -1.03,-2.31c-0.25,-0.26 -0.25,-1.03 0,-1.29c0.78,-0.51 1.55,-1.28 2.06,-1.8c0.52,-1.03 0,-2.31 -0.77,-2.82c-1.29,-0.52 -1.03,1.28 -2.06,1.79c-0.26,0 -0.26,0 -0.52,0c-0.25,-0.51 0.26,-0.77 0.52,-1.02c0,-0.26 0,-0.52 -0.26,-0.52c-0.77,0 -1.54,-0.25 -1.8,-0.51c-2.06,-2.57 -4.64,-3.86 -7.47,-4.88c0.77,0.25 1.54,0.25 2.32,0.25c1.29,0.26 2.83,0 3.86,-0.51c1.03,-0.51 1.03,-1.8 1.29,-2.83c0.26,-0.25 0,-0.51 0,-1.03c0,-0.51 -0.52,-1.02 -0.77,-1.54c0,0 -0.26,-0.25 -0.52,-0.77c-2.06,-2.31 -10.04,-8.99 -24.98,-7.96c-6.44,0.51 -14.43,2.31 -23.7,6.93c-0.26,0 -0.52,0.26 -1.03,0.26c-1.55,0.77 -3.61,2.06 -4.9,3.6c-1.54,1.8 -2.83,3.85 -3.35,6.17c-2.31,1.54 -3.86,3.85 -5.15,6.16c-1.54,3.09 -3.6,5.66 -3.6,9l0,0.51c0.25,1.03 0.25,1.8 0.51,2.83c0.52,2.05 1.03,4.11 1.29,6.16c0.26,1.03 0.51,2.06 0.77,3.09c0.52,1.02 0,2.31 0.77,3.34c0.26,0.51 0.26,1.28 1.04,1.54l0,0.77c0.25,0.26 0.25,0.26 0.51,0.26l0,0.77c1.55,1.8 3.35,3.34 4.38,5.39c0.51,1.03 -1.8,0.52 -2.83,0.26c-1.81,-0.77 -3.1,-2.31 -4.64,-3.6c0,0 -0.26,0.26 -0.26,0.26c0.77,1.29 3.61,2.83 2.06,3.85c-0.77,0.52 -1.8,-0.51 -2.32,0.26c-0.25,0.26 0,0.77 0,1.03c-1.03,-0.77 -2.31,-0.26 -3.34,-0.77c-0.78,-0.26 -1.03,-1.54 -1.81,-1.54c-2.32,-0.52 -4.63,-1.03 -7.21,-1.03c-0.26,0 -0.52,0 -0.52,0c-2.31,-0.26 -4.63,-0.51 -6.69,-0.26l0,2.57c2.06,-0.51 4.12,-1.03 6.18,-1.03l0.51,0c0.52,0 1.29,-0.25 1.81,0c-0.77,0 -1.81,0 -2.58,0.26c-2.06,0.26 -4.12,1.03 -6.18,1.8l0,2.57c1.03,0.26 2.32,0.26 3.35,0.51c1.29,0.26 2.57,0.52 3.86,1.03c1.81,0.51 3.09,1.29 4.64,2.06c0.77,0.51 1.03,1.02 1.8,1.54c1.03,0.51 2.32,0.51 3.09,0l1.03,0c2.84,-0.77 5.67,-1.54 7.47,-3.86c0,0.26 0.26,0.26 0.26,0.26c-0.51,1.54 -0.51,3.08 -1.54,4.63c0,0.25 -0.26,0.51 0.25,0.77l0.26,0c-0.26,0 -0.26,0 -0.26,0.25c0,0.26 0.52,0 0.78,0.26c-1.03,0.26 -1.81,0.51 -2.32,1.29c0,0.25 0.26,0.25 0.51,0.25c-0.25,0.26 -1.03,0.26 -1.03,0.52c0,0 0.26,0.25 0.26,0.25c-0.26,0 -0.26,0 -0.26,0.26l0,0.51c-0.51,0 -0.77,0.52 -1.03,0.52c0.77,0.51 1.29,0 2.06,0c-2.06,0.77 -3.6,2.05 -5.66,2.57c-0.26,0 0,0.51 -0.26,0.51c0.51,0.26 1.03,-0.26 1.54,-0.26c-1.03,0.78 -2.06,1.29 -3.09,1.8l6.18,3.6c2.58,-1.54 4.9,-3.34 6.96,-5.65c0,0 0.26,0.25 0.26,0.25c-0.52,1.8 -1.55,3.09 -3.09,4.37c-1.03,0.52 -1.81,1.54 -2.58,1.8l4.64,2.57c1.03,-0.77 1.8,-1.28 3.09,-1.8c0.26,0 0.51,0.26 1.03,0.26c1.54,-1.54 3.35,-3.34 5.92,-2.83c0,0.26 0,0.26 0.26,0.26s0.26,0 0.26,-0.26c0,0.26 0,0.26 -0.26,0.26c-0.77,0.51 -1.29,1.03 -2.06,1.54c-0.26,0.26 0,0.26 0.26,0.26c1.03,-0.52 1.54,-1.03 2.32,-1.54c-0.26,0.25 -0.26,0.51 -0.26,0.77c-2.32,1.8 -4.12,3.6 -5.93,5.65l24.47,14.13c0.78,-1.02 1.81,-2.57 2.84,-3.85c4.63,-6.68 11.33,-15.68 13.39,-17.73c0.78,-0.51 1.55,-0.51 2.58,-0.77c3.09,0 6.44,0.77 9.53,1.03c0.26,0 0.77,0.25 1.03,0.25c1.03,0.26 2.32,0 3.61,-0.25c1.28,-0.52 2.83,-1.29 3.34,-2.83c0.52,-1.29 0.78,-2.83 0,-4.11c-1.28,-1.54 1.03,-2.31 1.81,-3.34c0.51,-1.03 -0.52,-1.54 -0.52,-2.31c-0.26,-0.26 -1.03,-0.26 -1.29,-0.78c1.29,-0.51 3.35,-1.79 2.32,-3.34c-0.51,-1.02 -1.54,-2.31 -0.51,-3.34c1.29,-0.77 3.35,-0.77 3.86,-2.05c1.55,-2.57 -0.77,-4.37 -1.8,-6.17zm-7.99,-9.25c-0.25,0.26 0.52,0.51 0.52,1.03c-0.26,0.26 -0.77,0.51 -1.03,0.51c-0.26,0.26 -0.78,0.77 -1.03,1.03c0.25,0 0,0.51 0.51,0.51c-0.77,1.03 0.52,2.83 -0.77,3.09c-1.29,0.51 -2.83,0.51 -4.38,0c0.77,-0.26 1.8,0.25 2.32,-0.52c0,-0.25 0,-0.51 0,-0.77s-0.26,-0.25 -0.26,-0.25c-0.26,0.25 -0.26,0.25 -0.26,0.25c0,-0.25 -0.51,-0.77 -0.51,-0.77c-1.03,0.26 -2.06,-0.26 -2.83,-1.03c0.51,-0.25 1.03,-0.51 1.8,-0.25c0.51,0 0.26,-1.03 0.77,-1.29l0.52,0c1.03,-1.54 3.34,-2.05 3.6,-3.34c0,-0.26 -1.03,-0.26 -1.8,-0.51c-1.03,-0.26 -2.06,0 -3.09,0c-1.55,0.51 -2.84,0.51 -4.12,1.28c1.03,-0.77 2.32,-1.54 3.6,-2.05c1.03,-0.26 1.81,-0.77 2.84,-0.77c1.03,-0.26 2.31,-0.52 3.09,-0.26c1.03,0.26 2.32,0.26 2.57,0.77c-0.25,1.54 -1.03,2.57 -2.06,3.34z" fill="#fff" id="svg_6" transform="translate(4.919643 48.88889)"></path></g><g fill="#f5f5fe" font-size="50" id="svg_7" transform="translate(49 262)"><text font-family="Roboto-Italic, Roboto" font-style="italic" id="svg_8" x="-22" y="46">Dossier</text><text font-family="Roboto-Bold, Roboto" font-weight="bold" id="svg_10" x="167.98" y="46">Facile</text></g></g></svg>