<?xml version="1.0" encoding="UTF-8"?>
<svg width="328px" height="488px" viewBox="0 0 328 488" version="1.1" xmlns="http://www.w3.org/2000/svg" xmlns:xlink="http://www.w3.org/1999/xlink">
    <title>Group 20</title>
    <defs>
        <filter x="-55.5%" y="-30.0%" width="210.8%" height="160.0%" filterUnits="objectBoundingBox" id="filter-1">
            <feMorphology radius="4" operator="erode" in="SourceAlpha" result="shadowSpreadOuter1"></feMorphology>
            <feOffset dx="0" dy="18" in="shadowSpreadOuter1" result="shadowOffsetOuter1"></feOffset>
            <feGaussianBlur stdDeviation="17.5" in="shadowOffsetOuter1" result="shadowBlurOuter1"></feGaussianBlur>
            <feColorMatrix values="0 0 0 0 0   0 0 0 0 0   0 0 0 0 0  0 0 0 0.25 0" type="matrix" in="shadowBlurOuter1" result="shadowMatrixOuter1"></feColorMatrix>
            <feMerge>
                <feMergeNode in="shadowMatrixOuter1"></feMergeNode>
                <feMergeNode in="SourceGraphic"></feMergeNode>
            </feMerge>
        </filter>
        <path d="M123.646004,229.16743 C181.682907,229.16743 228.731114,182.122262 228.731114,124.089107 C228.731114,66.0559511 181.682907,19.0107833 123.646004,19.0107833 C65.6090996,19.0107833 18.560893,66.0559511 18.560893,124.089107 C18.560893,182.122262 65.6090996,229.16743 123.646004,229.16743 Z" id="path-2"></path>
        <mask id="mask-3" maskContentUnits="userSpaceOnUse" maskUnits="objectBoundingBox" x="0" y="0" width="210.170221" height="210.156647" fill="white">
            <use xlink:href="#path-2"></use>
        </mask>
        <path d="M123.647967,218.56734 C175.880786,218.56734 218.221888,176.228332 218.221888,123.998098 C218.221888,71.767863 175.876859,29.4249288 123.64404,29.4249288 C71.4112214,29.4249288 29.0701186,71.7639366 29.0701186,123.994171 C29.0701186,176.224406 71.4151478,218.56734 123.647967,218.56734 Z" id="path-4"></path>
        <mask id="mask-5" maskContentUnits="userSpaceOnUse" maskUnits="objectBoundingBox" x="0" y="0" width="189.15177" height="189.142411" fill="white">
            <use xlink:href="#path-4"></use>
        </mask>
        <path d="M123.993613,213.316244 C173.322791,213.316244 213.314666,173.323402 213.314666,123.99303 C213.314666,74.6626575 173.32814,34.6751641 123.998962,34.6751641 C74.6697832,34.6751641 34.6779084,74.6680065 34.6779084,123.998379 C34.6779084,173.328751 74.6644342,213.316244 123.993613,213.316244 Z" id="path-6"></path>
        <mask id="mask-7" maskContentUnits="userSpaceOnUse" maskUnits="objectBoundingBox" x="0" y="0" width="178.636758" height="178.64108" fill="white">
            <use xlink:href="#path-6"></use>
        </mask>
    </defs>
    <g id="5_MonDossier-+-Lien-Dossier" stroke="none" stroke-width="1" fill="none" fill-rule="evenodd">
        <g id="[RWD]/Proprietaire/Candidatures/Details/v0.3_BlocProprietaire1-Copy-4" transform="translate(-781.000000, -2653.000000)">
            <g id="Group-20" transform="translate(816.715816, 2652.996287)">
                <g id="Bras-en-l'air" filter="url(#filter-1)" transform="translate(40.278483, 86.260910)">
                    <path d="M96.753077,131.621753 L71.8122091,171.452388 C71.8122091,171.452388 99.0234864,185.477259 86.7016101,204.551084 C74.3797338,223.624909 22.50228,212.966007 22.50228,212.966007 L1.76026804,260.089575 L19.0265915,251.113657 C19.0265915,251.113657 121.710763,276.852101 140.675689,223.063914 C159.735916,169.113039 96.753077,131.621753 96.753077,131.621753 Z" id="Path" fill="#257ED6" fill-rule="nonzero"></path>
                    <path d="M94.774177,255.422097 C100.317929,254.310357 105.729423,252.618059 110.919311,250.373144 C110.179325,218.531076 104.825644,179.850481 87.4135657,146.532996 L71.8122091,171.452388 C71.8122091,171.452388 99.0234864,185.477259 86.7016101,204.551084 C83.1418324,210.054444 76.2857565,213.083816 68.3365206,214.604112 C72.8997632,226.79453 75.1869905,241.980661 76.1848495,257.189231 C82.4141453,257.022361 88.6249028,256.431955 94.774177,255.422097 L94.774177,255.422097 Z" id="Path" fill="#1E2454" fill-rule="nonzero"></path>
                    <path d="M88.372183,123.20683 L53.508785,127.509661 C53.508785,127.509661 37.6327369,160.608357 66.4921633,204.926951 C89.2635289,239.86571 89.3868598,325.164978 89.3868598,325.164978 L129.957114,325.164978 L121.968636,313.759952 C121.968636,313.759952 144.515764,194.997342 88.372183,123.20683 Z" id="Path" fill="#257ED6" fill-rule="nonzero"></path>
                    <line x1="88.372183" y1="123.20683" x2="53.5256028" y2="127.509661" id="Path" stroke="#ACD9EA" stroke-width="0.5" stroke-linecap="round"></line>
                    <path d="M89.3868598,325.164978 L129.957114,325.164978 L121.968636,313.759952 C121.968636,313.759952 134.116728,249.74483 118.358405,187.300492" id="Path" stroke="#ACD9EA" stroke-width="0.5" stroke-linecap="round"></path>
                    <path d="M168.778312,24.224898 C168.778312,24.224898 179.928545,13.8184434 175.505451,10.373935 C171.637346,7.37261253 169.787383,14.2504094 161.76527,14.300899 C153.743156,14.3513885 143.439422,24.6961336 147.318739,31.9946767 C151.198056,39.2932198 168.811948,32.3537134 168.811948,32.3537134" id="Path" fill="#BCB2B1" fill-rule="nonzero"></path>
                    <path d="M147.301921,31.966627 C151.181238,39.2595601 168.79513,32.3256637 168.79513,32.3256637" id="Path" stroke="#1E2454" stroke-width="0.5" stroke-linecap="round"></path>
                    <path d="M170.751606,22.2277563 C173.728365,19.0300856 178.706448,12.8703621 175.488633,10.373935 C171.620528,7.37261253 169.770565,14.2504094 161.748452,14.300899 C159.012749,14.300899 156.013566,15.5182578 153.401194,17.4032005" id="Path" stroke="#1E2454" stroke-width="0.5" stroke-linecap="round"></path>
                    <path d="M95.4132552,64.998004 C95.4132552,64.998004 156.691886,76.9640243 147.301921,31.966627 C147.301921,31.966627 157.51596,34.2442661 168.778312,24.224898 C168.778312,24.224898 181.37488,61.3347076 157.773834,84.0942689 C134.172788,106.85383 90.9677375,95.314166 90.9677375,95.314166" id="Path" fill="#1E2454" fill-rule="nonzero"></path>
                    <path d="M155.183885,25.3244479 C155.183885,25.3244479 157.173997,20.1464654 155.74448,18.8281275 C155.74448,18.8281275 158.945477,20.0118266 159.668645,18.0371247 C160.391812,16.0624228 156.86567,14.0652811 153.597402,14.9853127 C150.329133,15.9053443 146.388151,21.9192091 146.567542,27.1925607" id="Path" fill="#BCB2B1" fill-rule="nonzero"></path>
                    <path d="M155.183885,25.3244479 C155.183885,25.3244479 157.173997,20.1464654 155.74448,18.8281275 C155.74448,18.8281275 158.945477,20.0118266 159.668645,18.0371247 C160.391812,16.0624228 156.86567,14.0652811 153.597402,14.9853127 C150.329133,15.9053443 146.388151,21.9192091 146.567542,27.1925607" id="Path" stroke="#1E2454" stroke-width="0.5" stroke-linecap="round"></path>
                    <path d="M77.894664,49.9128524 C77.894664,49.9128524 69.9566399,42.1879532 75.0916894,34.9174599 C80.7761218,26.8840136 96.8595901,24.4268561 102.347814,29.8965559 C107.836039,35.3662558 100.436186,46.90031 100.436186,46.90031" id="Path" fill="#739955" fill-rule="nonzero"></path>
                    <ellipse id="Oval" fill="#1E2454" fill-rule="nonzero" cx="97.2968541" cy="38.5639265" rx="3.94658823" ry="3.94940378"></ellipse>
                    <path d="M101.719948,46.7656712 C102.364632,47.7418023 102.224483,50.4682373 98.2050179,50.9450829 L97.4594266,49.5425958 C97.8406312,45.5090428 100.553911,45.049027 101.719948,46.7656712 Z" id="Path" fill="#BCB2B1" fill-rule="nonzero"></path>
                    <path d="M100.968751,49.9128524 C101.954944,49.1878104 102.264526,47.8508903 101.697524,46.7656712 C100.671636,45.2285453 98.4012261,45.4361134 97.638817,48.3757265" id="Path" stroke="#1E2454" stroke-width="0.5" stroke-linecap="round"></path>
                    <path d="M100.453003,47.551064 C100.211743,47.5591379 99.9772393,47.6328362 99.7746836,47.7642421 C99.5840814,47.876441 99.404691,48.0391295 99.1299995,48.2018181 C99.1233127,48.0459155 99.1581362,47.8910341 99.2309066,47.7530222 C99.3083469,47.6115741 99.4201751,47.4919483 99.5560516,47.4052054 C99.7015553,47.3146489 99.8737873,47.2770082 100.043769,47.2986163 C100.211144,47.3169933 100.3614,47.4096829 100.453003,47.551064 L100.453003,47.551064 Z" id="Path" fill="#1E2454" fill-rule="nonzero"></path>
                    <path d="M99.9204383,50.6870253 C99.6184035,48.0947895 99.7072211,45.4718554 100.183918,42.9060266 C100.183918,42.9060266 101.501316,34.9342897 92.5149794,34.9173918 C77.5919427,34.8838002 79.3634226,47.332276 80.5911255,51.7473055 L80.5911255,51.803405 C80.652791,52.0109731 80.7088505,52.2073213 80.7649099,52.3643999 C80.8209694,52.5214784 80.8041516,52.4822088 80.7985456,52.4373292 C82.3277933,57.4793496 87.1805395,60.7574072 92.4252843,60.2912572 C98.4236499,59.8985608 100.744513,55.6349999 99.9204383,50.6870253 Z" id="Path" fill="#BCB2B1" fill-rule="nonzero"></path>
                    <path d="M101.243442,37.3297378 L99.7130182,33.8235199 L93.3558718,31.5795405 L77.4181583,37.1165597 C77.4181583,37.1165597 76.1568197,50.7936143 79.8062926,48.2018181 C83.4557656,45.6100218 82.6092672,41.3969505 82.6092672,41.3969505 C93.7707121,40.9930342 101.243442,37.3297378 101.243442,37.3297378 Z" id="Path" fill="#739955" fill-rule="nonzero"></path>
                    <path d="M101.243442,37.3297378 C101.243442,37.3297378 93.7707121,40.9762043 82.6036613,41.3969505 C82.6036613,41.3969505 83.4557656,45.6100218 79.8006867,48.2018181" id="Path" stroke="#1E2454" stroke-width="0.5" stroke-linecap="round"></path>
                    <path d="M89.3139825,42.9565162 C88.1524323,42.7378736 86.9517224,42.992323 85.9784427,43.6633697" id="Path" stroke="#1E2454" stroke-width="0.857142857" stroke-linecap="round"></path>
                    <path d="M93.7426823,43.9831367 C93.6529871,44.8470688 93.5801098,45.6661213 93.557686,46.4851738 C93.510971,46.8996802 93.5203995,47.318601 93.5857157,47.7305824 C93.6830908,48.1430281 93.8750143,48.527149 94.1463107,48.8525721 C94.2747888,49.0127064 94.4153497,49.1627449 94.5667568,49.301368 C94.7530471,49.4659755 94.89885,49.6713971 94.992809,49.9016325 C95.0900129,50.1726855 95.075902,50.4712428 94.9535673,50.7319048 C94.8369989,50.9510898 94.6744498,51.1424605 94.4770617,51.2928997 C94.0939013,51.5955213 93.6197526,51.7596147 93.1316339,51.7585254 C92.6541798,51.7735259 92.1996839,51.5534516 91.9151429,51.1694808 C91.908133,51.1573308 91.908133,51.1423613 91.9151429,51.1302112 L91.9431726,51.1302112 C92.2789008,51.3347356 92.6807728,51.4010918 93.0643625,51.3153395 C93.4323935,51.2465692 93.7751374,51.0799195 94.0566155,50.8328839 C94.3425189,50.5860462 94.5387271,50.3111587 94.4602438,50.0362712 C94.4000508,49.865766 94.3088164,49.7078941 94.1911582,49.5706455 C94.0621339,49.3943326 93.9495433,49.2065476 93.8548013,49.0096506 C93.6717097,48.6125555 93.5144163,48.2040504 93.3839016,47.7866819 C93.2367206,47.3696248 93.1297208,46.9394416 93.0643625,46.5020036 C92.9933465,45.6172203 93.2011586,44.7324081 93.6585931,43.9719168 C93.6694923,43.9612259 93.6869355,43.9612259 93.6978347,43.9719168 C93.7047538,43.965788 93.7142467,43.9634654 93.7232111,43.9657081 C93.7321754,43.9679508 93.7394594,43.9744706 93.7426823,43.9831367 Z" id="Path" fill="#1E2454" fill-rule="nonzero"></path>
                    <path d="M94.992809,42.9565162 C95.9329368,42.6844999 96.942846,42.801733 97.7957836,43.2818932" id="Path" stroke="#1E2454" stroke-width="0.857142857" stroke-linecap="round"></path>
                    <ellipse id="Oval" fill="#EDBDBC" fill-rule="nonzero" cx="97.4426088" cy="50.1035906" rx="1.23891477" ry="1.23979863"></ellipse>
                    <ellipse id="Oval" fill="#EDBDBC" fill-rule="nonzero" cx="86.2194985" cy="50.283109" rx="1.31179211" ry="1.31272796"></ellipse>
                    <path d="M94.4602438,50.2999388 C94.4602438,50.2999388 94.2696415,50.8609337 93.120422,50.6140959 C92.1001392,50.3784781 91.6012097,51.0348421 92.0608976,51.3546091 C92.6417319,51.7130044 93.374874,51.7130044 93.9557084,51.3546091 C94.2045853,51.1503799 94.4103911,50.8986601 94.5611509,50.6140959" id="Path" fill="#1E2454" fill-rule="nonzero"></path>
                    <path d="M90.6313805,53.0319838 C91.6041166,53.5402946 92.749276,53.6016862 93.7707121,53.2002822" id="Path" stroke="#1E2454" stroke-width="0.5" stroke-linecap="round"></path>
                    <path d="M76.3193922,47.9605903 C75.8709163,49.08258 76.5940837,51.8370647 80.8041516,51.4555882 L80.8041516,51.3882688 C81.2475245,49.9629082 80.8679626,48.4090473 79.8175045,47.3491059 C78.4776827,46.0756476 76.8799872,46.5468832 76.3193922,47.9605903 Z" id="Path" fill="#BCB2B1" fill-rule="nonzero"></path>
                    <path d="M80.7873337,51.4555882 C76.5940837,51.8370647 75.8709163,49.0937999 76.3025744,47.9605903 C77.008924,46.1766266 79.3690286,45.8961292 80.7873337,48.7291532" id="Path" stroke="#1E2454" stroke-width="0.5" stroke-linecap="round"></path>
                    <path d="M77.7545152,48.4935354 C77.815922,48.3320276 77.9482813,48.2078522 78.113296,48.1569385 C78.2796491,48.0950458 78.4626902,48.0950458 78.6290433,48.1569385 C78.7860203,48.2130455 78.9253045,48.3098397 79.0326716,48.4374359 C79.136785,48.5596777 79.2081575,48.7063853 79.2400918,48.863792 C78.9261586,48.757203 78.7075266,48.6225642 78.4888946,48.5496349 C78.2537105,48.4646562 77.9998638,48.4452648 77.7545152,48.4935354 Z" id="Path" fill="#1E2454" fill-rule="nonzero"></path>
                    <ellipse id="Oval" fill="#1E2454" fill-rule="nonzero" transform="translate(96.406881, 46.884487) rotate(-7.430000) translate(-96.406881, -46.884487) " cx="96.4068809" cy="46.8844873" rx="1" ry="1"></ellipse>
                    <ellipse id="Oval" fill="#1E2454" fill-rule="nonzero" transform="translate(87.402858, 46.909118) rotate(-7.480886) translate(-87.402858, -46.909118) " cx="87.4028583" cy="46.9091176" rx="1" ry="1"></ellipse>
                    <path d="M81.6001964,62.7540246 C84.6642655,65.1723991 88.6882145,66.0039571 92.4589199,64.998004 C94.3861648,64.4508605 96.4589081,64.9603559 97.9135085,66.3387817 C107.292261,75.3764088 105.324573,90.1642332 106.384098,117.260285 C106.619548,123.150731 106.748484,128.867268 106.726061,134.325748 C106.718139,136.013181 105.529988,137.464322 103.878238,137.803916 C97.083828,139.183964 92.6214925,139.688859 84.397565,140.008626 C74.4447802,140.411813 64.4763179,139.855736 54.6299748,138.348081 C51.7772849,137.909612 49.5379514,135.670951 49.096903,132.816672 C48.3991479,128.295854 47.9611642,123.738697 47.7851109,119.167667 C46.4845307,85.9623817 59.1539758,67.4663814 76.6389313,61.8844826 C78.334746,61.3372425 80.1911729,61.6626113 81.6001964,62.7540246 Z" id="Path" fill="#1E2454" fill-rule="nonzero"></path>
                    <path d="M104.954581,82.3495749 C106.143042,90.9327961 105.795473,102.191963 106.384098,117.254675" id="Path" stroke="#7F8AC9" stroke-width="0.5" stroke-linecap="round"></path>
                    <path d="M6.97940674,14.957263 C6.97940674,14.957263 -3.22902673,3.6363868 1.47997059,0.601404632 C5.59473729,-2.06332093 6.85607586,4.94911476 14.8445534,5.65035832 C22.833031,6.35160189 32.2229959,17.565889 27.7382366,24.5110053 C23.2534772,31.4561216 6.29548094,23.0411988 6.29548094,23.0411988" id="Path" fill="#BCB2B1" fill-rule="nonzero"></path>
                    <path d="M27.7214187,24.4941755 C23.2366594,31.4561216 6.29548094,23.0411988 6.29548094,23.0411988" id="Path" stroke="#1E2454" stroke-width="0.5" stroke-linecap="round"></path>
                    <path d="M5.1967149,12.7974328 C2.49464739,9.35853431 -1.93405247,2.79489451 1.47997059,0.601404632 C5.59473729,-2.06332093 6.85607586,4.94911476 14.8445534,5.65035832 C17.5690448,5.88597616 20.4505026,7.33334289 22.9003024,9.44829349" id="Path" stroke="#1E2454" stroke-width="0.5" stroke-linecap="round"></path>
                    <path d="M76.6333254,61.8115532 C76.6333254,61.8115532 14.564256,68.5434915 27.7382366,24.4941755 C27.7382366,24.4941755 17.3672306,25.8966626 6.99622459,14.957263 C6.99622459,14.957263 -8.70043314,50.8609337 12.8824712,75.5447073 C34.4653756,100.228481 78.4720767,92.3745529 78.4720767,92.3745529" id="Path" fill="#1E2454" fill-rule="nonzero"></path>
                    <path d="M12.8824712,75.5447073 C27.3458201,92.0828356 51.8942716,94.0126579 66.5089812,93.4965426" id="Path" stroke="#7F8AC9" stroke-width="0.5" stroke-linecap="round"></path>
                    <path d="M20.4336848,17.2012424 C20.4336848,17.2012424 18.8920488,11.8717913 20.4336848,10.6824822 C20.4336848,10.6824822 17.1373867,11.5912938 16.5767917,9.56049246 C16.0161968,7.52969109 19.7273352,5.84109657 22.8834846,7.03601562 C26.039634,8.23093466 29.4816868,14.5365168 28.8818502,19.7986486" id="Path" fill="#BCB2B1" fill-rule="nonzero"></path>
                    <path d="M20.4336848,17.2012424 C20.4336848,17.2012424 18.8920488,11.8717913 20.4336848,10.6824822 C20.4336848,10.6824822 17.1373867,11.5912938 16.5767917,9.56049246 C16.0161968,7.52969109 19.7273352,5.84109657 22.8834846,7.03601562 C26.039634,8.23093466 29.4816868,14.5365168 28.8818502,19.7986486" id="Path" stroke="#1E2454" stroke-width="0.5" stroke-linecap="round"></path>
                    <path d="M127.989426,85.0479601 C126.10393,78.6405745 125.115345,72.0025074 125.051909,65.323381 C122.897004,65.7243698 120.722686,66.012738 118.537796,66.1873131 C118.482063,73.2125982 119.466306,80.2074129 121.458495,86.9441227 C122.516491,90.6395514 123.843031,94.2526372 125.427507,97.7544936 C127.709128,97.5076558 130.01878,97.1934987 132.322825,96.6942133 C130.569872,92.9341695 129.12077,89.0396256 127.989426,85.0479601 L127.989426,85.0479601 Z" id="Path" fill="#2A3368" fill-rule="nonzero"></path>
                    <path d="M138.629517,78.3104119 C137.061479,72.9337405 136.104289,67.3972742 135.776089,61.8059433 C133.701421,62.8554539 131.529024,63.6991032 129.290006,64.3248102 C130.06865,75.1258842 133.089123,85.6458522 138.158618,95.2131869 C140.299112,94.5680233 142.399433,93.796232 144.448493,92.9018881 C142.00383,88.2552839 140.053479,83.3646453 138.629517,78.3104119 L138.629517,78.3104119 Z" id="Path" fill="#2A3368" fill-rule="nonzero"></path>
                    <path d="M43.6479204,58.5241234 C40.1553353,63.3995894 36.0814912,67.8305122 31.5166463,71.7187224 C27.4876319,75.208724 23.0997442,78.2608107 18.426755,80.8236689 C20.3696199,82.3730708 22.4315222,83.7667856 24.5932991,84.9918606 C28.6147004,82.6434073 32.4143622,79.9338648 35.9453462,76.8967049 C41.5291788,72.1834567 46.3429314,66.6261835 50.2124869,60.4258959 C47.9855989,59.9343256 45.7928292,59.2990744 43.6479204,58.5241234 Z" id="Path" fill="#2A3368" fill-rule="nonzero"></path>
                    <path d="M32.7219254,52.1792716 C29.3043021,56.8512842 25.3534039,61.1081193 20.9494321,64.8633652 C17.6692205,67.7005968 14.1548156,70.2547683 10.4438833,72.4985052 C11.2006865,73.5307357 12.0023372,74.5461364 12.8768653,75.5447073 C13.5159435,76.2740006 14.1774455,76.9808541 14.8557653,77.6540479 C18.5713923,75.4099772 22.0896479,72.8538563 25.372526,70.013298 C30.1905363,65.9185938 34.4551523,61.2134203 38.058789,56.0164764 C36.1312262,54.9582315 34.3391636,53.6697385 32.7219254,52.1792716 Z" id="Path" fill="#2A3368" fill-rule="nonzero"></path>
                    <line x1="0" y1="325.462305" x2="169.826625" y2="325.462305" id="Path" stroke="#1E2454" stroke-width="0.857142857" stroke-linecap="round"></line>
                    <path d="M117.551149,248.364782 C128.067909,243.10826 136.476833,235.097254 140.698113,223.063914" id="Path" stroke="#1E2454" stroke-width="0.5" stroke-linecap="round"></path>
                    <path d="M41.5288716,215.496094 C35.1443593,215.009698 28.7921679,214.165007 22.50228,212.966007 L1.76026804,260.089575 L19.0265915,251.113657 C19.0265915,251.113657 24.0999756,252.387115 32.1893602,253.772773 L41.5288716,215.496094 Z" id="Path" fill="#1E2454" fill-rule="nonzero"></path>
                    <path d="M88.5683912,302.540055 C89.3868598,316.037592 89.3868598,325.164978 89.3868598,325.164978 L129.957114,325.164978 L121.968636,313.759952 C121.968636,313.759952 122.747863,309.66469 123.650421,302.540055 L88.5683912,302.540055 Z" id="Path" fill="#1E2454" fill-rule="nonzero"></path>
                </g>
                <g id="Group-19">
                    <g id="Dossiers" transform="translate(126.448273, 57.189241) rotate(-20.000000) translate(-126.448273, -57.189241) translate(91.419903, 16.909217)">
                        <path d="M28.4292657,36.0062197 L28.4292657,72.9729532 C28.4292657,77.160622 31.824907,80.5564167 36.0160105,80.5600479 L62.4650612,80.5600479 C66.6580934,80.5591397 70.0567403,77.1625477 70.0567403,72.9729532 L70.0567403,45.0636944 C70.0582764,44.1384806 69.6910402,43.2507345 69.0361722,42.5966139 L55.8560907,29.4273385 C55.2006513,28.7743782 54.3125434,28.4081862 53.3869859,28.4092543 L36.0160105,28.4092543 C34.0014311,28.4105636 32.06998,29.2119008 30.6470015,30.6367975 C29.224023,32.0616942 28.4262163,33.9932939 28.4292657,36.0062197 L28.4292657,36.0062197 Z" id="Path" fill="#8FB8CC" fill-rule="nonzero"></path>
                        <path d="M45.5780304,44.5669888 L45.5780304,28.412546 L37.676895,28.412546 L37.676895,44.5669888 C37.675086,46.5735932 36.0489732,48.2005793 34.0407266,48.2051102 L28.4292744,48.2051102 L28.4292744,56.0997676 L34.0407266,56.0997676 C40.4103939,56.0897989 45.5707793,50.9314375 45.5780304,44.5669888 Z" id="Path" fill="#1E2454" fill-rule="nonzero"></path>
                        <path d="M28.4292657,36.0062197 L28.4292657,72.9729532 C28.4292657,77.160622 31.824907,80.5564167 36.0160105,80.5600479 L62.4650612,80.5600479 C66.6580934,80.5591397 70.0567403,77.1625477 70.0567403,72.9729532 L70.0567403,45.0636944 C70.0582764,44.1384806 69.6910402,43.2507345 69.0361722,42.5966139 L55.8560907,29.4273385 C55.2006513,28.7743782 54.3125434,28.4081862 53.3869859,28.4092543 L36.0160105,28.4092543 C34.0014311,28.4105636 32.06998,29.2119008 30.6470015,30.6367975 C29.224023,32.0616942 28.4262163,33.9932939 28.4292657,36.0062197 L28.4292657,36.0062197 Z" id="Path" stroke="#1E2454" stroke-width="0.671321098" stroke-linecap="round"></path>
                        <path d="M54.8355274,28.7283323 L54.8355274,41.4337967 C54.8355274,42.6455408 55.8186461,43.6278536 57.0313846,43.6278536 L69.7406901,43.6278536 C69.5687582,43.2485907 69.3301412,42.9032139 69.0361722,42.608127 L55.8560907,29.4273385 C55.5599985,29.1358084 55.2144461,28.8991321 54.8355274,28.7283323 L54.8355274,28.7283323 Z" id="Path" fill="#E3E7E8" fill-rule="nonzero"></path>
                        <path d="M69.7406901,43.6212747 C69.5687582,43.2420118 69.3301412,42.896635 69.0361722,42.6015481 L55.8560907,29.4273385 C55.5602653,29.1346338 55.2146965,28.8968324 54.8355274,28.7250429" id="Path" stroke="#1E2454" stroke-width="0.671321098" stroke-linecap="round"></path>
                        <path d="M54.8355274,32.2496785 L54.8355274,41.4337967 C54.8355274,42.6455408 55.8186461,43.6278536 57.0313846,43.6278536 L67.4411305,43.6278536" id="Path" stroke="#1E2454" stroke-width="0.671321098" stroke-linecap="round"></path>
                        <path d="M0,7.59203174 L0,44.5669888 C0,48.7563172 3.39890995,52.1524389 7.59167587,52.1524389 L34.0407266,52.1524389 C38.2334925,52.1524389 41.6324057,48.7563172 41.6324057,44.5669888 L41.6324057,16.65773 C41.6339418,15.7325162 41.2667056,14.8447701 40.6118376,14.1906496 L27.4317561,1.01972941 C26.7768932,0.365705894 25.8885524,-0.00117393573 24.9626513,0 L7.59167587,0 C5.57723144,0 3.64551493,0.800660938 2.22170515,2.22453723 C0.79789537,3.64841353 -0.00130850483,5.57923928 0,7.59203174 L0,7.59203174 Z" id="Path" fill="#F4CF84" fill-rule="nonzero"></path>
                        <path d="M0,7.59203174 L0,44.5669888 C0,48.7563172 3.39890995,52.1524389 7.59167587,52.1524389 L34.0407266,52.1524389 C38.2334925,52.1524389 41.6324057,48.7563172 41.6324057,44.5669888 L41.6324057,16.65773 C41.6339418,15.7325162 41.2667056,14.8447701 40.6118376,14.1906496 L27.4317561,1.01972941 C26.7768932,0.365705894 25.8885524,-0.00117393573 24.9626513,0 L7.59167587,0 C5.57723144,0 3.64551493,0.800660938 2.22170515,2.22453723 C0.79789537,3.64841353 -0.00130850483,5.57923928 0,7.59203174 L0,7.59203174 Z" id="Path" stroke="#1E2454" stroke-width="0.671321098" stroke-linecap="round"></path>
                        <path d="M26.4062446,0.31578912 L26.4062446,13.0146746 C26.4044988,13.5988555 26.6359772,14.1596157 27.0493963,14.5726958 C27.4628154,14.985776 28.0240358,15.2170646 28.608696,15.2153202 L41.3180015,15.2153202 C41.1460697,14.8360475 40.9074527,14.4906707 40.6134836,14.1955837 L27.4317561,1.02466357 C27.1353824,0.72865784 26.7879823,0.48851868 26.4062446,0.31578912 L26.4062446,0.31578912 Z" id="Path" fill="#FFE7BD" fill-rule="nonzero"></path>
                        <path d="M41.3114173,15.2153103 C41.1394854,14.8360475 40.9008684,14.4906707 40.6068994,14.1955837 L27.4251718,1.02466357 C27.1302222,0.731657503 26.7851349,0.493803709 26.4062545,0.322368001" id="Path" stroke="#1E2454" stroke-width="0.671321098" stroke-linecap="round"></path>
                        <path d="M26.4062545,3.84371417 L26.4062545,13.0212535 C26.4062545,13.6042952 26.6385041,14.1633615 27.0517324,14.5750166 C27.4649606,14.9866717 28.0251785,15.2170586 28.608696,15.2153202 L39.0118576,15.2153202" id="Path" stroke="#1E2454" stroke-width="0.671321098" stroke-linecap="round"></path>
                    </g>
                    <use id="Oval" stroke="#417DC4" mask="url(#mask-3)" stroke-width="1.4" stroke-linecap="round" stroke-dasharray="105,659.4" transform="translate(123.646004, 124.089107) scale(1, -1) translate(-123.646004, -124.089107) " xlink:href="#path-2"></use>
                    <use id="Oval" stroke="#417DC4" mask="url(#mask-5)" stroke-width="1.4" stroke-linecap="round" stroke-dasharray="70,593.4599914550781" transform="translate(123.646004, 123.996134) scale(1, -1) rotate(-20.000000) translate(-123.646004, -123.996134) " xlink:href="#path-4"></use>
                    <use id="Oval" stroke="#417DC4" mask="url(#mask-7)" stroke-width="1.4" stroke-linecap="round" stroke-dasharray="33.25,560.4900085449218" transform="translate(123.996287, 123.995704) scale(1, -1) rotate(56.000000) translate(-123.996287, -123.995704) " xlink:href="#path-6"></use>
                </g>
            </g>
        </g>
    </g>
</svg>