<?xml version="1.0" encoding="utf-8"?>
<!-- Generator: Adobe Illustrator 22.0.1, SVG Export Plug-In . SVG Version: 6.00 Build 0)  -->
<svg version="1.1" id="Capa_1" xmlns="http://www.w3.org/2000/svg" xmlns:xlink="http://www.w3.org/1999/xlink" x="0px" y="0px"
	 viewBox="0 0 34 43.2" style="enable-background:new 0 0 34 43.2;" xml:space="preserve">
<style type="text/css">
	.st0{fill:none;stroke:#003189;stroke-width:1.5;stroke-linejoin:round;stroke-miterlimit:10;}
	.st1{fill:#003189;}
</style>
<g id="XMLID_5543_">
	<path id="XMLID_5522_" class="st0" d="M22.7,28.8v11.6c0,0.9-0.5,1.7-1.1,1.7H2.2c-0.6,0-1.1-0.7-1.1-1.7V2.8
		c0-0.9,0.5-1.7,1.1-1.7h19.3c0.6,0,1.1,0.7,1.1,1.7v7.6"/>
	<line id="XMLID_5546_" class="st0" x1="22.4" y1="34.2" x2="1" y2="34.2"/>
	<line id="XMLID_5545_" class="st0" x1="15" y1="38.3" x2="8.4" y2="38.3"/>
	<line id="XMLID_5544_" class="st0" x1="22.4" y1="5.5" x2="1" y2="5.5"/>
</g>
<path class="st1" d="M22.4,8.9c-6.3,0-11.4,5.1-11.4,11.4S16,31.8,22.4,31.8s11.4-5.1,11.4-11.4S28.7,8.9,22.4,8.9z M29.3,16.7
	l-8.4,8.4c-0.1,0.1-0.3,0.2-0.5,0.2s-0.4-0.1-0.5-0.2l-3.7-3.7c-0.3-0.3-0.3-0.8,0-1.1s0.8-0.3,1.1,0l3.2,3.2l7.9-7.9
	c0.3-0.3,0.8-0.3,1.1,0S29.6,16.4,29.3,16.7z"/>
</svg>
