<?xml version="1.0" encoding="utf-8"?>
<!-- Generator: Adobe Illustrator 22.0.1, SVG Export Plug-In . SVG Version: 6.00 Build 0)  -->
<svg version="1.1" id="Capa_1" xmlns="http://www.w3.org/2000/svg" xmlns:xlink="http://www.w3.org/1999/xlink" x="0px" y="0px"
	 viewBox="0 0 44 43.2" style="enable-background:new 0 0 44 43.2;" xml:space="preserve">
<style type="text/css">
	.st0{fill:none;stroke:#003189;stroke-width:1.5;stroke-linecap:round;stroke-linejoin:round;stroke-miterlimit:10;}
	.st1{fill:#003189;}
</style>
<g>
	<path class="st0" d="M30.6,17.4h10.6c1.1,0,2,0.9,2,2v20.8c0,1.1-0.9,2-2,2H2.9c-1.1,0-2-0.9-2-2V19.4c0-1.1,0.9-2,2-2h10.6"/>
	<path class="st0" d="M4.9,19.8l15,12.4c1.2,1,2.9,1,4.1,0l15-12.4"/>
	<line class="st0" x1="15" y1="28.1" x2="4.9" y2="39.8"/>
	<line class="st0" x1="39.1" y1="39.8" x2="29" y2="28.1"/>
	<path class="st1" d="M22,0.3c-6.3,0-11.4,5.1-11.4,11.4S15.7,23.2,22,23.2s11.4-5.1,11.4-11.4S28.3,0.3,22,0.3z M22.9,17.9h-1.8V16
		h1.8V17.9z M22.8,14.3h-1.5L21,4.8h2L22.8,14.3z"/>
</g>
</svg>
