<?xml version="1.0" encoding="utf-8"?>
<!-- Generator: Adobe Illustrator 22.0.1, SVG Export Plug-In . SVG Version: 6.00 Build 0)  -->
<svg version="1.1" id="Capa_1" xmlns="http://www.w3.org/2000/svg" xmlns:xlink="http://www.w3.org/1999/xlink" x="0px" y="0px"
	 viewBox="0 0 44 43.2" style="enable-background:new 0 0 44 43.2;" xml:space="preserve">
<style type="text/css">
	.st0{fill:none;stroke:#003189;stroke-width:1.5;stroke-linecap:round;stroke-linejoin:round;stroke-miterlimit:10;}
</style>
<g>
	<path class="st0" d="M43.2,17.4v22.8c0,1.1-0.9,2-2,2H2.9c-1.1,0-2-0.9-2-2V17.4"/>
	<path class="st0" d="M39.1,39.8l-15-12.4c-1.2-1-2.9-1-4.1,0l-15,12.4"/>
	<polyline class="st0" points="29,31.6 40.3,20.3 43.2,17.4 40.3,15 	"/>
	<path class="st0" d="M8.8,10.8L20,1.5c1.2-1,2.9-1,4.1,0l11.1,9.3"/>
	<polyline class="st0" points="15,31.6 0.9,17.4 3.7,15 	"/>
	<polyline class="st0" points="3.7,20.3 3.7,10.8 40.3,10.8 40.3,20.3 	"/>
	<line class="st0" x1="10.3" y1="16.8" x2="33.7" y2="16.8"/>
	<line class="st0" x1="10.3" y1="21.8" x2="33.7" y2="21.8"/>
</g>
</svg>
