<svg xmlns="http://www.w3.org/2000/svg" viewBox="0 0 48.53 37.78"><defs><style>.cls-1,.cls-2{fill:none;stroke:#003189;stroke-miterlimit:10;stroke-width:1.5px;}.cls-1{stroke-linecap:round;}</style></defs><title>hands</title><g id="Capa_2" data-name="Capa 2"><g id="Capa_1-2" data-name="Capa 1"><g id="_Grupo_" data-name="&lt;Grupo&gt;"><path id="_Trazado_" data-name="&lt;Trazado&gt;" class="cls-1" d="M30.22,27.16l2.57,2.46a2.75,2.75,0,0,0,4.46-3.2"/><path id="_Trazado_2" data-name="&lt;Trazado&gt;" class="cls-1" d="M27,31.38l2.09,2a2.75,2.75,0,0,0,4.46-3.2"/><path id="_Trazado_3" data-name="&lt;Trazado&gt;" class="cls-2" d="M23.41,35.25a2.75,2.75,0,0,0,4.65-2.83"/><path id="_Trazado_4" data-name="&lt;Trazado&gt;" class="cls-1" d="M40.9,22.5a26.46,26.46,0,0,1,6.88-2.75"/><path id="_Trazado_5" data-name="&lt;Trazado&gt;" class="cls-1" d="M33.44,22.9l3.1,3c3,3,6.54-1.28,4-3.85L27.83,9.3a2.42,2.42,0,0,0-2.42-.63,14.2,14.2,0,0,0-4.6,2.75c-4.35,3.51-6.94,3-8.36,1.89a2.24,2.24,0,0,1-.31-3.26c13.4-15.2,27-4.32,27-4.32l8.64-2.58"/><path id="_Trazado_6" data-name="&lt;Trazado&gt;" class="cls-1" d="M5.16,21.48a14.71,14.71,0,0,0-4.36-2"/><path id="_Trazado_7" data-name="&lt;Trazado&gt;" class="cls-1" d="M23.41,2.53c-7-5-14.91,2.06-14.91,2.06L.75,2.5"/><rect id="_Rectángulo_" data-name="&lt;Rectángulo&gt;" class="cls-2" x="2.72" y="18.56" width="12.99" height="5.49" rx="2.74" ry="2.74" transform="translate(-12.36 12.75) rotate(-45)"/><rect id="_Rectángulo_2" data-name="&lt;Rectángulo&gt;" class="cls-2" x="6.07" y="22.54" width="13.81" height="5.49" rx="2.74" ry="2.74" transform="translate(-14.08 16.58) rotate(-45)"/><rect id="_Rectángulo_3" data-name="&lt;Rectángulo&gt;" class="cls-2" x="10.91" y="25.86" width="12.99" height="5.49" rx="2.74" ry="2.74" transform="translate(-15.13 20.69) rotate(-45)"/><rect id="_Rectángulo_4" data-name="&lt;Rectángulo&gt;" class="cls-2" x="16.11" y="30.04" width="9.76" height="5.49" rx="2.74" ry="2.74" transform="translate(-17.03 24.45) rotate(-45)"/></g></g></g></svg>