<?xml version="1.0" encoding="utf-8"?>
<!-- Generator: Adobe Illustrator 22.0.1, SVG Export Plug-In . SVG Version: 6.00 Build 0)  -->
<svg version="1.1" id="Capa_1" xmlns="http://www.w3.org/2000/svg" xmlns:xlink="http://www.w3.org/1999/xlink" x="0px" y="0px"
	 viewBox="0 0 49.1 37.3" style="enable-background:new 0 0 49.1 37.3;" xml:space="preserve">
<style type="text/css">
	.st0{fill:none;stroke:#003189;stroke-width:1.5;stroke-miterlimit:10;}
</style>
<g id="XMLID_5531_">
	<path id="XMLID_5542_" class="st0" d="M33.3,35.7c-8.8,3-18.7-4.7-18.2-13.3"/>
	<path id="XMLID_5536_" class="st0" d="M20,17.4L6.8,4.3C5.5,3,3.3,3,2,4.3L1.9,4.4c-1.3,1.3-1.3,3.5,0,4.9L20.6,28"/>
	<path id="XMLID_5535_" class="st0" d="M24.9,12.2l-2.4-2.4c-1.3-1.3-3.5-1.3-4.9,0l-0.1,0.1c-1.3,1.3-1.3,3.5,0,4.9l2.5,2.5"/>
	<path id="XMLID_5534_" class="st0" d="M30.2,7.4l-2.8-2.8c-1.3-1.3-3.5-1.3-4.9,0l-0.1,0.1c-1.3,1.3-1.3,3.5,0,4.9l2.6,2.6"/>
	<path id="XMLID_5533_" class="st0" d="M30.3,7.3l-0.4-0.4c-1.3-1.3-1.3-3.5,0-4.9L30,1.9c1.3-1.3,3.5-1.3,4.9,0l9.2,9.2
		c5.3,5.3,4,9.8,4,9.8"/>
</g>
</svg>
