<?xml version="1.0" encoding="utf-8"?>
<!-- Generator: Adobe Illustrator 22.0.1, SVG Export Plug-In . SVG Version: 6.00 Build 0)  -->
<svg version="1.1" id="Capa_1" xmlns="http://www.w3.org/2000/svg" xmlns:xlink="http://www.w3.org/1999/xlink" x="0px" y="0px"
	 viewBox="0 0 46.5 52.1" style="enable-background:new 0 0 46.5 52.1;" xml:space="preserve">
<style type="text/css">
	.st0{fill:none;stroke:#040006;stroke-width:1.5;stroke-miterlimit:10;}
	.st1{fill:none;stroke:#003189;stroke-width:1.5;stroke-miterlimit:10;}
	.st2{fill:#003189;}
	.st3{fill:none;stroke:#003189;stroke-width:1.5;stroke-linecap:round;stroke-linejoin:round;stroke-miterlimit:10;}
</style>
<title>arrow</title>
<g>
	<path id="XMLID_4_" class="st0" d="M24.7,42.9"/>
	<polygon class="st1" points="13.3,12.2 32.2,12.2 35.8,5.9 23.3,0.9 9.7,5.9 	"/>
	<path class="st2" d="M13.3,12.2h18.9c0,0-0.4,5.3-9.4,5.3S13.3,12.2,13.3,12.2z"/>
	<g id="XMLID_1_">
		<path id="XMLID_3_" class="st3" d="M13.9,12.1c-0.2,0.9-0.4,1.9-0.4,2.9c0,4.5,2.3,13,5.4,14.9c0,6-4.6,7-4.7,7
			C6.5,39,0.9,42.8,0.7,49.5"/>
		<path id="XMLID_2_" class="st3" d="M45.8,49.5C45.6,42.8,40,39,32.1,37c0,0-4.8-1-4.8-7c3.2-1.9,5.3-10.4,5.3-14.9
			c0-1-0.1-2-0.4-2.9"/>
	</g>
	<path class="st3" d="M20.5,5.3H26c0,0,0.2,5.1-2.8,5.1S20.5,5.3,20.5,5.3z"/>
	<polyline class="st1" points="14.3,37 23.3,41 32.1,37 	"/>
	<polyline class="st1" points="14.3,37 17,44.6 23.3,41 29.6,44.6 32.1,37 	"/>
	<polygon class="st2" points="26.6,42.9 23.3,41 19.9,42.9 22,45.1 19.9,51.9 26.6,51.9 24.5,45.1 	"/>
</g>
</svg>
