<svg xmlns="http://www.w3.org/2000/svg" viewBox="0 0 37.95 47.59"><defs><style>.cls-1{fill:none;stroke:#003189;stroke-miterlimit:10;stroke-width:1.5px;}</style></defs><title>security</title><g id="Capa_2" data-name="Capa 2"><g id="Capa_1-2" data-name="Capa 1"><path id="_Trazado_" data-name="&lt;Trazado&gt;" class="cls-1" d="M19,.75h0C6.56.75.75,3.9.75,3.9V26.26c0,4,1.17,9.88,7.13,13.07L19,46.69l11.09-7.36c6-3.19,7.13-9,7.13-13.07V3.9S31.39.75,19,.75Z"/><path id="_Trazado_2" data-name="&lt;Trazado&gt;" class="cls-1" d="M19,7h0C10.5,7,6.53,9.19,6.53,9.19V25.46c0,2.76.8,6.74,4.87,8.91l7.58,5,7.57-5c4.07-2.17,4.87-6.15,4.87-8.91V9.19S27.45,7,19,7Z"/></g></g></svg>