<svg xmlns="http://www.w3.org/2000/svg" viewBox="0 0 43.41 31.64"><defs><style>.cls-1{fill:#003189;}</style></defs><title>text</title><g id="Capa_2" data-name="Capa 2"><g id="Capa_1-2" data-name="Capa 1"><path class="cls-1" d="M17.82,0a2.21,2.21,0,0,1,1.61.61,2,2,0,0,1,.64,1.54,2.84,2.84,0,0,1-1.86,2.44,25,25,0,0,0-6.49,4.54c-1.27,1.4-1.91,2.43-1.91,3.08s.49,1,1.47,1.12l.59.05.78.1a7.63,7.63,0,0,1,5.12,2.9,9.39,9.39,0,0,1,2,6,9,9,0,0,1-2.44,6.25,9.18,9.18,0,0,1-7.08,3,9.22,9.22,0,0,1-7.13-3.27A11.82,11.82,0,0,1,0,20a17,17,0,0,1,3.08-9.2,27,27,0,0,1,8-8C14,.94,16.19,0,17.82,0ZM41.16,0a2.21,2.21,0,0,1,1.61.61,2,2,0,0,1,.64,1.54,2.84,2.84,0,0,1-1.86,2.44,25,25,0,0,0-6.49,4.54c-1.27,1.4-1.91,2.43-1.91,3.08s.49,1,1.47,1.12l.59.05.78.1a7.63,7.63,0,0,1,5.12,2.9,9.39,9.39,0,0,1,2,6,9,9,0,0,1-2.44,6.25,9.18,9.18,0,0,1-7.09,3,9.21,9.21,0,0,1-7.12-3.27A11.82,11.82,0,0,1,23.34,20a17,17,0,0,1,3.08-9.2,27,27,0,0,1,8-8C37.29.94,39.53,0,41.16,0Z"/></g></g></svg>