<?xml version="1.0" encoding="UTF-8"?>
<svg width="16px" height="16px" viewBox="0 0 16 16" version="1.1" xmlns="http://www.w3.org/2000/svg" xmlns:xlink="http://www.w3.org/1999/xlink">
    <title>Group</title>
    <g id="0_Recherche" stroke="none" stroke-width="1" fill="none" fill-rule="evenodd">
        <g id="Filigrane/FaitesMieux" transform="translate(-8.000000, -8.000000)">
            <g id="Group" transform="translate(8.000000, 8.000000)">
                <polygon id="Path" points="0 0 16 0 16 16 0 16"></polygon>
                <path d="M14.6666667,10 L12.6666667,10 L12.6666667,2 L14.6666667,2 C15.0348565,2 15.3333333,2.29847683 15.3333333,2.66666667 L15.3333333,9.33333333 C15.3333333,9.70152317 15.0348565,10 14.6666667,10 Z M11.138,10.862 L6.87133333,15.1286667 C6.75408974,15.2462474 6.56818526,15.2596075 6.43533333,15.16 L5.86666667,14.7333333 C5.54371273,14.4908881 5.39827818,14.0779907 5.498,13.6866667 L6.26666667,10.6666667 L2,10.6666667 C1.26362033,10.6666667 0.666665957,10.069713 0.666665957,9.33333333 L0.666665957,7.93066667 C0.66648692,7.75642593 0.700460656,7.58383934 0.766666667,7.42266667 L2.83066667,2.41333333 C2.93330707,2.16348826 3.17656012,2.00026651 3.44666667,2 L10.666666,2 C11.0348565,2 11.3333333,2.29847683 11.3333333,2.66666667 L11.3333333,10.3906667 C11.3333333,10.5674632 11.2630329,10.7370048 11.138,10.862 Z" id="Shape" fill="#B34000" fill-rule="nonzero"></path>
            </g>
        </g>
    </g>
</svg>