<?xml version="1.0" encoding="UTF-8"?>
<svg width="16px" height="14px" viewBox="0 0 16 14" version="1.1" xmlns="http://www.w3.org/2000/svg" xmlns:xlink="http://www.w3.org/1999/xlink">
    <title>Shape</title>
    <g id="0_Recherche" stroke="none" stroke-width="1" fill="none" fill-rule="evenodd">
        <g id="Filigrane/JaiAime" transform="translate(-8.000000, -8.000000)" fill="#18753C" fill-rule="nonzero">
            <g id="Group" transform="translate(8.000000, 8.000000)">
                <path d="M1.33333333,6 L3.33333333,6 L3.33333333,14 L1.33333333,14 C0.9651435,14 0.666666667,13.7015232 0.666666667,13.3333333 L0.666666667,6.66666667 C0.666666667,6.29847683 0.9651435,6 1.33333333,6 Z M4.862,5.138 L9.12866667,0.871333333 C9.24591026,0.753752612 9.43181474,0.740392504 9.56466667,0.84 L10.1333333,1.26666667 C10.4562873,1.50911192 10.6017218,1.92200929 10.502,2.31333333 L9.73333333,5.33333333 L14,5.33333333 C14.7363797,5.33333333 15.333334,5.930287 15.333334,6.66666667 L15.333334,8.06933333 C15.3335131,8.24357407 15.2995393,8.41616066 15.2333333,8.57733333 L13.17,13.5873333 C13.0670589,13.8371413 12.8235201,14.0000001 12.5533333,14.0000001 L5.33333333,14.0000001 C4.9651435,14.0000001 4.66666667,13.7015232 4.66666667,13.3333333 L4.66666667,5.60933333 C4.66666667,5.43253679 4.73696708,5.26299515 4.862,5.138 Z" id="Shape"></path>
            </g>
        </g>
    </g>
</svg>