<?xml version="1.0" encoding="UTF-8"?>
<svg width="328px" height="126px" viewBox="0 0 328 126" version="1.1" xmlns="http://www.w3.org/2000/svg" xmlns:xlink="http://www.w3.org/1999/xlink">
    <title>Group 8</title>
    <g id="0_Recherche" stroke="none" stroke-width="1" fill="none" fill-rule="evenodd">
        <g id="[RWD]/Locataire/MonCompte/Validé_MonCommisseriat/v0.3bis" transform="translate(-893.000000, -589.000000)">
            <g id="Group-5" transform="translate(893.000000, 531.000000)">
                <g id="Group-8" transform="translate(0.000000, 58.000000)">
                    <rect id="Rectangle" stroke="#E3E3FD" stroke-width="0.8" fill="#E3E3FD" x="0.4" y="0.4" width="327.2" height="125.2" rx="3.2"></rect>
                    <g id="Group-13" transform="translate(168.000000, 86.126582)">
                        <rect id="Rectangle" fill="#0063CB" x="0" y="0" width="140" height="20.7341772" rx="3.2"></rect>
                        <line x1="22" y1="9.96835443" x2="127.2" y2="10.3670886" id="Line-2-Copy-3" stroke="#E3E3FD" stroke-width="6.4" stroke-linecap="round"></line>
                    </g>
                    <line x1="170.734975" y1="25.1202532" x2="228.350739" y2="25.1202532" id="Line-2" stroke="#6A6AF4" stroke-width="6.4" stroke-linecap="round"></line>
                    <line x1="170.734975" y1="44.2594937" x2="306.4" y2="44.6582278" id="Line-2-Copy" stroke="#6A6AF4" stroke-width="6.4" stroke-linecap="round"></line>
                    <line x1="170.734975" y1="58.6139241" x2="306.4" y2="59.0126582" id="Line-2-Copy-2" stroke="#6A6AF4" stroke-width="6.4" stroke-linecap="round"></line>
                    <line x1="170.734975" y1="72.9683544" x2="258.833498" y2="73.3670886" id="Line-2-Copy-3" stroke="#6A6AF4" stroke-width="6.4" stroke-linecap="round"></line>
                    <rect id="Rectangle" stroke="#6A6AF4" stroke-width="0.8" fill="#E3E3FD" x="15.6" y="13.1594937" width="135.2" height="99.6810127" rx="3.2"></rect>
                    <g id="Group" transform="translate(64.000000, 43.860759)">
                        <polygon id="Path" points="0 0 38.4 0 38.4 38.278481 0 38.278481"></polygon>
                        <path d="M19.2,30.3037975 C20.5248,30.3037975 21.6,31.3755949 21.6,32.6962025 C21.6,34.0168101 20.5248,35.0886076 19.2,35.0886076 C17.8752,35.0886076 16.8,34.0168101 16.8,32.6962025 C16.8,31.3755949 17.8752,30.3037975 19.2,30.3037975 Z M19.2,3.18987342 C24.5024,3.18987342 28.8,7.47387342 28.8,12.7594937 C28.8,16.2125316 27.5952,18.0068354 24.5216,20.6113671 C21.4384,23.2222785 20.8,24.3977468 20.8,27.1139241 L17.6,27.1139241 C17.6,23.1680506 18.8592,21.2206329 22.4496,18.1806835 C24.8768,16.1248101 25.6,15.0466329 25.6,12.7594937 C25.6,9.23468354 22.736,6.37974684 19.2,6.37974684 C15.664,6.37974684 12.8,9.23468354 12.8,12.7594937 L12.8,14.3544304 L9.6,14.3544304 L9.6,12.7594937 C9.6,7.47387342 13.8976,3.18987342 19.2,3.18987342 Z" id="Shape" fill="#6A6AF4" fill-rule="nonzero"></path>
                    </g>
                </g>
            </g>
        </g>
    </g>
</svg>