<?xml version="1.0" encoding="UTF-8"?>
<svg width="40px" height="40px" viewBox="0 0 40 40" version="1.1" xmlns="http://www.w3.org/2000/svg" xmlns:xlink="http://www.w3.org/1999/xlink">
    <title>Logo Home Bouclier secure</title>
    <defs>
        <path d="M33.6842105,30.7368421 L33.6842105,33.6842105 L32.3869827,33.6856063 C33.184329,32.954383 33.6842105,31.9039893 33.6842105,30.7368421 Z M33.6842105,21.8947368 C33.6842105,19.6855978 31.8933495,17.8947368 29.6842105,17.8947368 L20.8421053,17.8947368 C18.6329663,17.8947368 16.8421053,19.6855978 16.8421053,21.8947368 L16.8421053,30.7368421 C16.8421053,31.9037131 17.3417502,32.9538858 18.1387671,33.6850871 L0,33.6842105 L0,0 L33.6842105,0 Z" id="path-1"></path>
    </defs>
    <g id="0_Recherche" stroke="none" stroke-width="1" fill="none" fill-rule="evenodd">
        <g id="[RWD]/Locataire/MonCompte/Validé_MonCommisseriat/v0.3bis" transform="translate(-184.000000, -526.000000)">
            <g id="MonFranceConnect" transform="translate(120.000000, 502.000000)">
                <g id="Logo-Home-Bouclier-secure" transform="translate(64.000000, 24.000000)">
                    <circle id="Oval" fill="#ECECFE" cx="20" cy="20" r="20"></circle>
                    <g id="Group-9" transform="translate(3.157895, 0.526316)">
                        <g id="Group">
                            <mask id="mask-2" fill="white">
                                <use xlink:href="#path-1"></use>
                            </mask>
                            <g id="Combined-Shape"></g>
                            <path d="M26.6666667,29.4736842 L7.01754386,29.4736842 C6.24240737,29.4736842 5.61403509,28.8453119 5.61403509,28.0701754 L5.61403509,15.4385965 L1.40350877,15.4385965 L15.8975439,2.26245614 C16.4330085,1.77523739 17.2512021,1.77523739 17.7866667,2.26245614 L32.2807018,15.4385965 L28.0701754,15.4385965 L28.0701754,28.0701754 C28.0701754,28.8453119 27.4418032,29.4736842 26.6666667,29.4736842 Z M8.42105263,26.6666667 L25.2631579,26.6666667 L25.2631579,12.8519298 L16.8421053,5.19719298 L8.42105263,12.8519298 L8.42105263,26.6666667 Z" id="Shape" fill="#000091" fill-rule="nonzero" mask="url(#mask-2)"></path>
                        </g>
                        <g id="Group" transform="translate(16.842105, 18.947368)">
                            <polygon id="Path" points="0 0 16.8421053 0 16.8421053 16.8421053 0 16.8421053"></polygon>
                            <path d="M2.65473684,1.98315789 L8.42105263,0.701754386 L14.1873684,1.98315789 C14.50838,2.0545178 14.7368421,2.33922267 14.7368421,2.66807018 L14.7368421,9.67649123 C14.7368421,11.0842459 14.0331085,12.3988146 12.8617544,13.1796491 L8.42105263,16.1403509 L3.98035088,13.1796491 C2.80920358,12.3989525 2.10560002,11.084699 2.10526316,9.67719298 L2.10526316,2.66807018 C2.10526316,2.33922267 2.33372524,2.0545178 2.65473684,1.98315789 Z M3.50877193,3.23087719 L3.50877193,9.67649123 C3.50877193,10.61495 3.97778278,11.4913198 4.75859649,12.0119298 L8.42105263,14.4540351 L12.0835088,12.0119298 C12.8641157,11.4914578 13.3330827,10.6154031 13.3333333,9.67719298 L13.3333333,3.23087719 L8.42105263,2.14035088 L3.50877193,3.23087719 Z" id="Shape" fill="#CE0500" fill-rule="nonzero"></path>
                        </g>
                        <g id="Group-12" transform="translate(22.124211, 23.157895)" fill="#000091">
                            <path d="M3.13894737,3.50877193 C2.17002675,3.50877193 1.3845614,2.72330658 1.3845614,1.75438596 C1.3845614,0.785465351 2.17002675,0 3.13894737,0 C4.10786798,0 4.89333333,0.785465351 4.89333333,1.75438596 C4.89333333,2.72330658 4.10786798,3.50877193 3.13894737,3.50877193 L3.13894737,3.50877193 Z" id="Path"></path>
                            <path d="M0,7.01754386 C0.17614338,5.41682704 1.52856828,4.20505987 3.13894737,4.20505987 C4.74932646,4.20505987 6.10175136,5.41682704 6.27789474,7.01754386 L0,7.01754386 Z" id="Path"></path>
                        </g>
                    </g>
                </g>
            </g>
        </g>
    </g>
</svg>