<svg width="366" height="131" viewBox="0 0 366 131" fill="none" xmlns="http://www.w3.org/2000/svg">
<path d="M27.1 0H0V130.9H27.1V0Z" fill="#1B49DC"/>
<path d="M52.3 0H33.4V25.5H52.3C66.2 25.5 77.6 36.8 77.6 50.8C77.6 64.8 66.3 76 52.3 76H33.4V101.5H52.3C80.3 101.5 103.1 78.8 103.1 50.7C103.1 22.6 80.4 0 52.3 0Z" fill="#1B49DC"/>
<path d="M289.3 0H262.2V130.9H289.3V0Z" fill="#1B49DC"/>
<path d="M314.6 0H295.7V25.5H314.6C328.6 25.5 339.9 36.8 339.9 50.8C339.9 64.8 328.6 76.1 314.6 76.1H295.7V101.6H314.6C342.6 101.6 365.4 78.9 365.4 50.8C365.4 22.7 342.6 0 314.6 0Z" fill="#1B49DC"/>
<path d="M170.7 42L157.2 8.69995L105.2 130.9H134.5L170.7 42Z" fill="#1B49DC"/>
<path d="M188.2 0H160.4L191.5 76.1H163.6L153.2 101.5H201.8L213.8 130.9H243.9L188.2 0Z" fill="#1B49DC"/>
</svg>
