<?xml version="1.0" encoding="utf-8"?>
<!-- Generator: Adobe Illustrator 24.1.2, SVG Export Plug-In . SVG Version: 6.00 Build 0)  -->
<svg version="1.1" id="Calque_1" xmlns="http://www.w3.org/2000/svg" xmlns:xlink="http://www.w3.org/1999/xlink" x="0px" y="0px"
	viewBox="0 0 223.6 58.9" style="enable-background:new 0 0 223.6 58.9;" xml:space="preserve" width="200" height="53">
<style type="text/css">
	.st0{fill:#48555B;}
	.st1{fill:#E4087E;}
</style>
<path class="st0" d="M19.1,21.2H4.9c0.3,2.5,2.4,4,5.2,4c1.9,0,3.8-0.8,4.7-2.4c1.2,0.6,2.5,1.4,3.7,2c-1.7,3.2-5.3,4.5-8.7,4.5
	c-5.3,0-9.7-3.9-9.7-9.8s4.4-9.7,9.7-9.7s9.5,3.8,9.5,9.7C19.2,20,19.2,20.7,19.1,21.2z M14.4,17.9c-0.4-2.6-2.3-4-4.7-4
	c-2.6,0-4.6,1.4-4.9,4C4.8,17.9,14.4,17.9,14.4,17.9z M38.5,18.9v10h-4.9V18.6c0-2.6-1.5-4.1-3.5-4.1s-3.9,1.2-3.9,4.4v10h-4.9V10.2
	h4.9V13c1-2.3,3.6-3.1,5.4-3.1c3,0.2,4.9,1.2,6,3.5c1.8-3.1,4.4-3.5,5.9-3.5c4.5,0,7.2,2.9,7.2,8.4V29h-4.9V18.7
	c0-2.7-1.5-4.2-3.5-4.2C40.1,14.6,38.5,16.1,38.5,18.9z M52.9,19.5c0-5.9,4.4-9.7,9.8-9.7c5.3,0,9.8,3.8,9.8,9.7s-4.5,9.8-9.8,9.8
	C57.3,29.3,52.9,25.4,52.9,19.5z M67.5,19.5c0-3-2.2-4.9-4.9-4.9s-4.9,1.9-4.9,4.9c0,3.1,2.2,5,4.9,5C65.3,24.5,67.5,22.6,67.5,19.5
	z M80.9,10.2h4v3.9h-4v14.8H76V14.1h-3.4v-3.9H76V3.1h4.9C80.9,3.1,80.9,10.2,80.9,10.2z M89,0c1.7,0,3.1,1.3,3.1,2.9
	c0,1.7-1.4,3-3.1,3s-3.2-1.3-3.2-3C85.9,1.3,87.3,0,89,0z M91.5,28.9h-4.9V10.2h4.9C91.5,10.2,91.5,28.9,91.5,28.9z M111.8,28.8
	c-1.3,0.4-2.6,0.6-4,0.6c-7.9,0-14.1-6.4-14.1-14.2C93.8,7.3,100,1,107.9,1c8,0,14.2,6.3,14.2,14.2c0,4.9-2.4,9.2-6.2,11.8
	 M113.2,22.6c2.3-1.6,3.7-4.3,3.7-7.5c0-5.2-3.9-9.4-9-9.4S99,9.9,99,15.1c0,4.6,3.2,8.4,7.5,9c0.9,0.2,1.7,0.2,2.6,0.1l-2.4-4
	l3.7-2.2C110.4,18,113.2,22.6,113.2,22.6z"/>
<path class="st1" d="M129.5,28.9h-4.9V0h4.9v13.1c0.9-2.3,4-3.3,5.8-3.3c4.9,0,7.5,3.2,7.5,8.7v10.4h-4.9V18.7c0-2.7-2-4.2-4-4.2
	s-4.5,1.1-4.5,4.4L129.5,28.9L129.5,28.9z M145,19.5c0-5.9,4.4-9.7,9.8-9.7c5.3,0,9.8,3.8,9.8,9.7s-4.5,9.8-9.8,9.8
	C149.4,29.3,145,25.4,145,19.5z M159.6,19.5c0-3-2.2-4.9-4.9-4.9s-4.9,1.9-4.9,4.9c0,3.1,2.2,5,4.9,5S159.6,22.6,159.6,19.5z
	 M184,18.9v10h-4.9V18.6c0-2.6-1.5-4.1-3.5-4.1s-3.9,1.2-3.9,4.4v10h-4.9V10.2h4.9V13c1-2.3,3.6-3.1,5.4-3.1c3,0.2,4.9,1.2,6,3.5
	c1.8-3.1,4.4-3.5,5.9-3.5c4.5,0,7.2,2.9,7.2,8.4V29h-4.9V18.7c0-2.7-1.5-4.2-3.5-4.2C185.7,14.6,184,16.1,184,18.9z"/>
<path class="st0" d="M110.2,26.7c6,9.6,14.4,17.7,24.3,23.3s21.4,8.8,33.6,8.8c22.9,0,43.2-11.3,55.5-28.7l-3.5-2.5
	c-11.6,16.2-30.5,26.8-52,26.8c-11.4,0-22.1-3-31.4-8.3c-9.3-5.3-17.1-12.8-22.7-21.8L110.2,26.7L110.2,26.7z"/>
<path class="st1" d="M213.1,22.8c-0.9,1.6-2.8,2.4-4.7,2.4c-2.8,0-4.9-1.5-5.2-4h14.3c0-0.4,0.1-1.2,0.1-1.7c0-5.9-4.2-9.7-9.5-9.7
	s-9.7,3.8-9.7,9.7s4.4,9.8,9.7,9.8c3.3,0,6.7-1.2,8.5-4.1L213.1,22.8L213.1,22.8z M208.1,13.9c2.4,0,4.3,1.4,4.7,4h-9.6
	C203.6,15.3,205.6,13.9,208.1,13.9L208.1,13.9z"/>
</svg>
