<?xml version="1.0" encoding="UTF-8"?>
<svg aria-label="Illustration choix immeuble"  width="344px" height="214px" viewBox="0 0 344 214" version="1.1" xmlns="http://www.w3.org/2000/svg" xmlns:xlink="http://www.w3.org/1999/xlink">
    <title>undraw_select_house_re_s1j9</title>
    <g id="8_Propriétaires" stroke="none" stroke-width="1" fill="none" fill-rule="evenodd">
        <g id="DossierFacile/Propriétaire/Landing/V0.2" transform="translate(-98.000000, -2378.000000)" fill-rule="nonzero">
            <g id="Group-2" transform="translate(29.000000, 2050.000000)">
                <g id="Group-3" transform="translate(59.000000, 72.000000)">
                    <g id="undraw_select_house_re_s1j9" transform="translate(10.000000, 256.000000)">
                        <g id="Group" transform="translate(139.150830, 0.000000)">
                            <g transform="translate(40.969303, 189.341411)" id="Path">
                                <polygon fill="#FFB6B6" points="1.28554576 21.3421761 6.84262333 21.3416349 9.48615635 0 1.28443051 0.00056919947"></polygon>
                                <path d="M20.3247893,21.2166676 L20.3247893,21.2166676 C20.4978166,21.5068147 20.5891169,22.4432738 20.5891169,22.7806878 L20.5891169,22.7806878 C20.5891169,23.8178112 19.7447064,24.6585888 18.7030285,24.6585888 L1.49341275,24.6585888 C0.782803787,24.6585888 0.20670857,24.0850317 0.20670857,23.3774654 L0.20670857,22.6640905 C0.20670857,22.6640905 -0.644627662,20.5200048 1.1081325,17.8773096 C1.1081325,17.8773096 3.28658421,19.9465876 6.54175507,16.7055472 L7.50167322,14.9741264 L14.4501804,20.0338525 L18.3016287,20.5058774 C19.1442491,20.6091312 19.8913051,20.4898466 20.3247378,21.216663 L20.324794,21.216663 L20.3247893,21.2166676 Z" fill="#2F2E41"></path>
                            </g>
                            <g transform="translate(19.882699, 189.341411)" id="Path">
                                <polygon fill="#FFB6B6" points="1.28555218 21.3421761 6.84262975 21.3416349 9.48616276 0 1.28443693 0.00056919947"></polygon>
                                <path d="M20.3247957,21.2166676 L20.3247957,21.2166676 C20.497823,21.5068147 20.5891233,22.4432738 20.5891233,22.7806878 L20.5891233,22.7806878 C20.5891233,23.8178112 19.7447128,24.6585888 18.7030349,24.6585888 L1.49341448,24.6585888 C0.782805518,24.6585888 0.206710302,24.0850317 0.206710302,23.3774654 L0.206710302,22.6640905 C0.206710302,22.6640905 -0.644630616,20.5200048 1.10813423,17.8773096 C1.10813423,17.8773096 3.28658594,19.9465876 6.5417568,16.7055472 L7.50167495,14.9741264 L14.4501821,20.0338525 L18.3016304,20.5058774 C19.1442509,20.6091312 19.8913068,20.4898466 20.3247395,21.216663 L20.3248051,21.216663 L20.3247957,21.2166676 Z" fill="#2F2E41"></path>
                            </g>
                            <polygon id="Path" fill="#2F2E41" points="17.0756894 96.0433149 10.0468236 111.906251 18.9500537 198.685852 29.9619435 199.385687 34.4135585 122.63707 38.6308781 199.618965 51.7514276 198.219295 54.8636782 100.493979"></polygon>
                            <path d="M44.7686852,32.8248539 L30.6648301,30.2587907 L27.8163869,33.0948691 L13.326961,39.1233726 L15.6699163,84.3794007 C15.6699163,84.3794007 10.9840057,87.4873324 13.326961,91.7653237 C15.6699163,96.0433149 15.2013252,101.175451 15.2013252,101.175451 L54.8636876,101.175451 L53.1572102,75.5148188 L57.8431207,42.8558328 L46.8939612,37.6945467 L44.7686993,32.8248586 L44.7686899,32.8248586 L44.7686852,32.8248539 Z" id="Path" fill="#0063CB"></path>
                            <path d="M34.546137,85.5497355 C38.5530404,86.5021135 42.2945151,85.2156154 42.9028306,82.6765705 C43.5111555,80.1375256 40.7561728,77.3079464 36.747709,76.3557597 C35.1517347,75.9535316 33.4822198,75.9376967 31.8788417,76.3095939 L14.8502427,72.4877927 L13.2192928,80.4823485 L30.1796322,83.4011894 C31.4419087,84.4543018 32.9391836,85.1910372 34.546123,85.5497261 L34.5461323,85.5497355 L34.546137,85.5497355 Z" id="b-840" fill="#FFB6B6"></path>
                            <path d="M16.1385073,41.4561573 L13.326961,39.1233726 C13.326961,39.1233726 7.70386832,41.9227143 6.7666862,44.255499 C5.82950409,46.5882837 0.206411409,68.9830216 0.206411409,68.9830216 C0.206411409,68.9830216 -0.896806573,81.2563805 1.99775536,82.8178906 C4.89231729,84.3794007 23.1673732,83.4462868 23.1673732,83.4462868 L24.5731464,74.115148 L17.0756894,71.3158063 L16.1385073,41.4561573 Z" id="Path" fill="#0063CB"></path>
                            <ellipse id="Oval" fill="#FFB6B6" cx="38.6021769" cy="16.6021092" rx="12.3863799" ry="12.3326116"></ellipse>
                            <path d="M29.718487,27.5500171 C28.2346278,27.6820387 25.8122932,23.9025543 25.9202613,20.2422657 C25.9897205,17.8875295 23.9364623,17.4245324 23.7839031,14.3877973 C23.6950161,12.6183381 26.4248729,12.0666251 26.6123937,10.6474009 C26.9521503,8.07590701 28.6184039,6.34554529 28.8264302,6.13518876 C30.6221461,4.3193818 31.8894975,4.90967897 34.0012218,2.8052039 C35.272589,1.53820787 34.9468245,1.19109417 35.8030529,0.62911234 C38.2741865,-0.99279822 42.714471,0.765043706 45.3697657,3.1329275 C46.2886165,3.95230879 49.7136189,3.05677141 51.2097364,5.37062324 C52.9724213,8.09676211 52.5631586,13.6563946 51.8072931,14.3901114 C51.3480691,14.8358785 50.2993249,13.7468133 47.4568937,13.047855 C44.8252816,12.4007312 47.3077786,15.6009479 44.2654231,15.0639176 C40.6678293,14.4288683 39.9634901,13.3390892 38.6161409,13.9927122 C37.1918724,14.6836503 36.0789733,16.8231172 36.4021044,18.5049243 C36.5624468,19.339506 37.0271486,19.8048686 36.7650797,20.2292581 C36.2866482,21.0040599 35.7376563,20.244174 35.1239754,21.0217471 C34.41018,21.9261677 36.1839377,24.2463554 35.8499354,24.4704194 C35.7826363,24.5155727 35.5789117,24.5096848 33.6643564,22.6764053 C32.8998782,21.9443821 32.6757558,21.4948592 32.5261956,21.5638583 C32.2840746,21.675552 30.6970738,23.1475531 31.3030511,24.3099984 C32.2460719,26.1189843 31.0391922,26.1753397 31.3030511,27.3931513 C31.5752744,28.6495145 30.661489,27.4661208 29.7184683,27.5500218 L29.7184823,27.5500218 L29.718487,27.5500171 Z" id="Path" fill="#2F2E41"></path>
                            <path d="M42.8854271,87.4695473 C39.2334487,89.367389 37.2567301,92.7818999 38.4701794,95.0957564 C39.6836288,97.4096129 43.6272255,97.7463317 47.2802583,95.847319 C48.7499379,95.1086707 50.0205882,94.0303363 50.9858951,92.7025106 L66.3574765,84.4666888 L62.3220406,77.3669426 L47.5968244,86.2397732 C45.9502469,86.2691803 44.3347043,86.6908684 42.8854318,87.4695473 L42.8854271,87.4695473 Z" id="c-841" fill="#FFB6B6"></path>
                            <path d="M55.031565,43.3223851 C55.031565,43.3223851 59.2488845,40.5230435 62.0604309,47.9879545 C64.2785113,53.8771489 68.3922863,71.236361 70.0301526,78.3024405 C70.4649536,80.1782234 69.8357248,82.1376692 68.3906275,83.4166325 L66.5120459,85.0792315 L57.3745203,91.8443071 L51.1444757,82.8178859 L58.7111154,78.2755855 L50.0818518,59.6373029 L55.0315744,43.3223898 L55.031565,43.3223804 L55.031565,43.3223851 Z" id="Path" fill="#0063CB"></path>
                        </g>
                        <g id="Group" transform="translate(164.461520, 9.806689)">
                            <ellipse id="Oval" fill="#FF6884" cx="148.943992" cy="12.3755162" rx="12.4294715" ry="12.3755162"></ellipse>
                            <path d="M130.607236,89.6731681 L116.588922,88.7834487 L115.832586,26.0217189 C115.814684,24.4983732 116.424672,23.0066833 117.506705,21.929352 L132.524781,6.97646795 C134.627092,4.88347484 137.935991,4.73221708 140.221816,6.62550982 L156.519698,20.1242992 C157.849307,21.2255135 158.600238,22.8446807 158.579812,24.5665698 L158.019818,71.76654 L165.103396,81.5620943 L165.118424,81.5828141 L166.318654,91.9396737 L130.607241,89.6731681 L130.607236,89.6731681 Z" id="Path" fill="#EEEEEE"></path>
                            <path d="M132.963209,21.5898992 L132.963209,18.6796056 C132.963209,17.9114149 133.590924,17.2864199 134.362469,17.2864199 L138.469309,17.2864199 C139.240853,17.2864199 139.86847,17.9114103 139.86847,18.6796056 L139.86847,21.5898992 C139.86847,22.3580898 139.240848,22.9830849 138.469309,22.9830849 L134.362469,22.9830849 C133.590924,22.9830849 132.963209,22.3580945 132.963209,21.5898992 Z" id="Path" fill="#FDF6DA"></path>
                            <path d="M124.282307,44.1801244 L124.282307,33.4123588 C124.282307,32.6441634 124.910022,32.0191731 125.681566,32.0191731 L131.761339,32.0191731 C132.532883,32.0191731 133.1605,32.6441634 133.1605,33.4123588 L133.1605,44.1801244 C133.1605,44.9483198 132.532878,45.5733101 131.761339,45.5733101 L125.681566,45.5733101 C124.910022,45.5733101 124.282307,44.9483198 124.282307,44.1801244 Z" id="Path" fill="#3F3D56"></path>
                            <path d="M138.025094,69.3851214 C137.290254,69.3592228 136.697702,68.7655011 136.675926,68.0336599 L136.368521,57.6261555 C136.355419,57.181872 136.548573,56.7690484 136.898455,56.4930007 C137.248343,56.2171442 137.696396,56.1250646 138.127781,56.2390164 L138.435186,56.3207385 C139.046716,56.4832217 139.473865,57.0366562 139.473865,57.66683 L139.473865,67.9928035 C139.473865,68.3741672 139.322041,68.7302108 139.04643,68.9951311 C138.783049,69.2483502 138.440195,69.3858959 138.076053,69.3858959 C138.059099,69.3858959 138.042141,69.3857046 138.025094,69.3851307 L138.025094,69.3851214 Z" id="Path" fill="#3F3D56"></path>
                            <path d="M119.382817,68.9951265 C119.107206,68.7302061 118.955382,68.3741625 118.955382,67.9927989 L118.955382,57.6668253 C118.955382,57.0366562 119.382531,56.483217 119.99416,56.3207339 L120.301565,56.2390118 C120.73324,56.1250646 121.181002,56.2171442 121.530792,56.492996 C121.880679,56.7688525 122.073828,57.1818674 122.060824,57.6261509 L121.753325,68.0336553 C121.731648,68.7654965 121.139096,69.3592182 120.404158,69.3851167 C120.387106,69.3856906 120.370152,69.3858819 120.353199,69.3858819 C119.98915,69.3858819 119.646198,69.248145 119.382822,68.9951171 L119.382817,68.9951265 Z" id="Path" fill="#3F3D56"></path>
                            <path d="M125.268775,67.9490685 L125.268775,57.1500342 C125.268775,56.3876895 125.868459,55.7759353 126.633931,55.7571378 L132.159777,55.6230446 C132.925731,55.6124958 133.570213,56.2110137 133.592658,56.9754672 L133.910948,67.90859 C133.921932,68.2882274 133.781669,68.6473363 133.515786,68.9197402 C133.250095,69.1921441 132.893656,69.3421562 132.51227,69.3421562 L126.66804,69.3421562 C125.896495,69.3421562 125.268775,68.7171658 125.268775,67.9490685 L125.268775,67.9490685 Z" id="Path" fill="#3F3D56"></path>
                            <path d="M157.930214,75.3282684 L162.261284,82.9945221 L162.758468,91.6161351 L166.207148,91.8341759 L165.023389,81.6194668 L157.920833,71.7976314 L157.920833,71.7976314 C157.307831,72.896247 157.311383,74.2329 157.930214,75.328273 L157.930214,75.3282684 Z" id="Path" fill="#CCCCCC"></path>
                            <polygon id="Rectangle" fill="#3F3D56" transform="translate(155.592862, 89.342433) rotate(-0.783290) translate(-155.592862, -89.342433) " points="148.563776 89.2437897 162.621937 89.2446239 162.621948 89.4410772 148.563788 89.440243"></polygon>
                            <polygon id="Rectangle" fill="#3F3D56" transform="translate(155.103967, 87.564914) rotate(-0.447610) translate(-155.103967, -87.564914) " points="148.439722 87.4664662 161.768205 87.4669182 161.768212 87.6633621 148.439728 87.6629101"></polygon>
                            <polygon id="Rectangle" fill="#3F3D56" transform="translate(154.702953, 85.865444) rotate(-1.118920) translate(-154.702953, -85.865444) " points="148.327244 85.7666673 161.078645 85.767748 161.078662 85.9642201 148.327261 85.9631394"></polygon>
                            <polygon id="Rectangle" fill="#3F3D56" transform="translate(154.561423, 84.182036) rotate(-1.901700) translate(-154.561423, -84.182036) " points="148.436487 84.082881 160.686331 84.0846446 160.686359 84.281192 148.436515 84.2794283"></polygon>
                            <polygon id="Rectangle" fill="#3F3D56" transform="translate(154.209713, 82.616759) rotate(-2.013480) translate(-154.209713, -82.616759) " points="148.324572 82.5175831 160.094823 82.5193771 160.094853 82.715934 148.324602 82.7141399"></polygon>
                            <rect id="Rectangle" fill="#3F3D56" x="147.844789" y="80.9320045" width="11.4570701" height="1"></rect>
                            <polygon id="Rectangle" fill="#3F3D56" transform="translate(153.142698, 79.716746) rotate(-0.671400) translate(-153.142698, -79.716746) " points="147.575082 79.6182385 158.710303 79.6188049 158.710313 79.8152535 147.575092 79.8146871"></polygon>
                            <polygon id="Rectangle" fill="#3F3D56" transform="translate(152.723458, 78.456212) rotate(-1.901700) translate(-152.723458, -78.456212) " points="147.325936 78.3571613 158.120952 78.3587155 158.120981 78.5552629 147.325964 78.5537087"></polygon>
                            <polygon id="Rectangle" fill="#3F3D56" transform="translate(152.396605, 77.003264) rotate(-1.007050) translate(-152.396605, -77.003264) " points="147.068774 76.9046239 157.724422 76.9054367 157.724437 77.1019041 147.068789 77.1010913"></polygon>
                            <polygon id="Rectangle" fill="#3F3D56" transform="translate(151.833602, 75.708202) rotate(-1.789910) translate(-151.833602, -75.708202) " points="146.730492 75.6092434 156.936686 75.6106265 156.936712 75.8071598 146.730519 75.8057767"></polygon>
                            <polygon id="Rectangle" fill="#3F3D56" transform="translate(151.484112, 74.400487) rotate(-0.559510) translate(-151.484112, -74.400487) " points="146.42823 74.3020489 156.539985 74.3024775 156.539993 74.498926 146.428238 74.4984974"></polygon>
                            <path d="M145.688619,70.2080905 L145.688619,56.8866488 C145.688619,56.1183601 146.316334,55.4933698 147.087879,55.4933698 L153.562238,55.4933698 C154.333782,55.4933698 154.961399,56.1183601 154.961399,56.8866488 L154.961399,70.2080905 C154.961399,70.9761879 154.333777,71.6011782 153.562238,71.6011782 L147.087879,71.6011782 C146.316334,71.6011782 145.688619,70.9761879 145.688619,70.2080905 Z" id="Path" fill="#FDF6DA"></path>
                            <path d="M130.607236,89.6731681 L119.146408,88.9463144 L119.054025,88.9403658 L119.054025,80.109152 C119.054025,78.9923033 119.966602,78.0835904 121.088324,78.0835904 L132.408599,78.0835904 C133.530317,78.0835904 134.442898,78.9923033 134.442898,80.109152 L134.442898,89.6733594 L134.34425,89.6733594 L130.607241,89.6731681 L130.607236,89.6731681 Z" id="Path" fill="#CCCCCC"></path>
                            <path d="M146.477792,46.0463662 L146.477792,35.8678153 C146.477792,35.09962 147.105507,34.4746296 147.877052,34.4746296 L150.010959,34.4746296 C150.782504,34.4746296 151.410121,35.09962 151.410121,35.8678153 L151.410121,46.0463662 C151.410121,46.8144636 150.782499,47.4394539 150.010959,47.4394539 L147.877052,47.4394539 C147.105507,47.4394539 146.477792,46.8144636 146.477792,46.0463662 Z" id="Path" fill="#3F3D56"></path>
                            <path d="M148.648053,90.6555551 L148.056176,82.0123404 L146.280539,73.7619994 L145.787304,71.5029773 L145.787304,71.5029773 C144.773747,70.8167514 143.408863,71.5800899 143.470075,72.7989372 L143.518433,73.7619994 L145.29407,82.0123404 L145.885948,90.6555551" id="Path" fill="#CCCCCC"></path>
                            <path d="M108.80421,72.1852795 L113.13528,79.8515333 L113.632464,88.4731463 L117.081145,88.691187 L115.897385,78.476478 L108.794829,68.6546425 L108.794829,68.6546425 C108.181827,69.7532582 108.185379,71.0899111 108.80421,72.1852842 L108.80421,72.1852795 Z" id="Path" fill="#CCCCCC"></path>
                            <polygon id="Path" fill="#CCCCCC" points="0 81.5476637 0.0254304366 81.1555599 179.53848 92.6980714 178.823011 103.998808"></polygon>
                        </g>
                        <g id="Group" transform="translate(0.000000, 1.758567)">
                            <ellipse id="Oval" fill="#FDF6DA" cx="30.5944882" cy="12.3755162" rx="12.4294715" ry="12.3755162"></ellipse>
                            <path d="M13.2198253,91.9396737 L14.4200557,81.5828141 L14.4350834,81.5620943 L21.5186619,71.76654 L20.9586675,24.5665698 C20.9382463,22.8446761 21.6891728,21.2255135 23.0187812,20.1242992 L39.316664,6.62550982 C41.6024887,4.73221708 44.9113882,4.88347484 47.0136985,6.97646795 L62.0317748,21.929352 C63.1138031,23.0066833 63.7237962,24.4983778 63.7058934,26.0217189 L62.9495572,88.7834487 L48.9312434,89.6731681 L13.2198253,91.9396737 L13.2198253,91.9396737 Z" id="Path" fill="#EEEEEE"></path>
                            <path d="M45.1760109,22.9830849 L41.0691711,22.9830849 C40.2976266,22.9830849 39.6700098,22.3580898 39.6700098,21.5898992 L39.6700098,18.6796056 C39.6700098,17.9114103 40.2976313,17.2864199 41.0691711,17.2864199 L45.1760109,17.2864199 C45.9475555,17.2864199 46.5752707,17.9114149 46.5752707,18.6796056 L46.5752707,21.5898992 C46.5752707,22.3580945 45.9475555,22.9830849 45.1760109,22.9830849 L45.1760109,22.9830849 Z" id="Path" fill="#FEEBE6"></path>
                            <path d="M53.8569086,45.5733101 L47.7771365,45.5733101 C47.0055919,45.5733101 46.3779751,44.9483198 46.3779751,44.1801244 L46.3779751,33.4123588 C46.3779751,32.6441634 47.0055966,32.0191731 47.7771365,32.0191731 L53.8569086,32.0191731 C54.6284532,32.0191731 55.2561684,32.6441634 55.2561684,33.4123588 L55.2561684,44.1801244 C55.2561684,44.9483198 54.6284532,45.5733101 53.8569086,45.5733101 Z" id="Path" fill="#3F3D56"></path>
                            <path d="M41.4624221,69.3858912 C41.0982753,69.3858912 40.7554213,69.2483456 40.492045,68.9951265 C40.2164338,68.7302061 40.0646103,68.3741625 40.0646103,67.9927989 L40.0646103,57.6668253 C40.0646103,57.0366562 40.4917592,56.483217 41.1032893,56.3207339 L41.4106944,56.2390118 C41.8420793,56.1250646 42.290132,56.2171442 42.6400196,56.492996 C42.9899071,56.7690438 43.1830557,57.1818674 43.1699539,57.6261509 L42.8625488,68.0336553 C42.840778,68.7654965 42.2482212,69.3592182 41.5133814,69.3851167 C41.4963294,69.3856906 41.4793757,69.3858912 41.4624221,69.3858912 L41.4624221,69.3858912 Z" id="Path" fill="#3F3D56"></path>
                            <path d="M59.1852809,69.3859006 C59.1683273,69.3859006 59.151369,69.3856999 59.1343217,69.3851261 C58.3993835,69.3592275 57.8068313,68.7655058 57.7851543,68.0336646 L57.4776555,57.6261602 C57.4646521,57.1818767 57.6578006,56.7688618 58.0076882,56.4930054 C58.3574774,56.2171489 58.8052442,56.1250692 59.236915,56.2390211 L59.5443201,56.3207432 C60.1559486,56.4832263 60.5830974,57.0366608 60.5830974,57.6668346 L60.5830974,67.9928082 C60.5830974,68.3741718 60.4312739,68.7302154 60.1556627,68.9951358 C59.8922818,69.2481636 59.549334,69.3859006 59.1852856,69.3859006 L59.1852809,69.3859006 Z" id="Path" fill="#3F3D56"></path>
                            <path d="M52.8704448,69.3421562 L47.0262146,69.3421562 C46.6448283,69.3421562 46.2883899,69.1921441 46.0226987,68.9197402 C45.7568155,68.6473363 45.6165521,68.2882274 45.6275359,67.90859 L45.9458264,56.9754672 C45.9682719,56.2110137 46.6127486,55.6124958 47.3787075,55.6230446 L52.9045535,55.7571378 C53.6700298,55.7759353 54.2697092,56.3876941 54.2697092,57.1500342 L54.2697092,67.9490685 C54.2697092,68.7171658 53.641994,69.3421562 52.8704495,69.3421562 L52.8704448,69.3421562 Z" id="Path" fill="#3F3D56"></path>
                            <path d="M21.6176471,71.7976267 L21.6176471,71.7976267 L14.5150906,81.6194668 L13.3313312,91.8341759 L16.7800114,91.6161351 L17.2771959,82.9945221 L21.6082659,75.3282684 C22.2270966,74.2328953 22.2306486,72.8962423 21.6176471,71.7976267 L21.6176471,71.7976267 Z" id="Path" fill="#CCCCCC"></path>
                            <polygon id="Rectangle" fill="#3F3D56" transform="translate(23.945611, 89.342434) rotate(-89.216710) translate(-23.945611, -89.342434) " points="23.846967 82.3133473 24.0434203 82.313359 24.0442545 96.3715198 23.8478012 96.3715081"></polygon>
                            <polygon id="Rectangle" fill="#3F3D56" transform="translate(24.434510, 87.564914) rotate(-89.552390) translate(-24.434510, -87.564914) " points="24.3360624 80.9006685 24.5325063 80.9006752 24.5329582 94.2291585 24.3365144 94.2291519"></polygon>
                            <polygon id="Rectangle" fill="#3F3D56" transform="translate(24.835527, 85.865446) rotate(-88.881080) translate(-24.835527, -85.865446) " points="24.7367506 79.4897377 24.9332227 79.4897545 24.9343034 92.241155 24.7378313 92.2411383"></polygon>
                            <polygon id="Rectangle" fill="#3F3D56" transform="translate(24.977059, 84.182034) rotate(-88.098300) translate(-24.977059, -84.182034) " points="24.8779033 78.0570977 25.0744507 78.0571261 25.0762143 90.3069702 24.879667 90.3069418"></polygon>
                            <polygon id="Rectangle" fill="#3F3D56" transform="translate(25.328764, 82.616757) rotate(-87.986520) translate(-25.328764, -82.616757) " points="25.229589 76.7316161 25.4261458 76.7316462 25.4279399 88.501897 25.2313831 88.5018669"></polygon>
                            <rect id="Rectangle" fill="#3F3D56" x="20.2366202" y="80.9320045" width="11.4570701" height="1"></rect>
                            <polygon id="Rectangle" fill="#3F3D56" transform="translate(26.395778, 79.716750) rotate(-89.328600) translate(-26.395778, -79.716750) " points="26.297271 74.1491348 26.4937195 74.1491448 26.4942859 85.2843659 26.2978373 85.2843558"></polygon>
                            <polygon id="Rectangle" fill="#3F3D56" transform="translate(26.815019, 78.456209) rotate(-88.098300) translate(-26.815019, -78.456209) " points="26.7159678 73.0586864 26.9125152 73.0587148 26.9140694 83.8537312 26.717522 83.8537028"></polygon>
                            <polygon id="Rectangle" fill="#3F3D56" transform="translate(27.141876, 77.003266) rotate(-88.992950) translate(-27.141876, -77.003266) " points="27.043236 71.6754343 27.2397034 71.6754494 27.2405163 82.3310973 27.0440489 82.3310823"></polygon>
                            <polygon id="Rectangle" fill="#3F3D56" transform="translate(27.704873, 75.708200) rotate(-88.210090) translate(-27.704873, -75.708200) " points="27.6059147 70.6050903 27.802448 70.6051171 27.8038311 80.8113104 27.6072979 80.8112837"></polygon>
                            <polygon id="Rectangle" fill="#3F3D56" transform="translate(28.054367, 74.400487) rotate(-89.440490) translate(-28.054367, -74.400487) " points="27.9559284 69.3446055 28.152377 69.3446139 28.1528056 79.4563689 27.956357 79.4563606"></polygon>
                            <path d="M32.4506008,71.6011829 L25.9762421,71.6011829 C25.2046976,71.6011829 24.5770808,70.9761926 24.5770808,70.2080952 L24.5770808,56.8866535 C24.5770808,56.1183648 25.2047023,55.4933745 25.9762421,55.4933745 L32.4506008,55.4933745 C33.2221453,55.4933745 33.8498605,56.1183648 33.8498605,56.8866535 L33.8498605,70.2080952 C33.8498605,70.9761926 33.2221453,71.6011829 32.4506008,71.6011829 Z" id="Path" fill="#FEEBE6"></path>
                            <path d="M45.1942298,89.6733594 L45.095582,89.6733594 L45.095582,80.109152 C45.095582,78.9923033 46.0081584,78.0835904 47.129881,78.0835904 L58.4501553,78.0835904 C59.5718733,78.0835904 60.4844543,78.9923033 60.4844543,80.109152 L60.4844543,88.9403658 L60.3920716,88.9463144 L48.9312434,89.6731681 L45.1942344,89.6733594 L45.1942298,89.6733594 Z" id="Path" fill="#CCCCCC"></path>
                            <path d="M31.6614278,47.4394586 L29.5275204,47.4394586 C28.7559758,47.4394586 28.128359,46.8144682 28.128359,46.0463709 L28.128359,35.86782 C28.128359,35.0996246 28.7559805,34.4746343 29.5275204,34.4746343 L31.6614278,34.4746343 C32.4329724,34.4746343 33.0606876,35.0996246 33.0606876,35.86782 L33.0606876,46.0463709 C33.0606876,46.8144682 32.4329724,47.4394586 31.6614278,47.4394586 Z" id="Path" fill="#3F3D56"></path>
                            <path d="M33.6525321,90.6555551 L34.2444095,82.0123404 L36.0200463,73.7619994 L36.0684049,72.7989372 C36.1296122,71.5800852 34.764733,70.8167467 33.7511752,71.5029773 L33.7511752,71.5029773 L33.257941,73.7619994 L31.4823042,82.0123404 L30.8904268,90.6555551" id="Path" fill="#CCCCCC"></path>
                            <path d="M70.7436464,68.6546379 L70.7436464,68.6546379 L63.6410899,78.476478 L62.4573305,88.691187 L65.9060107,88.4731463 L66.4031952,79.8515333 L70.7342652,72.1852795 C71.3530959,71.0899065 71.3566478,69.7532535 70.7436464,68.6546379 L70.7436464,68.6546379 Z" id="Path" fill="#CCCCCC"></path>
                            <polygon id="Path" fill="#CCCCCC" points="0.715468255 103.998813 0 92.6980714 179.513049 81.1555599 179.53848 81.5476637"></polygon>
                        </g>
                    </g>
                </g>
            </g>
        </g>
    </g>
</svg>