<?xml version="1.0" encoding="UTF-8"?>
<svg width="326px" height="222.204633px" viewBox="0 0 326 222.204633" version="1.1" xmlns="http://www.w3.org/2000/svg" xmlns:xlink="http://www.w3.org/1999/xlink">
    <title>undraw_share_link_re_54rx</title>
    <g id="8_Propriétaires" stroke="none" stroke-width="1" fill="none" fill-rule="evenodd">
        <g id="DossierFacile/Propriétaire/Landing/V0.2" transform="translate(-79.000000, -2903.498069)" fill-rule="nonzero">
            <g id="Group-2" transform="translate(29.000000, 2050.000000)">
                <g id="Group-3-Copy" transform="translate(50.000000, 606.000000)">
                    <g id="Group-9" transform="translate(0.000000, 243.000000)">
                        <g id="undraw_share_link_re_54rx" transform="translate(0.000000, 4.498069)">
                            <path d="M113.268038,212.849136 C112.736723,212.873488 112.246771,212.56416 112.041587,212.074824 C111.836403,211.585488 111.959722,211.020442 112.350278,210.660399 L112.43705,210.316403 C112.425623,210.288854 112.41413,210.261329 112.402571,210.233827 C111.868304,208.975391 110.628767,208.159712 109.258383,208.164789 C107.888,208.169867 106.654576,208.994708 106.129701,210.257069 C105.10374,212.721165 103.797512,215.189459 103.475888,217.794831 C103.334238,218.946464 103.393992,220.113872 103.652494,221.245137 C101.242797,216.003344 99.9915054,210.306147 99.9834548,204.539813 C99.9829468,203.092822 100.063566,201.646935 100.224934,200.20892 C100.358296,199.030044 100.543316,197.859562 100.779994,196.697476 C102.071546,190.392103 104.844555,184.482172 108.871292,179.453028 C110.820223,178.392606 112.396353,176.761917 113.387286,174.780709 C113.74628,174.068532 114.000004,173.308284 114.140569,172.523614 C113.920727,172.552371 113.311606,169.213428 113.477423,169.008576 C113.17104,168.544949 112.622651,168.31449 112.288045,167.862077 C110.623864,165.612089 108.331044,166.004947 107.134097,169.062508 C104.577132,170.34941 104.552382,172.483649 106.121325,174.536301 C107.119491,175.842208 107.256661,177.609249 108.132462,179.007327 C108.042334,179.122352 107.948625,179.233778 107.858529,179.348803 C106.211419,181.460862 104.775843,183.728809 103.572384,186.120128 C103.86505,183.441152 103.515752,180.731163 102.553221,178.213072 C101.577702,175.866309 99.7492427,173.889863 98.1390771,171.861087 C96.2049912,169.424217 92.2389694,170.487718 91.8982242,173.576832 C91.8949164,173.606738 91.8916958,173.636639 91.8885624,173.666533 C92.1277272,173.801071 92.3618401,173.943879 92.590901,174.094958 C93.1798955,174.487358 93.4669286,175.200073 93.3137102,175.889721 C93.1604918,176.579369 92.5984485,177.104496 91.8983686,177.2121 L91.8633432,177.217498 C91.948542,178.077067 92.0991452,178.928934 92.3138511,179.765735 C90.2481934,187.731882 94.7078045,190.633318 101.075525,190.763659 C101.216091,190.83553 101.353071,190.907405 101.493637,190.975717 C100.284527,194.392672 99.5261002,197.951905 99.2374303,201.563901 C99.0740064,203.694879 99.08365,205.835547 99.266267,207.964975 L99.2554414,207.889506 C98.7940736,205.521626 97.5273885,203.385069 95.6692948,201.840642 C92.9095665,199.579953 89.0105913,198.747461 86.0333313,196.930306 C85.3872896,196.516681 84.5592175,196.514668 83.9111618,196.925148 C83.2631061,197.335628 82.9129503,198.083933 83.0137883,198.842892 C83.0177817,198.869341 83.0218413,198.895793 83.0259671,198.922247 C83.4697911,199.102501 83.9019221,199.310154 84.3198488,199.544 C84.5590107,199.678573 84.7931235,199.821382 85.0221875,199.972424 C85.6111593,200.364845 85.8981733,201.077553 85.7449571,201.767194 C85.5917408,202.456835 85.0297182,202.981965 84.3296505,203.089598 L84.2945936,203.094964 C84.2693744,203.098563 84.2477412,203.102161 84.2225491,203.10576 C84.9808762,204.911363 86.0452141,206.573327 87.3689458,208.018857 C88.6605496,214.972997 94.208004,215.63279 100.142055,213.607675 L100.145663,213.607675 C100.796742,216.42905 101.740093,219.175311 102.960516,221.802203 L113.016067,221.802203 C113.052152,221.69079 113.084557,221.575769 113.117011,221.464338 C112.186245,221.522696 111.251814,221.467189 110.334576,221.299056 C111.080641,220.386138 111.826707,219.466027 112.572772,218.553141 C112.589413,218.536077 112.605057,218.518075 112.619629,218.499222 C112.998074,218.032024 113.380105,217.568366 113.758533,217.101145 L113.758736,217.100578 C113.77891,215.66838 113.614102,214.23955 113.268376,212.84932 L113.268038,212.849136 Z" id="Path" fill="#FEF4F2"></path>
                            <polygon id="Path" fill="#A0616A" points="35.9238934 197.682426 38.6984077 200.606632 51.5813378 191.088682 47.4865498 186.772768"></polygon>
                            <path d="M40.4704477,199.299929 L37.3294278,196.357497 L36.5581029,195.636733 L28.5615837,202.012064 L30.6417206,204.204521 L33.0902036,202.63866 L31.9653683,205.599813 L37.4804586,211.412591 C38.0228427,211.984802 38.8753183,212.138875 39.5845843,211.792881 C40.2938504,211.446888 40.695138,210.681206 40.5750637,209.902984 L39.3848012,202.224085 L41.482232,200.246061 L40.4704477,199.299929 Z" id="Path" fill="#2F2E41"></path>
                            <path d="M96.9001624,91.2121845 L96.0204957,100.78861 C96.0204957,100.78861 94.485063,108.003576 95.5482284,107.418789 C96.6113937,106.834002 94.7051838,109.466066 95.2072216,111.748502 C95.7092594,114.030939 90.9188761,131.051629 93.088559,129.288416 C95.2582418,127.525202 91.8346869,139.706055 89.6694336,145.715426 C89.0064866,147.573082 88.3252533,149.453363 87.6396312,151.320041 C87.5044012,151.698029 87.3689458,152.071186 87.2293089,152.449173 C86.3406118,154.878099 85.4519102,157.271 84.5995511,159.529048 C84.4777629,159.844004 84.3603637,160.158736 84.243208,160.469297 C84.23858,160.478082 84.23858,160.487087 84.2341866,160.487087 C81.4284495,167.850508 79.0242252,173.643989 78.0635062,174.602247 C77.5628848,175.101476 69.6196502,180.823136 61.6132075,186.553586 C53.2098798,192.567581 44.7387161,198.594962 44.7387161,198.594962 L36.8269976,190.318529 C36.8269976,190.318529 37.0164097,190.264498 37.3727889,190.156656 C38.031347,189.967552 39.2493006,189.612185 40.846092,189.139976 C47.50374,187.183264 39.0462301,184.13805 45.0907064,181.961031 C46.7956457,181.349349 47.932344,180.87253 48.1893712,180.620601 C49.691461,179.158723 51.7078261,175.672706 52.6595192,177.134584 C53.6112123,178.596462 57.9280607,167.733629 59.1729024,166.658542 C59.8404819,166.078289 62.0191635,163.366019 63.8866403,160.981903 C65.4922455,158.930749 66.8725382,157.118119 66.8725382,157.118119 C66.8725382,157.118119 66.8996293,156.146461 66.9401532,154.599146 C66.9989633,152.309692 67.084639,148.751634 67.1749382,145.189186 C67.1703147,145.184571 67.1703147,145.184571 67.1749382,145.184571 C67.2064362,143.844141 67.2379297,142.503712 67.2696623,141.230753 C67.2921299,140.245699 67.3145931,139.296666 67.3372818,138.41945 C67.3958664,135.792639 67.4363902,133.804521 67.4363902,133.309687 C67.4363902,131.685941 67.4363902,132.94993 68.7219768,131.969257 C68.913955,131.818901 69.0962462,131.656637 69.2677682,131.483428 C69.542625,131.236748 69.7961468,130.967409 70.0256422,130.67827 C70.1203663,130.475991 69.5294232,130.750312 68.7625188,130.597449 C68.3472493,130.514288 67.9631831,130.31808 67.6528935,130.030573 C66.0380368,128.582315 67.7793186,124.12925 67.7793186,124.12925 C64.1075685,116.806245 64.373847,110.801255 66.092219,106.172706 C67.3772474,102.851297 69.4168231,99.8721241 72.0508166,97.4690852 C73.0533041,96.5164208 74.1454913,95.6622759 75.3122445,94.918486 L75.4250113,94.3114198 L76.665446,87.6137112 C77.3250652,87.2523605 78.0110771,86.9411398 78.7176439,86.6826973 C80.9208706,85.8943673 83.284944,85.6595428 85.600821,85.9989882 C87.9024932,86.3311171 90.1309098,87.0505387 92.1910706,88.126583 C93.875047,88.9702254 95.455289,90.0056685 96.9001624,91.2121845 Z" id="Path" fill="#2F2E41"></path>
                            <polygon id="Path" fill="#A0616A" points="62.256294 212.602578 66.2757538 212.975469 69.6628173 197.347319 63.7299305 196.797203"></polygon>
                            <path d="M73.8325411,218.72831 L67.8603032,213.740004 L68.1309886,210.870279 L66.7418866,210.825254 L62.4387056,210.685786 L62.4340821,210.685786 L61.3786526,210.649765 L59.5878211,220.698642 L62.6054335,220.977353 L63.4038225,218.188674 L64.5180577,221.157452 L66.1148355,221.305925 L72.5064261,221.899595 C72.5606038,221.903986 72.6191929,221.908593 72.6733706,221.908593 C73.1873726,221.909246 73.6769078,221.689758 74.0175508,221.305916 C74.2791906,221.02025 74.4392531,220.65664 74.4730249,220.271225 C74.5266592,219.683227 74.2872393,219.106469 73.8325411,218.72831 L73.8325411,218.72831 Z" id="Path" fill="#2F2E41"></path>
                            <path d="M84.5995601,159.529062 C83.0703837,167.828121 76.5975243,187.286751 72.6824009,198.676027 C70.9005998,203.880236 69.6557401,207.402273 69.6557401,207.402273 L67.6259377,206.763576 L67.6213143,206.763576 L64.1887516,205.68386 L62.9392954,205.288083 L62.9346675,205.288083 L61.4191449,204.806868 C61.4191449,204.806868 61.5951197,195.513751 61.6131804,186.553599 C61.6266177,182.797652 61.608557,179.095736 61.5365351,176.162975 C61.4552663,172.964899 61.3154084,170.675441 61.0854679,170.221004 C60.1335583,168.358733 61.7259472,168.160844 63.4084188,167.693025 C65.0952974,167.220816 63.7782173,166.510083 63.1240796,164.998789 C62.6822638,163.991109 63.5526837,162.64629 64.1706998,161.881534 C64.3412187,161.666327 64.5234216,161.460589 64.7164912,161.265242 C64.7164912,161.265242 64.4187146,161.161786 63.8865952,160.981917 C65.4922004,158.930763 66.8724931,157.118133 66.8724931,157.118133 C66.8724931,157.118133 66.8995842,156.146474 66.9401081,154.59916 C66.9989182,152.309706 67.0845939,148.751648 67.1748931,145.1892 C67.1702696,145.184584 67.1702696,145.184584 67.1748931,145.184584 C67.2063911,143.844155 67.2378846,142.503725 67.2696172,141.230767 C69.8495997,143.20549 72.3575604,145.139797 74.6309571,146.930031 C74.6365889,146.934317 74.6399186,146.940958 74.6399784,146.948023 C80.102339,151.252615 84.2026886,154.707222 84.7799689,155.804732 C85.0416059,156.299355 84.9513023,157.621986 84.5995601,159.529062 Z" id="Path" fill="#2F2E41"></path>
                            <path d="M219.075478,12.9962476 C220.639035,12.8504303 222.034779,13.9725203 222.22362,15.5271543 C222.239683,15.6794147 222.243075,15.8327401 222.23376,15.9855587 L231.535596,19.9466768 L231.180678,25.3606271 L219.026605,18.560578 C217.726001,18.3805394 216.71039,17.3490961 216.553629,16.0490492 C216.473021,15.321709 216.685459,14.5922267 217.144208,14.0210814 C217.602958,13.4499361 218.27044,13.0839133 218.999816,13.0035345 C219.025007,13.0007637 219.050227,12.9983348 219.075478,12.9962476 Z" id="Path" fill="#FFB6B6"></path>
                            <path d="M282.360814,46.4158307 C282.131193,45.3662116 281.704165,44.3694999 281.102337,43.4784591 C280.93515,43.224903 280.752893,42.9815532 280.556545,42.7497152 C279.825984,41.8817285 279.144759,41.0855582 278.51331,40.3748247 C278.129858,39.9294062 277.755436,39.5156182 277.403685,39.1334564 C275.360445,36.8978131 274.020681,35.7148705 273.407288,35.6158136 C273.109516,35.5663976 272.816363,35.530377 272.532024,35.4943653 C271.075307,35.3144868 270.019661,35.1840243 269.988163,33.650105 C269.984989,33.4303381 270.000017,33.210685 270.033094,32.9933844 C270.087855,32.6284991 270.167775,32.2678122 270.272286,31.9138888 C270.332314,31.7132777 270.379034,31.5089437 270.412144,31.302212 C270.457291,31.0368924 270.43923,30.8387832 270.294749,30.7173259 C270.114367,30.5690735 269.812188,30.5914784 269.243726,30.8163827 C269.153648,30.8524034 269.049912,30.8928142 268.941547,30.9422302 C268.905426,30.9558504 268.869525,30.9738607 268.82878,30.9918711 C268.756759,31.0232767 268.67549,31.0592974 268.594437,31.0997082 C267.913213,31.4236693 266.862191,31.4640802 265.662501,31.3426048 C262.121578,30.9828479 257.331195,29.2016193 257.272606,29.1789984 L227.105083,17.4885987 L226.825588,17.9384073 L226.162425,19.0088978 L225.932484,19.3776599 L225.670829,19.800453 L224.529507,21.6357081 L223.952241,22.5623408 L233.695333,29.889723 L234.755165,30.6858843 L235.66655,31.3742129 L254.268449,45.3677002 L261.205808,49.9332126 L262.75305,50.9496721 L269.347702,55.2858901 C271.262622,56.547593 273.607571,56.9840759 275.849978,56.4962073 C278.092384,56.0083388 280.041926,54.6375262 281.255835,52.6951004 C282.426777,50.8240946 282.822976,48.5726165 282.360814,46.4158307 L282.360814,46.4158307 Z" id="Path" fill="#E6E6E6"></path>
                            <path d="M325.548933,222.204633 L0.451067193,222.204633 C0.201949661,222.204633 0,222.003247 0,221.754825 C0,221.506402 0.201949661,221.305016 0.451067193,221.305016 L325.548933,221.305016 C325.79805,221.305016 326,221.506402 326,221.754825 C326,222.003247 325.79805,222.204633 325.548933,222.204633 Z" id="Path" fill="#E6E6E6"></path>
                            <polygon id="Path" fill="#FFB6B6" points="74.3877462 75.024117 75.2330461 82.8426902 74.73597 93.094728 97.5080973 90.3972258 99.647509 75.024117 96.9212589 75.0511055"></polygon>
                            <path d="M93.7579246,49.7710656 L85.187648,43.0239365 L85.187648,43.0239365 L80.6888481,42.7630925 L74.0133875,47.0276154 L72.3787966,55.3434026 L68.5129794,64.7076126 L74.1830654,89.9786654 C74.1830654,89.9786654 74.7148736,91.7920733 73.321297,92.0098931 C71.9277204,92.2277129 72.0948183,94.9007456 72.0948183,94.9007456 C72.0948183,94.9007456 72.3786027,97.2173993 71.0254011,97.4214055 C69.6721995,97.6254117 66.0638559,97.6254117 69.2213263,101.673689 C72.3787966,105.721967 97.3524611,90.4107111 97.3524611,90.4107111 L100.979709,71.4314057 C100.979709,71.4314057 108.014165,62.0096111 100.438595,56.6135901 L93.7579246,49.7710656 Z" id="Path" fill="#E6E6E6"></path>
                            <path d="M56.3446615,107.148013 C55.5802135,106.196751 55.2775576,104.956689 55.5181323,103.761503 C55.758707,102.566317 56.5177998,101.53878 57.5911541,100.955381 L68.371209,64.8785984 L75.1118939,68.2627784 L63.3721891,102.841995 C64.254859,104.746914 63.5692764,107.009119 61.7763684,108.107697 C59.9834605,109.206275 57.6499358,108.793984 56.344657,107.148013 L56.3446615,107.148013 Z" id="Path" fill="#A0616A"></path>
                            <path d="M75.5614771,46.6938125 C75.5614771,46.6938125 73.6345812,45.672603 72.3165809,50.0916667 C71.261431,53.6294519 62.6995352,74.7020226 62.5903363,79.8253336 C61.1409458,80.131619 60.0836363,81.3779723 60.0209719,82.8540929 L70.6069866,84.2687409 C72.4568132,82.7128935 72.9420984,80.6115226 72.22639,79.987836 L74.5248435,73.7278226 L84.1138194,53.8105673 L76.9674716,47.4073259 L75.5614771,46.6938125 Z" id="Path" fill="#E6E6E6"></path>
                            <path d="M132.125804,95.2895691 C132.402559,94.102195 132.137696,92.8535626 131.402484,91.8796536 C130.667271,90.9057445 129.537232,90.3066011 128.316438,90.2434407 L103.587234,62.0794529 L98.341471,68.3213525 L123.922073,94.4375237 C123.952276,96.5357549 125.551451,98.2798509 127.644449,98.4972301 C129.737447,98.7146094 131.662705,97.3365618 132.125844,95.2895691 L132.125804,95.2895691 Z" id="Path" fill="#A0616A"></path>
                            <path d="M88.5826503,49.0673355 C88.5826503,49.0673355 89.8772131,47.3156009 92.9819086,50.7317173 C95.4674693,53.4665807 112.325573,68.7747146 114.645764,73.3471181 C116.085445,72.9982519 117.579267,73.6660894 118.275894,74.9700275 L109.344385,80.8106484 C107.001781,80.2055073 105.652941,78.5200565 106.027805,77.6490651 L101.24071,72.9958265 L83.9575291,59.1723084 L87.6243355,50.3169893 L88.5826503,49.0673355 Z" id="Path" fill="#E6E6E6"></path>
                            <ellipse id="Oval" fill="#FEF4F2" cx="180.799892" cy="63.4221811" rx="63.149407" ry="62.9732051"></ellipse>
                            <g id="undraw_coming_home_re_ausc" style="mix-blend-mode: hard-light;" transform="translate(144.792569, 11.695024)">
                                <path d="M66.5867144,13.7127453 L66.5867144,25.3542404 L61.1273425,29.0304175 L53.1068061,34.4276647 L44.1940976,40.4280067 L30.2077239,33.4429101 L12.5355082,24.6179248 L8.8550733,22.7798363 L5.17463837,19.8381745 L16.538567,9.7025744 L19.802408,6.79189909 C23.6575379,3.3539122 28.6447945,1.4536903 33.8128866,1.4536903 L54.3134679,1.4536903 C57.5685366,1.4536903 60.6902863,2.7452652 62.9919668,5.04428429 C65.2936473,7.34330338 66.5867144,10.4614423 66.5867144,13.7127453 L66.5867144,13.7127453 Z" id="Path" fill="#3F3D56"></path>
                                <path d="M61.1760029,19.7859663 L66.5867108,13.9116441 C76.0473806,48.7695279 76.8206143,82.4689082 66.5867108,114.700466 L59.7214921,114.700466 L59.3520067,114.331408 L49.781434,104.773708 L44.2265366,99.2252366 L44.3725284,98.1558688 L44.8771914,94.4778914 L45.9856475,86.3892216 L47.1950363,77.5642363 L48.404425,68.7410512 L49.6138138,59.9160659 L50.5943019,52.756342 L50.6447682,52.3944852 L50.8232026,51.0910806 L52.0325913,42.2660952 L53.1068025,34.4276647 L53.2419801,33.4429101 L54.1323497,26.9474905 L54.5018351,24.2506672 L61.1273389,19.8381745 L61.1760029,19.7859663 Z" id="Path" fill="#CCCCCC"></path>
                                <path d="M5.17400574,19.8377496 L61.1272741,19.8377496 L61.1272741,114.701195 L5.17400574,114.701195 C-0.935487403,79.9908372 -2.4712453,47.5931314 5.17400574,19.8377496 Z" id="Path" fill="#F2F2F2"></path>
                                <rect id="Rectangle" fill="#CCCCCC" x="26.8927046" y="91.5368633" width="10.3071806" height="23.1643317"></rect>
                                <rect id="Rectangle" fill="#3F3D56" x="11.4319347" y="77.5647296" width="42.7011883" height="8.82450467"></rect>
                                <rect id="Rectangle" fill="#3F3D56" x="39.1883997" y="98.6493064" width="18.206241" height="3.76245023"></rect>
                                <rect id="Rectangle" fill="#3F3D56" x="6.74578036" y="98.6493064" width="18.206241" height="3.76245023"></rect>
                                <rect id="Rectangle" fill="#3F3D56" x="11.4319347" y="59.915713" width="42.7011883" height="8.82450467"></rect>
                                <rect id="Rectangle" fill="#3F3D56" x="11.4319347" y="42.2667019" width="42.7011883" height="8.82450467"></rect>
                                <rect id="Rectangle" fill="#3F3D56" x="11.4319347" y="24.6176854" width="42.7011883" height="8.82450467"></rect>
                                <path d="M32.8590051,1.10803423 L55.2421631,0.0148468268 C61.6447055,-0.297851881 67.2098282,4.36362227 68.0170951,10.7154224 L70.7321602,32.0782959 L61.1958325,19.796768 L61.1760065,19.7859663 L32.639118,5.00204551 L32.0727852,4.70871467 C30.3405819,3.81152583 30.9100868,1.20330879 32.8589943,1.10803423 L32.8590051,1.10803423 Z" id="Path" fill="#3F3D56"></path>
                                <rect id="Rectangle" fill="#F2F2F2" x="26.0311152" y="8.45514778" width="18.206241" height="3.76245023"></rect>
                                <path d="M37.2081202,89.1472546 L28.7369919,89.1472546 C22.8369591,66.1414359 22.8369591,43.5778939 28.7369919,21.4566285 L37.2081202,21.4566285 C42.6008334,44.408932 42.7942491,66.9864148 37.2081202,89.1472546 Z" id="Path" fill="#F2F2F2"></path>
                            </g>
                            <path d="M235.66655,31.3742309 C233.014329,26.8825207 229.822731,22.7300927 226.162425,19.0088888 C225.345966,18.1813084 224.502637,17.3715225 223.641027,16.5843574 C223.162873,16.148169 222.680308,15.7207609 222.188496,15.3023579 C221.254868,14.5017975 220.294144,13.7280278 219.315365,12.9814984 C208.257958,4.54714152 194.719976,-0.0156115115 180.79866,4.01333358e-05 C145.732593,4.01333358e-05 117.198181,28.4504749 117.198181,63.4230942 C117.196562,67.2793162 117.548292,71.1276201 118.248988,74.9200088 C118.25011,74.9412609 118.253207,74.9623634 118.258239,74.983045 C118.578497,76.7238583 118.975368,78.4420462 119.435466,80.1288285 C126.095802,104.458893 146.580026,122.541138 171.606016,126.181865 C196.632006,129.822592 221.442857,118.329775 234.795901,96.9112146 C235.675346,95.4987526 236.502303,94.0503449 237.27677,92.5659915 C247.316502,73.2471357 246.708491,50.1414282 235.66655,31.3742309 L235.66655,31.3742309 Z M180.79866,125.946494 C164.168278,125.952182 148.217393,119.366743 136.457936,107.640097 C124.698479,95.9134518 118.094613,80.0070741 118.100317,63.4230942 C118.100317,28.945089 146.228812,0.899697689 180.79866,0.899697689 C197.699716,0.909251864 213.88062,7.72486192 225.670825,19.800444 C227.19292,21.3498499 228.629433,22.9806167 229.974006,24.6855274 C231.305312,26.3538268 232.547472,28.0909736 233.69531,29.889732 C243.375547,45.0544182 246.038024,63.6417471 241.002468,80.9025982 C240.447655,82.8096698 239.798155,84.6765509 239.06739,86.5072135 C238.332204,88.3424686 237.515745,90.141703 236.613611,91.8869244 C225.859093,112.7548 204.326633,125.894403 180.79866,125.946494 Z" id="Shape" fill="#FEF4F2"></path>
                            <polygon id="Path" fill="#FFB6B6" points="267.318657 212.745617 263.172899 212.710532 261.337506 196.391925 267.456684 196.443653"></polygon>
                            <path d="M268.418463,210.838649 L267.335946,210.766832 L262.919999,210.465497 L261.498961,210.371037 L261.472091,213.326203 L254.850348,217.806297 C254.179095,218.261029 253.882421,219.098251 254.118147,219.872585 C254.353874,220.646919 255.067211,221.178382 255.878682,221.184251 L264.11968,221.251903 L265.563185,218.337143 L266.090897,221.269895 L269.203216,221.29669 L268.418463,210.838649 Z" id="Path" fill="#2F2E41"></path>
                            <polygon id="Path" fill="#FFB6B6" points="310.96888 209.724702 307.006255 210.939635 300.316929 195.93492 306.165917 194.141983"></polygon>
                            <path d="M311.440994,207.577536 L310.385569,207.834071 L306.087215,208.873156 L304.702299,209.210513 L305.572714,212.039809 L300.615382,218.301109 C300.176405,218.858042 300.094577,219.615933 300.404608,220.253285 C300.71464,220.890637 301.36218,221.295713 302.072541,221.296681 C302.255991,221.29631 302.438391,221.269079 302.613907,221.215859 L310.493929,218.800333 L310.98552,215.584247 L312.37925,218.220062 L315.352153,217.30705 L311.440994,207.577536 Z" id="Path" fill="#2F2E41"></path>
                            <path d="M258.979561,75.5300302 L251.067775,98.4585202 L250.806513,100.29329 C248.812989,102.180844 251.317306,102.802682 250.378301,103.300458 C249.439296,103.798234 248.807789,105.193612 250.073213,105.442941 C251.338636,105.69227 255.41844,195.122602 260.799893,198.595003 C266.181345,202.067404 269.456449,204.579054 268.468035,199.49462 C268.069797,197.446074 268.633071,186.462729 269.447712,174.07688 C269.540041,172.673144 270.998657,171.187368 269.733346,169.82259 C268.468035,168.457812 269.889226,167.559738 269.968713,166.42712 C271.103769,150.253437 272.414323,134.285636 272.414323,134.285636 C272.414323,134.285636 280.801583,163.009141 282.979552,160.785584 C285.157521,158.562027 284.295464,164.036612 284.961009,165.67253 C285.517175,167.039642 283.144156,169.724856 286.631708,169.766058 C290.11926,169.807261 298.309716,197.72693 299.140604,197.695376 C300.786733,197.632781 305.414137,197.809583 308.161948,197.245568 C309.518938,196.967042 303.495473,175.828898 298.465677,157.575665 C298.064565,156.120016 295.881549,156.086141 297.285541,153.275805 C298.689532,150.465468 291.703832,132.281375 292.303296,131.440372 C293.894435,129.208129 294.500332,128.237829 292.931159,128.091637 C291.361986,127.945445 290.898371,128.803828 290.813624,126.638431 C290.728878,124.473035 290.458016,119.133352 290.458016,119.133352 C290.458016,119.133352 289.321435,98.0153823 281.361836,86.3479183 L280.683029,79.4155445 L258.979561,75.5300302 Z" id="Path" fill="#2F2E41"></path>
                            <path d="M278.745443,31.7538424 L268.253395,33.2436085 L267.620286,40.8197618 L262.442824,48.8961564 C262.442824,48.8961564 250.93434,56.9724699 258.960585,69.7305399 C255.906192,80.7207631 252.869414,91.2607369 249.974262,98.2876784 C247.718926,112.231745 267.923579,113.568212 291.021377,108.633276 C291.021377,108.633276 290.702923,102.670991 288.606814,99.804622 C286.510705,96.9382526 287.651733,96.3124249 287.651733,96.3124249 L286.18715,90.9574219 C287.01594,83.216895 284.217474,82.5221926 282.902158,78.9459083 L286.895298,41.8391811 L278.745443,31.7538424 Z" id="Path" fill="#E6E6E6"></path>
                            <path d="M228.377476,96.6125012 C228.608673,95.0635676 230.034523,93.9797712 231.593522,94.1679669 C231.745626,94.188753 231.895743,94.2220642 232.042334,94.267559 L238.119923,86.20523 L243.307394,87.8411479 L233.784436,97.9879305 C233.298678,99.2044502 232.051831,99.9417679 230.748407,99.7832741 C230.020873,99.6877285 229.361198,99.3078897 228.914506,98.7273185 C228.467813,98.1467473 228.270693,97.4130014 228.366511,96.6874978 C228.369827,96.6624495 228.373483,96.6374506 228.377476,96.6125012 Z" id="Path" fill="#FFB6B6"></path>
                            <path d="M282.360814,46.4158307 C282.211926,46.2313417 282.049605,46.0514633 281.878254,45.8759749 C279.439855,43.3698921 275.709226,42.6126685 272.482488,43.9688719 C272.329197,44.0316877 272.175681,44.103729 272.027014,44.1757839 C266.636675,46.815994 263.727422,48.5748176 263.375468,49.3980033 C263.25368,49.6769341 263.149935,49.9512679 263.046189,50.216574 C262.946855,50.477499 262.852149,50.7248038 262.753041,50.9497081 C262.33809,51.9123615 261.859928,52.5106429 260.641965,52.2407128 C260.238117,52.1422277 259.848566,51.9926149 259.482804,51.7955192 C259.315855,51.7144727 259.162546,51.629036 259.018078,51.5479895 C258.494989,51.2602694 258.115944,51.0533755 257.858917,51.2422591 C257.610915,51.4265322 257.601885,51.8943511 257.827418,52.9784619 C257.902025,53.4309179 257.889769,53.8933881 257.791302,54.341283 C257.493033,55.6479139 257.026028,56.9104337 256.401978,58.0972298 C255.466936,59.957573 254.415373,61.7573684 253.253529,63.485937 L242.522641,78.743409 L241.796481,79.7734707 L241.00249,80.9026072 L234.669507,89.9077756 L235.043929,90.289933 L236.613643,91.8868885 L236.960964,92.2422373 L237.276802,92.5659735 L238.093256,93.3981644 L238.859939,94.1763333 L255.968999,80.2772923 L257.877013,78.7253626 L261.296139,75.9456894 L268.301086,70.255687 L281.558014,58.0208074 C283.248935,56.4726732 284.234306,54.304322 284.28688,52.0158175 C284.28688,51.939386 284.291535,51.8673446 284.291535,51.7909132 C284.296424,49.8294836 283.61345,47.9280733 282.360814,46.4158307 L282.360814,46.4158307 Z" id="Path" fill="#E6E6E6"></path>
                            <ellipse id="Oval" fill="#FFB6B6" cx="272.446574" cy="19.7867248" rx="11.7240618" ry="11.6913489"></ellipse>
                            <path d="M287.983543,35.9984388 C289.557017,38.2440978 290.609545,40.81084 291.064783,43.5124916 C289.796739,44.3214675 288.320642,44.7463664 286.815342,44.7359014 C286.764227,44.5391393 286.713112,44.3425459 286.65473,44.1459436 C286.218532,42.6236622 285.569636,41.1701835 284.72714,39.8282802 C284.842616,41.2752846 284.645924,42.7301684 284.150302,44.0950162 C283.354852,43.7345034 282.502407,43.5152043 281.631339,43.4469905 C280.921718,43.4469394 280.221807,43.6114488 279.586904,43.927521 C278.849495,41.4883798 278.170423,39.2458006 277.688548,37.6366732 C277.673933,41.6704084 271.745169,45.1871605 265.276108,44.6774914 C265.042455,44.5318614 267.386236,37.8988217 267.15989,37.7459048 C266.641474,37.4037174 266.137673,37.0323734 265.633871,36.6683208 C267.751307,33.4063762 270.051231,29.9114758 269.656971,29.3872688 C269.68616,30.0352946 267.36431,33.1515641 264.83804,36.0930965 C263.436123,35.0664893 271.402024,18.3637283 267.466539,17.0094625 C267.400805,17.5992291 266.531928,17.5992291 265.473274,17.4754643 C265.194001,16.5023676 264.778602,15.573374 264.23933,14.7158884 C264.309453,15.5796542 264.205168,16.4486727 263.93264,17.271548 C262.887203,17.2718426 261.844689,17.3816649 260.822266,17.5992066 C260.585723,17.2280091 260.324733,16.8728782 260.041017,16.5361559 C260.068974,16.9465312 260.056749,17.3586469 260.004517,17.7666569 C258.960373,17.9923663 258.098808,18.2544743 257.974714,18.4656594 C257.156957,18.167108 258.551512,16.8201291 258.040448,16.121131 C256.740771,14.3737055 258.668361,11.8253329 259.887686,10.0195987 C262.392074,6.32084951 267.890069,5.03937627 271.78171,7.26009036 C271.956981,6.65575001 272.855042,6.2553034 274.008683,5.98590852 C274.49751,5.87844096 274.997835,5.83197045 275.498156,5.84756539 C280.463125,5.93493171 287.35568,10.0195987 287.625833,14.9634676 C287.647755,15.4585764 287.684255,15.9973662 287.720751,16.5725544 C288.071208,22.1061899 287.640461,27.2102222 291.429877,31.2584906 C292.802551,32.7219474 292.81712,39.6535296 292.291442,43.2212675 C290.926043,41.7868908 289.954941,36.2096149 287.983543,35.9984388 Z" id="Path" fill="#2F2E41"></path>
                            <ellipse id="Oval" fill="#6C63FF" cx="158.858707" cy="63.6524021" rx="1.35320158" ry="1.34942582"></ellipse>
                            <ellipse id="Oval" fill="#6C63FF" cx="201.71009" cy="62.7527849" rx="1.35320158" ry="1.34942582"></ellipse>
                            <path d="M72.8989899,24.6480808 C71.8691538,27.2057421 68.963821,32.2354839 68.5702965,34.9793164 L68.747417,34.8056228 C69.0853016,35.3812004 69.4692486,35.9286262 69.8955139,36.4425618 C70.6595303,35.6424117 71.5822833,35.0097057 72.6049978,34.5847443 C72.046527,35.7274344 71.7230876,36.9700452 71.6537422,38.2393403 C72.7501648,41.6666075 77.8189286,40.1403619 80.788755,39.7661347 C83.7544586,43.1490327 87.7001509,44.0317911 92.8670263,42.0869132 C94.3120968,42.235278 95.9297726,42.3253117 96.9423778,41.473824 C97.9549831,40.6223363 97.3519468,39.0454378 97.8967503,37.8527478 C101.777448,29.3572396 98.1960785,26.2921178 95.1532424,22.4399389 C94.4836286,21.5922116 94.4864252,20.3271429 93.6716355,19.5183285 C92.5411032,18.3971986 90.8081211,18.0523573 89.210378,17.7761253 C90.0544671,17.8204705 90.8606452,17.4226406 91.3372951,16.7265419 C91.7565034,16.0234327 91.7453259,15.1453812 91.3083546,14.4531103 C90.7369382,13.5084177 89.5495309,12.959062 88.4039781,12.8218299 C87.2753756,12.7454037 86.1416999,12.8425836 85.0427336,13.1099593 C84.3308612,13.203328 83.6415048,13.4230511 83.0072974,13.7587272 C82.3945404,14.0847395 82.0489393,14.7556728 82.1401027,15.4422574 C82.3334728,16.0694952 82.8032864,16.5744631 83.41605,16.8136788 C83.8772577,17.0081241 84.3623469,17.1405464 84.8585629,17.2074638 C82.5793734,16.9125219 80.2641534,17.3166292 78.2209242,18.3660223 C75.6602699,19.7280968 73.9323532,22.091787 72.8989899,24.6480808 Z" id="Path" fill="#2F2E41"></path>
                            <ellipse id="Oval" fill="#A0616A" cx="86.7643308" cy="29.8594464" rx="9.15339829" ry="9.12785813"></ellipse>
                            <path d="M77.956477,24.9652409 C78.4872207,26.5647603 80.003871,27.080178 81.4056841,27.4016382 C81.8476848,27.50437 82.2924191,27.6000938 82.7412444,27.6852785 C82.9068312,27.4788164 83.0829594,27.2764835 83.2669001,27.0852338 C84.0309145,26.2850835 84.9536682,25.6523802 85.9763841,25.2274253 C85.5341323,26.1300423 85.2402136,27.0976673 85.1058695,28.0932909 C85.9532984,28.2158997 86.8054305,28.3160991 87.6622657,28.393889 C89.1678446,28.7134477 90.6604022,27.8002168 91.0567358,26.3169607 C91.8367483,27.5889655 92.7590634,28.7868913 94.0203465,29.2921838 C95.5008834,29.822663 97.1552666,29.3291012 98.1004026,28.0749567 C98.8276392,27.0783009 99.3318859,25.9375976 99.5790731,24.729919 C99.9370174,23.3134717 100.135821,21.681782 99.4330446,20.7830959 C98.870027,20.0557554 97.8988478,20.0427109 97.0026945,20.107227 C95.0248563,20.2585277 93.0678737,20.6123308 91.1626509,21.1630492 L91.0013808,21.5246683 C91.328815,19.5631475 90.6185962,17.675899 89.3045382,17.0047171 C88.4181912,16.555961 87.3518007,16.6312095 86.3156994,16.7222373 C84.9848128,16.7814524 83.6698367,17.0350482 82.4127728,17.4749245 C80.9706876,18.0280917 79.7352173,19.0120744 78.8753956,20.2922467 C77.9556967,21.6847462 77.4986528,23.5838831 77.956477,24.9652409 Z" id="Path" fill="#2F2E41"></path>
                            <path d="M91.0054901,16.4338695 C90.9151819,16.4072813 91.1491865,16.4414352 91.0680305,16.4436078 C91.1083491,16.4412774 91.1484109,16.4356829 91.1878204,16.4268794 C91.1945233,16.42553 91.2856434,16.3965443 91.2251147,16.4178833 C91.3610621,16.3773428 91.4823327,16.298421 91.5742813,16.1906489 C91.7892904,15.9255018 91.9579642,15.6261247 92.0732202,15.3050882 C92.2187189,14.8808388 92.4525349,14.4920653 92.759325,14.1642792 C92.9359263,13.9873933 93.1865404,13.905111 93.4339781,13.9427754 C93.6814158,13.9804397 93.8960009,14.1335334 94.0116409,14.3549035 C94.127415,14.77597 94.0877659,15.2244907 93.8999071,15.6188657 C93.7687064,16.0201598 93.5734416,16.3977176 93.3216389,16.7369865 C92.8997293,17.2917774 92.3250881,17.7121942 91.6677559,17.9469941 C90.9068875,18.2225621 90.0772077,18.2462052 89.3018003,18.0144159 C89.0924882,17.9278212 88.9542122,17.7261273 88.9492696,17.5002031 C88.9443269,17.2742789 89.0736505,17.0667632 89.2789763,16.9711478 L90.5721859,16.4432839 C90.7573812,16.3620246 90.9719814,16.3854627 91.1351486,16.5047693 C91.2983158,16.624076 91.3852611,16.8211257 91.363233,17.0216917 C91.3412049,17.2222577 91.21355,17.3958692 91.0283547,17.4771285 L89.735145,18.0049969 L89.712321,16.9617289 C89.8736551,17.0081755 90.0396917,17.0364854 90.2073357,17.0461309 C90.38623,17.0640029 90.566764,17.0564121 90.7435148,17.0235865 C90.9127935,17.0014548 91.079151,16.9610003 91.2396436,16.9029389 C91.3424401,16.865501 91.4432659,16.8228868 91.5417323,16.7752607 C91.5774899,16.7579431 91.6129272,16.7399627 91.6480443,16.7213196 C91.6455138,16.7226691 91.7959943,16.6352892 91.7299897,16.6763388 C91.8972428,16.5697535 92.0541683,16.4478528 92.1987297,16.3122187 C92.2497795,16.2641217 92.2968033,16.2119457 92.3393318,16.1562116 C92.4129853,16.0659526 92.4812909,15.971482 92.5438998,15.873282 C92.6712954,15.6653243 92.7722097,15.4423472 92.8443106,15.2095039 C92.8771848,15.1116452 92.9049284,15.0121464 92.9274287,14.9114113 C92.9336816,14.8561167 92.943711,14.8013122 92.9574473,14.7473795 C93.0054363,14.6188692 92.9483357,14.8224166 93.0035418,14.8780984 L93.2419218,15.0532674 C93.3326012,15.0802078 93.4306458,15.0645543 93.5083582,15.010729 C93.536595,14.9710949 93.5304214,14.9776696 93.4898374,15.0304531 C93.4426107,15.092567 93.3993838,15.1576066 93.3604172,15.2251797 C93.2749789,15.3842565 93.1976958,15.5475568 93.1288663,15.7144501 C92.9865896,16.069392 92.8067079,16.4081671 92.5922813,16.7250126 C92.1613134,17.3823651 91.3558201,17.6894997 90.5949919,17.486579 C90.3053502,17.3715962 90.1617619,17.0461712 90.2724337,16.7555411 C90.3905947,16.469487 90.7141657,16.3275012 91.0054901,16.4338695 L91.0054901,16.4338695 Z" id="Path" fill="#2F2E41"></path>
                        </g>
                    </g>
                </g>
            </g>
        </g>
    </g>
</svg>