<?xml version="1.0" encoding="UTF-8"?>
<svg width="352.538202px" height="270.371745px" viewBox="0 0 352.538202 270.371745" version="1.1" xmlns="http://www.w3.org/2000/svg" xmlns:xlink="http://www.w3.org/1999/xlink">
    <title>undraw_nakamoto_-2-iv6</title>
    <g id="8_Propriétaires" stroke="none" stroke-width="1" fill="none" fill-rule="evenodd">
        <g id="DossierFacile/Propriétaire/Landing/V0.2" transform="translate(-68.461798, -3403.628255)">
            <g id="Group-2" transform="translate(29.000000, 2050.000000)">
                <g id="Group-3-Copy-2" transform="translate(0.000000, 1146.000000)">
                    <g id="undraw_nakamoto_-2-iv6" transform="translate(0.000000, 181.000000)">
                        <rect id="Rectangle" fill="#3F3D56" fill-rule="nonzero" x="152.179202" y="68.6998777" width="1" height="38.4758036"></rect>
                        <rect id="Rectangle" fill="#3F3D56" fill-rule="nonzero" x="152.179202" y="118.628738" width="1" height="33.8548991"></rect>
                        <rect id="Rectangle" fill="#3F3D56" fill-rule="nonzero" x="151.100547" y="157.877441" width="55.7304945" height="1"></rect>
                        <rect id="Rectangle" fill="#3F3D56" fill-rule="nonzero" x="127.370143" y="167.586289" width="1" height="30.5648907"></rect>
                        <rect id="Rectangle" fill="#3F3D56" fill-rule="nonzero" x="133.842072" y="203.544984" width="84.4946207" height="1"></rect>
                        <g id="Group"></g>
                        <g id="Group"></g>
                        <rect id="Rectangle" fill="#3F3D56" fill-rule="nonzero" x="288.089698" y="44.2479652" width="1" height="36.3182819"></rect>
                        <rect id="Rectangle" fill="#3F3D56" fill-rule="nonzero" x="229.830053" y="86.3196382" width="52.8663714" height="1"></rect>
                        <rect id="Rectangle" fill="#3F3D56" fill-rule="nonzero" x="223.729916" y="92.0730438" width="1" height="48.5442381"></rect>
                        <path d="M152.538754,119.042051 C149.162981,119.042051 146.426377,116.305177 146.426377,112.929072 C146.426377,109.552968 149.162981,106.816094 152.538754,106.816094 C155.914526,106.816094 158.65113,109.552968 158.65113,112.929072 C158.647366,116.303616 155.912965,119.038285 152.538754,119.042051 Z M152.538754,107.535268 C149.560131,107.535268 147.14548,109.950157 147.14548,112.929072 C147.14548,115.907988 149.560131,118.322877 152.538754,118.322877 C155.517376,118.322877 157.932027,115.907988 157.932027,112.929072 C157.928714,109.95153 155.516003,107.538582 152.538754,107.535268 L152.538754,107.535268 Z" id="Shape" fill="#3F3D56" fill-rule="nonzero"></path>
                        <path d="M128.089246,210.017549 C124.713474,210.017549 121.97687,207.280675 121.97687,203.904571 C121.97687,200.528466 124.713474,197.791592 128.089246,197.791592 C131.465019,197.791592 134.201623,200.528466 134.201623,203.904571 C134.197858,207.279114 131.463458,210.013784 128.089246,210.017549 L128.089246,210.017549 Z M128.089246,198.510766 C125.110624,198.510766 122.695973,200.925655 122.695973,203.904571 C122.695973,206.883486 125.110624,209.298375 128.089246,209.298375 C131.067869,209.298375 133.48252,206.883486 133.48252,203.904571 C133.479207,200.927028 131.066496,198.51408 128.089246,198.510766 L128.089246,198.510766 Z" id="Shape" fill="#3F3D56" fill-rule="nonzero"></path>
                        <ellipse id="Oval" stroke="#6A6AF4" stroke-width="0.9" fill-rule="nonzero" cx="152.898201" cy="158.237078" rx="5.75282524" ry="5.75339119"></ellipse>
                        <rect id="Rectangle" fill="#3F3D56" fill-rule="nonzero" x="301.393107" y="112.569486" width="59.6855619" height="1"></rect>
                        <rect id="Rectangle" fill="#3F3D56" fill-rule="nonzero" x="295.28073" y="118.628738" width="1" height="33.8548991"></rect>
                        <rect id="Rectangle" fill="#3F3D56" fill-rule="nonzero" x="241.707545" y="157.877441" width="47.8203598" height="1"></rect>
                        <rect id="Rectangle" fill="#3F3D56" fill-rule="nonzero" x="325.842614" y="161.113724" width="49.6181177" height="1"></rect>
                        <rect id="Rectangle" fill="#3F3D56" fill-rule="nonzero" x="320.089789" y="167.586289" width="1" height="30.5648907"></rect>
                        <rect id="Rectangle" fill="#3F3D56" fill-rule="nonzero" x="229.842343" y="203.544984" width="84.4946207" height="1"></rect>
                        <rect id="Rectangle" fill="#3F3D56" fill-rule="nonzero" x="223.729966" y="175.856789" width="1" height="22.2943908"></rect>
                        <ellipse id="Oval" stroke="#6A6AF4" stroke-width="0.9" fill-rule="nonzero" cx="295.640177" cy="112.929123" rx="5.75282524" ry="5.75339119"></ellipse>
                        <path d="M288.44925,92.4326164 C285.073477,92.4326164 282.336873,89.6957428 282.336873,86.3196382 C282.336873,82.9435336 285.073477,80.2066601 288.44925,80.2066601 C291.825022,80.2066601 294.561627,82.9435336 294.561627,86.3196382 C294.557862,89.694182 291.823462,92.4288511 288.44925,92.4326164 L288.44925,92.4326164 Z M288.44925,80.925834 C285.470627,80.925834 283.055976,83.3407224 283.055976,86.3196382 C283.055976,89.2985541 285.470627,91.7134425 288.44925,91.7134425 C291.427873,91.7134425 293.842524,89.2985541 293.842524,86.3196382 C293.83921,83.342096 291.426499,80.9291474 288.44925,80.925834 L288.44925,80.925834 Z" id="Shape" fill="#3F3D56" fill-rule="nonzero"></path>
                        <path d="M224.089518,92.4326164 C220.713745,92.4326164 217.977141,89.6957428 217.977141,86.3196382 C217.977141,82.9435336 220.713745,80.2066601 224.089518,80.2066601 C227.46529,80.2066601 230.201894,82.9435336 230.201894,86.3196382 C230.19813,89.694182 227.463729,92.4288511 224.089518,92.4326164 L224.089518,92.4326164 Z M224.089518,80.925834 C221.110895,80.925834 218.696244,83.3407224 218.696244,86.3196382 C218.696244,89.2985541 221.110895,91.7134425 224.089518,91.7134425 C227.06814,91.7134425 229.482791,89.2985541 229.482791,86.3196382 C229.479478,83.342096 227.066767,80.9291474 224.089518,80.925834 Z" id="Shape" fill="#3F3D56" fill-rule="nonzero"></path>
                        <path d="M320.089789,167.945876 C316.714016,167.945876 313.977412,165.209002 313.977412,161.832898 C313.977412,158.456793 316.714016,155.719919 320.089789,155.719919 C323.465561,155.719919 326.202166,158.456793 326.202166,161.832898 C326.198401,165.207441 323.464001,167.94211 320.089789,167.945876 L320.089789,167.945876 Z M320.089789,156.439093 C317.111166,156.439093 314.696515,158.853982 314.696515,161.832898 C314.696515,164.811813 317.111166,167.226702 320.089789,167.226702 C323.068412,167.226702 325.483062,164.811813 325.483062,161.832898 C325.479749,158.855355 323.067038,156.442407 320.089789,156.439093 L320.089789,156.439093 Z" id="Shape" fill="#3F3D56" fill-rule="nonzero"></path>
                        <ellipse id="Oval" stroke="#6A6AF4" stroke-width="0.9" fill-rule="nonzero" cx="320.089684" cy="203.904621" rx="5.75282524" ry="5.75339119"></ellipse>
                        <path d="M224.089518,210.017549 C220.713745,210.017549 217.977141,207.280675 217.977141,203.904571 C217.977141,200.528466 220.713745,197.791592 224.089518,197.791592 C227.46529,197.791592 230.201894,200.528466 230.201894,203.904571 C230.19813,207.279114 227.463729,210.013784 224.089518,210.017549 L224.089518,210.017549 Z M224.089518,198.510766 C221.110895,198.510766 218.696244,200.925655 218.696244,203.904571 C218.696244,206.883486 221.110895,209.298375 224.089518,209.298375 C227.06814,209.298375 229.482791,206.883486 229.482791,203.904571 C229.479478,200.927028 227.066767,198.51408 224.089518,198.510766 L224.089518,198.510766 Z" id="Shape" fill="#3F3D56" fill-rule="nonzero"></path>
                        <path d="M295.28073,164.350006 C291.904957,164.350006 289.168353,161.613133 289.168353,158.237028 C289.168353,154.860923 291.904957,152.12405 295.28073,152.12405 C298.656502,152.12405 301.393107,154.860923 301.393107,158.237028 C301.389342,161.611572 298.654942,164.346241 295.28073,164.350006 L295.28073,164.350006 Z M295.28073,152.843224 C292.302107,152.843224 289.887456,155.258112 289.887456,158.237028 C289.887456,161.215944 292.302107,163.630832 295.28073,163.630832 C298.259353,163.630832 300.674004,161.215944 300.674004,158.237028 C300.67069,155.259486 298.257979,152.846537 295.28073,152.843224 L295.28073,152.843224 Z" id="Shape" fill="#3F3D56" fill-rule="nonzero"></path>
                        <path d="M128.089142,149.606992 C124.117645,149.606992 120.898111,152.826843 120.898111,156.798731 C120.898111,160.770618 124.117645,163.99047 128.089142,163.99047 C132.060639,163.99047 135.280174,160.770618 135.280174,156.798731 C135.268563,152.831663 132.05582,149.618604 128.089142,149.606992 L128.089142,149.606992 Z M128.089142,151.764513 C129.280591,151.764513 130.246452,152.730469 130.246452,153.922035 C130.246452,155.113601 129.280591,156.079557 128.089142,156.079557 C126.897693,156.079557 125.931833,155.113601 125.931833,153.922035 C125.935804,152.732118 126.899342,151.768486 128.089142,151.764513 L128.089142,151.764513 Z M128.089142,162.151046 C126.358947,162.143151 124.744243,161.281373 123.774523,159.848305 C123.809098,158.409957 126.650936,157.618175 128.089142,157.618175 C129.527348,157.618175 132.36919,158.409957 132.403761,159.848305 C131.432996,161.280212 129.818954,162.141637 128.089142,162.151046 L128.089142,162.151046 Z" id="Shape" fill="#3F3D56" fill-rule="nonzero"></path>
                        <path d="M152.898201,51.4397545 C148.926704,51.4397545 145.707169,54.6596057 145.707169,58.6314935 C145.707169,62.6033813 148.926704,65.8232325 152.898201,65.8232325 C156.869698,65.8232325 160.089232,62.6033813 160.089232,58.6314935 C160.077622,54.6644256 156.864879,51.4513666 152.898201,51.4397545 L152.898201,51.4397545 Z M152.898201,53.5972762 C154.08965,53.5972762 155.05551,54.5632316 155.05551,55.7547979 C155.05551,56.9463642 154.08965,57.9123196 152.898201,57.9123196 C151.706752,57.9123196 150.740891,56.9463642 150.740891,55.7547979 C150.744863,54.5648808 151.708401,53.6012484 152.898201,53.5972762 L152.898201,53.5972762 Z M152.898201,63.9838086 C151.168006,63.9759143 149.553302,63.114136 148.583582,61.6810677 C148.618156,60.2427199 151.459995,59.4509382 152.898201,59.4509382 C154.336407,59.4509382 157.178249,60.2427199 157.21282,61.6810677 C156.242055,63.1129748 154.628013,63.9743997 152.898201,63.9838086 Z" id="Shape" fill="#3F3D56" fill-rule="nonzero"></path>
                        <path d="M288.449146,26.628255 C284.477649,26.628255 281.258114,29.8481062 281.258114,33.819994 C281.258114,37.7918818 284.477649,41.011733 288.449146,41.011733 C292.420643,41.011733 295.640177,37.7918818 295.640177,33.819994 C295.628566,29.8529261 292.415823,26.6398671 288.449146,26.628255 L288.449146,26.628255 Z M288.449146,28.7857767 C289.640595,28.7857767 290.606455,29.7517321 290.606455,30.9432984 C290.606455,32.1348647 289.640595,33.1008201 288.449146,33.1008201 C287.257697,33.1008201 286.291836,32.1348647 286.291836,30.9432984 C286.295808,29.7533813 287.259346,28.7897489 288.449146,28.7857767 Z M288.449146,39.1723091 C286.718951,39.1644148 285.104247,38.3026365 284.134527,36.8695682 C284.169101,35.4312204 287.010939,34.6394387 288.449146,34.6394387 C289.887352,34.6394387 292.729194,35.4312204 292.763765,36.8695682 C291.793,38.3014753 290.178958,39.1629002 288.449146,39.1723091 L288.449146,39.1723091 Z" id="Shape" fill="#3F3D56" fill-rule="nonzero"></path>
                        <path d="M371.146009,105.377797 C367.174511,105.377797 363.954977,108.597648 363.954977,112.569536 C363.954977,116.541424 367.174511,119.761275 371.146009,119.761275 C375.117506,119.761275 378.33704,116.541424 378.33704,112.569536 C378.325429,108.602468 375.112686,105.389409 371.146009,105.377797 Z M371.146009,107.535319 C372.337458,107.535319 373.303318,108.501274 373.303318,109.69284 C373.303318,110.884407 372.337458,111.850362 371.146009,111.850362 C369.954559,111.850362 368.988699,110.884407 368.988699,109.69284 C368.992671,108.502923 369.956208,107.539291 371.146009,107.535319 L371.146009,107.535319 Z M371.146009,117.921851 C369.415813,117.913957 367.801109,117.052178 366.83139,115.61911 C366.865964,114.180762 369.707802,113.388981 371.146009,113.388981 C372.584215,113.388981 375.426057,114.180762 375.460627,115.61911 C374.489863,117.051017 372.875821,117.912442 371.146009,117.921851 L371.146009,117.921851 Z" id="Shape" fill="#3F3D56" fill-rule="nonzero"></path>
                        <path d="M384.808968,153.922035 C380.837471,153.922035 377.617937,157.141886 377.617937,161.113774 C377.617937,165.085662 380.837471,168.305513 384.808968,168.305513 C388.780466,168.305513 392,165.085662 392,161.113774 C391.988389,157.146706 388.775646,153.933647 384.808968,153.922035 L384.808968,153.922035 Z M384.808968,156.079557 C386.000418,156.079557 386.966278,157.045512 386.966278,158.237078 C386.966278,159.428645 386.000418,160.3946 384.808968,160.3946 C383.617519,160.3946 382.651659,159.428645 382.651659,158.237078 C382.655631,157.047161 383.619168,156.083529 384.808968,156.079557 Z M384.808968,166.466089 C383.078773,166.458195 381.464069,165.596416 380.49435,164.163348 C380.528924,162.725 383.370762,161.933219 384.808968,161.933219 C386.247175,161.933219 389.089016,162.725 389.123587,164.163348 C388.152823,165.595255 386.538781,166.45668 384.808968,166.466089 L384.808968,166.466089 Z" id="Shape" fill="#3F3D56" fill-rule="nonzero"></path>
                        <path d="M227.879065,145.008432 C220.655183,143.207075 213.33891,147.60342 211.537637,154.82799 C209.736363,162.052559 214.132181,169.369609 221.356017,171.171153 C228.579853,172.972697 235.896239,168.576542 237.6977,161.352018 C238.563393,157.88253 238.015192,154.211202 236.173743,151.146023 C234.332295,148.080844 231.348511,145.873013 227.879065,145.008432 L227.879065,145.008432 Z" id="Path" stroke="#0063CB" stroke-width="0.36" fill-rule="nonzero"></path>
                        <g id="Group-14" transform="translate(216.218026, 149.290910)" fill-rule="nonzero">
                            <path d="M1.05218148,6.05065238 C0.996396161,6.05065238 0.951126391,6.09650111 0.951126391,6.15299977 L0.951126391,16.7358962 C0.951126391,16.7923983 0.996392754,16.8382609 1.05218148,16.8382609 L14.1534968,16.8382609 C14.2092818,16.8382609 14.2545348,16.7923946 14.2545348,16.7358962 L14.2545348,7.85177843 C14.2545348,7.79527984 14.209282,7.74948674 14.1534968,7.74941378 L6.63419995,7.74941378 C6.5578688,7.7494807 6.48426385,7.72067776 6.42780728,7.66864863 L4.73735668,6.11304911 C4.69375094,6.07285498 4.63689606,6.05065238 4.5779343,6.05065238 L1.05218148,6.05065238 Z" id="Path" fill="#E8EDFF"></path>
                            <g id="undraw_folder_files_re_2cbm-(1)" fill="#6C63FF">
                                <g id="Group-11" transform="translate(0.000000, 2.865168)">
                                    <path d="M4.51041734,0.0108291497 C4.74333121,-0.0427247533 4.97448179,0.107550678 5.02713909,0.346759884 L6.16397746,5.53911954 C6.13494347,5.56925225 6.09807914,5.59015623 6.05779092,5.59933279 L4.843,5.88 L5.84029253,5.64961433 L5.05681078,2.07116019 C4.84666365,1.11648244 3.92414772,0.516736255 2.99459713,0.730473558 L0.707709555,1.25915791 C0.495726326,1.30838742 0.362510659,1.52463041 0.409901368,1.74257652 L1.48573391,6.65630414 L1.15480818,6.73280824 L0.0105388462,1.50650165 C-0.04157894,1.26716788 0.104664931,1.02964561 0.337457128,0.975536691 Z" id="Combined-Shape"></path>
                                    <path d="M5.00288186,5.38472679 L2.13205118,6.04840783 C2.09856515,6.05607971 2.07161771,6.08154741 2.06138249,6.11519598 C2.05114726,6.14884454 2.05918337,6.18554828 2.08245691,6.21145022 C2.10573045,6.23735216 2.14069615,6.24850666 2.17415322,6.24070249 L5.04498389,5.57702181 C5.07849425,5.56937376 5.10547154,5.54390559 5.11572125,5.51024154 C5.12597095,5.47657748 5.11792996,5.43985139 5.0946369,5.4139418 C5.07134384,5.38803222 5.03635098,5.37689041 5.00288186,5.38472679 Z" id="Path"></path>
                                    <path d="M4.91962324,5.0044537 L2.04879185,5.66813438 C1.99706278,5.6800936 1.96456288,5.73287906 1.97620128,5.78603402 C1.98783968,5.83918898 2.03920916,5.87258473 2.09093823,5.86062553 L4.96176891,5.19694485 C5.01349798,5.18498564 5.04599789,5.13220018 5.03435949,5.07904521 C5.02272109,5.02589025 4.9713516,4.99249449 4.91962253,5.0044537 L4.91962324,5.0044537 Z" id="Path"></path>
                                    <path d="M3.21003574,5.0003624 L1.96557687,5.28805743 C1.93214818,5.29578547 1.90527107,5.32125206 1.89506988,5.35486417 C1.88486869,5.38847628 1.89289322,5.42512744 1.91612072,5.4510115 C1.93934822,5.47689557 1.97424987,5.48808013 2.00767855,5.48035209 L3.25213778,5.19265742 C3.28564814,5.18500938 3.31262543,5.15954121 3.32287513,5.12587715 C3.33312484,5.09221309 3.32508384,5.055487 3.30179079,5.02957742 C3.27849773,5.00366783 3.24350487,4.99252602 3.21003574,5.0003624 Z" id="Path"></path>
                                    <path d="M4.66207159,3.82811742 L1.79124056,4.49179846 C1.73951148,4.50375767 1.70701157,4.55654314 1.71864997,4.6096981 C1.73028838,4.66285306 1.78165787,4.69624882 1.83338694,4.68428961 L4.70421761,4.02060893 C4.73768052,4.01287268 4.764585,3.98737975 4.77479639,3.95373308 C4.78500777,3.92008641 4.77697472,3.88339773 4.75372319,3.85748732 C4.73047167,3.8315769 4.69553414,3.82038116 4.66207123,3.82811742 L4.66207159,3.82811742 Z" id="Path"></path>
                                    <path d="M4.5788559,3.44803936 L1.70802486,4.11172041 C1.67453883,4.11939228 1.6475914,4.14485998 1.63735617,4.17850855 C1.62712094,4.21215712 1.63515706,4.24886086 1.6584306,4.2747628 C1.68170414,4.30066474 1.71666983,4.31181924 1.7501269,4.30401507 L4.62095758,3.64033439 C4.65441464,3.63263409 4.68132652,3.60716694 4.69154457,3.5735368 C4.70176261,3.53990666 4.6937324,3.5032295 4.67048218,3.47733654 C4.64723196,3.45144358 4.61229866,3.44027378 4.5788559,3.44803936 L4.5788559,3.44803936 Z" id="Path"></path>
                                    <path d="M2.86922512,3.44375303 L1.62476625,3.73144806 C1.5913034,3.73918431 1.56439899,3.7646772 1.55418763,3.79832381 C1.54397628,3.83197042 1.55200934,3.86865903 1.57526083,3.89456939 C1.59851232,3.92047974 1.63344979,3.93167546 1.66691263,3.9239392 L2.9113715,3.63624417 C2.94483435,3.62850793 2.97173877,3.60301503 2.98195013,3.56936842 C2.99216148,3.53572181 2.98412843,3.4990332 2.96087693,3.47312284 C2.93762544,3.44721248 2.90268797,3.43601677 2.86922512,3.44375303 L2.86922512,3.44375303 Z" id="Path"></path>
                                    <path d="M4.32126096,2.27150804 L1.45042993,2.93518909 C1.39870086,2.9471483 1.36620096,2.99993377 1.37783936,3.05308872 C1.38947776,3.10624368 1.44084724,3.13963944 1.49257631,3.12768024 L4.36340699,2.46399956 C4.3968699,2.45626331 4.42377438,2.43077038 4.43398576,2.39712371 C4.44419715,2.36347704 4.43616409,2.32678836 4.41291257,2.30087795 C4.38966105,2.27496753 4.35472352,2.26377179 4.32126061,2.27150804 L4.32126096,2.27150804 Z" id="Path"></path>
                                    <path d="M4.23804527,1.89143109 L1.36721424,2.55511213 C1.31548517,2.56707134 1.28298526,2.61985681 1.29462366,2.67301177 C1.30626206,2.72616673 1.35763155,2.75956249 1.40936062,2.74760328 L4.2801913,2.0839226 C4.31365421,2.07618635 4.34055868,2.05069342 4.35077007,2.01704675 C4.36098146,1.98340008 4.3529484,1.94671141 4.32969688,1.92080099 C4.30644536,1.89489057 4.27150782,1.88369483 4.23804492,1.89143109 L4.23804527,1.89143109 Z" id="Path"></path>
                                    <path d="M2.5284145,1.88714365 L1.28395562,2.17483868 C1.23222655,2.1867979 1.19972665,2.23958336 1.21136505,2.29273832 C1.22300345,2.34589328 1.27437293,2.37928904 1.326102,2.36732983 L2.57056088,2.0796348 C2.62228995,2.06767559 2.65478986,2.01489013 2.64315146,1.96173516 C2.63151306,1.9085802 2.58014357,1.87518444 2.5284145,1.88714365 L2.5284145,1.88714365 Z" id="Path"></path>
                                </g>
                                <g id="Group-12" transform="translate(5.209605, 0.000000)">
                                    <path d="M3.73209521,0.48713841 C3.90341871,0.0789514542 4.36395178,-0.109716579 4.76158447,0.0653843053 L11.8840011,3.21182964 C12.2812378,3.38787594 12.464845,3.86110249 12.2944426,4.26969596 L8.58658974,13.1320281 C8.5127851,13.1445047 8.43704516,13.1348781 8.36842332,13.1042988 L0,9.40741009 Z M4.07371009,1.27017017 L0.564826809,9.65693272 L7.99719528,12.9403039 L10.5525624,6.83259123 C11.2326444,5.20191484 10.4998765,3.31327994 8.91451592,2.61069276 L5.0112507,0.886360987 C4.64920621,0.726851196 4.22982509,0.898536903 4.07371009,1.27017017 Z" id="Combined-Shape"></path>
                                    <path d="M7.04260844,11.6360986 L2.1426657,9.47146857 C2.0855876,9.4461405 2.01969118,9.4540642 1.96984596,9.49224923 C1.92000074,9.53043427 1.89379651,9.59306633 1.90112284,9.65650785 C1.90844917,9.71994937 1.9481905,9.77454031 2.00534832,9.79967785 L6.90529106,11.9643078 C6.96236916,11.9896359 7.02826558,11.9817122 7.0781108,11.9435272 C7.12795602,11.9053421 7.15416025,11.8427101 7.14683392,11.7792686 C7.13950759,11.715827 7.09976626,11.6612361 7.04260844,11.6360986 L7.04260844,11.6360986 Z" id="Path"></path>
                                    <path d="M7.31416099,10.9870468 L2.41421825,8.82241678 C2.32593671,8.78346022 2.22363513,8.82539496 2.18568808,8.91609427 C2.14774102,9.00679358 2.18850972,9.11193191 2.27676073,9.15096144 L7.17670348,11.3155914 C7.23381799,11.3408228 7.29969365,11.3328273 7.34951571,11.294617 C7.39933778,11.2564066 7.42553711,11.1937863 7.41824465,11.1303446 C7.4109522,11.0669029 7.37127587,11.0122781 7.31416135,10.9870468 L7.31416099,10.9870468 Z" id="Path"></path>
                                    <path d="M4.80967746,9.11203261 L2.68563174,8.17370037 C2.6285637,8.14842906 2.56270799,8.15638226 2.51289704,8.19456103 C2.46308609,8.2327398 2.43689654,8.29533684 2.44420377,8.35874849 C2.451511,8.42216014 2.49120353,8.47674097 2.54831435,8.50191001 L4.67236008,9.44024225 C4.72942812,9.46551356 4.79528382,9.45756036 4.84509477,9.41938159 C4.89490572,9.38120282 4.92109527,9.31860578 4.91378804,9.25519413 C4.90648081,9.19178248 4.86678829,9.13720165 4.80967746,9.11203261 L4.80967746,9.11203261 Z" id="Path"></path>
                                    <path d="M8.15417992,8.97927387 L3.25423717,6.81464388 C3.16597305,6.77577074 3.06374809,6.81771694 3.02581988,6.90837087 C2.98789167,6.9990248 3.02859928,7.10411399 3.1167793,7.14318817 L8.01672204,9.30781816 C8.07385575,9.33315721 8.13980875,9.32521769 8.18969585,9.28699533 C8.23958295,9.24877297 8.26581007,9.18608618 8.25848128,9.12258775 C8.25115248,9.05908932 8.21138339,9.00444532 8.15417956,8.97927387 L8.15417992,8.97927387 Z" id="Path"></path>
                                    <path d="M8.42559233,8.33055746 L3.52564959,6.16592747 C3.46857149,6.14059939 3.40267507,6.14852309 3.35282985,6.18670813 C3.30298463,6.22489317 3.2767804,6.28752522 3.28410673,6.35096675 C3.29143306,6.41440827 3.33117439,6.4689992 3.38833221,6.49413674 L8.28827495,8.65876673 C8.34535305,8.68409481 8.41124947,8.67617111 8.46109469,8.63798607 C8.51093991,8.59980104 8.53714414,8.53716898 8.52981781,8.47372746 C8.52249148,8.41028593 8.48275015,8.355695 8.42559233,8.33055746 L8.42559233,8.33055746 Z" id="Path"></path>
                                    <path d="M5.92124929,6.45520791 L3.79720356,5.51687567 C3.70892202,5.47791911 3.60662044,5.51985386 3.56867339,5.61055316 C3.53072633,5.70125247 3.57149503,5.80639081 3.65974604,5.84542033 L5.78379177,6.78375257 C5.84091172,6.8090142 5.90680916,6.80103447 5.95664952,6.76282067 C6.00648988,6.72460688 6.03269698,6.66196786 6.02539424,6.59851019 C6.0180915,6.53505252 5.978389,6.48042232 5.92124929,6.45520791 L5.92124929,6.45520791 Z" id="Path"></path>
                                    <path d="M9.26575174,6.32244881 L4.365809,4.15781918 C4.27755266,4.11898366 4.1753622,4.16093516 4.13744259,4.25156876 C4.09952299,4.34220235 4.14020332,4.44726939 4.22835148,4.48636347 L9.12829422,6.65099346 C9.18541417,6.67625509 9.25131161,6.66827536 9.30115197,6.63006157 C9.35099233,6.59184778 9.37719943,6.52920876 9.36989669,6.46575109 C9.36259395,6.40229341 9.32289145,6.34766321 9.26575174,6.32244881 L9.26575174,6.32244881 Z" id="Path"></path>
                                    <path d="M9.53716487,5.67373422 L4.63722213,3.50910277 C4.548958,3.47022963 4.44673304,3.51217583 4.40880483,3.60282976 C4.37087663,3.69348369 4.41158424,3.79857288 4.49976425,3.83764706 L9.399707,6.00227705 C9.456861,6.02773172 9.52289681,6.01985241 9.57285369,5.98161743 C9.62281057,5.94338244 9.64906766,5.88062447 9.64170008,5.81706528 C9.63433251,5.7535061 9.59446419,5.69884156 9.53716487,5.67373422 L9.53716487,5.67373422 Z" id="Path"></path>
                                    <path d="M7.03282076,3.79838321 L4.90877503,2.86005098 C4.82049349,2.82109441 4.71819191,2.86302916 4.68024486,2.95372847 C4.6422978,3.04442778 4.6830665,3.14956611 4.77131751,3.18859563 L6.89536324,4.12692678 C6.95248319,4.1521884 7.01838063,4.14420867 7.06822099,4.10599488 C7.11806135,4.06778109 7.14426845,4.00514207 7.13696571,3.9416844 C7.12966297,3.87822672 7.08996047,3.82359653 7.03282076,3.79838212 L7.03282076,3.79838321 Z" id="Path"></path>
                                </g>
                                <path d="M1.05373297,8.92655101 C1.02652485,8.92655101 1.00042905,8.93764793 0.981186512,8.9574137 C0.961943974,8.97717947 0.951126391,9.00399056 0.951126391,9.03194866 C0.951126391,9.03590253 0.954283822,17.1550176 0.954283822,17.1550176 C0.960101309,17.2083573 1.00401016,17.2486463 1.05624401,17.2486463 L15.3453039,17.2486463 C15.397542,17.2486463 15.4414571,17.2083628 15.4472641,17.1550176 L16.3366798,9.04378475 C16.3399544,9.01395939 16.3307054,8.98411335 16.3112504,8.96172533 C16.2918786,8.9392171 16.2639949,8.92639627 16.2347537,8.92655101 L1.05373297,8.92655101 Z M6.02420917,14.0902518 L2.51037085,14.0902518 C2.4347615,14.0902518 2.37346801,14.0272688 2.37346801,13.9495753 C2.37346801,13.8718818 2.4347615,13.8088988 2.51037085,13.8088988 L6.02420917,13.8088988 C6.20076136,13.8063666 6.20252704,14.0928069 6.02420917,14.0902518 Z M10.7577439,14.8261276 L2.51037085,14.8261276 C2.4347615,14.8261276 2.37346801,14.7631446 2.37346801,14.6854511 C2.37346801,14.6077576 2.4347615,14.5447746 2.51037085,14.5447746 L10.7577439,14.5447746 C10.9342958,14.5422425 10.9360618,14.8286827 10.7577439,14.8261276 Z" id="Combined-Shape"></path>
                            </g>
                        </g>
                        <path d="M94.1137317,290.311211 C93.0905641,299.615958 39.3805948,298.83486 39.4618905,290.310657 C40.4850438,281.006464 94.1950131,281.787569 94.1137317,290.311211 Z" id="Path" fill="#E6E6E6" fill-rule="nonzero"></path>
                        <polygon id="Path" fill="#FFB8B8" fill-rule="nonzero" points="76.7668074 266.888433 78.9442518 271.606213 82.9356338 271.24339 85.4758657 262.896298 81.4841241 260.718999"></polygon>
                        <polygon id="Path" fill="#FFB8B8" fill-rule="nonzero" points="63.0635777 277.754071 62.9776449 281.041775 69.1464713 281.404598 69.1464713 277.412823"></polygon>
                        <polygon id="Path" fill="#2F2E41" fill-rule="nonzero" points="65.1547297 217.89543 66.6062394 246.928121 62.9776449 278.501293 73.863788 279.952946 80.758549 240.033041 82.9356338 212.814466"></polygon>
                        <path d="M48.0997314,207.370892 C48.0997314,207.370892 43.7452274,236.040867 52.8171128,245.476558 C61.8889982,254.912249 74.2267625,271.606156 74.2267625,271.606156 L82.9357777,260.718823 L60.8003695,237.129614 L65.1548735,221.161522 L82.9357777,212.814567 L80.0327762,192.854456 L53.9057451,192.491547 L48.0997314,207.370892 Z" id="Path" fill="#2F2E41" fill-rule="nonzero"></path>
                        <ellipse id="Oval" fill="#FFB8B8" fill-rule="nonzero" cx="69.5093775" cy="132.974114" rx="7.98326031" ry="7.98404568"></ellipse>
                        <path d="M62.6147459,134.788672 C62.6147459,134.788672 62.2518684,146.038915 60.4374921,147.49056 C58.6231157,148.942205 66.9692499,155.111692 66.9692499,155.111692 L72.4123825,146.401828 L72.4123825,138.417782 L62.6147459,134.788672 Z" id="Path" fill="#FFB8B8" fill-rule="nonzero"></path>
                        <polygon id="Path" fill="#D0CDE1" fill-rule="nonzero" points="66.2434519 150.030945 61.8378664 143.377867 59.3486908 146.764816 55.7200963 156.926384 58.6231157 196.483465 75.6780853 196.846289 77.8555296 151.482597 72.4122783 144.950341"></polygon>
                        <path d="M84.7501432,152.571304 L87.6531627,152.208395 C87.6531627,152.208395 88.3789139,152.571304 88.7417878,155.1117 C89.1046616,157.652095 93.4591692,180.152565 93.4591692,180.152565 L87.6531627,207.733808 L81.1214049,199.023944 L85.1130351,183.781679 L81.1214049,168.53941 L84.7501432,152.571304 Z" id="Path" fill="#2F2E41" fill-rule="nonzero"></path>
                        <polygon id="Path" fill="#2F2E41" fill-rule="nonzero" points="47.7369726 152.208244 45.5595283 152.208244 40.1166365 181.604117 45.1967407 204.467734 50.276845 196.120642 48.8253352 187.047904 49.5512699 179.063995 52.0915018 174.345855"></polygon>
                        <path d="M80.0327654,270.154511 C80.0327654,270.154511 77.8555116,269.428688 77.8555116,270.880333 C77.8555116,272.331979 79.3070213,276.686911 79.3070213,276.686911 C79.3070213,276.686911 77.1297676,290.114607 80.3956464,289.388798 C83.6615253,288.66299 86.201653,282.493489 86.5645304,280.678934 C86.9274078,278.864379 88.7417806,269.428688 88.7417806,269.428688 C88.7417806,269.428688 91.6448,262.533378 89.8304057,262.170468 C88.0160113,261.807559 82.9357741,260.355914 82.9357741,260.355914 C82.9357741,260.355914 85.8387719,269.428688 80.0327654,270.154511 Z" id="Path" fill="#2F2E41" fill-rule="nonzero"></path>
                        <path d="M69.5093775,281.404756 C69.5093775,281.404756 63.703371,277.775643 62.6147459,280.678934 C61.8927519,282.796552 61.405985,284.987206 61.1632362,287.211334 C61.1632362,287.211334 59.7117264,291.929176 65.5177401,291.203357 C71.3237539,290.477538 70.5979954,290.477534 70.9608728,288.300052 C71.3237503,286.12257 69.5093775,281.404756 69.5093775,281.404756 Z" id="Path" fill="#2F2E41" fill-rule="nonzero"></path>
                        <path d="M64.7919961,132.974118 L66.2435058,132.611204 C66.2435058,132.611204 67.3321309,126.441717 69.8722585,127.16754 C72.4123861,127.893362 78.9441439,128.619192 78.9441439,125.715887 C78.9441439,122.812582 72.7752636,120.272219 69.1465108,120.635132 C65.5177581,120.998045 59.3488742,122.086785 59.711748,127.530442 C60.0746218,132.9741 62.4161691,138.269636 62.4161691,138.269636 L62.6052933,135.04212 L64.7919961,132.974118 Z" id="Path" fill="#2F2E41" fill-rule="nonzero"></path>
                        <polygon id="Path" fill="#D0CDE1" fill-rule="nonzero" points="72.4122783 154.385902 66.2434519 150.030945 72.4122783 144.950341 74.554127 147.520309"></polygon>
                        <polygon id="Path" fill="#D0CDE1" fill-rule="nonzero" points="60.8002005 154.023079 66.2434519 150.030945 61.8889227 143.498688 59.3486908 146.764816"></polygon>
                        <path d="M87.2902709,152.208405 L75.6782578,147.49056 L72.9566933,145.49455 L64.7919961,181.604203 L59.348867,165.273203 L60.9818064,144.405815 L45.9224776,152.208405 L51.0027508,176.886358 L51.7285021,186.322049 L49.5512411,193.943181 C49.5512411,193.943181 41.9308582,199.386846 44.4709859,205.193424 C47.0111135,211.000001 49.9141149,211.362915 49.9141149,211.362915 C49.9141149,211.362915 62.2518792,199.749759 62.9776305,196.846469 C63.7033818,193.943178 64.7920069,188.862426 64.7920069,188.862426 C64.7920069,188.862426 70.9608908,212.088737 78.2183819,211.725824 C85.4758729,211.362911 85.4758909,203.741782 85.4758909,203.741782 L83.6615145,195.757736 L80.7585203,187.410781 L82.21003,173.620158 L87.2902709,152.208405 Z" id="Path" fill="#2F2E41" fill-rule="nonzero"></path>
                    </g>
                </g>
            </g>
        </g>
    </g>
</svg>