<?xml version="1.0" encoding="UTF-8"?>
<svg width="42px" height="47px" viewBox="0 0 42 47" version="1.1" xmlns="http://www.w3.org/2000/svg" xmlns:xlink="http://www.w3.org/1999/xlink">
    <title>logo-clcv copy</title>
    <g id="🖥-[RWD]-Option-Alternative" stroke="none" stroke-width="1" fill="none" fill-rule="evenodd">
        <g id="Landing/v0.2_announcement2" transform="translate(-957.000000, -110.000000)" fill-rule="nonzero">
            <g id="logo-clcv-copy" transform="translate(957.000000, 110.000000)">
                <g id="Group" transform="translate(16.901062, 0.000000)" fill="#38CAA5">
                    <path d="M8.1345664,14.085151 C8.1030465,14.9449843 7.66068718,15.6327974 7.171048,15.6171997 C6.68149889,15.6016021 6.30235949,14.8824153 6.33396945,14.0069843 C6.36566947,13.1472402 6.80784867,12.4593379 7.29748784,12.4750247 C7.80306708,12.5063092 8.18211642,13.2097201 8.1345664,14.085151 Z" id="Path"></path>
                    <path d="M5.46528093,15.3514153 C5.00725172,13.8037689 5.46528093,11.1618783 5.35460105,9.02018311 C5.27562118,7.34739874 5.41773091,5.39341048 5.51256079,4.39284157 C5.51256079,4.39284157 4.02788332,10.0362606 3.56976405,15.6016021 C3.49078418,16.5551997 3.31697443,18.1810127 3.31697443,19.0877282 C3.30121448,21.7296187 3.44332421,23.1209318 3.66450387,25.0594115 C4.09092313,28.9363709 5.16512141,32.0941436 7.66068718,35.6271519 C7.66068718,35.6271519 5.30723114,29.6084973 5.74941034,27.1229401 C5.74941034,27.1229401 9.14554476,34.0325342 13.4734075,38.0345425 C13.4734075,38.0345425 6.66564888,27.4668912 7.50272744,20.4790413 C7.50272744,20.4790413 8.7663153,22.1517365 9.55629412,22.652021 C10.9619917,23.5430496 13.2840179,23.8088341 13.2840179,23.8088341 C13.2840179,23.8088341 9.96686336,22.0579722 9.3350244,20.1194925 C8.70318544,18.1810127 8.37150601,17.7432973 7.43959757,17.2431019 C7.09206813,17.0710818 5.87594024,16.7427284 5.46528093,15.3514153 Z" id="Path"></path>
                    <g id="Path">
                        <polygon points="1.87966688 4.43972374 1.43739761 3.68934162 1.29528788 4.50229272 0.23693961 4.64302836 1.18469805 5.06505702 0.995128352 6.17498796 1.83229696 5.36203686 2.63785562 5.7216748 2.21134631 5.00257717 2.93801515 4.29907722"></polygon>
                        <polygon points="3.5540041 0.7659798 2.98538506 0.82854878 3.45917422 1.2037844 3.26969458 2.07921536 3.86992358 1.51636192 4.37541276 1.92288203 4.15414304 1.2350689 4.77031211 0.641020098 3.96475346 0.734784439 3.72781385 0"></polygon>
                        <polygon points="0.50548918 1.90728435 0.568709099 2.50124402 0.837168612 1.9697642 1.21630801 2.04793087 0.947758442 1.78214639 1.16884804 1.31323556 0.679208872 1.53204873 0.42650931 1.28195107 0.45811927 1.61021539 0 1.7978332"></polygon>
                    </g>
                </g>
                <g id="Group" transform="translate(0.000000, 26.935322)" fill="#FFFFFF">
                    <path d="M25.9833867,0 C26.0623665,0.265784473 26.1571964,0.531479817 26.2361763,0.79726429 C32.2543163,1.34443092 37.6721373,2.79822386 42,4.90863457 C37.798397,2.37619519 32.2384663,0.609646478 25.9833867,0 Z" id="Path"></path>
                    <path d="M15.8901735,0.0155976804 C9.69840385,0.640930968 4.185753,2.39179287 0,4.89303689 C4.31219284,2.79822386 9.7141638,1.34443092 15.7006038,0.79726429 C15.7638237,0.531479817 15.8269536,0.265784473 15.8901735,0.0155976804 Z" id="Path"></path>
                </g>
                <path d="M19.5073075,22.7925783 C19.3809577,20.8072165 19.3335878,19.666001 19.3335878,19.666001 C18.9386884,20.4789521 17.9435601,20.604001 17.1064815,21.2293343 C16.269403,21.8546675 16.2693129,23.6680093 15.5268841,24.1682938 C14.5792157,24.8248224 12.6836988,24.7623426 12.6836988,24.7623426 C12.6836988,24.7623426 13.5051075,25.137489 13.773567,25.200058 C15.6848439,25.7315378 16.9958016,25.0594115 16.9958016,25.0594115 C16.7273421,26.3725579 16.5535324,28.3266353 15.3846843,30.5464972 C13.5682374,34.0325342 11.4990008,36.2992782 11.4990008,36.2992782 C16.2534629,33.2197614 17.9119501,29.280233 17.8803402,29.452164 C17.5170508,31.953408 15.7794936,35.0642985 15.7794936,35.0642985 C19.6335672,31.2187127 20.0442265,28.686095 20.2811661,27.8732331 C20.2181263,27.7325865 19.6336573,24.8405092 19.5073075,22.7925783 Z" id="Path" fill="#FFFFFF"></path>
                <path d="M18.7491187,17.9464236 C18.8597086,18.6343259 18.6227689,19.2439724 18.2437196,19.3064522 C17.8488203,19.3690212 17.438161,18.8687367 17.3275711,18.1809236 C17.2169813,17.4931105 17.4539209,16.8833749 17.8329702,16.820895 C18.2278696,16.7584152 18.638619,17.2586105 18.7491187,17.9464236 Z" id="Path" fill="#FFFFFF"></path>
                <g id="Group" transform="translate(1.582839, 39.354730)" fill="#FFFFFF">
                    <path d="M3.24015593,7.64526987 C2.24745911,7.64526987 1.45937149,7.31165777 0.875622893,6.64443357 C0.291874298,5.9772985 0,5.03912031 0,3.82998813 C0,2.66372729 0.292594753,1.73383815 0.877784258,1.04032071 C1.46297376,0.346803281 2.2518719,0 3.24456871,0 C3.50825521,0 3.74528488,0.016578106 3.95565772,0.0494669291 C4.16603055,0.0823557523 4.36748776,0.128524886 4.56011939,0.187796071 C4.71123481,0.237263001 4.87567864,0.304823239 5.05345089,0.390387657 C5.2313132,0.476130334 5.3749539,0.550286163 5.48464316,0.612766014 L5.48464316,2.3671931 L5.31578654,2.3671931 C5.23581604,2.28813514 5.13504241,2.19347951 5.0135557,2.08304793 C4.89197894,1.97270548 4.75428199,1.86476953 4.60019469,1.75932921 C4.4461074,1.6538889 4.27644027,1.56413539 4.09128335,1.48997956 C3.90603638,1.41591286 3.71268429,1.37883494 3.51122709,1.37883494 C3.27122555,1.37883494 3.05121663,1.42081499 2.85120033,1.5048642 C2.65118403,1.58882429 2.46080382,1.73464031 2.28005969,1.94213403 C2.11408489,2.1299301 1.97845926,2.38368208 1.87336289,2.7032117 C1.76817648,3.02283045 1.71558327,3.40002693 1.71558327,3.83489026 C1.71558327,4.29292728 1.77033784,4.67752151 1.8800271,4.98885121 C1.98962631,5.30018091 2.13335706,5.55143726 2.31112931,5.742442 C2.48295781,5.92702941 2.67486899,6.06045642 2.88668273,6.14272304 C3.09849648,6.22516792 3.30958977,6.2663458 3.52005266,6.2663458 C3.73925107,6.2663458 3.948183,6.22605922 4.14666832,6.1453078 C4.34515365,6.06464551 4.51256937,5.97480287 4.64891546,5.87595814 C4.797059,5.77381562 4.92737128,5.67006876 5.04003242,5.56462844 C5.1526035,5.45918812 5.25040526,5.36542378 5.33334763,5.2829789 L5.48446305,5.2829789 L5.48446305,7.01262796 C5.36288628,7.07528607 5.22221746,7.14694627 5.06227647,7.22760856 C4.90224542,7.30835998 4.73780158,7.37672238 4.56885491,7.43269577 C4.36145395,7.50186034 4.1673814,7.55453594 3.98663728,7.59081169 C3.80607326,7.6269983 3.55715609,7.64526987 3.24015593,7.64526987 Z" id="Path"></path>
                    <polygon id="Path" points="16.2138379 7.50186034 11.7959183 7.50186034 11.7959183 0.14323127 13.4581879 0.14323127 13.4581879 6.09824737 16.2138379 6.09824737"></polygon>
                    <path d="M25.1918769,7.64526987 C24.1992701,7.64526987 23.4110924,7.31165777 22.8273438,6.64443357 C22.2435952,5.9772985 21.9517209,5.03912031 21.9517209,3.82998813 C21.9517209,2.66372729 22.2443157,1.73383815 22.8295052,1.04032071 C23.4146947,0.346803281 24.2035928,0 25.1961996,0 C25.4599762,0 25.6970058,0.016578106 25.9072886,0.0494669291 C26.1175714,0.0823557523 26.3191186,0.128524886 26.5118403,0.187796071 C26.6629558,0.237263001 26.8273996,0.304823239 27.0051718,0.390387657 C27.1830341,0.476130334 27.3266748,0.550286163 27.436274,0.612766014 L27.436274,2.3671931 L27.2674174,2.3671931 C27.1873569,2.28813514 27.0866733,2.19347951 26.9651866,2.08304793 C26.8436999,1.97270548 26.7059129,1.86476953 26.5518256,1.75932921 C26.3977383,1.6538889 26.2280712,1.56413539 26.0430043,1.48997956 C25.8577573,1.41591286 25.6644052,1.37883494 25.4630381,1.37883494 C25.2230365,1.37883494 25.0030276,1.42081499 24.8030113,1.5048642 C24.602995,1.58882429 24.4125248,1.73464031 24.2318707,1.94213403 C24.0658959,2.1299301 23.9302703,2.38368208 23.8251739,2.7032117 C23.7198974,3.02283045 23.6673943,3.40002693 23.6673943,3.83489026 C23.6673943,4.29292728 23.7221488,4.67752151 23.831748,4.98885121 C23.9413473,5.30018091 24.085078,5.55143726 24.2629403,5.742442 C24.4346788,5.92702941 24.6265899,6.06045642 24.8384937,6.14272304 C25.0503975,6.22516792 25.2614008,6.2663458 25.4718637,6.2663458 C25.6911521,6.2663458 25.899994,6.22605922 26.0985694,6.1453078 C26.2969647,6.06464551 26.4644704,5.97480287 26.6007265,5.87595814 C26.7489601,5.77381562 26.8792723,5.67006876 26.9919335,5.56462844 C27.1045046,5.45918812 27.2022163,5.36542378 27.2852487,5.2829789 L27.4363641,5.2829789 L27.4363641,7.01262796 C27.3148774,7.07528607 27.1742086,7.14694627 27.0141775,7.22760856 C26.8542365,7.30835998 26.6897026,7.37672238 26.520846,7.43269577 C26.313355,7.50186034 26.1192825,7.55453594 25.9385383,7.59081169 C25.7577942,7.6269983 25.508877,7.64526987 25.1918769,7.64526987 Z" id="Path"></path>
                    <polygon id="Path" points="39.2767705 0.1433204 37.0010335 7.50194947 35.267709 7.50194947 32.9919721 0.1433204 34.716471 0.1433204 36.1564802 5.12976512 37.5964895 0.1433204"></polygon>
                </g>
            </g>
        </g>
    </g>
</svg>