<svg xmlns="http://www.w3.org/2000/svg" viewBox="0 0 102 32" width="102" height="32" aria-hidden="true" aria-label="Figaro Immobilier"><path fill="#db4050" d="m 83.838652,0 c -5.725154,0 -7.784942,3.9602018 -7.784942,7.1483787 0,4.2139693 2.862577,7.4271653 7.746211,7.4271653 4.34492,0 7.767337,-2.448319 7.767337,-7.2448816 C 91.546132,2.7485516 88.285681,0 83.838652,0 m 0.09155,11.59467 c -1.26052,0 -2.584418,-0.772025 -2.584418,-4.7036329 0,-2.4197262 0.901377,-3.9316083 2.436536,-3.9316083 1.450654,0 2.513997,1.000773 2.513997,4.1996725 0,3.4633897 -1.102074,4.4284207 -2.366115,4.4284207 m -8.629984,-0.260916 c -0.52815,0 -0.616175,-0.26449 -0.87673,-0.625483 -0.260554,-0.360993 -1.901342,-2.9915965 -1.901342,-2.9915965 0,0 2.397804,-0.7148379 2.397804,-3.3239961 0,-2.6091583 -2.133729,-3.57418941 -3.042148,-3.81008591 C 70.759803,0.35741085 69.625343,0.23782662 68.48707,0.21802555 l -9.334185,0 0,2.99874485 0.922504,0 c 0.573923,0 0.651386,0.2966577 0.651386,0.7148379 l 0,6.6908827 c 0,0.296657 -0.04225,0.714838 -0.683075,0.714838 l -0.890815,0 0,2.991596 8.221547,0 0,-3.002319 -0.827436,0 c -0.573924,0 -0.644344,-0.328825 -0.644344,-0.68267 l 0,-2.2767587 1.834444,0 3.36256,5.9510257 5.154751,0 0,-2.991597 z m -7.545513,-5.4006 -1.862612,0 0,-2.9022418 2.035141,0 c 0.588008,0 1.640788,0.2144514 1.640788,1.4797144 0,0.943586 -0.683075,1.4296758 -1.813317,1.4296758 z m -10.626394,5.4006 c -0.584486,0 -0.764058,-0.539703 -1.112637,-1.4118047 C 55.723426,9.1999634 52.40664,0.21087717 52.40664,0.21087717 l -5.281508,0 c 0,0 -3.566778,9.98985883 -3.735786,10.41876183 -0.127296,0.459332 -0.560214,0.760329 -1.028134,0.714838 l -0.764058,0 0,2.991597 6.436397,0 0,-2.859352 -0.890814,0 c -0.38379,0 -0.468294,-0.30738 -0.352101,-0.714838 0.147883,-0.493238 0.408437,-1.2652628 0.408437,-1.2652628 l 3.911837,0 c 0,0 0.214781,0.7148378 0.415478,1.3367468 0.147883,0.478941 -0.3521,0.661225 -0.637302,0.661225 l -0.757016,0 0,2.859352 7.746211,0 0,-3.027339 z m -9.270806,-3.7886406 1.341503,-4.1460597 0.04577,0 1.281646,4.1460597 z M 37.27336,0.21087717 l 3.028064,0 0,4.96097483 -3.038627,0 C 36.664333,3.849509 35.361966,3.00212 33.928405,3.0023191 c -1.845007,0 -3.274535,1.3724887 -3.274535,3.9316083 0,4.3068986 2.299216,4.6714656 3.306224,4.6714656 2.042183,0 2.510477,-1.497585 2.510477,-2.1016235 l -1.897822,0 0,-2.6127324 6.549069,0 c 0,0 -0.02113,1.0722568 -0.03169,1.8156882 0,0.357419 -0.3521,5.8580967 -7.679312,5.8580967 -5.281508,0 -8.066623,-3.123842 -8.066623,-7.580856 C 25.351236,4.020963 27.587075,0 32.963649,0 c 3.01046,0 4.309711,1.2724114 4.309711,1.2724114 l 0,-1.07225679 M 22.657668,3.9316083 c 0,-0.5325542 0.154924,-0.7148379 0.654907,-0.7148379 l 1.056301,0 0,-3.00231904 -8.524353,0 0,3.00231904 1.091511,0 c 0.566882,0 0.651386,0.2716384 0.651386,0.7148379 l 0,6.7587917 c 0,0.521832 -0.309848,0.636206 -0.672512,0.636206 l -1.056301,0 0,2.991597 8.545479,0 0,-2.991597 -1.056301,0 c -0.415479,0 -0.672512,-0.171561 -0.672512,-0.654076 l 0,-6.7409217 M 0,0.21087717 l 14.464289,0 0,4.53207213 -3.549173,0 0,-0.7684507 C 10.928638,3.7645143 10.850328,3.5591492 10.701055,3.4131315 10.551782,3.2671139 10.346712,3.195279 10.140495,3.2167704 l -3.204115,0 0,2.5448229 2.9646863,0 0,2.7342548 -2.9646863,0 0,2.0408619 c 0,0.561148 0.2359073,0.79347 0.9436294,0.79347 l 1.1232006,0 0,2.988023 -9.00321,0 0,-2.991597 1.1900997,0 c 0.1569382,0.0044 0.3084123,-0.05867 0.4170551,-0.173717 0.1086428,-0.11505 0.1643386,-0.271342 0.1533477,-0.430321 l 0,-6.7909597 c 0,-0.4253285 -0.066899,-0.7398572 -0.6373019,-0.7398572 L 0,3.1917511 0,0.18943204" transform="translate(5.087605 .122118)"></path><path fill="#db4050" d="m.2631253 14.5504478h3.15798108v-9.73701496h-3.15798108z" transform="translate(.967319 17)"></path><path fill="#db4050" d="m 94.797335,14.550582 0,-6.8708954 c 0,-0.8856717 0.26981,-1.5817165 0.809671,-2.0881344 C 96.146628,5.085806 96.895651,4.832597 97.854077,4.832597 l 3.016153,0 0,2.3914926 -2.247073,0 c -0.189106,0 -0.350993,0.060224 -0.485898,0.1802238 -0.134906,0.1204478 -0.202239,0.2753732 -0.202239,0.4652239 l 0,6.6810447 z m -8.473566,-5.7701865 3.947357,0 C 90.243906,8.5782313 90.203554,8.3818881 90.149591,8.1920373 90.095629,8.0021866 90.011105,7.8345 89.896733,7.6892015 89.781885,7.543903 89.650322,7.4171866 89.502045,7.3095 89.353291,7.2022612 89.181138,7.1165149 88.985584,7.0531567 88.790031,6.9902463 88.57084,6.9584552 88.32801,6.9584552 c -0.310641,0 -0.587137,0.050597 -0.830206,0.1517911 -0.242829,0.1014179 -0.445307,0.2373134 -0.607194,0.4079104 -0.162125,0.1710448 -0.286763,0.3673881 -0.374392,0.5883582 -0.08811,0.2216418 -0.151858,0.4461941 -0.192449,0.6738806 z m 2.692378,5.7700745 c -1.174035,0 -2.20648,-0.205522 -3.097095,-0.616791 -0.890853,-0.411045 -1.582572,-0.980373 -2.075156,-1.708209 -0.492583,-0.727388 -0.738517,-1.572089 -0.738517,-2.5341043 0,-1.0627612 0.235666,-1.9737314 0.708194,-2.7329105 0.472288,-0.759403 1.103359,-1.3446268 1.892974,-1.7556716 0.789375,-0.4110448 1.662799,-0.6167911 2.621463,-0.6167911 1.093092,0 2.007106,0.2151493 2.742759,0.645 0.735413,0.4302985 1.292227,1.0157463 1.669962,1.7556717 0.377735,0.7403731 0.566842,1.5848507 0.566842,2.5341045 0,0.1645522 -0.01027,0.3575373 -0.03032,0.5789553 -0.0203,0.221418 -0.04417,0.395597 -0.07091,0.522089 l -6.801383,0 c 0.08094,0.328881 0.235666,0.607389 0.465364,0.834851 0.229458,0.227911 0.519565,0.395821 0.870558,0.50306 0.350754,0.107686 0.74186,0.161194 1.174035,0.161194 l 3.178038,0 0,2.429552 z m -10.572575,-2.2e-5 3.157742,0 0,-9.7370152 -3.157742,0 z M 80.022563,3.7126119 c -0.499509,0 -0.931206,-0.170597 -1.29557,-0.5124626 -0.364364,-0.3416418 -0.546546,-0.7466418 -0.546546,-1.2145523 0,-0.4679104 0.182182,-0.8762686 0.546546,-1.22440297 0.364364,-0.34791045 0.796061,-0.52186567 1.29557,-0.52186567 0.49903,0 0.930967,0.17395522 1.295331,0.52186567 0.364602,0.34813437 0.546546,0.75649257 0.546546,1.22440297 0,0.4679105 -0.181944,0.8729105 -0.546546,1.2145523 -0.364364,0.3418656 -0.796301,0.5124626 -1.295331,0.5124626 z m -6.736676,10.8380601 3.137685,0 0,-13.85574663 -3.137685,0 z m -73.02252293,-2.24e-4 3.15774233,0 0,-9.7370152 -3.15774233,0 z m 67.84263093,0 3.157743,0 0,-9.7370152 -3.157743,0 z M 69.684986,3.7126119 c -0.499508,0 -0.931206,-0.170597 -1.29557,-0.5124626 C 68.025052,2.8585075 67.84287,2.4535075 67.84287,1.985597 c 0,-0.4679104 0.182182,-0.8762686 0.546546,-1.22440297 0.364364,-0.34791045 0.796062,-0.52186567 1.29557,-0.52186567 0.499269,0 0.930967,0.17395522 1.295331,0.52186567 0.364603,0.34813437 0.546785,0.75649257 0.546785,1.22440297 0,0.4679105 -0.182182,0.8729105 -0.546785,1.2145523 -0.364364,0.3418656 -0.796062,0.5124626 -1.295331,0.5124626 z M 61.00708,12.234806 c 0.485899,0 0.903986,-0.110373 1.254979,-0.331791 0.350993,-0.221642 0.624146,-0.525224 0.819938,-0.911418 0.195554,-0.385522 0.29345,-0.819179 0.29345,-1.3000746 0,-0.4806716 -0.0979,-0.911194 -0.29345,-1.2906716 C 62.886205,8.0213731 62.613052,7.7209254 62.262059,7.4992836 61.911066,7.2780896 61.492978,7.1670448 61.00708,7.1670448 c -0.485659,0 -0.907806,0.1110448 -1.265007,0.3322388 -0.357917,0.2216418 -0.631071,0.5220895 -0.819939,0.9015672 -0.189106,0.3794776 -0.28342,0.81 -0.28342,1.2906716 0,0.4808956 0.09431,0.9145526 0.28342,1.3000746 0.188868,0.386194 0.462022,0.689776 0.819939,0.911418 0.357201,0.221418 0.779348,0.331791 1.265007,0.331791 m 0,2.543507 c -1.120073,0 -2.098555,-0.215373 -2.935208,-0.645223 C 57.234981,13.703015 56.587196,13.08891 56.128517,12.291896 55.6696,11.494657 55.440619,10.564657 55.440619,9.5016716 l 0,-7.9184328 3.137447,0 0,4.2933582 0.06065,0 c 0.202477,-0.2657462 0.455335,-0.4965671 0.759052,-0.6929104 0.303716,-0.1958956 0.640621,-0.3445523 1.012149,-0.4459702 0.371049,-0.101194 0.765737,-0.151791 1.184302,-0.151791 0.984929,0 1.848563,0.2086567 2.59114,0.626194 0.74186,0.4175373 1.325655,0.9933582 1.751144,1.7272388 0.424773,0.7341045 0.637279,1.5942537 0.637279,2.5813433 0,0.7594035 -0.12822,1.4614925 -0.384421,2.1067165 -0.256678,0.645448 -0.624385,1.205373 -1.103359,1.68 -0.479213,0.474403 -1.059426,0.838209 -1.740877,1.091418 -0.681691,0.252761 -1.460799,0.379477 -2.338043,0.379477 M 48.469064,12.216 c 0.499031,0 0.930967,-0.113955 1.29557,-0.341642 0.364125,-0.22791 0.647785,-0.531492 0.850024,-0.911194 0.202477,-0.379477 0.303716,-0.809552 0.303716,-1.2904476 0,-0.4681343 -0.101239,-0.892388 -0.303716,-1.2718656 C 50.412419,8.0213731 50.128759,7.7175672 49.764634,7.4898806 49.400031,7.262194 48.968095,7.1482388 48.469064,7.1482388 c -0.499508,0 -0.934787,0.1139552 -1.305837,0.3416418 -0.371288,0.2276866 -0.657813,0.5314925 -0.860052,0.9109702 -0.202716,0.3794776 -0.303955,0.8037313 -0.303955,1.2718656 0,0.4808956 0.101239,0.9109706 0.303955,1.2904476 0.202239,0.379702 0.488764,0.683284 0.860052,0.911194 0.37105,0.227687 0.806329,0.341642 1.305837,0.341642 m 0,2.562313 c -1.06635,0 -2.024536,-0.221417 -2.87456,-0.664253 -0.850262,-0.442836 -1.521686,-1.050224 -2.014269,-1.822164 -0.492823,-0.771717 -0.738757,-1.638359 -0.738757,-2.6003736 0,-0.9743284 0.245934,-1.8441045 0.738757,-2.6097761 0.492583,-0.7654478 1.164007,-1.372612 2.014269,-1.8219403 0.850024,-0.4493284 1.80821,-0.6738806 2.87456,-0.6738806 1.065873,0 2.020717,0.2245522 2.864293,0.6738806 0.8431,0.4493283 1.51118,1.0564925 2.004242,1.8219403 0.492345,0.7656716 0.738517,1.6354477 0.738517,2.6097761 0,0.9620146 -0.246172,1.8286566 -0.738517,2.6003736 -0.493062,0.77194 -1.164008,1.379328 -2.014509,1.822164 -0.850023,0.442836 -1.801525,0.664253 -2.854026,0.664253 m -24.15175,-0.227731 0,-5.7510447 c 0,-0.7972388 0.198896,-1.5152239 0.597165,-2.1546269 0.398031,-0.6385074 0.968216,-1.1415671 1.710554,-1.5087313 0.74186,-0.3667164 1.626028,-0.5502985 2.651787,-0.5502985 0.51264,0 0.984929,0.053955 1.416865,0.161194 0.431936,0.1076866 0.826624,0.2534329 1.184303,0.4365672 0.357439,0.1835821 0.664498,0.4018657 0.920938,0.6548507 l 0.04059,0 c 0.269811,-0.252985 0.583795,-0.4712686 0.941473,-0.6548507 0.357201,-0.1831343 0.75547,-0.3288806 1.194331,-0.4365672 0.438383,-0.1072388 0.914014,-0.161194 1.426894,-0.161194 1.02552,0 1.909449,0.1835821 2.652026,0.5502985 0.74186,0.3671642 1.315626,0.8702239 1.720581,1.5087313 0.404716,0.639403 0.607194,1.3573881 0.607194,2.1546269 l 0,5.7510447 -3.157981,0 0,-5.6563432 c 0,-0.3161194 -0.08429,-0.6040298 -0.252858,-0.8635075 C 37.802127,7.7717015 37.57625,7.5594627 37.293068,7.3949105 37.009408,7.2305821 36.685635,7.1484179 36.321271,7.1484179 c -0.364364,0 -0.69148,0.082164 -0.981586,0.2464926 -0.290584,0.1645522 -0.516222,0.376791 -0.678347,0.6358208 -0.161648,0.2594777 -0.24283,0.5473881 -0.24283,0.8635075 l 0,5.6563432 -3.137686,0 0,-5.6563432 c 0,-0.3161194 -0.08429,-0.6040298 -0.253097,-0.8635075 C 30.858914,7.7717015 30.629695,7.5594627 30.339588,7.3949105 30.049243,7.2305821 29.722127,7.1484179 29.357763,7.1484179 c -0.364364,0 -0.691719,0.082164 -0.981586,0.2464926 -0.290584,0.1645522 -0.516222,0.376791 -0.678348,0.6358208 -0.161886,0.2594777 -0.24283,0.5473881 -0.24283,0.8635075 l 0,5.6563432 z m -18.987618,0 0,-5.7510447 c 0,-0.7972388 0.198896,-1.5152239 0.5971655,-2.1546269 C 6.3248922,6.006403 6.8950766,5.5033433 7.6374147,5.1361791 8.3792752,4.7694627 9.2636818,4.5858806 10.289202,4.5858806 c 0.512641,0 0.984929,0.053955 1.417104,0.161194 0.431697,0.1076866 0.826385,0.2534329 1.184064,0.4365672 0.35744,0.1835821 0.664499,0.4018657 0.920938,0.6548507 l 0.04059,0 c 0.269811,-0.252985 0.583795,-0.4712686 0.941473,-0.6548507 0.35744,-0.1831343 0.755471,-0.3288806 1.194331,-0.4365672 0.438383,-0.1072388 0.914014,-0.161194 1.426894,-0.161194 1.02552,0 1.909449,0.1835821 2.652026,0.5502985 0.742099,0.3671642 1.315626,0.8702239 1.72082,1.5087313 0.404716,0.639403 0.607194,1.3573881 0.607194,2.1546269 l 0,5.7510447 -3.15822,0 0,-5.6563432 c 0,-0.3161194 -0.08405,-0.6040298 -0.252619,-0.8635075 C 18.814748,7.7717015 18.588632,7.5594627 18.30545,7.3949105 18.022029,7.2305821 17.698256,7.1484179 17.333653,7.1484179 c -0.364364,0 -0.691718,0.082164 -0.981586,0.2464926 -0.290584,0.1645522 -0.516222,0.376791 -0.678347,0.6358208 -0.161648,0.2594777 -0.24283,0.5473881 -0.24283,0.8635075 l 0,5.6563432 -3.137686,0 0,-5.6563432 c 0,-0.3161194 -0.08429,-0.6040298 -0.253097,-0.8635075 C 11.871297,7.7717015 11.642077,7.5594627 11.35197,7.3949105 11.061625,7.2305821 10.734509,7.1484179 10.370145,7.1484179 c -0.364364,0 -0.6917185,0.082164 -0.9818249,0.2464926 C 9.0979749,7.5594627 8.8723366,7.7717015 8.7102113,8.0307313 8.5483248,8.290209 8.4673816,8.5781194 8.4673816,8.8942388 l 0,5.6563432 z M 57.009557,3.0631343 c -0.432891,0 -0.807283,-0.1479851 -1.123416,-0.444403 C 55.570486,2.3223134 55.41242,1.9714925 55.41242,1.565597 c 0,-0.4058955 0.158066,-0.75985073 0.473721,-1.06186566 0.316133,-0.30134328 0.690525,-0.45246268 1.123416,-0.45246268 0.432892,0 0.807523,0.1511194 1.123416,0.45246268 0.315894,0.30201493 0.473722,0.65597016 0.473722,1.06186566 0,0.4058955 -0.157828,0.7567164 -0.473722,1.0531343 -0.315893,0.296418 -0.690524,0.444403 -1.123416,0.444403 M 1.842092,3.7127011 c -0.4995083,0 -0.93096694,-0.1708209 -1.29556978,-0.5124627 C 0.18215816,2.8585966 -2.388e-5,2.4535966 -2.388e-5,1.9854623 c 0,-0.4679105 0.18218204,-0.8760448 0.5465461,-1.224403 C 0.91112506,0.41337273 1.3425837,0.23919363 1.842092,0.23919363 c 0.4992695,0 0.9309669,0.1741791 1.2955697,0.52186567 0.3643641,0.3483582 0.5465461,0.7564925 0.5465461,1.224403 0,0.4681343 -0.182182,0.8731343 -0.5465461,1.2147761 C 2.7730589,3.5418802 2.3413615,3.7127011 1.842092,3.7127011" transform="translate(.967319 17)"></path></svg>
