<svg xmlns="http://www.w3.org/2000/svg" viewBox="0 0 418.31 29.12" width="418.31" height="29.12"><path fill="#da3832" d="M0 18.2C0 11.88 3.8 7.32 10.44 7.32s10.44 4.56 10.44 10.88-3.8 10.92-10.44 10.92S0 24.56 0 18.2zm16.32 0c0-3.56-1.8-7.28-5.88-7.28s-5.88 3.72-5.88 7.28 1.8 7.32 5.88 7.32 5.87-3.77 5.87-7.32zm26.11 10.36h-4.48v-2.88h-.08a6.94 6.94 0 01-5.88 3.44c-5.4 0-7.72-2.72-7.72-8.12V7.88h4.56v12.68c0 3.64 1.48 5 4 5 3.8 0 5.08-2.44 5.08-5.64v-12h4.56zm7.97-9.16c0 3.24 1.76 6.12 5.56 6.12a4.79 4.79 0 005-3.44h4.32c-1 4.52-4.84 7-9.36 7-6.48 0-10.12-4.52-10.12-10.88 0-5.88 3.84-10.92 10-10.92 6.52 0 10.52 5.88 9.76 12.08zm10.64-3c-.16-2.88-2.12-5.48-5.2-5.48a5.4 5.4 0 00-5.44 5.48zm11.08 5.52c.24 2.64 2.24 3.6 4.68 3.6 1.72 0 4.72-.36 4.6-2.72s-3.44-2.68-6.76-3.44S68 17.44 68 13.24c0-4.52 4.88-5.92 8.64-5.92 4.24 0 8.08 1.76 8.64 6.36h-4.76c-.4-2.16-2.2-2.76-4.2-2.76-1.32 0-3.76.32-3.76 2.12 0 2.24 3.36 2.56 6.72 3.32s6.68 2 6.68 6c0 4.92-5 6.72-9.24 6.72-5.2 0-9.08-2.32-9.16-7.2zM86.96 7.88h3.44v-6.2h4.56v6.2h4.12v3.4h-4.12v11c0 1.88.16 2.84 2.2 2.84a7.78 7.78 0 001.92-.16v3.52c-1 .08-2 .24-3 .24-4.76 0-5.64-1.84-5.72-5.28v-12.2h-3.44zm12.96 0h3.4V6.16c0-5.28 2.76-6.16 5.72-6.16a12.75 12.75 0 013.2.28v3.56a7.72 7.72 0 00-2.12-.24c-1.24 0-2.24.44-2.24 2.16v2.12h3.88v3.4h-3.88v17.28h-4.56V11.28h-3.4zm14.26 0h4.28v4h.08a6.67 6.67 0 016-4.56 11 11 0 011.72.12v4.4a16.25 16.25 0 00-2-.2c-3.12 0-5.6 2.52-5.6 7.08v9.84h-4.48zm31 16.08c0 1.12.24 1.56 1.08 1.56a6.3 6.3 0 001.12-.08v3.16a11.44 11.44 0 01-2.88.52c-1.84 0-3.16-.64-3.52-2.52a10.6 10.6 0 01-7.16 2.52c-3.72 0-7.08-2-7.08-6 0-5.16 4.12-6 8-6.44 3.28-.6 6.2-.24 6.2-2.92 0-2.36-2.44-2.8-4.28-2.8-2.56 0-4.36 1-4.56 3.28h-4.56c.32-5.32 4.84-6.88 9.4-6.88 4 0 8.28 1.64 8.28 6zm-4.56-5.76c-1.4.92-3.6.88-5.6 1.24s-3.72 1-3.72 3.44c0 2 2.6 2.64 4.2 2.64 2 0 5.12-1 5.12-3.92zm9.05-10.32h4.32v3l.08.08a7.4 7.4 0 016.44-3.68c4.48 0 7.32 2.4 7.32 7v14.2h-4.56v-13c-.08-3.24-1.36-4.64-4-4.64-3 0-5 2.4-5 5.44v12.2h-4.56zm36.51 6.87a4.37 4.37 0 00-4.72-3.88c-2.36 0-5.68 1.24-5.68 7.52 0 3.44 1.52 7.08 5.48 7.08 2.64 0 4.48-1.76 4.92-4.72h4.56c-.84 5.36-4.16 8.32-9.48 8.32-6.48 0-10-4.6-10-10.68 0-6.24 3.4-11.12 10.2-11.12 4.8 0 8.88 2.4 9.32 7.48zm11.45 4.65c0 3.24 1.76 6.12 5.56 6.12a4.79 4.79 0 005-3.44h4.32c-1 4.52-4.84 7-9.36 7-6.48 0-10.12-4.52-10.12-10.88 0-5.88 3.84-10.92 10-10.92 6.52 0 10.52 5.88 9.76 12.08zm10.64-3c-.16-2.88-2.12-5.48-5.2-5.48a5.4 5.4 0 00-5.44 5.48z"></path><path fill="#2d4389" d="M215.47 15.52h11.64v4.32h-11.64zM231.18 0h4.56v4.32h-4.56zm0 7.88h4.56v20.68h-4.56zm9.13 0h4.32v2.87h.12a6.91 6.91 0 016.36-3.44c2.52 0 4.88 1.08 5.8 3.44a7.46 7.46 0 016.48-3.44c4.36 0 6.92 1.92 6.92 7v14.28h-4.56V16.48c0-3.28-.2-5.56-3.76-5.56-3.08 0-4.4 2-4.4 5.52v12.12h-4.56V15.28c0-2.84-.88-4.36-3.64-4.36-2.36 0-4.52 1.92-4.52 5.36v12.28h-4.56zm34.4 0h4.32v2.87h.15a6.91 6.91 0 016.36-3.44c2.52 0 4.88 1.08 5.8 3.44a7.46 7.46 0 016.48-3.44c4.36 0 6.92 1.92 6.92 7v14.28h-4.56V16.48c0-3.28-.2-5.56-3.76-5.56-3.08 0-4.4 2-4.4 5.52v12.12h-4.56V15.28c0-2.84-.88-4.36-3.64-4.36-2.36 0-4.52 1.92-4.52 5.36v12.28h-4.56zm33.47 10.32c0-6.32 3.8-10.88 10.44-10.88s10.44 4.56 10.44 10.88-3.8 10.92-10.44 10.92-10.44-4.56-10.44-10.92zm16.32 0c0-3.56-1.8-7.28-5.88-7.28s-5.88 3.72-5.88 7.28 1.8 7.32 5.88 7.32 5.85-3.77 5.85-7.32zm8.29 4.96h5.56v5.4h-5.56zm24.32-8.41a4.37 4.37 0 00-4.72-3.88c-2.36 0-5.68 1.24-5.68 7.52 0 3.44 1.52 7.08 5.48 7.08 2.64 0 4.48-1.76 4.92-4.72h4.56c-.84 5.36-4.16 8.32-9.48 8.32-6.48 0-10-4.6-10-10.68 0-6.24 3.4-11.12 10.2-11.12 4.8 0 8.88 2.4 9.32 7.48zm6.92 3.45c0-6.32 3.8-10.88 10.44-10.88s10.44 4.56 10.44 10.88-3.8 10.92-10.44 10.92-10.44-4.56-10.44-10.92zm16.32 0c0-3.56-1.8-7.28-5.88-7.28s-5.88 3.72-5.88 7.28 1.8 7.32 5.88 7.32 5.88-3.77 5.88-7.32zm7.96-10.32h4.32v2.87h.12a6.91 6.91 0 016.36-3.44c2.52 0 4.88 1.08 5.8 3.44a7.46 7.46 0 016.48-3.44c4.36 0 6.92 1.92 6.92 7v14.28h-4.56V16.48c0-3.28-.2-5.56-3.76-5.56-3.08 0-4.4 2-4.4 5.52v12.12h-4.56V15.28c0-2.84-.88-4.36-3.64-4.36-2.36 0-4.52 1.92-4.52 5.36v12.28h-4.56z"></path></svg>
