<?xml version="1.0" encoding="UTF-8"?>
<svg width="115px" height="85px" viewBox="0 0 115 85" version="1.1" xmlns="http://www.w3.org/2000/svg" xmlns:xlink="http://www.w3.org/1999/xlink">
    <title>183-Site Police nationale</title>
    <g id="1_Landing" stroke="none" stroke-width="1" fill="none" fill-rule="evenodd">
        <g id="DossierFacile/Locataire/Landing/V0.4_LiensEvitement" transform="translate(-201, -3645)" fill-rule="nonzero">
            <g id="Group" transform="translate(117, 3597)">
                <g id="183-Site-Police-nationale" transform="translate(84, 48)">
                    <path d="M70.6921265,42.3578202 C69.559024,46.0701843 68.0931221,49.6217383 66.2864971,52.7614608 C63.982654,56.7640678 61.3598782,60.303855 58.0021705,63.4808385 C56.9780203,71.6743187 53.4539129,79.0951248 48.2202473,85 C60.3911946,79.3088847 70.4900695,70.015227 77.1797323,58.5290587 L77.1975612,58.5290587 C77.2510464,58.4349258 77.2985892,58.3349096 77.3540557,58.2388157 C77.8215596,57.4249587 78.2613304,56.5914909 78.6951582,55.7541007 C78.9289099,55.3030477 79.1666237,54.8559167 79.3884899,54.3989803 C79.7866604,53.5870842 80.1590787,52.7614608 80.5235732,51.929954 C80.7494016,51.4161453 80.9712679,50.9003761 81.1832295,50.380684 C81.508105,49.5805548 81.817133,48.7745427 82.1122942,47.9587246 C82.3242558,47.3723553 82.5243314,46.7781416 82.7204455,46.1819669 C82.9740069,45.4073319 83.2216253,44.6287749 83.4474532,43.8404126 C83.5881006,43.3501371 83.7109197,42.8539787 83.8377004,42.3578202 L70.6921265,42.3578202" id="Path" fill="#ED1C24"></path>
                    <path d="M67.1066096,42.3578202 C65.9556786,45.970168 64.442234,49.4687722 62.5464665,52.7614608 C57.0156584,62.3728166 48.4856942,70.2407538 38.3670095,74.9728903 C53.4063701,69.3151141 60.7537078,62.3728166 66.2864971,52.7614608 C68.0931221,49.6217383 69.559024,46.0701843 70.6921265,42.3578202 L67.1066096,42.3578202" id="Path" fill="#D7D9DA"></path>
                    <path d="M54.0402736,42.3578202 C53.9828262,42.5049024 53.9293405,42.6539461 53.8699123,42.8010288 C53.7233219,43.1599104 53.5707889,43.5148696 53.4162747,43.8698287 C53.1646946,44.4424702 52.9071711,45.0092288 52.6338005,45.5701034 C52.4792862,45.8838796 52.3168487,46.1937338 52.1563915,46.5035875 C51.8572687,47.0801514 51.5541832,47.6527929 51.231289,48.2156285 C51.1936508,48.2803452 51.1619556,48.3489834 51.1243175,48.4156611 L51.1104507,48.4156611 C49.8168915,50.6375883 48.3311804,52.7359666 46.6850122,54.6990286 C46.2392989,62.1727846 43.3906948,69.3053087 38.3670095,74.9728903 C48.4856942,70.2407538 57.0156584,62.3728166 62.5464665,52.7614608 C64.442234,49.4687722 65.9556786,45.970168 67.1066096,42.3578202 L54.0402736,42.3578202" id="Path" fill="#FFFFFF"></path>
                    <path d="M38.1193911,42.3578202 L38.1193911,48.4156611 C38.1193911,55.4069859 35.4807677,61.7766419 31.1623001,66.6519392 C39.5476548,62.7297372 46.5047457,56.3267422 51.1104507,48.4156611 L51.1243175,48.4156611 C51.1619556,48.3489834 51.1936508,48.2803452 51.231289,48.2156285 C51.5541832,47.6527929 51.8572687,47.0801514 52.1563915,46.5035875 C52.3168487,46.1937338 52.4792862,45.8838796 52.6338005,45.5701034 C52.9071711,45.0092288 53.1646946,44.4424702 53.4162747,43.8698287 C53.5707889,43.5148696 53.7233219,43.1599104 53.8699123,42.8010288 C53.9293405,42.6539461 53.9828262,42.5049024 54.0402736,42.3578202 L38.1193911,42.3578202" id="Path" fill="#064694"></path>
                    <path d="M6.31328282,8.31899012 L11.7430624,8.31899012 C12.5631753,8.31899012 13.1733074,8.13464687 13.5714779,7.76595989 C13.9696484,7.39531193 14.1697241,6.7854094 14.1697241,5.93233035 C14.1419911,4.43797165 13.3337641,3.6907918 11.7430624,3.6907918 L6.31526365,3.6907918 L6.31328282,8.31899012 Z M0,18.2147059 L0,0.196110098 L12.3195185,0.196110098 C15.2711314,0.196110098 17.402632,0.696190974 18.7120393,1.69635222 C19.9184367,2.61610846 20.5206451,4.01045138 20.5206451,5.88330295 C20.5206451,6.94818091 20.336417,7.87185909 19.9639987,8.65237753 C19.5915804,9.4309345 19.141905,10.0251482 18.6149724,10.4369792 C18.0880404,10.8468497 17.4283847,11.1665087 16.634024,11.3959579 C15.6059121,11.674434 14.4767712,11.8136723 13.2446216,11.8136723 C12.3452707,11.8136723 10.9922828,11.7411117 9.18169617,11.594029 C7.37309037,11.4449853 6.41629214,11.3547744 6.31328282,11.3214358 L6.31328282,18.2147059 L0,18.2147059" id="Shape" fill="#231F20"></path>
                    <path d="M29.2348374,5.143968 C29.014952,5.55383798 28.8426094,6.09706283 28.7138478,6.76972059 C28.5850863,7.44237835 28.521696,8.20132406 28.521696,9.04655871 C28.521696,9.89179335 28.5415052,10.5487623 28.5791434,11.0155041 C28.6187623,11.4822464 28.6821527,11.9136886 28.773276,12.3078698 C28.8624191,12.7020509 28.9971236,13.0256325 29.1773895,13.2805759 C29.3556751,13.5335578 29.5676368,13.7571235 29.811293,13.9453892 C30.0549498,14.1336549 30.3699208,14.2768152 30.7542245,14.3768314 C31.4990611,14.5572527 32.4360501,14.6455021 33.5651905,14.6455021 C34.6943313,14.6455021 35.5679295,14.5768635 36.1840046,14.4376252 C36.8000792,14.2983874 37.3190879,14.0277552 37.7449919,13.6257296 C38.1669338,13.223704 38.4561521,12.6863621 38.6106663,12.0117434 C38.7631992,11.3410471 38.8424371,10.4703183 38.8424371,9.40347934 C38.8424371,8.3366404 38.7830089,7.4796389 38.6681137,6.83051485 C38.5512376,6.18335127 38.3848379,5.64404838 38.1669338,5.21848959 C37.9490293,4.79096983 37.6201921,4.47523219 37.1843834,4.27127769 C36.7485747,4.06536221 36.2751279,3.92612392 35.7600813,3.8535633 C35.2470156,3.77708024 34.5596268,3.7398197 33.699895,3.7398197 C32.8401636,3.7398197 32.1666411,3.77119731 31.6793275,3.82610814 C31.1920145,3.88494092 30.7165869,4.01633481 30.2550255,4.22028931 C29.7914838,4.42620479 29.4507607,4.73409752 29.2348374,5.143968 Z M22.4758413,12.5294741 C22.2975557,11.4136077 22.2064323,10.3055858 22.2064323,9.20736924 C22.2064323,8.10719121 22.3094417,7.09330213 22.5154603,6.16570149 C22.7194976,5.24006182 22.9968304,4.45169898 23.3434965,3.80257493 C23.6881818,3.15541135 24.1437997,2.60041965 24.7103512,2.14152227 C25.2749213,1.68262439 25.8513775,1.31982084 26.4436807,1.05703355 C27.0340036,0.794245772 27.7511067,0.59029127 28.5989526,0.443208571 C29.9598643,0.196110098 31.4158615,0.0725606108 32.9689251,0.0725606108 C34.5219887,0.0725606108 35.6768818,0.0980547981 36.4355846,0.147082699 C37.1903264,0.196110098 38.0005342,0.296126374 38.8602655,0.443208571 C39.7199974,0.59029127 40.4390818,0.794245772 41.0175188,1.05703355 C41.5939744,1.31982084 42.1644875,1.68262439 42.7290582,2.14152227 C43.2936284,2.60041965 43.7433038,3.1514894 44.078084,3.79080807 C44.7951871,5.21848959 45.1557199,7.06388549 45.1557199,9.32895725 C45.1557199,12.0705767 44.5515308,14.1787599 43.3471141,15.6554693 C42.7290582,16.4438316 41.7425457,17.0831508 40.3816339,17.5773482 C38.99497,18.0676232 36.7604602,18.3147222 33.6820666,18.3147222 C30.5482059,18.3147222 28.3295436,18.085273 27.0201368,17.6263756 C25.6077207,17.149828 24.6073418,16.5340425 24.017019,15.7790183 C23.1711538,14.7298296 22.6561072,13.6453404 22.4758413,12.5294741" id="Shape" fill="#231F20"></path>
                    <path d="M47.0772397,14.5729415 L47.0772397,0.196110098 L53.3925033,0.196110098 L53.3925033,13.268809 C53.3925033,13.8904784 53.6619123,14.2689707 54.2007303,14.4003646 C54.5850346,14.5003804 55.1119666,14.5494083 55.7775653,14.5494083 L64.672024,14.5494083 L64.672024,18.2166669 L53.1607325,18.2166669 C51.3382599,18.2166669 49.8683964,17.9342684 48.7531223,17.3675103 C47.6338866,16.8007522 47.0772397,15.8692291 47.0772397,14.5729415" id="Path" fill="#231F20"></path>
                    <polyline id="Path" fill="#231F20" points="66.4984583 18.2166669 66.4984583 0.198071074 72.8137219 0.198071074 72.8137219 18.2166669 66.4984583 18.2166669"></polyline>
                    <path d="M74.5529949,9.15834134 C74.5529949,7.64829383 74.7015661,6.35592816 74.9967273,5.28124482 C75.2918885,4.20656148 75.7970305,3.25738861 76.5180957,2.43764865 C77.9027788,0.811895556 80.470088,0 84.2180425,0 C86.5020759,0 88.3304915,0.0627552314 89.7052694,0.186304719 C91.0780666,0.307892729 92.5736828,0.543224847 94.1901367,0.888378619 L94.1901367,4.03790705 C93.8315852,4.02221824 93.496805,4.000646 93.1897579,3.97711279 C92.8807299,3.9516186 92.5281208,3.92808539 92.1319311,3.9025907 C91.7317798,3.87905749 91.2821044,3.84964135 90.7829054,3.81630226 C90.2817255,3.78296367 89.7746027,3.75943046 89.261537,3.74374165 C88.1066439,3.69275328 87.118151,3.66922006 86.2980381,3.66922006 C85.4759444,3.66922006 84.885622,3.67902544 84.5270704,3.70648061 C84.1665376,3.73001382 83.7802525,3.77904172 83.3701965,3.8535633 C82.9601401,3.92612392 82.6392262,4.041829 82.4074553,4.19871708 C82.1756845,4.35364418 81.9518375,4.56348211 81.7339329,4.82430842 C81.5160288,5.08905717 81.3436862,5.41459969 81.2149246,5.80878086 C80.9831533,6.71284879 80.8682585,8.02482522 80.8682585,9.74863311 C80.8682585,11.4724405 81.2089817,12.7275451 81.8884471,13.515908 C82.567912,14.3023093 83.9347667,14.6964905 85.9890101,14.6964905 C88.3760529,14.698452 90.725458,14.6494241 93.0352436,14.5513693 L94.1901367,14.4748862 L94.1901367,17.6283366 C92.0348648,18.1205731 89.0693851,18.3657106 85.2956784,18.3657106 C84.9351456,18.3657106 84.576594,18.3657106 84.2180425,18.3657106 C80.699878,18.332372 78.19794,17.5204759 76.7102476,15.9280619 C75.2720793,14.4023256 74.5529949,12.1450983 74.5529949,9.15834134" id="Path" fill="#231F20"></path>
                    <path d="M95.9412951,14.4748862 L95.9412951,4.13596185 C95.9412951,2.36508753 96.9812929,1.18254402 99.0593082,0.592252246 C100.035916,0.329464965 101.188827,0.198071074 102.523987,0.198071074 C108.60748,0.262787281 112.767471,0.394181172 115,0.592252246 L115,3.96534594 L104.257317,3.96534594 C103.308443,3.96534594 102.71812,4.11242863 102.486349,4.40855501 C102.331835,4.6380037 102.254578,4.94981888 102.254578,5.34400005 L102.254578,7.38746753 L113.191394,7.63260502 L113.191394,10.9802045 L102.254578,11.2018088 L102.254578,13.2452758 C102.254578,13.8689061 102.523987,14.2473985 103.064786,14.3787924 C103.44909,14.4748862 103.976022,14.5258751 104.643602,14.5258751 L115,14.5258751 L115,17.8734741 C113.151775,18.0382066 109.44344,18.1696005 103.873013,18.2676558 L102.910272,18.291189 C102.704253,18.291189 102.460597,18.291189 102.179302,18.291189 C101.896026,18.291189 101.529551,18.2794221 101.081856,18.2539279 C100.632181,18.2303947 100.067611,18.1441063 99.3861646,17.9970236 C98.7066992,17.8499409 98.1282622,17.6440254 97.6548154,17.3812381 C97.1793878,17.1184503 96.7752743,16.737997 96.442475,16.2379161 C96.1076948,15.7358743 95.9412951,15.149505 95.9412951,14.4748862" id="Path" fill="#231F20"></path>
                    <polyline id="Path" fill="#231F20" points="0 32.4287658 0 23.1782526 1.46392103 23.1782526 7.11556682 30.2676323 7.11556682 23.1782526 8.54779267 23.1782526 8.54779267 32.4287658 7.11556682 32.4287658 1.44609262 25.3531135 1.44609262 32.4287658 0 32.4287658"></polyline>
                    <path d="M17.6363841,28.8889787 L21.0614439,28.8889787 L19.3796188,24.8471492 L17.6363841,28.8889787 Z M14.5381808,32.4287658 L18.6328013,23.1782526 L20.1442646,23.1782526 L24.0685239,32.4287658 L22.4322602,32.4287658 L21.4972525,29.9891562 L17.1847279,29.9891562 L16.2041583,32.4287658 L14.5381808,32.4287658" id="Shape" fill="#231F20"></path>
                    <polyline id="Path" fill="#231F20" points="28.1611631 24.3039243 28.1611631 23.1782526 36.2097568 23.1782526 36.2097568 24.3039243 32.863935 24.3039243 32.863935 32.4287658 31.4297283 32.4287658 31.4297283 24.3039243 28.1611631 24.3039243"></polyline>
                    <polyline id="Path" fill="#231F20" points="42.2159925 32.4287658 42.2159925 23.1782526 43.6501991 23.1782526 43.6501991 32.4287658 42.2159925 32.4287658"></polyline>
                    <path d="M51.482869,26.1238261 C51.4313646,26.3493528 51.3976886,26.6082181 51.381841,26.900422 C51.3659935,27.190665 51.3580697,27.5358188 51.3580697,27.9358834 C51.3580697,28.335948 51.3739172,28.6987515 51.4056124,29.0223336 C51.4353263,29.3478761 51.482869,29.636158 51.5462594,29.8891399 C51.6076689,30.1421218 51.6987928,30.3519598 51.8176497,30.5206147 C51.9365066,30.6892691 52.0692298,30.8304684 52.2138394,30.9442125 C52.3604293,31.0559952 52.5466387,31.1442446 52.7744474,31.2030779 C53.1805422,31.3050551 53.6500269,31.3540825 54.1848827,31.3540825 C54.719739,31.3540825 55.1238525,31.3383937 55.3992045,31.3050551 C55.6745559,31.269755 55.9300987,31.2050388 56.1697933,31.108945 C56.4094879,31.0108897 56.6016398,30.8834183 56.7462494,30.7226077 C56.8908585,30.5637587 57.0156584,30.3519598 57.1206486,30.0911335 C57.3068575,29.6185083 57.3999622,28.8791728 57.3999622,27.8672447 C57.3999622,27.1181044 57.3662862,26.5846849 57.2989337,26.2689478 C57.2315817,25.9512492 57.1741343,25.7061117 57.1285724,25.5296123 C57.0810296,25.3531135 57.0116963,25.1981864 56.9166107,25.068754 C56.823506,24.9373601 56.7363443,24.8255775 56.6531447,24.7334056 C56.5699446,24.6392727 56.4550499,24.5627897 56.3104408,24.5000344 C56.1638503,24.4353182 56.0370696,24.3882518 55.9281173,24.3549132 C55.8211464,24.3215741 55.6666321,24.2960799 55.4705186,24.2784302 C55.1773383,24.252936 54.866329,24.2392081 54.535511,24.2392081 C54.2027116,24.2392081 53.9669786,24.2431301 53.8263312,24.2450916 C53.6856837,24.2509745 53.5173032,24.2607804 53.3211892,24.2784302 C53.1230943,24.2960799 52.9705614,24.3215741 52.8616092,24.3549132 C52.7526574,24.3882518 52.6238953,24.4333573 52.4792862,24.49219 C52.3346771,24.5510233 52.2197819,24.6275059 52.1365823,24.7196778 C52.0533822,24.8138106 51.9622588,24.9255932 51.8651925,25.0550261 C51.7661448,25.18642 51.690869,25.3393857 51.6393641,25.515885 C51.5858784,25.6943448 51.5343739,25.8963383 51.482869,26.1238261 Z M49.9258438,27.677018 C49.9258438,26.9612163 50.0011196,26.3062083 50.1516717,25.7119951 C50.3022238,25.1177814 50.4943761,24.6549615 50.7281278,24.3235356 C50.96188,23.9901482 51.2847742,23.7312829 51.7007736,23.5449781 C52.1167725,23.3606349 52.5189052,23.2410079 52.9071711,23.19198 C53.2974178,23.1409916 53.7490741,23.1154974 54.2621398,23.1154974 C54.7771864,23.1154974 55.1872429,23.1272638 55.49429,23.1527579 C55.7993558,23.1782526 56.1163076,23.229241 56.4431639,23.3037631 C56.7700208,23.3822071 57.0433914,23.4861454 57.2672385,23.6214612 C57.491086,23.756777 57.7089901,23.9411208 57.9229326,24.1764529 C58.1348942,24.413746 58.3032747,24.6961445 58.4280745,25.0236485 C58.6974835,25.7571001 58.8341688,26.704312 58.8341688,27.8672447 C58.8341688,29.232171 58.6519216,30.2342937 58.2874271,30.8736129 C58.1111228,31.2109223 57.9051041,31.4874374 57.6733333,31.7031582 C57.4395811,31.9169186 57.1404578,32.0796896 56.7779446,32.1895113 C56.1638503,32.3816994 55.371471,32.4777932 54.3948635,32.4777932 C52.9725423,32.4777932 51.9919732,32.3150217 51.4511739,31.9875182 C50.9004704,31.6580533 50.5221092,31.2030779 50.3160905,30.6206305 C50.0565862,29.9146341 49.9258438,28.9321227 49.9258438,27.677018" id="Shape" fill="#231F20"></path>
                    <polyline id="Path" fill="#231F20" points="65.0919851 32.4287658 65.0919851 23.1782526 66.5559061 23.1782526 72.2095327 30.2676323 72.2095327 23.1782526 73.6397778 23.1782526 73.6397778 32.4287658 72.2095327 32.4287658 66.5400585 25.3531135 66.5400585 32.4287658 65.0919851 32.4287658"></polyline>
                    <path d="M82.7303501,28.8889787 L86.1573906,28.8889787 L84.4735847,24.8471492 L82.7303501,28.8889787 Z M79.6321467,32.4287658 L83.7267673,23.1782526 L85.2382305,23.1782526 L89.1605085,32.4287658 L87.5262261,32.4287658 L86.5912185,29.9891562 L82.2786938,29.9891562 L81.2981242,32.4287658 L79.6321467,32.4287658" id="Shape" fill="#231F20"></path>
                    <path d="M94.9567639,30.785363 L94.9567639,23.1782526 L96.3889897,23.1782526 L96.3889897,30.6461252 C96.3889897,30.9677457 96.4979415,31.1599334 96.7178269,31.228572 C96.8723412,31.2795604 97.0843023,31.3050551 97.3556926,31.3050551 L101.886121,31.3050551 L101.886121,32.4287658 L97.1358072,32.4287658 C96.0779804,32.4287658 95.4084201,32.1640171 95.1271252,31.6325586 C95.0142113,31.4050709 94.9567639,31.1226723 94.9567639,30.785363" id="Path" fill="#231F20"></path>
                    <path d="M109.938677,23.1782526 C109.970372,23.1782526 110.776618,23.2096303 112.353453,23.268463 C113.930288,23.3272963 114.813791,23.3645569 115,23.3822071 L115,24.3156912 L110.188276,24.3156912 C109.805953,24.3156912 109.566259,24.3921738 109.473154,24.5431789 C109.409764,24.660845 109.380049,24.821655 109.380049,25.0236485 L109.380049,27.2475368 L114.346287,27.3867751 L114.346287,28.3222201 L109.380049,28.4477306 L109.380049,30.6735803 C109.389954,30.9912789 109.498906,31.1854276 109.706906,31.2521053 C109.871325,31.3050551 110.085267,31.3285883 110.344771,31.3285883 L115,31.3285883 L115,32.2522665 L110.204124,32.4660269 C110.120924,32.4660269 110.037724,32.4660269 109.956506,32.4660269 C108.617384,32.4660269 107.945843,31.9110352 107.945843,30.7990908 L107.945843,24.8981381 C107.945843,24.2745077 108.139976,23.8312991 108.530223,23.5704728 C108.920469,23.309646 109.389954,23.1782526 109.938677,23.1782526" id="Path" fill="#231F20"></path>
                </g>
            </g>
        </g>
    </g>
</svg>