<svg width="24" height="24" viewBox="0 0 24 24" fill="none" xmlns="http://www.w3.org/2000/svg">
<path d="M12 2C9.25 2 7 4.25 7 7V9H9V7C9 5.35 10.35 4 12 4C13.65 4 15 5.35 15 7V9H17V7C17 4.25 14.75 2 12 2Z" fill="#424242"/>
<path d="M18 22H6C4.9 22 4 21.1 4 20V11C4 9.9 4.9 9 6 9H18C19.1 9 20 9.9 20 11V20C20 21.1 19.1 22 18 22Z" fill="#FB8C00"/>
<path d="M12 17C12.8284 17 13.5 16.3284 13.5 15.5C13.5 14.6716 12.8284 14 12 14C11.1716 14 10.5 14.6716 10.5 15.5C10.5 16.3284 11.1716 17 12 17Z" fill="#C76E00"/>
</svg>
