<svg width="24" height="24" viewBox="0 0 24 24" fill="none" xmlns="http://www.w3.org/2000/svg">
<path d="M16.75 13.5C15.65 12 14.15 11 12 11C9.85 11 8.35 12 7.25 13.5H16.75Z" fill="#2196F3"/>
<path d="M17.05 21.5H6.95005C6.40005 21.5 6.00005 21.1 5.95005 20.55L5.55005 14.05C5.55005 13.5 6.00005 13 6.55005 13H17.45C18.05 13 18.5 13.5 18.45 14.05L18.05 20.55C18 21.1 17.6 21.5 17.05 21.5Z" fill="#546E7A"/>
<path d="M17 15C17.2761 15 17.5 14.7761 17.5 14.5C17.5 14.2239 17.2761 14 17 14C16.7239 14 16.5 14.2239 16.5 14.5C16.5 14.7761 16.7239 15 17 15Z" fill="#B0BEC5"/>
<path d="M12 10C14.2091 10 16 8.20914 16 6C16 3.79086 14.2091 2 12 2C9.79086 2 8 3.79086 8 6C8 8.20914 9.79086 10 12 10Z" fill="#FFB74D"/>
<path d="M8.05002 21.2L7.50002 21.75C7.20002 22.05 6.70002 22.05 6.40002 21.75L4.75002 20.1C4.45002 19.8 4.45002 19.3 4.75002 19L5.30002 18.45C5.95002 17.8 6.85002 17.8 7.50002 18.45L8.05002 19C8.65002 19.65 8.65002 20.6 8.05002 21.2Z" fill="#FFB74D"/>
<path d="M15.95 19L16.5 18.45C17.15 17.8 18.05 17.8 18.7 18.45L19.25 19C19.55 19.3 19.55 19.8 19.25 20.1L17.6 21.75C17.3 22.05 16.8 22.05 16.5 21.75L15.95 21.2C15.35 20.6 15.35 19.65 15.95 19Z" fill="#FFB74D"/>
</svg>
