<svg width="24" height="24" viewBox="0 0 24 24" fill="none" xmlns="http://www.w3.org/2000/svg">
<path d="M14 7C15.3807 7 16.5 5.88071 16.5 4.5C16.5 3.11929 15.3807 2 14 2C12.6193 2 11.5 3.11929 11.5 4.5C11.5 5.88071 12.6193 7 14 7Z" fill="#FF9800"/>
<path d="M14.5 13.6499L9.89995 11.6C9.39995 11.35 9.14995 12.1 8.89995 12.6C8.64995 13.1 6.84995 16.1999 6.99995 16.7499C7.14995 17.1999 7.54995 17.45 7.94995 17.45C8.04995 17.45 8.14995 17.4499 8.24995 17.3999L14.4 15.4999C14.8 15.4 15.1 15 15.1 14.6C15.1 14.2 14.85 13.7999 14.5 13.6499Z" fill="#00796B"/>
<path d="M13.4 7.60002L12.3 7.10002C11.65 6.80002 10.85 7.10002 10.55 7.75002L4.60003 20.55C4.35003 21.05 4.60003 21.65 5.10003 21.9C5.25003 21.95 5.40003 22 5.55003 22C5.95003 22 6.30003 21.8 6.45003 21.45C6.45003 21.45 11.25 14.8 11.65 14C12.05 13.2 14.1 9.35002 14.1 9.35002C14.35 8.70002 14.1 7.90002 13.4 7.60002Z" fill="#009688"/>
<path d="M20.25 7.84994C19.9 7.44994 19.25 7.34994 18.85 7.69994L16.35 9.79994L13.15 8.04994C12.6 7.74994 11.85 7.84994 11.5 8.49994C11.1 9.14994 11.3 9.94994 11.9 10.1999L16.05 11.8999C16.2 11.9499 16.35 11.9999 16.5 11.9999C16.75 11.9999 16.95 11.8999 17.15 11.7499L20.15 9.24994C20.55 8.89994 20.6 8.29994 20.25 7.84994Z" fill="#FF9800"/>
<path d="M5.85 11.55L7.55 9L9.85 9.3L10.6 7.75C10.8 7.3 11.2 7.05 11.65 7H7.05C6.7 7 6.4 7.15 6.2 7.45L4.2 10.45C3.9 10.9 4 11.55 4.5 11.85C4.6 11.95 4.8 12 5 12C5.3 12 5.65 11.85 5.85 11.55Z" fill="#FF9800"/>
</svg>
