<svg width="24" height="24" viewBox="0 0 24 24" fill="none" xmlns="http://www.w3.org/2000/svg">
<path d="M18 2H13C13 2.55 12.55 3 12 3C11.45 3 11 2.55 11 2H6C4.9 2 4 2.9 4 4V20C4 21.1 4.9 22 6 22H18C19.1 22 20 21.1 20 20V4C20 2.9 19.1 2 18 2Z" fill="#6A6A6A"/>
<path d="M18 20.5H6C5.7 20.5 5.5 20.3 5.5 20V4C5.5 3.7 5.7 3.5 6 3.5H18C18.3 3.5 18.5 3.7 18.5 4V20C18.5 20.3 18.3 20.5 18 20.5Z" fill="white"/>
<path d="M13 2C13 2.55 12.55 3 12 3C11.45 3 11 2.55 11 2H7.5V4C7.5 4.55 7.95 5 8.5 5H15.5C16.05 5 16.5 4.55 16.5 4V2H13Z" fill="#90A4AE"/>
<path d="M12 0C10.9 0 10 0.9 10 2C10 3.1 10.9 4 12 4C13.1 4 14 3.1 14 2C14 0.9 13.1 0 12 0ZM12 3C11.45 3 11 2.55 11 2C11 1.45 11.45 1 12 1C12.55 1 13 1.45 13 2C13 2.55 12.55 3 12 3Z" fill="#90A4AE"/>
<path d="M10.5 10H16.5V11H10.5V10Z" fill="#CFD8DC"/>
<path d="M7.5 9.5H9.5V11.5H7.5V9.5Z" fill="#CFD8DC"/>
<path d="M10.5 14.5H16.5V15.5H10.5V14.5Z" fill="#00AC8C"/>
<path d="M7.5 14H9.5V16H7.5V14Z" fill="#00AC8C"/>
</svg>
