<?xml version="1.0" encoding="UTF-8"?>
<svg width="200px" height="85px" viewBox="0 0 200 85" version="1.1" xmlns="http://www.w3.org/2000/svg" xmlns:xlink="http://www.w3.org/1999/xlink">
    <title>V1a</title>
    <defs>
        <polygon id="path-1" points="0 7.68743731 6.77137051 7.68743731 6.77137051 -6.92542108e-15 0 -6.92542108e-15"></polygon>
    </defs>
    <g id="V1a" stroke="none" stroke-width="1" fill="none" fill-rule="evenodd">
        <g id="Group">
            <rect id="Rectangle" fill="#000091" x="0" y="0" width="200" height="60" rx="30"></rect>
            <g id="jmda" transform="translate(39.000000, 10.000000)" fill="#FFFFFF" fill-rule="nonzero">
                <path d="M3.75369458,39.408867 L3.75369458,29.6847291 C4.31527094,28.7389163 5.20197044,27.4679803 6.91625616,27.4679803 C8.60098522,27.4679803 9.54679803,28.591133 9.54679803,30.3940887 L9.54679803,39.408867 L13.3596059,39.408867 L13.3596059,30.2463054 C13.3596059,30.0394089 13.3596059,29.8029557 13.3300493,29.5960591 C13.9211823,28.6206897 14.8374384,27.4679803 16.4334975,27.4679803 C18.1182266,27.4679803 19.0935961,28.591133 19.0935961,30.3940887 L19.0935961,39.408867 L22.8768473,39.408867 L22.8768473,30.2463054 C22.8768473,26.0492611 20.453202,23.9211823 17.3793103,23.9211823 C15.044335,23.9211823 13.5960591,25.1625616 12.5024631,26.5221675 C11.5270936,24.8078818 9.81280788,23.9211823 7.86206897,23.9211823 C6.02955665,23.9211823 4.75862069,24.6600985 3.75369458,25.635468 L3.75369458,24.5123153 L0,24.5123153 L0,39.408867 L3.75369458,39.408867 Z M34.2561576,40 C39.1034483,40 42.4137931,36.4236453 42.4137931,31.9605911 C42.4137931,27.4975369 39.1034483,23.9211823 34.2561576,23.9211823 C29.408867,23.9211823 26.0985222,27.4975369 26.0985222,31.9605911 C26.0985222,36.4236453 29.408867,40 34.2561576,40 Z M34.3152709,36.453202 C31.8325123,36.453202 30,34.5615764 30,31.9605911 C30,29.3596059 31.8325123,27.4679803 34.3152709,27.4679803 C36.7093596,27.4679803 38.5123153,29.3596059 38.5123153,31.9605911 C38.5123153,34.5320197 36.7093596,36.453202 34.3152709,36.453202 Z M49.5960591,39.408867 L49.5960591,29.6847291 C50.1576355,28.7389163 51.1625616,27.4679803 53.0541872,27.4679803 C54.8866995,27.4679803 55.9802956,28.7093596 55.9802956,30.6896552 L55.9802956,39.408867 L59.7931034,39.408867 L59.7931034,30.5418719 C59.7931034,26.137931 57.2216749,23.9211823 54,23.9211823 C52.0197044,23.9211823 50.6305419,24.6896552 49.5960591,25.6945813 L49.5960591,24.5123153 L45.8423645,24.5123153 L45.8423645,39.408867 L49.5960591,39.408867 Z M76.2857143,40 C78.0295567,40 79.773399,39.2019704 80.7192118,38.0197044 L80.7192118,39.408867 L84.5024631,39.408867 L84.5024631,29.773399 C84.5024631,26.4926108 82.2857143,23.9211823 77.9704433,23.9211823 C75.2807882,23.9211823 73.0640394,25.044335 71.7339901,26.8768473 L74.5123153,28.9753695 C75.1921182,27.8226601 76.4039409,27.2019704 77.8522167,27.2019704 C79.5369458,27.2019704 80.7192118,28.2068966 80.7192118,29.773399 L80.7192118,30.1576355 L76.226601,30.9261084 C73.0049261,31.4581281 71.2610837,33.2019704 71.2610837,35.4778325 C71.2610837,38.2857143 73.3004926,40 76.2857143,40 Z M77.0541872,36.9852217 C75.7832512,36.9852217 74.9852217,36.2758621 74.9852217,35.3300493 C74.9852217,34.3842365 75.6059113,33.7339901 77.2019704,33.4679803 L80.7192118,32.8472906 L80.7192118,34.8866995 C79.9507389,36.0985222 78.7389163,36.9852217 77.0541872,36.9852217 Z M96.8571429,39.408867 L102.295567,24.5123153 L98.2463054,24.5123153 L94.4039409,35.1527094 L90.5320197,24.5123153 L86.5123153,24.5123153 L91.9211823,39.408867 L96.8571429,39.408867 Z M106.551724,21.91133 C107.881773,21.91133 108.975369,20.7881773 108.975369,19.4581281 C108.975369,18.1280788 107.881773,17.0049261 106.551724,17.0049261 C105.221675,17.0049261 104.098522,18.1280788 104.098522,19.4581281 C104.098522,20.7881773 105.221675,21.91133 106.551724,21.91133 Z M108.413793,39.408867 L108.413793,24.5123153 L104.660099,24.5123153 L104.660099,39.408867 L108.413793,39.408867 Z M117.369458,40 C120.17734,40 122.689655,38.2857143 122.748768,35.1527094 C122.748768,29.862069 115.802956,30.8965517 115.802956,28.3546798 C115.802956,27.5270936 116.394089,26.9950739 117.517241,26.9950739 C118.699507,26.9950739 119.674877,27.7339901 120.44335,28.7093596 L122.955665,26.4630542 C121.862069,25.0147783 119.793103,23.9211823 117.487685,23.9211823 C114.413793,23.9211823 112.197044,25.8719212 112.197044,28.5024631 C112.197044,33.8817734 119.142857,32.7881773 119.142857,35.3891626 C119.142857,36.2758621 118.492611,36.9261084 117.310345,36.9261084 C115.891626,36.9261084 114.79803,36.0985222 113.881773,34.9458128 L111.399015,37.2512315 C112.817734,38.9359606 114.70936,40 117.369458,40 Z" id="Jedonnemonavis"></path>
                <path d="M19.2413793,18.2068966 C22.1182266,18.2068966 23.5369458,16.6896552 23.5369458,13.635468 L23.5369458,0.985221675 L20.7389163,0.985221675 L20.7389163,13.773399 C20.7389163,15.1921182 20.08867,15.7241379 18.8472906,15.7241379 C18.5714286,15.7241379 18.3349754,15.7044335 18.137931,15.6650246 L18.137931,18.1280788 C18.4137931,18.2068966 18.7881773,18.2068966 19.2413793,18.2068966 Z M31.7339901,15.1724138 C33.6059113,15.1724138 35.1428571,14.4039409 36.0689655,13.1625616 L34.2758621,11.7438424 C33.7438424,12.453202 32.8571429,12.9261084 31.773399,12.9261084 C30.0788177,12.9261084 28.9359606,11.9605911 28.7783251,10.3251232 L35.7339901,10.3251232 C35.8128079,9.99014778 35.8916256,9.45812808 35.8916256,8.90640394 C35.8916256,6.30541872 34.0788177,4.45320197 31.320197,4.45320197 C28.0689655,4.45320197 26.2167488,6.87684729 26.2167488,9.81280788 C26.2167488,12.7093596 28.2068966,15.1724138 31.7339901,15.1724138 Z M33.408867,8.43349754 L28.9359606,8.43349754 C29.270936,7.13300493 30.0985222,6.54187192 31.320197,6.54187192 C32.6403941,6.54187192 33.3694581,7.44827586 33.408867,8.43349754 Z M47.9901478,15.1724138 C49.270936,15.1724138 50.2758621,14.7783251 51.0640394,14.08867 L51.0640394,14.7783251 L53.5862069,14.7783251 L53.5862069,0 L51.0640394,0 L51.0640394,5.53694581 C50.2758621,4.84729064 49.270936,4.45320197 47.9901478,4.45320197 C44.8571429,4.45320197 42.9458128,6.91625616 42.9458128,9.81280788 C42.9458128,12.7093596 44.8571429,15.1724138 47.9901478,15.1724138 Z M48.3448276,12.8078818 C46.6502463,12.8078818 45.5665025,11.546798 45.5665025,9.81280788 C45.5665025,8.07881773 46.6502463,6.81773399 48.3448276,6.81773399 C49.4876847,6.81773399 50.3940887,7.31034483 51.0640394,8.2955665 L51.0640394,11.3300493 C50.4137931,12.2955665 49.5073892,12.8078818 48.3448276,12.8078818 Z M61.3103448,15.1724138 C64.5418719,15.1724138 66.7487685,12.7881773 66.7487685,9.81280788 C66.7487685,6.83743842 64.5418719,4.45320197 61.3103448,4.45320197 C58.0788177,4.45320197 55.8719212,6.83743842 55.8719212,9.81280788 C55.8719212,12.7881773 58.0788177,15.1724138 61.3103448,15.1724138 Z M61.3497537,12.8078818 C59.6945813,12.8078818 58.4729064,11.546798 58.4729064,9.81280788 C58.4729064,8.07881773 59.6945813,6.81773399 61.3497537,6.81773399 C62.9458128,6.81773399 64.1477833,8.07881773 64.1477833,9.81280788 C64.1477833,11.5270936 62.9458128,12.8078818 61.3497537,12.8078818 Z M71.5369458,14.7783251 L71.5369458,8.2955665 C71.91133,7.66502463 72.5812808,6.81773399 73.8423645,6.81773399 C75.0640394,6.81773399 75.7931034,7.6453202 75.7931034,8.96551724 L75.7931034,14.7783251 L78.3349754,14.7783251 L78.3349754,8.86699507 C78.3349754,5.93103448 76.6206897,4.45320197 74.4729064,4.45320197 C73.1527094,4.45320197 72.226601,4.96551724 71.5369458,5.63546798 L71.5369458,4.84729064 L69.0344828,4.84729064 L69.0344828,14.7783251 L71.5369458,14.7783251 Z M83.6748768,14.7783251 L83.6748768,8.2955665 C84.0492611,7.66502463 84.7192118,6.81773399 85.9802956,6.81773399 C87.2019704,6.81773399 87.9310345,7.6453202 87.9310345,8.96551724 L87.9310345,14.7783251 L90.4729064,14.7783251 L90.4729064,8.86699507 C90.4729064,5.93103448 88.7586207,4.45320197 86.6108374,4.45320197 C85.2906404,4.45320197 84.364532,4.96551724 83.6748768,5.63546798 L83.6748768,4.84729064 L81.1724138,4.84729064 L81.1724138,14.7783251 L83.6748768,14.7783251 Z M98.1182266,15.1724138 C99.9901478,15.1724138 101.527094,14.4039409 102.453202,13.1625616 L100.660099,11.7438424 C100.128079,12.453202 99.2413793,12.9261084 98.1576355,12.9261084 C96.4630542,12.9261084 95.320197,11.9605911 95.1625616,10.3251232 L102.118227,10.3251232 C102.197044,9.99014778 102.275862,9.45812808 102.275862,8.90640394 C102.275862,6.30541872 100.463054,4.45320197 97.7044335,4.45320197 C94.453202,4.45320197 92.6009852,6.87684729 92.6009852,9.81280788 C92.6009852,12.7093596 94.591133,15.1724138 98.1182266,15.1724138 Z M99.7931034,8.43349754 L95.320197,8.43349754 C95.6551724,7.13300493 96.4827586,6.54187192 97.7044335,6.54187192 C99.0246305,6.54187192 99.7536946,7.44827586 99.7931034,8.43349754 Z" id="Jedonnemonavis-Copy"></path>
            </g>
            <g id="services-plus" transform="translate(127.000000, 66.000000)">
                <g id="g10" transform="translate(36.500000, 9.500000) scale(-1, 1) rotate(-180.000000) translate(-36.500000, -9.500000) translate(-0.000000, -0.000000)">
                    <g id="g12" transform="translate(60.266209, -0.000000)">
                        <g id="g14-Clipped" transform="translate(0.000000, -0.000000)">
                            <g id="g14" transform="translate(0.000000, -0.000000)">
                                <g id="g20" transform="translate(0.000000, -0.000000)">
                                    <g id="g34" transform="translate(0.000000, -0.000000)">
                                        <g id="g32-Clipped" transform="translate(0.000000, -0.000000)">
                                            <mask id="mask-2" fill="white">
                                                <use xlink:href="#path-1"></use>
                                            </mask>
                                            <g id="path24"></g>
                                            <g id="g32" mask="url(#mask-2)">
                                                <g transform="translate(0.000217, -0.000012)" id="g30">
                                                    <g transform="translate(0.000000, -0.000000)">
                                                        <polygon id="path28" fill="#FC7E7E" fill-rule="nonzero" points="4.49276398 7.68743731 1.09129773 7.11262782 2.07381504 1.16557914 0 0.815064751 0 0 6.77161144 0 6.77161144 5.5395163 4.82536946 5.26612239"></polygon>
                                                    </g>
                                                </g>
                                            </g>
                                        </g>
                                    </g>
                                </g>
                            </g>
                        </g>
                    </g>
                    <g id="g36" transform="translate(54.304548, 0.815077)" fill="#000091" fill-rule="nonzero">
                        <polygon id="path38" points="7.05313951 6.29756307 10.4546058 6.87237256 9.94889124 10.5564896 8.51233914 10.5564896 8.51233914 12.0629583 11.0082656 12.0629583 7.29503441 13.0334823 5.80330907 7.1955963 0 8.712299 0 5.21446507 5.96184178 5.21446507 5.96184178 0 8.03565682 0.350514393"></polygon>
                    </g>
                    <g id="g40" transform="translate(54.304440, 8.010625)" fill="#E1000F" fill-rule="nonzero">
                        <polygon id="path42" points="11.2437758 7.62981016 12.7335737 7.62981016 12.7335737 10.8970137 5.96196225 10.8970137 5.96196225 4.86748384 0 4.86748384 0 1.51682454 5.80342954 0 7.29515487 5.83788605 11.0083861 4.86748384 11.2437758 4.86748384"></polygon>
                    </g>
                    <g id="g44" transform="translate(64.253476, 5.266159)" fill="#66CCFF" fill-rule="nonzero">
                        <polygon id="path46" points="2.78456199 3.34298381 1.2947641 3.34298381 1.2947641 6.10531013 0 6.10531013 0.505714524 2.42131493 0.838320003 0 2.78456199 0.273393916 2.78456199 0.763407433 8.74652424 0.763407433 8.74652424 7.61190067 5.50214511 7.61190067 5.50214511 6.10531013 2.78456199 6.10531013"></polygon>
                    </g>
                    <g id="g48" transform="translate(62.816875, 8.616099)" fill="#FFFFFF" fill-rule="nonzero">
                        <polygon id="path50" points="6.93869721 4.26197236 4.21424755 4.26197236 4.21424755 7.01735419 2.72457013 7.01735419 2.72457013 4.26197236 0 4.26197236 0 2.75538182 2.72457013 2.75538182 2.72457013 0 4.21424755 0 4.21424755 2.75538182 6.93869721 2.75538182"></polygon>
                    </g>
                    <g id="g52" transform="translate(-0.000000, 0.090875)" fill="#000000" fill-rule="nonzero">
                        <g id="g54-Clipped" transform="translate(-0.000000, 0.000000)">
                            <g id="g54" transform="translate(-0.000000, 0.000000)">
                                <g id="g60" transform="translate(-0.000000, 11.143361)">
                                    <path d="M1.06877067,2.22479782 C1.50461515,1.65815116 2.08562067,1.3223786 2.67722715,1.3223786 C3.25823267,1.3223786 3.61107636,1.63719583 3.61107636,2.17228767 C3.61107636,3.48406677 0.29056299,3.19032669 0.29056299,5.63539911 C0.29056299,6.80036909 1.23477224,7.76565429 2.61482598,7.76565429 C3.70443719,7.76565429 4.54480511,7.27259494 5.15713168,6.52734067 L4.07788051,5.55145597 C3.65251653,6.10762496 3.17511141,6.46447469 2.62530649,6.46447469 C2.11682125,6.46447469 1.78469764,6.12870212 1.78469764,5.69838692 C1.78469764,4.38660782 5.10521101,4.6909474 5.10521101,2.20384249 C5.08449093,0.839553243 4.0260803,0 2.69782677,0 C1.47341457,0 0.643406688,0.451270529 0,1.22783596 L1.06877067,2.22479782 Z" id="path62"></path>
                                </g>
                                <g id="g64" transform="translate(6.754541, 11.353255)">
                                    <polygon id="path66" points="0 7.34593858 4.23364251 7.34593858 4.23364251 6.07619197 1.47341457 6.07619197 1.47341457 4.37613016 3.8185181 4.37613016 3.8185181 3.10626172 1.47341457 3.10626172 1.47341457 1.26986844 4.23364251 1.26986844 4.23364251 0 0 0"></polygon>
                                </g>
                                <g id="g68" transform="translate(12.803396, 11.353279)">
                                    <path d="M1.47341457,6.07619197 L1.47341457,4.23967687 L2.30354291,4.23967687 C2.92610905,4.23967687 3.28919232,4.57557127 3.28919232,5.17365092 C3.28919232,5.72981991 2.92610905,6.07619197 2.30354291,6.07619197 L1.47341457,6.07619197 Z M0,7.34593858 L2.22042166,7.34593858 C3.8185181,7.34593858 4.80416752,6.51686301 4.80416752,5.15269559 C4.80416752,4.27123169 4.37880354,3.6100424 3.64203602,3.25319267 L5.92485885,0 L4.16088129,0 L2.23090216,2.96980842 L1.47341457,2.96980842 L1.47341457,0 L0,0 L0,7.34593858 Z" id="path70"></path>
                                </g>
                                <g id="g72" transform="translate(18.551327, 11.353255)">
                                    <polygon id="path74" points="1.56689586 7.34593858 3.71479723 1.60564101 5.86269861 7.34593858 7.429474 7.34593858 4.67984703 0 2.74974743 0 2.13989865e-16 7.34593858"></polygon>
                                </g>
                                <polygon id="path76" points="27.2044298 18.6992301 28.6778443 18.6992301 28.6778443 11.3532915 27.2044298 11.3532915"></polygon>
                                <g id="g78" transform="translate(30.192470, 11.143348)">
                                    <path d="M5.75885727,2.40316176 L6.92098877,1.50074254 C6.25698247,0.58772382 5.17785176,0 3.85995826,0 C1.56677539,0 0,1.78400495 0,3.88294898 C0,5.98177117 1.56677539,7.76577612 3.85995826,7.76577612 C5.17785176,7.76577612 6.25698247,7.16757464 6.92098877,6.27551125 L5.75885727,5.36261436 C5.34385333,5.96069401 4.69020707,6.37005388 3.85995826,6.37005388 C2.49026457,6.37005388 1.51497519,5.28902705 1.51497519,3.88294898 C1.51497519,2.47674908 2.49026457,1.39572224 3.85995826,1.39572224 C4.69020707,1.39572224 5.34385333,1.80508211 5.75885727,2.40316176" id="path80"></path>
                                </g>
                                <g id="g82" transform="translate(38.492874, 11.353255)">
                                    <polygon id="path84" points="0 7.34593858 4.23364251 7.34593858 4.23364251 6.07619197 1.47341457 6.07619197 1.47341457 4.37613016 3.8185181 4.37613016 3.8185181 3.10626172 1.47341457 3.10626172 1.47341457 1.26986844 4.23364251 1.26986844 4.23364251 0 0 0"></polygon>
                                </g>
                                <g id="g86" transform="translate(43.887950, 11.143361)">
                                    <path d="M1.06877067,2.22479782 C1.50461515,1.65815116 2.08562067,1.3223786 2.67722715,1.3223786 C3.25823267,1.3223786 3.61107636,1.63719583 3.61107636,2.17228767 C3.61107636,3.48406677 0.29056299,3.19032669 0.29056299,5.63539911 C0.29056299,6.80036909 1.23477224,7.76565429 2.61482598,7.76565429 C3.70443719,7.76565429 4.54480511,7.27259494 5.15713168,6.52734067 L4.07788051,5.55145597 C3.65251653,6.10762496 3.17511141,6.46447469 2.62530649,6.46447469 C2.11682125,6.46447469 1.78469764,6.12870212 1.78469764,5.69838692 C1.78469764,4.38660782 5.10521101,4.6909474 5.10521101,2.20384249 C5.08449093,0.839553243 4.0260803,0 2.69782677,0 C1.47341457,0 0.643406688,0.451270529 0,1.22783596 L1.06877067,2.22479782 Z" id="path88"></path>
                                </g>
                                <g id="g90" transform="translate(0.653791, 0.209931)">
                                    <path d="M1.47341457,6.07619197 L1.47341457,4.23967687 L2.45918444,4.23967687 C3.08175059,4.23967687 3.45531436,4.57557127 3.45531436,5.17365092 C3.45531436,5.72981991 3.08175059,6.07619197 2.45918444,6.07619197 L1.47341457,6.07619197 Z M0,7.34593858 L2.39690374,7.34593858 C3.99487972,7.34593858 4.97016909,6.51686301 4.97016909,5.15269559 C4.97016909,3.79900584 3.99487972,2.96980842 2.39690374,2.96980842 L1.47341457,2.96980842 L1.47341457,0 L0,0 L0,7.34593858 Z" id="path92"></path>
                                </g>
                                <g id="g94" transform="translate(6.816702, 0.000000)">
                                    <path d="M4.40988366,7.55585735 L5.88329822,7.55585735 L5.88329822,3.08542822 C5.88329822,1.15437048 4.76272735,0 2.93646909,0 C1.12057087,0 0,1.15437048 0,3.08542822 L0,7.55585735 L1.47341457,7.55585735 L1.47341457,2.95933076 C1.47341457,1.9729684 2.02321949,1.39572224 2.94682913,1.39572224 C3.84959822,1.39572224 4.40988366,1.9729684 4.40988366,2.95933076 L4.40988366,7.55585735 Z" id="path96"></path>
                                </g>
                                <g id="g98" transform="translate(14.629329, 0.209870)">
                                    <path d="M1.47341457,3.19032669 L1.47341457,1.26986844 L2.30354291,1.26986844 C2.98826929,1.26986844 3.4033937,1.63719583 3.4033937,2.24575315 C3.4033937,2.85443229 2.98826929,3.19032669 2.30354291,3.19032669 L1.47341457,3.19032669 Z M1.47341457,6.07619197 L1.47341457,4.4706728 L2.09598071,4.4706728 C2.65626614,4.4706728 2.97790925,4.75393521 2.97790925,5.27867122 C2.97790925,5.7718524 2.65626614,6.07619197 2.09598071,6.07619197 L1.47341457,6.07619197 Z M0,7.34593858 L2.06478012,7.34593858 C3.57975531,7.34593858 4.49288444,6.59045032 4.49288444,5.3521367 C4.49288444,4.76441288 4.223162,4.25015453 3.72503681,3.90390431 C4.49288444,3.55765408 4.91836889,2.9280196 4.91836889,2.16193184 C4.91836889,0.818597916 3.89103838,0 2.22042166,0 L0,0 L0,7.34593858 Z" id="path100"></path>
                                </g>
                                <g id="g102" transform="translate(21.155467, 0.209919)">
                                    <polygon id="path104" points="0 7.34593858 1.47341457 7.34593858 1.47341457 1.35368975 4.23364251 1.35368975 4.23364251 0 0 0"></polygon>
                                </g>
                                <polygon id="path106" points="26.7893054 7.55586954 28.2627199 7.55586954 28.2627199 0.209930952 26.7893054 0.209930952"></polygon>
                                <g id="g108" transform="translate(29.777310, 0.000000)">
                                    <path d="M5.75885727,2.40316176 L6.92098877,1.50074254 C6.25698247,0.58772382 5.17785176,0 3.85995826,0 C1.56677539,0 0,1.78400495 0,3.88294898 C0,5.98177117 1.56677539,7.76577612 3.85995826,7.76577612 C5.17785176,7.76577612 6.25698247,7.16757464 6.92098877,6.27551125 L5.75885727,5.36261436 C5.34385333,5.96069401 4.69020707,6.37005388 3.85995826,6.37005388 C2.49026457,6.37005388 1.51497519,5.28902705 1.51497519,3.88294898 C1.51497519,2.47674908 2.49026457,1.39572224 3.85995826,1.39572224 C4.69020707,1.39572224 5.34385333,1.80508211 5.75885727,2.40316176" id="path110"></path>
                                </g>
                                <g id="g112" transform="translate(37.455039, 0.000012)">
                                    <path d="M1.06877067,2.22479782 C1.50461515,1.65815116 2.08562067,1.3223786 2.67722715,1.3223786 C3.25823267,1.3223786 3.61107636,1.63719583 3.61107636,2.17228767 C3.61107636,3.48406677 0.29056299,3.19032669 0.29056299,5.63539911 C0.29056299,6.80036909 1.23477224,7.76565429 2.61482598,7.76565429 C3.70443719,7.76565429 4.54480511,7.27259494 5.15713168,6.52734067 L4.07788051,5.55145597 C3.65251653,6.10762496 3.17511141,6.46447469 2.62530649,6.46447469 C2.11682125,6.46447469 1.78469764,6.12870212 1.78469764,5.69838692 C1.78469764,4.38660782 5.10521101,4.6909474 5.10521101,2.20384249 C5.08449093,0.839553243 4.0260803,0 2.69782677,0 C1.47341457,0 0.643406688,0.451270529 0,1.22783596 L1.06877067,2.22479782 Z" id="path114"></path>
                                </g>
                                <g id="g116" transform="translate(44.020558, 2.397131)">
                                    <polygon id="path118" points="3.22618882 1.89219292 3.22618882 0 1.87095099 0 1.87095099 1.89219292 0 1.89219292 0 3.2628175 1.87095099 3.2628175 1.87095099 5.15501042 3.22618882 5.15501042 3.22618882 3.2628175 5.08702071 3.2628175 5.08702071 1.89219292"></polygon>
                                </g>
                            </g>
                        </g>
                    </g>
                </g>
            </g>
        </g>
    </g>
</svg>