<?xml version="1.0" encoding="UTF-8"?>
<svg width="132px" height="43px" viewBox="0 0 132 43" version="1.1" xmlns="http://www.w3.org/2000/svg" xmlns:xlink="http://www.w3.org/1999/xlink">
    <title>Group 17</title>
    <g id="3_Parcours-Couple-[RWD+Mobile]" stroke="none" stroke-width="1" fill="none" fill-rule="evenodd">
        <g id="[RWD]/Locataire/Create/02_Documents/6_Ressources/0_Simulation_AideLogement" transform="translate(-944.000000, -658.000000)">
            <g id="Group-11-Copy-2" transform="translate(528.000000, 642.000000)">
                <g id="Group-17" transform="translate(416.000000, 16.000000)">
                    <path d="M12.9441182,28.5056675 C12.9441182,28.5056675 11.2058314,27.4304839 12.2250005,25.7170407 L0,25.7170407 L0,30.7345639 L15.8800963,30.7345639 L12.9441182,28.5056675 Z" id="Path" fill="#B2B4B6"></path>
                    <path d="M22.1828526,27.2475273 L27.2552304,24.5649987 C27.2552304,24.5649987 28.8954557,23.5324215 29.8266209,25.4004171 C30.7594623,27.2667419 28.283619,28.3293942 28.283619,28.3293942 L25.1062587,30.1631376 C25.1062587,30.1631376 24.6628866,34.3828362 24.5539294,35.2132421 C24.399713,36.3878405 24.1692266,36.3034632 23.108989,35.5791554 C22.306058,35.0294501 21.1930181,34.4797447 21.1930181,34.4797447 C21.1930181,34.4797447 19.7740598,35.1898504 18.9367654,35.6251034 C17.6946531,36.2742235 17.3493425,36.3034632 17.5504943,35.0428168 C17.7214733,33.9743166 18.3282813,29.9066642 18.3282813,29.9066642 L15.967262,28.3335713 C15.967262,28.3335713 13.4654366,26.9826996 15.1207482,25.0771102 C16.5371921,23.4472088 18.1388633,24.5599862 18.6534767,24.9075202 C19.16809,25.2550543 22.1828526,27.2475273 22.1828526,27.2475273 Z" id="Path" fill="#236AB3"></path>
                    <path d="M21.7520525,26.0904727 C22.8164807,26.5491175 24.1616834,25.5908925 24.5539294,24.5666695 C24.9461754,23.5391048 24.7634625,22.3477981 23.5599042,21.8532304 C22.356346,21.3586627 21.1192624,22.133931 20.5937534,23.3269085 C20.1000933,24.4472047 20.4051736,25.5098569 21.7520525,26.0904727 L21.7520525,26.0904727 Z M47.1332186,27.2475273 L52.2055964,24.5649987 C52.2055964,24.5649987 53.8458217,23.5324215 54.777825,25.4004171 C55.7098284,27.2667419 53.233985,28.3293942 53.233985,28.3293942 L50.0574629,30.1631376 C50.0574629,30.1631376 49.6140908,34.3828362 49.5042954,35.2132421 C49.3500791,36.3878405 49.1195926,36.3034632 48.0601932,35.5791554 C47.2564241,35.0294501 46.1433842,34.4797447 46.1433842,34.4797447 C46.1433842,34.4797447 44.725264,35.1898504 43.8871315,35.6251034 C42.6450191,36.2742235 42.2997086,36.3034632 42.5008604,35.0428168 C42.6718394,33.9743166 43.2786473,29.9066642 43.2786473,29.9066642 L40.91679,28.3335713 C40.91679,28.3335713 38.4149645,26.9826996 40.0711143,25.0771102 C41.4875582,23.4472088 43.0892294,24.5599862 43.6030046,24.9075202 C44.1167798,25.2550543 47.1332186,27.2475273 47.1332186,27.2475273 L47.1332186,27.2475273 Z" id="Shape" fill="#236AB3"></path>
                    <path d="M46.7024185,26.0904727 C47.7676849,26.5491175 49.1120494,25.5908925 49.5042954,24.5666695 C49.8973796,23.5391048 49.7138286,22.3477981 48.5102703,21.8532304 C47.306712,21.3586627 46.0696285,22.133931 45.5449576,23.3269085 C45.0521357,24.4472047 45.3555396,25.5098569 46.7024185,26.0904727 L46.7024185,26.0904727 Z M37.3069533,5.54502698 L42.3793311,2.86333378 C42.3793311,2.86333378 44.0195564,1.83075659 44.9515598,3.69875223 C45.8827249,5.56591245 43.4068816,6.62689387 43.4068816,6.62689387 L40.2303594,8.4631436 C40.2303594,8.4631436 39.7869874,12.6803359 39.6780301,13.5107418 C39.5238138,14.687011 39.2933273,14.6009629 38.2330897,13.8766551 C37.4293207,13.3286206 36.3162807,12.776409 36.3162807,12.776409 C36.3162807,12.776409 34.8981606,13.4873501 34.0608662,13.9234385 C32.8179157,14.5725587 32.4734433,14.6009629 32.6745951,13.3386456 C32.844736,12.2709809 33.4515439,8.20416389 33.4515439,8.20416389 L31.0905247,6.63023554 C31.0905247,6.63023554 28.5886992,5.2785285 30.2440108,3.37460987 C31.6604548,1.74470849 33.2612878,2.85665044 33.7759012,3.20418451 C34.2905145,3.55171858 37.3069533,5.54502698 37.3069533,5.54502698 L37.3069533,5.54502698 Z" id="Shape" fill="#236AB3"></path>
                    <path d="M36.8761532,4.38964328 C37.9405815,4.848288 39.2857841,3.89006305 39.6780301,2.8641692 C40.0702761,1.83660452 39.8875633,0.646968656 38.684005,0.15156552 C37.4804468,-0.343002198 36.2433632,0.431430698 35.7178541,1.62440823 C35.2250322,2.74553978 35.5284362,3.80902746 36.8761532,4.38964328 L36.8761532,4.38964328 Z M23.9806468,12.8390654 L29.0530246,10.1565368 C29.0530246,10.1565368 30.6932499,9.12479501 31.6244151,10.9919552 C32.5564184,12.8591154 30.080575,13.9209323 30.080575,13.9209323 L26.9032147,15.7563466 C26.9032147,15.7563466 26.4598427,19.9743743 26.3508854,20.8047803 C26.1966691,21.9818848 25.9661826,21.8958367 24.905945,21.1706935 C24.1030141,20.6218236 22.9899742,20.0704474 22.9899742,20.0704474 C22.9899742,20.0704474 21.571854,20.7805531 20.7337215,21.2183124 C19.4916092,21.8657617 19.1462986,21.8958367 19.3474504,20.6326841 C19.5175913,19.5650193 20.1243992,15.4982023 20.1243992,15.4982023 L17.76338,13.9234385 C17.76338,13.9234385 15.2615545,12.5725669 16.9177043,10.6678129 C18.3341482,9.03874691 19.9349812,10.1506889 20.4495946,10.4982229 C20.9650461,10.845757 23.9806468,12.8390654 23.9806468,12.8390654 L23.9806468,12.8390654 Z" id="Shape" fill="#236AB3"></path>
                    <path d="M23.5498467,11.6828463 C24.6151131,12.141491 25.9594776,11.1841015 26.3517236,10.1573722 C26.7439696,9.13064294 26.5612567,7.94017166 25.3576984,7.44560394 C24.1541402,6.9502008 22.9170566,7.7246337 22.3915476,8.91844665 C21.8987257,10.0395782 22.2029678,11.1030659 23.5498467,11.6828463 L23.5498467,11.6828463 Z M48.9310128,12.8390654 L54.0033906,10.1565368 C54.0033906,10.1565368 55.6436159,9.12479501 56.5756192,10.9919552 C57.5076226,12.8591154 55.0317792,13.9209323 55.0317792,13.9209323 L51.8544189,15.7563466 C51.8544189,15.7563466 51.4110468,19.9743743 51.3029277,20.8047803 C51.1478732,21.9818848 50.9173868,21.8958367 49.8571492,21.1706935 C49.0542183,20.6218236 47.9411783,20.0704474 47.9411783,20.0704474 C47.9411783,20.0704474 46.5230582,20.7805531 45.6857638,21.2183124 C44.4428133,21.8657617 44.0975027,21.8958367 44.2986545,20.6326841 C44.4696336,19.5650193 45.0764415,15.4982023 45.0764415,15.4982023 L42.7154223,13.9234385 C42.7154223,13.9234385 40.2127587,12.5725669 41.8680703,10.6678129 C43.2853524,9.03874691 44.8861854,10.1506889 45.4007988,10.4982229 C45.9154121,10.845757 48.9310128,12.8390654 48.9310128,12.8390654 L48.9310128,12.8390654 Z" id="Shape" fill="#236AB3"></path>
                    <path d="M48.5002127,11.6828463 C49.5654791,12.141491 50.9098436,11.1841015 51.3029277,10.1573722 C51.6943356,9.13064294 51.5124609,7.94017166 50.3089026,7.44560394 C49.1045062,6.9502008 47.8674227,7.7246337 47.3427517,8.91844665 C46.8490917,10.0395782 47.1533338,11.1030659 48.5002127,11.6828463 L48.5002127,11.6828463 Z" id="Path" fill="#236AB3"></path>
                    <path d="M57.7808538,25.7170407 C58.3030103,27.3862067 57.0684411,28.3293942 57.0684411,28.3293942 L52.8727499,30.7345639 L71.3720102,30.7345639 L71.3720102,25.7170407" id="Path" fill="#B2B4B6"></path>
                    <path d="M35.6273358,19.839872 L40.6997136,17.1581788 C40.6997136,17.1581788 42.3399389,16.1256016 43.2719422,17.9927618 C44.2039456,19.8607574 41.7281022,20.9217388 41.7281022,20.9217388 L38.5507419,22.758824 C38.5507419,22.758824 38.108208,26.9751809 37.9984126,27.8055868 C37.8441962,28.981856 37.6137098,28.8958079 36.5534722,28.1715001 C35.7505413,27.6234656 34.6375013,27.0720894 34.6375013,27.0720894 C34.6375013,27.0720894 33.218543,27.7821951 32.3812487,28.2191189 C31.1391363,28.8682391 30.7938258,28.8966433 30.9949776,27.6351614 C31.1659566,26.5683321 31.7727645,22.5006797 31.7727645,22.5006797 L29.4117453,20.9267513 C29.4117453,20.9267513 26.9090817,19.5750443 28.5652315,17.6711257 C29.9816754,16.0412243 31.5825084,17.1531662 32.0971218,17.5007003 C32.6117351,17.8465635 35.6273358,19.839872 35.6273358,19.839872 Z" id="Path" fill="#236AB3"></path>
                    <path d="M35.1965357,18.6844882 C36.2618021,19.143133 37.6061666,18.184908 37.9984126,17.1590142 C38.3906586,16.1314495 38.2087839,14.9418136 37.0043875,14.4464105 C35.8008292,13.9518428 34.5637457,14.7262757 34.0390748,15.9192532 C33.5462528,17.0403848 33.8496568,18.1038724 35.1965357,18.6844882 L35.1965357,18.6844882 Z M33.9485564,34.1347169 L39.0209343,31.4538591 C39.0209343,31.4538591 40.6611595,30.4212819 41.5931629,32.2876067 C42.5243281,34.1539315 40.0484847,35.2165838 40.0484847,35.2165838 L36.8711244,37.0519981 C36.8711244,37.0519981 36.4277523,41.2700258 36.3187951,42.1004318 C36.1637406,43.2767009 35.9340923,43.1906528 34.8738547,42.466345 C34.0700857,41.9183105 32.9578838,41.3669344 32.9578838,41.3669344 C32.9578838,41.3669344 31.5389255,42.0770401 30.7016312,42.5139639 C29.4595188,43.1614132 29.1142083,43.1914883 29.31536,41.9300064 C29.4855009,40.8615062 30.093147,36.7955247 30.093147,36.7955247 L27.7312896,35.2207609 C27.7312896,35.2207609 25.2294642,33.8698893 26.8847758,31.9642998 C28.3003816,30.3360693 29.9028909,31.4471758 30.4166661,31.7947099 C30.9321176,32.1405731 33.9485564,34.1347169 33.9485564,34.1347169 L33.9485564,34.1347169 Z" id="Shape" fill="#236AB3"></path>
                    <path d="M33.5177563,32.9793332 C34.5821846,33.4379779 35.9273872,32.479753 36.3196333,31.4538591 C36.7118793,30.4262945 36.5291664,29.2349878 35.3256081,28.74042 C34.1220499,28.2458523 32.8849663,29.0211206 32.3594572,30.2140982 C31.8657972,31.3360651 32.1708774,32.3987174 33.5177563,32.9793332 L33.5177563,32.9793332 Z M74.8041627,21.728753 L76.0236455,19.7003571 L76.4008051,21.728753 L74.8041627,21.728753 Z M76.4988666,22.2542312 C76.6203958,22.8465429 76.6874464,23.4480442 76.7612021,24.0938227 C77.0185088,24.0762789 77.2682722,24.0503809 77.5230645,24.0503809 C77.7761805,24.0503809 78.0167246,24.0762789 78.2673262,24.0938227 L77.0067749,18.0328619 C76.7884629,18.0662675 76.5663147,18.0662675 76.3480028,18.0328619 L72.6652486,24.0762789 C72.806893,24.0679247 72.9502137,24.0503809 73.0910199,24.0503809 C73.230988,24.0503809 73.3583842,24.0679247 73.496676,24.0762789 C73.780803,23.4747776 74.1068365,22.9267431 74.4655572,22.2542312 L76.4988666,22.2542312 Z M80.4808341,23.4204754 C81.2418584,23.4204754 81.9014686,23.3594898 82.5091147,23.2976689 C82.4672081,23.4204754 82.4169201,23.5499653 82.3926143,23.6719363 C82.3699847,23.793072 82.3699847,23.9233973 82.3632796,24.044533 L79.0434369,24.044533 L80.2025741,18.0980245 C80.4196504,18.1155683 80.6342123,18.1414663 80.8521268,18.1414663 C81.0717175,18.1414663 81.296337,18.1155683 81.5184421,18.0980245 L80.4808341,23.4204754 L80.4808341,23.4204754 Z M84.813979,23.4204754 C85.5750033,23.4204754 86.2346136,23.3594898 86.8430978,23.2976689 C86.8011912,23.4204754 86.7500651,23.5499653 86.7249211,23.6719363 C86.7031297,23.793072 86.7031297,23.9233973 86.6972627,24.044533 L83.3765818,24.044533 L84.535719,18.0980245 C84.7527954,18.1155683 84.9673573,18.1414663 85.1852717,18.1414663 C85.4048624,18.1414663 85.6294819,18.1155683 85.8515871,18.0980245 L84.813979,23.4204754 L84.813979,23.4204754 Z M91.8065184,18.4747982 C93.1156813,18.4747982 93.3889125,19.762178 93.1701599,20.884145 C92.8885474,22.3285835 92.0244328,23.6677593 90.6783921,23.6677593 C89.3692291,23.6677593 89.0876166,22.467263 89.3080454,21.3369418 C89.6885576,19.3879106 90.5912263,18.4747982 91.8065184,18.4747982 L91.8065184,18.4747982 Z M94.587442,21.0495579 C94.8422343,19.7011925 94.4499883,17.9518263 91.9590585,17.9518263 C89.7841047,17.9518263 88.2436172,19.3544938 87.9066879,21.0846454 C87.521147,23.0587392 88.6023379,24.1907312 90.5333951,24.1907312 C92.6739855,24.1907312 94.2664372,22.7462927 94.587442,21.0495579 Z M99.9003638,23.0670934 L99.5625964,23.8156283 C98.984285,24.0863039 98.3422755,24.1907312 97.7564209,24.1907312 C95.8823567,24.1907312 94.6913704,23.0411954 95.0383573,21.2584125 C95.4825675,18.9877451 97.256894,17.9518263 99.1653216,17.9518263 C99.7436331,17.9518263 100.414139,18.1005308 100.868407,18.3795605 C100.731791,18.6752986 100.621158,18.9710368 100.492085,19.2759645 L100.369718,19.2759645 C100.124245,18.7861541 99.6224282,18.4764036 99.0731271,18.4756336 C97.6198053,18.4756336 96.7632339,19.8590866 96.5126323,21.1372768 C96.2234766,22.625157 96.7548526,23.6685947 98.1025696,23.6685947 C98.6448414,23.6685947 99.3312719,23.3904003 99.7972735,23.0161329 L99.9003638,23.0670934 L99.9003638,23.0670934 Z M102.309157,21.728753 L103.526963,19.7003571 L103.904961,21.728753 L102.309157,21.728753 Z M104.004699,22.2542312 C104.126228,22.8465429 104.191602,23.4480442 104.267872,24.0938227 C104.524341,24.0762789 104.774104,24.0503809 105.02722,24.0503809 C105.282851,24.0503809 105.521718,24.0762789 105.773158,24.0938227 L104.511769,18.0328619 C104.293731,18.0661821 104.071872,18.0661821 103.853835,18.0328619 L100.170242,24.0762789 C100.311887,24.0679247 100.456046,24.0503809 100.595176,24.0503809 C100.735144,24.0503809 100.86254,24.0679247 101.00167,24.0762789 C101.284959,23.4747776 101.610992,22.9267431 101.969713,22.2542312 L104.004699,22.2542312 Z M108.47865,24.0938227 C108.262412,24.0762789 108.048688,24.0503809 107.830773,24.0503809 C107.610345,24.0503809 107.386563,24.0762789 107.162782,24.0938227 L108.210447,18.7212467 C107.590229,18.7212467 107.027004,18.7822322 106.55765,18.8432177 C106.600395,18.7212467 106.649845,18.5984401 106.676665,18.466444 C106.700133,18.3444729 106.697618,18.2225018 106.704323,18.1005308 L111.215152,18.1005308 C111.172408,18.2225018 111.123796,18.3453084 111.09949,18.466444 C111.07267,18.5984401 111.074346,18.7212467 111.069317,18.8432177 C110.564762,18.7822322 110.060206,18.7212467 109.526315,18.7212467 L108.47865,24.0938227 L108.47865,24.0938227 Z M112.148832,18.0980245 C112.365908,18.1155683 112.58047,18.1414663 112.798385,18.1414663 C113.017975,18.1414663 113.242595,18.1155683 113.465538,18.0980245 L112.294667,24.0938227 C112.079267,24.0762789 111.866381,24.0503809 111.647629,24.0503809 C111.428876,24.0503809 111.204257,24.0762789 110.981313,24.0938227 L112.148832,18.0980245 L112.148832,18.0980245 Z M117.858191,18.4747982 C119.168192,18.4747982 119.442261,19.762178 119.22267,20.884145 C118.941058,22.3285835 118.076943,23.6677593 116.73174,23.6677593 C115.420901,23.6677593 115.140965,22.467263 115.360556,21.3369418 C115.741068,19.3879106 116.644575,18.4747982 117.858191,18.4747982 L117.858191,18.4747982 Z M120.639952,21.0495579 C120.895583,19.7011925 120.50166,17.9518263 118.012407,17.9518263 C115.836615,17.9518263 114.296966,19.3544938 113.959198,21.0846454 C113.574495,23.0587392 114.654848,24.1907312 116.585905,24.1907312 C118.727334,24.1907312 120.318109,22.7462927 120.639952,21.0495579 L120.639952,21.0495579 Z M122.218994,18.0980245 L123.076403,18.0980245 C124.058695,19.4497315 125.10636,20.7805531 126.06686,22.1907394 L126.8656,18.0980245 C127.095165,18.1312161 127.328333,18.1312161 127.557898,18.0980245 L126.387865,24.0938227 L125.652823,24.0854685 C124.855759,22.9601598 124.118202,21.8841409 123.329519,20.8423741 L122.570171,19.844049 L121.744611,24.0762789 C121.633977,24.0679247 121.516639,24.0503809 121.404329,24.0503809 C121.291181,24.0503809 121.165461,24.0679247 121.051475,24.0762789 L122.218994,18.0980245 Z M131.421689,19.2316873 C131.337037,18.7705363 131.063806,18.4747982 130.565955,18.4747982 C129.875334,18.4747982 129.535052,18.8315219 129.437829,19.326925 C129.209019,20.5015234 131.904453,20.2843146 131.515559,22.2759521 C131.299321,23.3895649 130.183767,24.1907312 128.829345,24.1907312 C128.349933,24.1907312 127.856273,24.0779497 127.496714,23.8156283 C127.672722,23.4505505 127.840348,23.0854726 127.966068,22.7103697 L128.132019,22.7103697 C128.145429,23.3110356 128.546894,23.6677593 129.15035,23.6677593 C129.692621,23.6677593 130.23154,23.3636669 130.349717,22.7630011 C130.621272,21.371194 127.919971,21.8757867 128.328142,19.7797218 C128.52175,18.7788905 129.374131,17.9518263 130.701733,17.9518263 C131.332008,17.9518263 131.842431,18.1874143 132,18.3712063 C131.841918,18.6534915 131.692934,18.9407438 131.553275,19.2325227 L131.421689,19.2325227 L131.421689,19.2316873 L131.421689,19.2316873 Z M79.5672697,32.5265364 C79.3518696,32.5089926 79.1373077,32.4830947 78.917717,32.4830947 C78.6989644,32.4830947 78.4743449,32.5089926 78.2522398,32.5265364 L79.4205965,26.5315737 L82.75804,26.5315737 C82.7169715,26.6552156 82.6658455,26.7855409 82.6407015,26.9083474 C82.6180719,27.0303185 82.6180719,27.1614792 82.6113669,27.2842857 C81.9484535,27.1999198 81.2807107,27.1588966 80.6124209,27.1614792 L80.246157,29.0411707 L81.1739696,29.0411707 C81.5159277,29.0411707 81.872134,29.0069185 82.2484555,28.9634768 C82.207387,29.0854479 82.1554228,29.2166085 82.1311169,29.3394151 C82.1076492,29.4622216 82.1084874,29.5925468 82.1017823,29.7153534 C81.7413853,29.6802658 81.3994273,29.636824 81.0490879,29.636824 L80.1296566,29.636824 L79.5672697,32.5265364 Z M83.8442597,30.1606314 L85.0620663,28.1322354 L85.4392259,30.1606314 L83.8442597,30.1606314 Z M85.5381255,30.686945 C85.6596547,31.2792567 85.7258672,31.8799225 85.800461,32.5265364 C86.0569295,32.5089926 86.306693,32.4830947 86.5614853,32.4830947 C86.8154394,32.4830947 87.0551453,32.5089926 87.3065851,32.5265364 L86.0460338,26.4647402 C85.9286952,26.482284 85.8230906,26.4906382 85.7107808,26.4906382 C85.598471,26.4906382 85.4953807,26.482284 85.3864235,26.4647402 L81.7045075,32.5089926 C81.8461519,32.499803 81.9894725,32.4830947 82.1294407,32.4830947 C82.2702469,32.4830947 82.3976431,32.499803 82.5359349,32.5089926 C82.8200618,31.9066559 83.1469335,31.3586214 83.5048161,30.686945 L85.5381255,30.686945 Z M94.517877,26.5299028 C94.6377299,26.5474466 94.7542303,26.5733446 94.8765977,26.5733446 C94.998965,26.5733446 95.1364188,26.548282 95.2621386,26.5299028 C95.074397,28.8807703 94.9025798,30.7888661 94.8606732,32.5265364 C94.619291,32.5089926 94.3896427,32.4830947 94.1440699,32.4830947 C93.9001733,32.4830947 93.6755538,32.5089926 93.4283048,32.5265364 C93.6286184,31.1389064 93.7132698,29.7997306 93.8456947,28.4513653 C92.9179444,29.7837643 92.0071012,31.1277812 91.1133828,32.4830947 C91.0035404,32.4613724 90.8904866,32.4613724 90.7806442,32.4830947 C90.4537725,31.2792567 90.026325,29.9225371 89.6273739,28.5482738 C89.1253326,30.0887854 88.7481729,31.3051547 88.4849993,32.5265364 C88.3483837,32.5089926 88.223502,32.4830947 88.0835339,32.4830947 C87.9435657,32.4830947 87.8195221,32.5089926 87.6762015,32.5265364 C88.330783,30.7713223 89.0046415,28.74042 89.7313023,26.5299028 C89.8519934,26.5474466 89.9601125,26.5733446 90.083318,26.5733446 C90.2056853,26.5733446 90.3339196,26.548282 90.4596395,26.5299028 C90.823389,27.8999891 91.2499984,29.2650628 91.6732553,30.6401616 C92.5482656,29.3970589 93.5615678,28.0219602 94.517877,26.5299028 L94.517877,26.5299028 Z M97.0808861,26.5299028 C97.2962862,26.5474466 97.5108481,26.5733446 97.7287625,26.5733446 C97.9491914,26.5733446 98.1721346,26.548282 98.3942397,26.5299028 L97.2258831,32.5265364 C97.010483,32.5089926 96.7942448,32.4830947 96.5763304,32.4830947 C96.3567397,32.4830947 96.1337964,32.5089926 95.9108532,32.5265364 L97.0808861,26.5299028 Z M100.130012,31.8531892 C100.891875,31.8531892 101.551485,31.7913682 102.159131,31.7295472 C102.117224,31.8531892 102.066936,31.982679 102.04263,32.1038147 C102.019163,32.2257858 102.019163,32.3552756 102.013296,32.4764113 L98.693453,32.4764113 L99.8525903,26.5299028 C100.068828,26.5474466 100.284229,26.5733446 100.502143,26.5733446 C100.720057,26.5733446 100.944677,26.548282 101.169296,26.5299028 L100.130012,31.8531892 L100.130012,31.8531892 Z M104.285473,26.5299028 C104.500873,26.5474466 104.715435,26.5733446 104.935026,26.5733446 C105.153778,26.5733446 105.376722,26.548282 105.600503,26.5299028 L104.43047,32.5265364 C104.21507,32.5089926 104.000508,32.4830947 103.781755,32.4830947 C103.561327,32.4830947 103.338383,32.5089926 103.11544,32.5265364 L104.285473,26.5299028 Z M107.453614,30.1606314 L108.672258,28.1322354 L109.049418,30.1606314 L107.453614,30.1606314 Z M109.14748,30.686945 C109.268171,31.2792567 109.336059,31.8799225 109.409815,32.5265364 C109.667122,32.5089926 109.916047,32.4830947 110.170001,32.4830947 C110.424793,32.4830947 110.664499,32.5089926 110.915101,32.5265364 L109.655388,26.4647402 C109.436781,26.4979589 109.214385,26.4979589 108.995778,26.4647402 L105.313862,32.5089926 C105.455506,32.499803 105.598827,32.4830947 105.739633,32.4830947 C105.878763,32.4830947 106.006159,32.499803 106.144451,32.5089926 C106.42774,31.9066559 106.753773,31.3586214 107.113332,30.686945 L109.14748,30.686945 L109.14748,30.686945 Z M113.129447,31.8531892 C113.891309,31.8531892 114.550082,31.7913682 115.15689,31.7295472 C115.115821,31.8531892 115.066371,31.982679 115.041227,32.1038147 C115.01776,32.2257858 115.019436,32.3552756 115.011893,32.4764113 L111.692888,32.4764113 L112.852025,26.5299028 C113.068263,26.5474466 113.282825,26.5733446 113.501578,26.5733446 C113.72033,26.5733446 113.943274,26.548282 114.166217,26.5299028 L113.129447,31.8531892 L113.129447,31.8531892 Z M120.506689,26.5315737 C120.464783,26.6552156 120.412818,26.7855409 120.388513,26.9083474 C120.365883,27.0303185 120.365883,27.1614792 120.360854,27.2842857 C119.698836,27.1880784 119.029929,27.1470009 118.36107,27.1614792 L117.993968,29.0411707 L118.90418,29.0411707 C119.269523,29.0391453 119.634338,29.0131914 119.996267,28.9634768 C119.955198,29.0854479 119.903234,29.2166085 119.880604,29.3394151 C119.85546,29.4622216 119.85546,29.5925468 119.850431,29.7153534 C119.498436,29.6646427 119.143329,29.6384029 118.787679,29.636824 L117.877468,29.636824 L117.446667,31.8465058 C118.340955,31.8373162 118.945248,31.7938744 119.492549,31.7236993 C119.450642,31.8465058 119.400354,31.9776665 119.374372,32.100473 C119.350904,32.2224441 119.352581,32.3536048 119.345038,32.4764113 L116.008432,32.4764113 L117.167569,26.5324091 L120.506689,26.5324091 L120.506689,26.5315737 L120.506689,26.5315737 Z M124.00254,27.6644011 C123.917888,27.2032501 123.643819,26.907512 123.146807,26.907512 C122.457023,26.907512 122.116742,27.2642356 122.019518,27.7596388 C121.791546,28.9342371 124.485304,28.7170283 124.097249,30.7086659 C123.880172,31.8222787 122.766294,32.623445 121.411034,32.623445 C120.931622,32.623445 120.437962,32.509828 120.077565,32.2483421 C120.254411,31.8824288 120.4212,31.5173509 120.547758,31.1439189 L120.71287,31.1439189 C120.727118,31.7437493 121.129422,32.100473 121.732877,32.100473 C122.274311,32.100473 122.81323,31.7955453 122.931406,31.1948794 C123.202961,29.8039077 120.500822,30.3085005 120.908993,28.2116002 C121.105116,27.2116043 121.95582,26.3837046 123.283422,26.3837046 C123.91286,26.3837046 124.424959,26.6192926 124.581689,26.8022492 C124.423282,27.081279 124.279962,27.3678275 124.134965,27.6644011 L124.00254,27.6644011 L124.00254,27.6644011 Z" id="Shape" fill="#236AB3"></path>
                    <g id="Group-16" transform="translate(68.039284, 36.280071)">
                        <path d="M3.55650801,3.70591621 L3.31093519,4.24726736 C2.90077017,4.43070981 2.45549494,4.52306819 2.00596291,4.51794294 C0.650702676,4.51794294 -0.208383125,3.68586617 0.0438947541,2.39514467 C0.364899497,0.750205761 1.64640407,0 3.02513202,0 C3.44336013,0 3.92863884,0.107768979 4.25634864,0.309940242 C4.15744901,0.523807363 4.07782642,0.737674485 3.98395558,0.957389535 L3.89511354,0.957389535 C3.71812445,0.602960909 3.35527433,0.378774085 2.95808142,0.378444554 C1.90790141,0.378444554 1.2885215,1.38011127 1.10748488,2.30742574 C0.897113627,3.38428011 1.28181644,4.13949838 2.25656452,4.13949838 C2.64881053,4.13949838 3.1433087,3.93899796 3.48107609,3.66832238 L3.55650801,3.70591621 L3.55650801,3.70591621 Z" id="Path"></path>
                        <polygon id="Path" points="5.30401425 2.72847663 6.1848915 1.25981101 6.45896082 2.72847663"></polygon>
                        <path d="M6.52936395,3.11360453 C6.61736786,3.5379971 6.66597955,3.96656676 6.72129629,4.43523651 C6.9073617,4.42186982 7.08839832,4.40432603 7.2711112,4.40432603 C7.45550035,4.40432603 7.62815564,4.42186982 7.81003039,4.43523651 L6.89814224,0.050960525 C6.814329,0.0643272201 6.73805894,0.0685043123 6.65676009,0.0685043123 C6.57546124,0.0685043123 6.50002931,0.0634918016 6.42124486,0.050960525 L3.75933608,4.42186982 C3.86242637,4.4168573 3.96551667,4.40432603 4.06609257,4.40432603 C4.16834473,4.40432603 4.2605393,4.41769272 4.36027707,4.42186982 C4.56561953,3.98661681 4.80029663,3.59480556 5.05844143,3.11360453 L6.52936395,3.11360453 L6.52936395,3.11360453 Z" id="Path"></path>
                        <path d="M9.30190622,4.43523651 C9.14517545,4.42186982 8.9917972,4.40432603 8.83339016,4.40432603 C8.67582125,4.40432603 8.51406168,4.42186982 8.35314024,4.43523651 L9.19797779,0.107768979 L11.6059324,0.107768979 C11.5774359,0.195487916 11.53972,0.290725618 11.5221192,0.378444554 C11.5045184,0.466163491 11.5045184,0.561401193 11.5011659,0.64912013 C11.1240063,0.604842952 10.7208645,0.561401193 10.0562255,0.561401193 L9.79137559,1.92229784 L10.4627197,1.92229784 C10.7091307,1.92229784 10.9672755,1.89639986 11.2388304,1.86548938 C11.2094958,1.95320832 11.1717798,2.04844602 11.1550172,2.13783579 C11.1374164,2.22555473 11.1374164,2.3191216 11.1332257,2.40684053 C10.8734046,2.3826134 10.6269937,2.35003208 10.3730395,2.35003208 L9.70840048,2.35003208 L9.30190622,4.43523651 L9.30190622,4.43523651 Z" id="Path"></path>
                        <path d="M15.1294414,3.43524064 C15.0397612,3.87884783 14.9475667,4.41936356 14.6483534,4.77525182 C14.266165,5.23055487 13.7834006,5.43439697 13.2193375,5.49788877 L13.1807834,5.19964439 C13.8579944,5.03506695 13.9317501,4.38678224 14.1035672,3.54969296 L14.7983791,0.167083688 C14.962653,0.180450384 15.1260889,0.197994171 15.2928772,0.197994171 C15.4605037,0.197994171 15.6314828,0.180450384 15.8024618,0.167083688 L15.1294414,3.43524064 Z" id="Path"></path>
                        <path d="M16.9498652,0.167083688 C17.1141391,0.180450384 17.277575,0.197994171 17.4460396,0.197994171 C17.6119898,0.197994171 17.7829689,0.180450384 17.9531098,0.167083688 L17.5851696,1.96824585 C17.5130902,2.31745076 17.3923991,2.83791645 17.3856941,3.16790673 C17.3823415,3.47784698 17.3957517,3.67500573 17.5918747,3.89722703 C17.7687206,4.08686702 18.0067502,4.16957345 18.3017729,4.16957345 C18.9278579,4.16957345 19.3075319,3.95403549 19.656195,3.40098848 C19.8347172,3.12362956 19.9839048,2.39932177 20.0476029,2.08938152 L20.4423633,0.167083688 C20.5278528,0.180450384 20.6200473,0.186298313 20.706375,0.186298313 C20.795217,0.186298313 20.889926,0.179614965 20.9796062,0.167083688 L20.5161189,2.42521974 C20.3476543,3.14785669 20.2185819,3.80867268 19.4248704,4.26564657 C19.010833,4.51209501 18.5297449,4.60148478 18.0855347,4.60148478 C17.2717081,4.60148478 16.4436332,4.36004885 16.3648487,3.53465543 C16.3462974,3.27393358 16.364067,3.01190697 16.417651,2.75604544 L16.9498652,0.167083688 Z" id="Path"></path>
                        <path d="M23.0087249,0.50960525 C23.4185717,0.50960525 23.9331851,0.458644725 23.9331851,0.985793762 C23.9331851,1.11946071 23.9206131,1.213863 23.901336,1.30408819 C23.768073,1.95654999 23.3531974,2.27484442 22.6600618,2.21135262 L23.0087249,0.50960525 L23.0087249,0.50960525 Z" id="Path"></path>
                        <path d="M21.1799198,4.51961377 C21.3500607,4.50624708 21.5210398,4.48703245 21.6886663,4.48703245 C21.8554546,4.48703245 22.0205667,4.50624708 22.1831644,4.51961377 L22.6022307,2.48286361 L22.6508424,2.48286361 C22.7489039,2.7226287 22.8771381,3.01502516 22.9425125,3.18628594 L23.4696978,4.51961377 C23.673364,4.50624708 23.8787065,4.48703245 24.0806964,4.48703245 C24.2885532,4.48703245 24.4846762,4.50624708 24.6841518,4.51961377 L24.5031152,4.12613169 C24.2223408,3.53549085 23.9256419,2.95320419 23.6817453,2.34251331 C24.3321361,2.21720055 24.8358538,1.82371846 24.9632499,1.2004963 C25.0512538,0.769420385 24.9096094,0.484542697 24.5642988,0.293231873 C24.3103447,0.154552412 23.8183609,0.16624827 23.5015468,0.16624827 L22.0742072,0.16624827 L21.1799198,4.51961377 L21.1799198,4.51961377 Z" id="Path"></path>
                        <polygon id="Path" points="26.5087662 2.80199346 27.4416077 1.32497365 27.7357922 2.80199346"></polygon>
                        <path d="M27.8112241,3.19046303 C27.9050949,3.61819727 27.9578973,4.05010861 28.0148903,4.52044919 C28.2118514,4.5070825 28.4037838,4.48786787 28.5973924,4.48786787 C28.7926772,4.48786787 28.9762283,4.5070825 29.1681606,4.52044919 L28.2034701,0.106933561 C28.0342689,0.132140036 27.8622486,0.132140036 27.6930474,0.106933561 L24.8702172,4.50791791 C24.9783363,4.50123457 25.0889698,4.48870329 25.1970889,4.48870329 C25.3043698,4.48870329 25.4015932,4.50206999 25.508036,4.50791791 C25.7251123,4.06932323 25.9748758,3.67584115 26.248107,3.19129845 L27.8112241,3.19129845 L27.8112241,3.19046303 Z" id="Path"></path>
                    </g>
                </g>
            </g>
        </g>
    </g>
</svg>