<svg width="180" height="30" viewBox="0 0 180 30" fill="none" xmlns="http://www.w3.org/2000/svg">
<g clip-path="url(#clip0_6159_49020)">
<path d="M49.667 6.24121H52.5617C54.9181 6.24121 56.5212 7.9748 56.5212 10.0084C56.5212 12.042 54.9181 13.7756 52.5617 13.7756H49.667V6.24121ZM50.6769 7.1664V12.8481H52.5823C54.2609 12.8481 55.4769 11.5771 55.4769 10.0061C55.4769 8.4351 54.2609 7.16411 52.5823 7.16411H50.6769V7.1664Z" fill="#161616"/>
<path d="M63.3661 11.0615C63.3661 12.6439 62.1707 13.9882 60.4279 13.9882C58.6852 13.9882 57.4897 12.6439 57.4897 11.0615C57.4897 9.47904 58.6737 8.13477 60.4279 8.13477C62.1821 8.13477 63.3661 9.47904 63.3661 11.0615ZM62.3974 11.0615C62.3974 9.93247 61.5684 8.99584 60.4394 8.99584C59.3104 8.99584 58.4493 9.93247 58.4493 11.0615C58.4493 12.1905 59.2783 13.1271 60.4394 13.1271C61.6004 13.1271 62.3974 12.179 62.3974 11.0615Z" fill="#161616"/>
<path d="M64.5939 12.484C64.9717 12.958 65.4229 13.2259 65.9725 13.2259C66.5748 13.2259 66.9206 12.8595 66.9206 12.3855C66.9206 11.1694 64.2091 11.6 64.2091 9.68319C64.2091 8.83357 64.9305 8.13281 65.9748 8.13281C66.7488 8.13281 67.4175 8.49922 67.7931 9.02594L67.1587 9.56411C66.8679 9.15419 66.4603 8.8977 65.9862 8.8977C65.4045 8.8977 65.0931 9.24121 65.0931 9.66258C65.0931 10.8786 67.816 10.4916 67.816 12.342C67.8045 13.3542 66.9984 13.9885 65.9862 13.9885C65.1252 13.9885 64.4473 13.645 63.9526 13.0313L64.5984 12.4817L64.5939 12.484Z" fill="#161616"/>
<path d="M69.1578 12.484C69.5357 12.958 69.9868 13.2259 70.5365 13.2259C71.1387 13.2259 71.4845 12.8595 71.4845 12.3855C71.4845 11.1694 68.7731 11.6 68.7731 9.68319C68.7731 8.83357 69.4945 8.13281 70.5387 8.13281C71.3128 8.13281 71.9815 8.49922 72.3571 9.02594L71.7227 9.56411C71.4319 9.15419 71.0242 8.8977 70.5502 8.8977C69.9685 8.8977 69.6571 9.24121 69.6571 9.66258C69.6571 10.8786 72.38 10.4916 72.38 12.342C72.3685 13.3542 71.5624 13.9885 70.5502 13.9885C69.6891 13.9885 69.0113 13.645 68.5166 13.0313L69.1624 12.4817L69.1578 12.484Z" fill="#161616"/>
<path d="M73.5181 6.29353C73.5181 5.95002 73.8089 5.65918 74.1639 5.65918C74.5188 5.65918 74.7982 5.95002 74.7982 6.29353C74.7982 6.63705 74.5188 6.93933 74.1639 6.93933C73.8089 6.93933 73.5181 6.6485 73.5181 6.29353ZM73.7013 8.35002H74.6173V13.7752H73.7013V8.35002Z" fill="#161616"/>
<path d="M78.8885 13.9901C77.0587 13.9901 75.9297 12.6459 75.9297 11.0634C75.9297 9.48099 76.9854 8.13672 78.664 8.13672C80.1388 8.13672 81.0961 9.16954 81.0961 10.5047C81.0961 10.7199 81.064 10.9237 81.032 11.0749H76.8663C76.8984 12.3779 77.7274 13.1634 78.8885 13.1634C79.5892 13.1634 80.1801 12.8405 80.535 12.3573L81.2129 12.884C80.7068 13.5619 79.9007 13.9924 78.8885 13.9924V13.9901ZM76.9304 10.3741H80.1801C80.148 9.57717 79.5984 8.91076 78.6411 8.91076C77.748 8.91076 77.1228 9.43748 76.9304 10.3741Z" fill="#161616"/>
<path d="M82.4839 8.34982H83.3999V9.02769C83.7984 8.55364 84.2931 8.24219 84.9824 8.24219C85.1541 8.24219 85.3167 8.2628 85.445 8.30631V9.19944C85.2846 9.15593 85.1221 9.13532 84.9068 9.13532C84.1969 9.13532 83.7343 9.50173 83.3999 10.0491V13.7727H82.4839V8.34754V8.34982Z" fill="#161616"/>
<path d="M50.583 18.9707H51.2082V23.0493H53.0815V23.6196H50.583V18.9707Z" fill="#3F3F3F"/>
<path d="M55.2982 23.7553C54.1692 23.7553 53.4707 22.924 53.4707 21.9485C53.4707 20.9729 54.1211 20.1416 55.1585 20.1416C56.0676 20.1416 56.6608 20.7782 56.6608 21.6027C56.6608 21.7355 56.6402 21.8614 56.6219 21.9553H54.0501C54.0707 22.7592 54.5814 23.2446 55.2982 23.2446C55.731 23.2446 56.0951 23.0454 56.315 22.7454L56.7341 23.0706C56.4226 23.4897 55.9234 23.7553 55.2982 23.7553ZM54.089 21.5225H56.0951C56.0745 21.0301 55.7356 20.6179 55.1447 20.6179C54.5928 20.6179 54.2081 20.9431 54.089 21.5225Z" fill="#3F3F3F"/>
<path d="M60.6183 20.141C61.1175 20.141 61.5091 20.3333 61.8068 20.6723V18.6387H62.3725V23.6196H61.8068V23.2211C61.5068 23.56 61.1152 23.7524 60.6183 23.7524C59.5694 23.7524 58.8984 22.9211 58.8984 21.9455C58.8984 20.97 59.5694 20.1387 60.6183 20.1387V20.141ZM60.6847 23.2234C61.1496 23.2234 61.5618 22.9967 61.8068 22.6051V21.2906C61.5481 20.8921 61.1427 20.6723 60.6847 20.6723C59.9748 20.6723 59.4961 21.2379 59.4961 21.9478C59.4961 22.6577 59.9748 23.2234 60.6847 23.2234Z" fill="#3F3F3F"/>
<path d="M66.7876 21.9485C66.7876 22.924 66.0502 23.7553 64.9739 23.7553C63.8976 23.7553 63.1602 22.924 63.1602 21.9485C63.1602 20.9729 63.8907 20.1416 64.9739 20.1416C66.0571 20.1416 66.7876 20.9729 66.7876 21.9485ZM66.1899 21.9485C66.1899 21.25 65.6792 20.6729 64.9808 20.6729C64.2823 20.6729 63.751 21.25 63.751 21.9485C63.751 22.6469 64.2617 23.224 64.9808 23.224C65.6999 23.224 66.1899 22.6401 66.1899 21.9485Z" fill="#3F3F3F"/>
<path d="M67.5318 22.8256C67.7654 23.1187 68.0424 23.2836 68.3814 23.2836C68.7524 23.2836 68.9654 23.0569 68.9654 22.766C68.9654 22.0149 67.2913 22.2805 67.2913 21.0989C67.2913 20.5744 67.7356 20.1416 68.3814 20.1416C68.86 20.1416 69.2722 20.3683 69.5035 20.6935L69.1119 21.0256C68.9333 20.7737 68.6791 20.6134 68.3883 20.6134C68.0287 20.6134 67.8363 20.8263 67.8363 21.0851C67.8363 21.8363 69.5173 21.5958 69.5173 22.7385C69.5104 23.3637 69.0134 23.7553 68.3883 23.7553C67.857 23.7553 67.4379 23.5424 67.1333 23.1645L67.5318 22.8256Z" fill="#3F3F3F"/>
<path d="M70.3326 22.8256C70.5661 23.1187 70.8432 23.2836 71.1822 23.2836C71.5532 23.2836 71.7661 23.0569 71.7661 22.766C71.7661 22.0149 70.0921 22.2805 70.0921 21.0989C70.0921 20.5744 70.5364 20.1416 71.1822 20.1416C71.6608 20.1416 72.073 20.3683 72.3043 20.6935L71.9127 21.0256C71.7341 20.7737 71.4799 20.6134 71.189 20.6134C70.8295 20.6134 70.6371 20.8263 70.6371 21.0851C70.6371 21.8363 72.318 21.5958 72.318 22.7385C72.3112 23.3637 71.8142 23.7553 71.189 23.7553C70.6577 23.7553 70.2387 23.5424 69.9341 23.1645L70.3326 22.8256Z" fill="#3F3F3F"/>
<path d="M73.0098 19.0049C73.0098 18.7919 73.1884 18.6133 73.4082 18.6133C73.6281 18.6133 73.7998 18.7919 73.7998 19.0049C73.7998 19.2179 73.6281 19.4034 73.4082 19.4034C73.1884 19.4034 73.0098 19.2247 73.0098 19.0049ZM73.122 20.2736H73.6876V23.6217H73.122V20.2736Z" fill="#3F3F3F"/>
<path d="M76.3119 23.7553C75.1828 23.7553 74.4844 22.924 74.4844 21.9485C74.4844 20.9729 75.1348 20.1416 76.1722 20.1416C77.0813 20.1416 77.6744 20.7782 77.6744 21.6027C77.6744 21.7355 77.6538 21.8614 77.6355 21.9553H75.0638C75.0844 22.7592 75.5951 23.2446 76.3119 23.2446C76.7447 23.2446 77.1088 23.0454 77.3286 22.7454L77.7477 23.0706C77.4363 23.4897 76.937 23.7553 76.3119 23.7553ZM75.1027 21.5225H77.1088C77.0882 21.0301 76.7493 20.6179 76.1584 20.6179C75.6065 20.6179 75.2218 20.9431 75.1027 21.5225Z" fill="#3F3F3F"/>
<path d="M78.5151 20.2744H79.0808V20.6935C79.3258 20.4004 79.6327 20.208 80.0564 20.208C80.1617 20.208 80.2625 20.2218 80.3426 20.2469V20.7989C80.2419 20.7714 80.1434 20.7599 80.0106 20.7599C79.5732 20.7599 79.2869 20.9866 79.0808 21.3256V23.6248H78.5151V20.2767V20.2744Z" fill="#3F3F3F"/>
<path d="M84.1534 20.141C84.6527 20.141 85.0443 20.3333 85.342 20.6723V18.6387H85.9076V23.6196H85.342V23.2211C85.042 23.56 84.6504 23.7524 84.1534 23.7524C83.1046 23.7524 82.4336 22.9211 82.4336 21.9455C82.4336 20.97 83.1046 20.1387 84.1534 20.1387V20.141ZM84.2199 23.2234C84.6847 23.2234 85.0969 22.9967 85.342 22.6051V21.2906C85.0832 20.8921 84.6779 20.6723 84.2199 20.6723C83.5099 20.6723 83.0313 21.2379 83.0313 21.9478C83.0313 22.6577 83.5099 23.2234 84.2199 23.2234Z" fill="#3F3F3F"/>
<path d="M88.5252 23.7553C87.3962 23.7553 86.6978 22.924 86.6978 21.9485C86.6978 20.9729 87.3481 20.1416 88.3855 20.1416C89.2947 20.1416 89.8878 20.7782 89.8878 21.6027C89.8878 21.7355 89.8672 21.8614 89.8489 21.9553H87.2771C87.2977 22.7592 87.8084 23.2446 88.5252 23.2446C88.9581 23.2446 89.3222 23.0454 89.542 22.7454L89.9611 23.0706C89.6497 23.4897 89.1504 23.7553 88.5252 23.7553ZM87.3161 21.5225H89.3222C89.3016 21.0301 88.9626 20.6179 88.3718 20.6179C87.8199 20.6179 87.4352 20.9431 87.3161 21.5225Z" fill="#3F3F3F"/>
<path d="M92.4092 18.6387H92.9748V23.6196H92.4092V18.6387Z" fill="#3F3F3F"/>
<path d="M97.3965 21.9485C97.3965 22.924 96.6591 23.7553 95.5828 23.7553C94.5064 23.7553 93.769 22.924 93.769 21.9485C93.769 20.9729 94.4996 20.1416 95.5828 20.1416C96.666 20.1416 97.3965 20.9729 97.3965 21.9485ZM96.7988 21.9485C96.7988 21.25 96.2881 20.6729 95.5896 20.6729C94.8912 20.6729 94.3599 21.25 94.3599 21.9485C94.3599 22.6469 94.8706 23.224 95.5896 23.224C96.3087 23.224 96.7988 22.6401 96.7988 21.9485Z" fill="#3F3F3F"/>
<path d="M100.724 22.7317L101.168 23.0706C100.857 23.4897 100.372 23.7553 99.7601 23.7553C98.6517 23.7553 97.9395 22.924 97.9395 21.9485C97.9395 20.9729 98.6494 20.1416 99.7601 20.1416C100.365 20.1416 100.857 20.4141 101.168 20.8263L100.724 21.1653C100.518 20.8721 100.179 20.6729 99.7601 20.6729C99.0433 20.6729 98.5303 21.2385 98.5303 21.9485C98.5303 22.6584 99.041 23.224 99.7647 23.224C100.177 23.224 100.516 23.0248 100.722 22.7317H100.724Z" fill="#3F3F3F"/>
<path d="M101.595 22.7771C101.595 22.2733 101.979 21.9138 102.692 21.7947L103.821 21.6092V21.3779C103.821 20.913 103.488 20.6474 103.01 20.6474C102.625 20.6474 102.311 20.826 102.105 21.1123L101.679 20.7871C101.972 20.3886 102.444 20.1436 103.028 20.1436C103.878 20.1436 104.384 20.6428 104.384 21.3802V23.6245H103.818V23.1985C103.566 23.5237 103.127 23.7161 102.696 23.7161C102.039 23.7161 101.592 23.3497 101.592 22.7794L101.595 22.7771ZM102.79 23.2489C103.234 23.2489 103.601 23.0359 103.821 22.6764V22.0191L102.831 22.184C102.373 22.2642 102.167 22.4703 102.167 22.7565C102.167 23.0428 102.401 23.2489 102.792 23.2489H102.79Z" fill="#3F3F3F"/>
<path d="M105.6 20.7844H104.968V20.2737H105.6V19.4355H106.17V20.2737H107.333V20.7844H106.17V22.4974C106.17 23.0218 106.436 23.1684 106.841 23.1684C107.061 23.1684 107.212 23.1409 107.34 23.0882V23.592C107.18 23.6584 107.001 23.6859 106.763 23.6859C106.019 23.6859 105.6 23.3149 105.6 22.4974V20.7844Z" fill="#3F3F3F"/>
<path d="M107.97 19.0049C107.97 18.7919 108.149 18.6133 108.369 18.6133C108.589 18.6133 108.76 18.7919 108.76 19.0049C108.76 19.2179 108.589 19.4034 108.369 19.4034C108.149 19.4034 107.97 19.2247 107.97 19.0049ZM108.082 20.2736H108.648V23.6217H108.082V20.2736Z" fill="#3F3F3F"/>
<path d="M113.07 21.9485C113.07 22.924 112.332 23.7553 111.256 23.7553C110.18 23.7553 109.442 22.924 109.442 21.9485C109.442 20.9729 110.173 20.1416 111.256 20.1416C112.339 20.1416 113.07 20.9729 113.07 21.9485ZM112.472 21.9485C112.472 21.25 111.961 20.6729 111.263 20.6729C110.565 20.6729 110.033 21.25 110.033 21.9485C110.033 22.6469 110.544 23.224 111.263 23.224C111.982 23.224 112.472 22.6401 112.472 21.9485Z" fill="#3F3F3F"/>
<path d="M113.867 20.2744H114.433V20.6523C114.705 20.3523 115.051 20.1416 115.548 20.1416C116.299 20.1416 116.856 20.6454 116.856 21.5958V23.6225H116.29V21.6164C116.29 21.0187 115.951 20.6729 115.433 20.6729C114.948 20.6729 114.643 20.9523 114.43 21.305V23.6225H113.865V20.2744H113.867Z" fill="#3F3F3F"/>
<path d="M119.558 20.2744H120.124V20.6523C120.396 20.3523 120.742 20.1416 121.239 20.1416C121.99 20.1416 122.547 20.6454 122.547 21.5958V23.6225H121.981V21.6164C121.981 21.0187 121.642 20.6729 121.124 20.6729C120.639 20.6729 120.334 20.9523 120.121 21.305V23.6225H119.556V20.2744H119.558Z" fill="#3F3F3F"/>
<path d="M125.901 20.2744H126.467V22.1683C126.467 23.1714 125.89 23.7553 124.978 23.7553C124.067 23.7553 123.497 23.1714 123.497 22.1683V20.2744H124.06V22.1866C124.06 22.8439 124.413 23.224 124.983 23.224C125.553 23.224 125.899 22.8462 125.899 22.1866V20.2744H125.901Z" fill="#3F3F3F"/>
<path d="M127.468 20.2744H128.033V20.6408C128.285 20.3477 128.617 20.1416 129.082 20.1416C129.547 20.1416 129.966 20.3614 130.172 20.7851C130.438 20.4187 130.791 20.1416 131.368 20.1416C132.085 20.1416 132.609 20.6202 132.609 21.5294V23.6225H132.046V21.55C132.046 20.9912 131.734 20.6729 131.256 20.6729C130.83 20.6729 130.532 20.9111 130.312 21.305C130.319 21.3782 130.326 21.4515 130.326 21.5317V23.6248H129.76V21.5523C129.76 20.9935 129.456 20.6752 128.97 20.6752C128.512 20.6752 128.226 20.9614 128.033 21.3072V23.6248H127.468V20.2767V20.2744Z" fill="#3F3F3F"/>
<path d="M135.172 23.7547C134.043 23.7547 133.344 22.9234 133.344 21.9478C133.344 20.9723 133.995 20.141 135.032 20.141C135.941 20.141 136.534 20.7776 136.534 21.602C136.534 21.7348 136.514 21.8608 136.495 21.9547H133.924C133.944 22.7585 134.455 23.244 135.172 23.244C135.605 23.244 135.969 23.0448 136.189 22.7448L136.608 23.07C136.296 23.489 135.797 23.7547 135.172 23.7547ZM133.963 21.5219H135.969C135.948 21.0295 135.609 20.6173 135.018 20.6173C134.466 20.6173 134.082 20.9425 133.963 21.5219ZM134.78 19.7425L135.472 18.6387H136.111L135.334 19.7425H134.782H134.78Z" fill="#3F3F3F"/>
<path d="M137.377 20.2744H137.943V20.6935C138.188 20.4004 138.495 20.208 138.918 20.208C139.024 20.208 139.124 20.2218 139.204 20.2469V20.7989C139.104 20.7714 139.005 20.7599 138.872 20.7599C138.435 20.7599 138.149 20.9866 137.943 21.3256V23.6248H137.377V20.2767V20.2744Z" fill="#3F3F3F"/>
<path d="M139.789 19.0049C139.789 18.7919 139.967 18.6133 140.187 18.6133C140.407 18.6133 140.579 18.7919 140.579 19.0049C140.579 19.2179 140.407 19.4034 140.187 19.4034C139.967 19.4034 139.789 19.2247 139.789 19.0049ZM139.901 20.2736H140.466V23.6217H139.901V20.2736Z" fill="#3F3F3F"/>
<path d="M142.983 20.141C143.482 20.141 143.874 20.3333 144.172 20.6791V20.2738H144.737V25.2547H144.172V23.2142C143.872 23.56 143.48 23.7524 142.983 23.7524C141.934 23.7524 141.263 22.9211 141.263 21.9455C141.263 20.97 141.934 20.1387 142.983 20.1387V20.141ZM143.043 23.2234C143.514 23.2234 143.92 22.9967 144.172 22.5982V21.2952C143.913 20.8898 143.507 20.67 143.043 20.67C142.34 20.67 141.854 21.2356 141.854 21.9455C141.854 22.6555 142.34 23.2211 143.043 23.2211V23.2234Z" fill="#3F3F3F"/>
<path d="M148.149 20.2744H148.715V22.1683C148.715 23.1714 148.138 23.7553 147.226 23.7553C146.315 23.7553 145.745 23.1714 145.745 22.1683V20.2744H146.308V22.1866C146.308 22.8439 146.661 23.224 147.231 23.224C147.801 23.224 148.147 22.8462 148.147 22.1866V20.2744H148.149Z" fill="#3F3F3F"/>
<path d="M151.257 23.7553C150.128 23.7553 149.43 22.924 149.43 21.9485C149.43 20.9729 150.08 20.1416 151.117 20.1416C152.027 20.1416 152.62 20.7782 152.62 21.6027C152.62 21.7355 152.599 21.8614 152.581 21.9553H150.009C150.03 22.7592 150.54 23.2446 151.257 23.2446C151.69 23.2446 152.054 23.0454 152.274 22.7454L152.693 23.0706C152.382 23.4897 151.882 23.7553 151.257 23.7553ZM150.048 21.5225H152.054C152.033 21.0301 151.695 20.6179 151.104 20.6179C150.552 20.6179 150.167 20.9431 150.048 21.5225Z" fill="#3F3F3F"/>
<path d="M156.577 20.141C157.076 20.141 157.468 20.3333 157.765 20.6723V18.6387H158.331V23.6196H157.765V23.2211C157.465 23.56 157.074 23.7524 156.577 23.7524C155.528 23.7524 154.857 22.9211 154.857 21.9455C154.857 20.97 155.528 20.1387 156.577 20.1387V20.141ZM156.643 23.2234C157.108 23.2234 157.52 22.9967 157.765 22.6051V21.2906C157.507 20.8921 157.101 20.6723 156.643 20.6723C155.933 20.6723 155.455 21.2379 155.455 21.9478C155.455 22.6577 155.933 23.2234 156.643 23.2234Z" fill="#3F3F3F"/>
<path d="M160.946 23.7553C159.817 23.7553 159.119 22.924 159.119 21.9485C159.119 20.9729 159.769 20.1416 160.806 20.1416C161.716 20.1416 162.309 20.7782 162.309 21.6027C162.309 21.7355 162.288 21.8614 162.27 21.9553H159.698C159.719 22.7592 160.229 23.2446 160.946 23.2446C161.379 23.2446 161.743 23.0454 161.963 22.7454L162.382 23.0706C162.071 23.4897 161.571 23.7553 160.946 23.7553ZM159.737 21.5225H161.743C161.722 21.0301 161.384 20.6179 160.793 20.6179C160.241 20.6179 159.856 20.9431 159.737 21.5225Z" fill="#3F3F3F"/>
<path d="M164.831 18.6387H165.396V23.6196H164.831V18.6387Z" fill="#3F3F3F"/>
<path d="M166.2 20.753L166.765 18.9736H167.409L166.724 20.753H166.2Z" fill="#3F3F3F"/>
<path d="M168.325 18.971H170.824V19.5023H168.95V20.9908H170.558V21.5153H168.95V23.0908H170.824V23.6221H168.325V18.9733V18.971ZM169.301 18.5725L170.052 17.6748H170.73L169.88 18.5725H169.303H169.301Z" fill="#3F3F3F"/>
<path d="M171.964 20.7844H171.332V20.2737H171.964V19.4355H172.534V20.2737H173.698V20.7844H172.534V22.4974C172.534 23.0218 172.8 23.1684 173.205 23.1684C173.425 23.1684 173.576 23.1409 173.705 23.0882V23.592C173.544 23.6584 173.366 23.6859 173.127 23.6859C172.383 23.6859 171.964 23.3149 171.964 22.4974V20.7844Z" fill="#3F3F3F"/>
<path d="M174.256 22.7771C174.256 22.2733 174.641 21.9138 175.353 21.7947L176.482 21.6092V21.3779C176.482 20.913 176.15 20.6474 175.671 20.6474C175.287 20.6474 174.973 20.826 174.767 21.1123L174.341 20.7871C174.634 20.3886 175.106 20.1436 175.69 20.1436C176.539 20.1436 177.045 20.6428 177.045 21.3802V23.6245H176.48V23.1985C176.228 23.5237 175.788 23.7161 175.358 23.7161C174.7 23.7161 174.254 23.3497 174.254 22.7794L174.256 22.7771ZM175.452 23.2489C175.896 23.2489 176.262 23.0359 176.482 22.6764V22.0191L175.493 22.184C175.035 22.2642 174.829 22.4703 174.829 22.7565C174.829 23.0428 175.062 23.2489 175.454 23.2489H175.452Z" fill="#3F3F3F"/>
<path d="M178.26 20.7844H177.627V20.2737H178.26V19.4355H178.83V20.2737H179.993V20.7844H178.83V22.4974C178.83 23.0218 179.095 23.1684 179.501 23.1684C179.721 23.1684 179.872 23.1409 180 23.0882V23.592C179.84 23.6584 179.661 23.6859 179.423 23.6859C178.679 23.6859 178.26 23.3149 178.26 22.4974V20.7844Z" fill="#3F3F3F"/>
<path d="M86.9082 6.24023H91.2983V7.51122H88.4357V9.29748H90.8677V10.5685H88.4357V13.7769H86.9082V6.24253V6.24023Z" fill="#161616"/>
<path d="M91.7632 12.3089C91.7632 11.4914 92.3975 10.8776 93.5609 10.683L95.2189 10.4036V10.2639C95.2189 9.69367 94.7884 9.32725 94.1632 9.32725C93.6365 9.32725 93.2265 9.57458 92.9357 9.97305L91.9349 9.20817C92.4181 8.54175 93.2151 8.13184 94.2067 8.13184C95.7777 8.13184 96.5861 9.06848 96.5861 10.2639V13.7723H95.2189V13.2456C94.8754 13.6647 94.2296 13.9349 93.593 13.9349C92.5052 13.9349 91.7632 13.3097 91.7632 12.3089ZM93.8723 12.8471C94.4975 12.8471 94.9487 12.5563 95.2189 12.1257V11.3608L93.9273 11.5761C93.3571 11.6723 93.1212 11.9105 93.1212 12.2425C93.1212 12.6089 93.412 12.8448 93.8746 12.8448L93.8723 12.8471Z" fill="#161616"/>
<path d="M101.814 12.0737L102.879 12.8913C102.373 13.5577 101.576 13.9882 100.587 13.9882C98.7136 13.9882 97.5938 12.6439 97.5938 11.0615C97.5938 9.47904 98.7136 8.13477 100.587 8.13477C101.576 8.13477 102.373 8.5653 102.879 9.23171L101.814 10.0493C101.556 9.6737 101.125 9.42408 100.566 9.42408C99.6731 9.42408 99.0159 10.1134 99.0159 11.0592C99.0159 12.005 99.6731 12.6943 100.587 12.6943C101.125 12.6943 101.556 12.447 101.814 12.0691V12.0737Z" fill="#161616"/>
<path d="M103.537 6.50837C103.537 6.02516 103.947 5.61523 104.43 5.61523C104.913 5.61523 105.311 6.02516 105.311 6.50837C105.311 6.99157 104.913 7.4015 104.43 7.4015C103.947 7.4015 103.537 6.99157 103.537 6.50837ZM103.743 8.34958H105.11V13.7748H103.743V8.34958Z" fill="#161616"/>
<path d="M106.582 5.70215H107.949V13.7747H106.582V5.70215Z" fill="#161616"/>
<path d="M112.051 13.9901C110.125 13.9901 109.037 12.6459 109.037 11.0634C109.037 9.48099 110.049 8.13672 111.824 8.13672C113.331 8.13672 114.32 9.15809 114.32 10.5802C114.32 10.8825 114.277 11.1619 114.233 11.3451H110.434C110.562 12.3573 111.187 12.765 112.037 12.765C112.628 12.765 113.146 12.5062 113.436 12.1192L114.416 12.8932C113.91 13.5711 113.07 13.9901 112.049 13.9901H112.051ZM110.48 10.3512H112.976C112.955 9.80161 112.557 9.25428 111.792 9.25428C111.094 9.25428 110.629 9.6413 110.48 10.3512Z" fill="#161616"/>
<path d="M0.975389 8.63819V9.63209H1.42882C1.77004 9.63209 1.96699 9.45117 1.96699 9.12598C1.96699 8.82598 1.76775 8.63819 1.42882 8.63819H0.975389ZM0.169278 7.95117H1.38302C2.25783 7.95117 2.796 8.40002 2.796 9.13743C2.796 9.61376 2.56241 9.97102 2.15935 10.1657L3.40745 11.9245H2.44333L1.3876 10.3191H0.973097V11.9245H0.166992V7.95117H0.169278Z" fill="black"/>
<path d="M4.69467 7.61287L5.33589 6.8457H6.16491L5.4275 7.61287H4.69467ZM3.90918 7.95181H6.22444V8.63883H4.71528V9.55943H5.99773V10.2465H4.71528V11.2403H6.22444V11.9274H3.90918V7.9541V7.95181Z" fill="black"/>
<path d="M7.96919 8.63819V9.63209H8.50736C8.84858 9.63209 9.0524 9.45117 9.0524 9.12598C9.0524 8.82598 8.84858 8.63819 8.50736 8.63819H7.96919ZM7.16309 7.95117H8.4753C9.35011 7.95117 9.8837 8.40002 9.8837 9.13743C9.8837 9.87483 9.35011 10.3191 8.4753 10.3191H7.96919V11.9245H7.16309V7.95117Z" fill="black"/>
<path d="M12.8905 7.95117H13.6966V10.3695C13.6966 11.4138 13.0828 12.039 12.0843 12.039C11.0859 12.039 10.479 11.4138 10.479 10.3695V7.95117H11.2851V10.4382C11.2851 10.9718 11.5851 11.2832 12.0912 11.2832C12.5973 11.2832 12.8927 10.9718 12.8927 10.4382V7.95117H12.8905Z" fill="black"/>
<path d="M15.5014 10.2V11.2397H15.9549C16.3304 11.2397 16.5571 11.0405 16.5571 10.713C16.5571 10.3855 16.3304 10.2023 15.9549 10.2023H15.5014V10.2ZM15.5014 8.63819V9.50613H15.8426C16.1495 9.50613 16.3258 9.3527 16.3258 9.06873C16.3258 8.80079 16.1495 8.63819 15.8426 8.63819H15.5014ZM14.6953 7.95117H15.8243C16.6533 7.95117 17.1526 8.3588 17.1526 9.02979C17.1526 9.34811 17.006 9.62522 16.7335 9.813C17.1526 10.0008 17.3862 10.342 17.3862 10.7542C17.3862 11.4802 16.8251 11.9245 15.9113 11.9245H14.6976V7.95117H14.6953Z" fill="black"/>
<path d="M18.2104 7.95117H19.0166V11.1939H20.5257V11.9267H18.2104V7.95117Z" fill="black"/>
<path d="M21.2358 7.95117H22.0419V11.9267H21.2358V7.95117Z" fill="black"/>
<path d="M26.2028 9.93984C26.2028 9.17953 25.6692 8.59557 24.9249 8.59557C24.1807 8.59557 23.6425 9.17953 23.6425 9.93984C23.6425 10.7001 24.1761 11.2841 24.9249 11.2841C25.6738 11.2841 26.2028 10.7001 26.2028 9.93984ZM27.3203 12.2047C27.4051 12.2047 27.5196 12.1933 27.6043 12.1589V12.8391C27.4738 12.8895 27.3593 12.9124 27.1852 12.9124C26.7432 12.9124 26.3333 12.7314 25.9417 12.3902L25.47 11.9711C25.3005 12.0169 25.1173 12.0398 24.9249 12.0398C23.67 12.0398 22.8135 11.0757 22.8135 9.93984C22.8135 8.80396 23.67 7.83984 24.9249 7.83984C26.1799 7.83984 27.0318 8.80396 27.0318 9.93984C27.0318 10.604 26.7364 11.2108 26.2486 11.5979L26.4868 11.8246C26.7936 12.1017 27.0661 12.2047 27.3203 12.2047Z" fill="black"/>
<path d="M30.1488 7.95117H30.9549V10.3695C30.9549 11.4138 30.3411 12.039 29.3427 12.039C28.3442 12.039 27.7373 11.4138 27.7373 10.3695V7.95117H28.5434V10.4382C28.5434 10.9718 28.8434 11.2832 29.3495 11.2832C29.8556 11.2832 30.151 10.9718 30.151 10.4382V7.95117H30.1488Z" fill="black"/>
<path d="M31.9531 7.95117H34.2684V8.63819H32.7592V9.5588H34.0417V10.2458H32.7592V11.2397H34.2684V11.9267H31.9531V7.95117Z" fill="black"/>
<path d="M0.169434 13.6816H2.4847V14.3687H0.975545V15.2893H2.25798V15.9763H0.975545V17.6572H0.169434V13.6816Z" fill="black"/>
<path d="M4.00078 14.3687V15.3626H4.45422C4.79544 15.3626 4.99238 15.1816 4.99238 14.8564C4.99238 14.5564 4.79315 14.3687 4.45422 14.3687H4.00078ZM3.19468 13.6816H4.40841C5.28322 13.6816 5.82139 14.1305 5.82139 14.8679C5.82139 15.3442 5.58781 15.7015 5.18475 15.8961L6.43284 17.6549H5.46872L4.41299 16.0496H3.99849V17.6549H3.19238V13.6816H3.19468Z" fill="black"/>
<path d="M9.18294 15.9351L8.6379 14.4419L8.09286 15.9351H9.18294ZM8.11118 13.6816H9.1669L10.6715 17.6549H9.81499L9.43485 16.6221H7.84553L7.46538 17.6549H6.60889L8.11347 13.6816H8.11118Z" fill="black"/>
<path d="M11.2832 13.6816H12.3183L14.0931 16.5259V13.6816H14.8992V17.6572H13.8664L12.0893 14.8015V17.6572H11.2832V13.6816Z" fill="black"/>
<path d="M18.822 16.4686L19.4587 16.9564C19.1518 17.3754 18.6755 17.6709 18.0961 17.7464L17.6014 18.5686H16.8869L17.3862 17.735C16.3533 17.5541 15.6709 16.6793 15.6709 15.6693C15.6709 14.5335 16.5274 13.5693 17.7823 13.5693C18.5037 13.5693 19.0946 13.8922 19.4564 14.3754L18.8198 14.8701C18.593 14.5472 18.2358 14.3251 17.7801 14.3251C17.0312 14.3251 16.4976 14.909 16.4976 15.6693C16.4976 16.4296 17.0312 17.0136 17.7801 17.0136C18.2335 17.0136 18.5907 16.7915 18.8198 16.4686H18.822Z" fill="black"/>
<path d="M22.2067 15.9351L21.6617 14.4419L21.1166 15.9351H22.2067ZM21.1327 13.6816H22.1884L23.693 17.6549H22.8365L22.4563 16.6221H20.867L20.4869 17.6549H19.6304L21.135 13.6816H21.1327Z" fill="black"/>
<path d="M24.3066 13.6816H25.1127V17.6572H24.3066V13.6816Z" fill="black"/>
<path d="M26.4525 16.567C26.6906 16.8739 27.009 17.0548 27.3319 17.0548C27.6548 17.0548 27.8425 16.8854 27.8425 16.5945C27.8425 15.8846 26.0265 16.0449 26.0265 14.7212C26.0265 14.0915 26.5441 13.5693 27.2975 13.5693C27.8929 13.5693 28.3532 13.8373 28.6876 14.2403L28.0967 14.7693C27.8632 14.4693 27.6021 14.2747 27.3021 14.2747C27.025 14.2747 26.8418 14.4556 26.8418 14.6892C26.8418 15.3991 28.6578 15.2342 28.6578 16.5785C28.6464 17.3159 28.067 17.7716 27.341 17.7716C26.6723 17.7716 26.2166 17.5266 25.8662 17.1075L26.4502 16.5693L26.4525 16.567Z" fill="black"/>
<path d="M29.5073 13.6816H31.8226V14.3687H30.3134V15.2893H31.5959V15.9763H30.3134V16.9702H31.8226V17.6572H29.5073V13.6816Z" fill="black"/>
<path d="M1.31432 29.9387L1.34409 29.8494C0.957065 29.7761 0.906688 29.7761 1.06241 29.3547L1.22042 28.9196H1.64867C1.84104 28.9196 1.84332 28.9975 1.81584 29.2082H1.92577L2.18226 28.5051H2.07233C1.97615 28.6723 1.90058 28.7937 1.68989 28.7937H1.26852L1.49294 28.1799C1.56393 27.9853 1.60287 27.944 1.86622 27.944H2.05172C2.32195 27.944 2.35401 28.0173 2.35401 28.2898H2.46165L2.55096 27.8112H0.943324L0.913552 27.9005C1.225 27.9646 1.25478 27.9944 1.10821 28.3952L0.757829 29.3501C0.611264 29.7486 0.551722 29.7807 0.19218 29.8448L0.166992 29.9341H1.31432V29.9387ZM3.54714 28.7685C3.6021 28.5784 3.57233 28.4135 3.42806 28.4135C3.2563 28.4135 3.21279 28.544 3.03874 28.9196V28.7043C3.03874 28.5509 2.98836 28.4135 2.84867 28.4135C2.68607 28.4135 2.53722 28.6677 2.42271 28.9173H2.49829C2.57615 28.8028 2.64943 28.7364 2.70897 28.7364C2.77996 28.7364 2.8166 28.844 2.70897 29.0822L2.39523 29.7807C2.33798 29.9112 2.39752 29.9959 2.52577 29.9959C2.60363 29.9959 2.64028 29.9753 2.67234 29.8906L2.98149 29.073C3.06851 28.9654 3.14867 28.8715 3.24714 28.7662H3.54943L3.54714 28.7685ZM4.96241 28.3448L4.84104 28.3356L4.70363 28.4708H4.67386C4.00974 28.4708 3.43493 29.2173 3.43493 29.7578C3.43493 29.9089 3.52882 29.9959 3.6731 29.9959C3.84485 29.9959 4.01431 29.7509 4.20439 29.4898L4.19524 29.5837C4.17233 29.8517 4.25249 29.9982 4.39447 29.9982C4.55707 29.9982 4.70592 29.744 4.82042 29.4944H4.74485C4.66699 29.6089 4.5937 29.6753 4.53416 29.6753C4.47233 29.6753 4.42882 29.5654 4.53416 29.3295L4.96241 28.3471V28.3448ZM3.73493 29.5425C3.73493 29.1853 4.1334 28.6975 4.35783 28.6975C4.40821 28.6975 4.45401 28.7043 4.49523 28.7158L4.26164 29.3364C4.12653 29.499 3.92043 29.6982 3.82424 29.6982C3.76928 29.6982 3.73493 29.6524 3.73493 29.5448M5.20745 28.6379H5.47539L5.04943 29.8013C5.0105 29.8998 5.06317 30.0005 5.16623 30.0005C5.40897 30.0005 5.79829 29.7623 5.9357 29.4349H5.86012C5.75248 29.5494 5.54638 29.7005 5.36775 29.7326L5.75707 28.6402H6.15554L6.20592 28.473H5.8189L5.96775 28.054H5.81432L5.53722 28.473L5.20745 28.5188V28.6379ZM7.10821 29.4349H7.00973C6.88378 29.5837 6.75096 29.7005 6.61585 29.7005C6.48073 29.7005 6.40974 29.6181 6.40974 29.4349C6.40974 29.3593 6.4189 29.2837 6.43264 29.2127L7.23874 28.9471C7.39676 28.5738 7.20668 28.4112 6.98455 28.4112C6.6021 28.4112 6.16928 29.0501 6.16928 29.6089C6.16928 29.8585 6.28836 29.9959 6.47615 29.9959C6.69371 29.9959 6.92272 29.783 7.10821 29.4326M6.8334 28.6288C6.94103 28.6288 7.03493 28.7112 6.98455 28.9173L6.48302 29.0341C6.57004 28.8005 6.71661 28.6288 6.8334 28.6288ZM8.62195 28.7685C8.67691 28.5784 8.64714 28.4135 8.50287 28.4135C8.33111 28.4135 8.2876 28.544 8.11355 28.9196V28.7043C8.11355 28.5509 8.06317 28.4135 7.92348 28.4135C7.76088 28.4135 7.61203 28.6677 7.49752 28.9173H7.5731C7.65096 28.8028 7.72424 28.7364 7.78378 28.7364C7.85477 28.7364 7.89141 28.844 7.78378 29.0822L7.47004 29.7807C7.41279 29.9112 7.47233 29.9959 7.60058 29.9959C7.67844 29.9959 7.71508 29.9753 7.74714 29.8906L8.0563 29.073C8.14332 28.9654 8.22348 28.8715 8.32195 28.7662H8.62424L8.62195 28.7685ZM8.62653 29.7807C8.56928 29.9112 8.62882 29.9959 8.75706 29.9959C8.83493 29.9959 8.87157 29.9753 8.90363 29.8906L9.21279 29.073C9.35478 28.899 9.65019 28.7112 9.76699 28.7112C9.85172 28.7112 9.84027 28.7822 9.78531 28.8853L9.31126 29.7967C9.26546 29.886 9.32501 29.9959 9.42806 29.9959C9.66165 29.9959 9.93875 29.7853 10.0487 29.4921H9.97309C9.89752 29.5998 9.76928 29.7188 9.6502 29.7394L10.0578 28.915C10.1105 28.8097 10.1357 28.7112 10.1357 28.6333C10.1357 28.4982 10.0601 28.4112 9.92043 28.4112C9.7189 28.4112 9.51508 28.6379 9.27462 28.9173V28.702C9.27462 28.5486 9.22424 28.4112 9.08455 28.4112C8.99753 28.4112 8.91279 28.4868 8.83493 28.5944V28.6242C8.98607 28.615 9.05249 28.8417 8.94485 29.0822L8.63111 29.7807H8.62653ZM11.1937 27.999C11.2991 27.999 11.3861 27.9143 11.3861 27.8066C11.3861 27.699 11.2991 27.6143 11.1937 27.6143C11.0884 27.6143 11.0013 27.7013 11.0013 27.8066C11.0013 27.912 11.0861 27.999 11.1937 27.999ZM11.1113 28.5807C11.1433 28.473 11.07 28.4112 11.0151 28.4112C10.7815 28.4112 10.5044 28.6219 10.3945 28.915H10.47C10.5456 28.8074 10.6739 28.6883 10.7929 28.6677L10.3464 29.8265C10.3052 29.9341 10.3876 29.9959 10.4426 29.9959C10.6647 29.9959 10.9235 29.783 11.0334 29.4921H10.9578C10.8823 29.5998 10.754 29.7188 10.6349 29.7394L11.109 28.5807H11.1113ZM11.4731 28.6379H11.741L11.3151 29.8013C11.2762 29.8998 11.3288 30.0005 11.4319 30.0005C11.6746 30.0005 12.0639 29.7623 12.2013 29.4349H12.1258C12.0181 29.5494 11.812 29.7005 11.6334 29.7326L12.0227 28.6402H12.4212L12.4716 28.473H12.0845L12.2334 28.054H12.08L11.8029 28.473L11.4731 28.5188V28.6379ZM13.2158 28.2646L13.7838 27.7333V27.6715H13.4769L13.1265 28.2624H13.2136L13.2158 28.2646ZM13.3762 29.4349H13.2777C13.1517 29.5837 13.0189 29.7005 12.8838 29.7005C12.7487 29.7005 12.6777 29.6181 12.6777 29.4349C12.6777 29.3593 12.6868 29.2837 12.7006 29.2127L13.5067 28.9471C13.6647 28.5738 13.4746 28.4112 13.2525 28.4112C12.87 28.4112 12.4372 29.0501 12.4372 29.6089C12.4372 29.8585 12.5563 29.9959 12.7441 29.9959C12.9616 29.9959 13.1907 29.783 13.3762 29.4326M13.0991 28.6288C13.2067 28.6288 13.3006 28.7112 13.2502 28.9173L12.7487 29.0341C12.8357 28.8005 12.9823 28.6288 13.0991 28.6288Z" fill="black"/>
<path d="M1.89127 24.0283L2.4592 23.639V23.5771H2.11569L1.80195 24.0283H1.89127ZM1.65768 25.2489C1.85004 25.2489 1.85234 25.3268 1.82486 25.5375H1.93478L2.19127 24.8344H2.08134C1.98516 25.0016 1.90959 25.1229 1.6989 25.1229H1.27752L1.49051 24.5367C1.5615 24.342 1.60043 24.3031 1.86379 24.3031H2.04929C2.31951 24.3031 2.35157 24.3764 2.35157 24.6466H2.4592L2.54852 24.168H0.940883L0.911118 24.2573C1.22257 24.3214 1.25233 24.3512 1.10577 24.752L0.755387 25.7069C0.608823 26.1054 0.54928 26.1374 0.189738 26.2016L0.164551 26.2909H1.9531L2.27371 25.7848H2.15234C1.94852 25.9771 1.69203 26.1604 1.33478 26.1604C0.860731 26.1604 0.904246 26.1397 1.05997 25.7069L1.22943 25.2443H1.65768V25.2489ZM3.69356 26.4947C3.69356 26.3092 3.52638 26.2405 3.25615 26.1604C3.02257 26.0894 2.91722 26.071 2.91722 25.9932C2.91722 25.9313 2.96761 25.8581 3.06608 25.8077C3.44852 25.7871 3.69585 25.4436 3.69585 25.155C3.69585 25.0932 3.6844 25.0405 3.66379 24.9947H3.98669L4.03707 24.8275H3.5241C3.46226 24.7886 3.38898 24.7703 3.31798 24.7703C2.91264 24.7703 2.65157 25.1252 2.65157 25.4138C2.65157 25.6313 2.79127 25.7687 2.96073 25.8008C2.77066 25.8855 2.6676 25.984 2.6676 26.1008C2.6676 26.1672 2.6905 26.2153 2.74546 26.2588C2.30806 26.3871 2.1363 26.5336 2.1363 26.7397C2.1363 26.9458 2.40195 27.026 2.71569 27.026C3.24928 27.026 3.69356 26.7374 3.69356 26.4947ZM3.0615 25.6978C2.96531 25.6978 2.92638 25.6153 2.92638 25.5237C2.92638 25.2649 3.06608 24.8825 3.28363 24.8825C3.37982 24.8825 3.41875 24.9649 3.41875 25.0565C3.41875 25.3153 3.27905 25.6978 3.0615 25.6978ZM2.4592 26.639C2.4592 26.4855 2.60806 26.3894 2.82104 26.3046C2.89203 26.339 2.99509 26.3779 3.13478 26.4237C3.35692 26.497 3.44165 26.5268 3.44165 26.5932C3.44165 26.7352 3.1989 26.8428 2.87142 26.8428C2.59432 26.8428 2.4615 26.7855 2.4615 26.639M5.42486 24.7039L5.30348 24.6947L5.16608 24.8275H5.1363C4.47218 24.8275 3.89737 25.5741 3.89737 26.1145C3.89737 26.2657 3.99127 26.3527 4.13554 26.3527C4.3073 26.3527 4.47677 26.1077 4.66684 25.8466L4.65768 25.9405C4.63478 26.2084 4.71493 26.355 4.85463 26.355C5.01722 26.355 5.16608 26.1008 5.28058 25.8512H5.20501C5.12715 25.9657 5.05386 26.0321 4.99432 26.0321C4.93249 26.0321 4.88898 25.9222 4.99432 25.6863L5.42256 24.7039H5.42486ZM4.19966 25.9016C4.19966 25.5443 4.59814 25.0565 4.82257 25.0565C4.87295 25.0565 4.91875 25.0634 4.95997 25.0749L4.72639 25.6955C4.59127 25.8581 4.38516 26.0573 4.28898 26.0573C4.23402 26.0573 4.19966 26.0115 4.19966 25.9039M5.74317 26.0985L6.55615 23.9687L6.53096 23.9367L6.02028 23.9939V24.0558L6.11875 24.1313C6.20806 24.2023 6.18058 24.2687 6.09814 24.484L5.46378 26.1558C5.41798 26.2451 5.47753 26.3527 5.58058 26.3527C5.81417 26.3527 6.0615 26.142 6.17142 25.8489H6.09585C6.02027 25.9565 5.86226 26.0756 5.74317 26.0962M7.29356 24.3581C7.3989 24.3581 7.48593 24.2733 7.48593 24.1657C7.48593 24.0581 7.3989 23.9733 7.29356 23.9733C7.18822 23.9733 7.10119 24.0603 7.10119 24.1657C7.10119 24.271 7.18593 24.3581 7.29356 24.3581ZM7.21111 24.9397C7.24317 24.8321 7.1699 24.7703 7.11493 24.7703C6.88135 24.7703 6.60424 24.981 6.49432 25.2741H6.56989C6.64547 25.1665 6.77371 25.0474 6.8928 25.0268L6.44623 26.1855C6.40501 26.2932 6.48745 26.355 6.54241 26.355C6.76455 26.355 7.02333 26.142 7.13325 25.8512H7.05768C6.98211 25.9588 6.85386 26.0779 6.73478 26.0985L7.20883 24.9397H7.21111ZM7.57295 24.9947H7.84088L7.41493 26.1581C7.376 26.2565 7.42868 26.355 7.53173 26.355C7.77448 26.355 8.16379 26.1168 8.30119 25.7894H8.22562C8.11799 25.9039 7.91188 26.055 7.73325 26.0871L8.12257 24.9947H8.52104L8.57142 24.8275H8.1844L8.33326 24.4084H8.17982L7.90272 24.8275L7.57295 24.8733V24.9924V24.9947ZM9.31341 24.6214L9.88134 24.0901V24.0283H9.57447L9.22409 24.6191H9.31112L9.31341 24.6214ZM9.47371 25.7939H9.37524C9.24928 25.9428 9.11646 26.0596 8.98134 26.0596C8.84623 26.0596 8.77524 25.9771 8.77524 25.7939C8.77524 25.7184 8.7844 25.6428 8.79814 25.5718L9.60425 25.3062C9.76226 24.9329 9.57218 24.7703 9.35004 24.7703C8.9676 24.7703 8.53478 25.4092 8.53478 25.968C8.53478 26.2176 8.65386 26.355 8.84165 26.355C9.0592 26.355 9.28821 26.142 9.47371 25.7916M9.1989 24.9855C9.30654 24.9855 9.40042 25.068 9.35004 25.2741L8.84852 25.3909C8.93555 25.1573 9.08211 24.9855 9.1989 24.9855Z" fill="black"/>
<path d="M1.99676 20.5292H0.936455L0.906682 20.6185C1.21813 20.6826 1.24791 20.7124 1.10134 21.1131L0.757829 22.0681C0.611264 22.4665 0.551722 22.4986 0.19218 22.5627L0.166992 22.652H1.78149L2.13187 22.0291H2.0105C1.81126 22.2467 1.57996 22.5215 1.22042 22.5215C0.950193 22.5215 0.918138 22.4757 1.06241 22.0681L1.40592 21.1131C1.54791 20.7146 1.61202 20.6826 1.97157 20.6185L1.99676 20.5292ZM3.16928 20.7146C3.27462 20.7146 3.36164 20.6299 3.36164 20.5223C3.36164 20.4146 3.27462 20.3299 3.16928 20.3299C3.06394 20.3299 2.97691 20.4169 2.97691 20.5223C2.97691 20.6276 3.06165 20.7146 3.16928 20.7146ZM3.08912 21.2986C3.12119 21.191 3.04791 21.1291 2.99295 21.1291C2.75936 21.1291 2.48225 21.3398 2.37233 21.633H2.44791C2.52348 21.5253 2.65172 21.4062 2.77081 21.3856L2.32424 22.5444C2.28302 22.652 2.36546 22.7139 2.42043 22.7139C2.64256 22.7139 2.90134 22.5009 3.01126 22.2101H2.93569C2.86012 22.3177 2.73188 22.4368 2.61279 22.4574L3.08684 21.2986H3.08912ZM4.67386 21.4521C4.67386 21.2162 4.58684 21.1291 4.42424 21.1291C4.22043 21.1291 4.02806 21.3444 3.83569 21.6078L4.32119 20.3299L4.296 20.2979L3.78531 20.3551V20.4169L3.88378 20.4925C3.97309 20.5635 3.94561 20.6345 3.86317 20.8452L3.33874 22.1963C3.29981 22.2948 3.25401 22.4116 3.25401 22.4436C3.25401 22.5833 3.44409 22.7139 3.61585 22.7139C4.01203 22.7139 4.67386 21.9994 4.67386 21.4521ZM3.75554 22.478C3.67768 22.478 3.56317 22.4047 3.56317 22.3406C3.56317 22.32 3.59752 22.2307 3.64103 22.1162L3.77157 21.7704C3.91126 21.6032 4.12424 21.4269 4.24333 21.4269C4.31661 21.4269 4.37157 21.4727 4.37157 21.5803C4.37157 21.8986 4.07386 22.478 3.75325 22.478M5.73417 22.1528H5.63569C5.50973 22.3017 5.37692 22.4185 5.2418 22.4185C5.10669 22.4185 5.03569 22.336 5.03569 22.1528C5.03569 22.0772 5.04485 22.0017 5.05859 21.9307L5.8647 21.665C6.02271 21.2917 5.83264 21.1291 5.6105 21.1291C5.22806 21.1291 4.79523 21.7681 4.79523 22.3269C4.79523 22.5765 4.91432 22.7139 5.1021 22.7139C5.31966 22.7139 5.54867 22.5009 5.73417 22.1528ZM5.45706 21.3444C5.5647 21.3444 5.65859 21.4269 5.60821 21.633L5.10668 21.7498C5.1937 21.5162 5.34027 21.3444 5.45706 21.3444ZM7.24562 21.4841C7.30058 21.294 7.27081 21.1291 7.12653 21.1291C6.95478 21.1291 6.91127 21.2597 6.73722 21.6353V21.42C6.73722 21.2666 6.68684 21.1291 6.54714 21.1291C6.38455 21.1291 6.23569 21.3833 6.12119 21.633H6.19676C6.27462 21.5185 6.34791 21.4521 6.40745 21.4521C6.47844 21.4521 6.51508 21.5597 6.40745 21.7978L6.0937 22.4963C6.03645 22.6269 6.096 22.7116 6.22424 22.7116C6.3021 22.7116 6.33875 22.691 6.37081 22.6062L6.67997 21.7887C6.76699 21.6811 6.84714 21.5872 6.94561 21.4818H7.2479L7.24562 21.4841ZM7.4563 21.3536H7.66928L7.24333 22.5169C7.2044 22.6154 7.25707 22.7139 7.36012 22.7139C7.60287 22.7139 7.99218 22.4757 8.12959 22.1482H8.05402C7.94638 22.2627 7.74027 22.4139 7.56164 22.4459L7.95096 21.3536H8.34943L8.39981 21.1864H8.01279L8.16165 20.7673H8.00821L7.73111 21.1864L7.4563 21.2322V21.3513V21.3536ZM9.12577 20.9803L9.6937 20.449V20.3872H9.38684L9.03645 20.978H9.12348L9.12577 20.9803ZM9.28607 22.1528H9.1876C9.06165 22.3017 8.92882 22.4185 8.79371 22.4185C8.65859 22.4185 8.5876 22.336 8.5876 22.1528C8.5876 22.0772 8.59676 22.0017 8.6105 21.9307L9.41661 21.665C9.57462 21.2917 9.38455 21.1291 9.16241 21.1291C8.77997 21.1291 8.34715 21.7681 8.34715 22.3269C8.34715 22.5765 8.46623 22.7139 8.65401 22.7139C8.87157 22.7139 9.10058 22.5009 9.28607 22.1528ZM9.00897 21.3444C9.11661 21.3444 9.2105 21.4269 9.16012 21.633L8.65859 21.7498C8.74562 21.5162 8.89218 21.3444 9.00897 21.3444Z" fill="black"/>
<path d="M4.41054 3.81799C4.41054 3.81799 4.4403 3.81798 4.44946 3.79737H4.36931C4.36931 3.79737 4.36016 3.78821 4.36016 3.77676C4.30977 3.78592 4.25023 3.80654 4.19985 3.8157C4.13115 3.83631 4.06931 3.8844 3.99145 3.90501C3.88153 3.94394 3.79222 4.03555 3.67313 4.07448C3.66397 4.07448 3.66397 4.06532 3.66397 4.05387C3.67313 4.0241 3.71435 4.01493 3.73267 3.98516C3.73267 3.976 3.73268 3.96455 3.72351 3.96455C3.80367 3.85463 3.91359 3.79508 4.01206 3.70577V3.676C4.04183 3.63707 4.09221 3.61646 4.11282 3.56608C4.12198 3.53631 4.16321 3.49737 4.21359 3.47676C4.20443 3.4676 4.18382 3.4676 4.18382 3.44699C4.14488 3.44699 4.10367 3.46761 4.06473 3.43784C4.08305 3.41952 4.10366 3.40806 4.12656 3.40348C4.1174 3.40348 4.11054 3.39661 4.10367 3.38974C4.09451 3.36913 4.12199 3.34852 4.15405 3.33936C4.19298 3.3302 4.24336 3.3302 4.27313 3.30043C4.20443 3.29127 4.12428 3.32104 4.05329 3.27982C4.10367 3.14929 4.18382 3.03936 4.3029 2.97982C4.31206 2.97982 4.33268 2.97982 4.33268 2.98898C4.33268 3.03936 4.3029 3.07829 4.25252 3.08974C4.33267 3.11035 4.41282 3.11035 4.49068 3.14928C4.48152 3.1699 4.46092 3.15845 4.45176 3.15845C4.50214 3.18822 4.56168 3.16761 4.61207 3.20883C4.58229 3.2386 4.55252 3.20883 4.52275 3.20883C4.83191 3.29814 5.16168 3.36913 5.42046 3.56837C5.20061 3.67829 4.97161 3.72867 4.73344 3.77676C4.70367 3.77676 4.68306 3.77677 4.65329 3.76761C4.65329 3.77677 4.65328 3.79737 4.64412 3.79737C4.60519 3.79737 4.57542 3.79738 4.54336 3.81799C4.50443 3.8386 4.44259 3.84776 4.41282 3.81799H4.41054ZM4.20672 4.51188C4.20672 4.51188 4.20672 4.51188 4.20443 4.51188C4.16778 4.53707 4.12885 4.56455 4.08992 4.58745C4.04641 4.61264 4.0029 4.63096 3.95939 4.65157C3.95939 4.65157 3.95939 4.65157 3.95939 4.64928C3.9571 4.6447 3.94794 4.64241 3.94336 4.6447C3.90672 4.66531 3.87237 4.69279 3.8426 4.72027C3.83802 4.72485 3.83344 4.72944 3.82886 4.73402C3.82428 4.7386 3.8197 4.74318 3.81512 4.74776C3.80825 4.75463 3.80138 4.76149 3.79451 4.77065C3.78993 4.77752 3.78764 4.77982 3.78077 4.7844C3.7739 4.78898 3.75786 4.78897 3.75786 4.77752C3.75099 4.77981 3.74641 4.7844 3.73954 4.78669C3.73496 4.78898 3.72809 4.79127 3.72351 4.79585C3.72351 4.79585 3.71893 4.79585 3.71664 4.79585C3.71435 4.79585 3.71206 4.79585 3.70977 4.79814C3.69832 4.8073 3.68458 4.81875 3.67313 4.82791C3.65252 4.84623 3.63191 4.86684 3.61588 4.88974C3.61588 4.88974 3.61588 4.88974 3.61588 4.89203C3.61588 4.89203 3.61588 4.89432 3.61359 4.89661C3.61359 4.89661 3.61359 4.8989 3.6113 4.90119C3.60901 4.90348 3.60672 4.90806 3.60443 4.91035C3.60443 4.91035 3.59985 4.91264 3.59527 4.91493C3.59527 4.91493 3.59298 4.91035 3.59069 4.90806C3.59069 4.90806 3.59069 4.90577 3.5884 4.90348C3.58611 4.8989 3.58153 4.89203 3.57924 4.88745C3.57924 4.88745 3.57924 4.88516 3.57695 4.88287C3.5884 4.87142 3.59756 4.85997 3.60901 4.84623C3.60901 4.84623 3.60901 4.84623 3.60901 4.84394C3.61359 4.83936 3.61588 4.83478 3.62046 4.8302C3.62504 4.82333 3.63191 4.81646 3.63649 4.80959C3.63649 4.8073 3.64107 4.80501 3.64336 4.80272C3.65481 4.78898 3.66397 4.77524 3.67542 4.7615C3.67542 4.7615 3.67771 4.75692 3.68 4.75463C3.68458 4.74776 3.68916 4.74089 3.69374 4.73402C3.69832 4.72715 3.70061 4.72027 3.70519 4.7134C3.70519 4.7134 3.70519 4.71111 3.70519 4.70882C3.70977 4.70195 3.71206 4.69279 3.71435 4.68592C3.71435 4.68592 3.71435 4.68593 3.71435 4.68364C3.71435 4.68364 3.71435 4.67906 3.71435 4.67677C3.71435 4.67219 3.71435 4.66989 3.71664 4.66531C3.71664 4.66531 3.71664 4.66531 3.71664 4.66302C3.71664 4.65844 3.71893 4.65386 3.72122 4.64928C3.72122 4.64699 3.72122 4.6447 3.72122 4.64241C3.73267 4.62409 3.74642 4.60577 3.76016 4.58974C3.76016 4.58974 3.75786 4.58974 3.75557 4.59203C3.74183 4.60119 3.73267 4.61493 3.71893 4.62409C3.70748 4.63325 3.68916 4.61951 3.70061 4.60806C3.70977 4.60119 3.71664 4.59432 3.72351 4.58745C3.73955 4.57142 3.75558 4.55081 3.7739 4.53707C3.78535 4.52791 3.7945 4.52104 3.80366 4.51417C3.80366 4.51417 3.80596 4.51188 3.80825 4.50959C3.81512 4.50043 3.82199 4.49126 3.83115 4.48439C3.92733 4.39279 4.08763 4.39738 4.21359 4.33783C4.26397 4.31722 4.32351 4.34699 4.3739 4.33783C4.40367 4.33783 4.43343 4.33783 4.4632 4.35844C4.37389 4.40654 4.29145 4.46149 4.20901 4.51417L4.20672 4.51188ZM4.38534 4.59432C4.38534 4.59432 4.37161 4.61493 4.36016 4.62409C4.37161 4.62638 4.38077 4.63096 4.3739 4.64013C4.35099 4.66074 4.32809 4.68363 4.29832 4.69279C4.29832 4.69279 4.28916 4.69279 4.28229 4.69279C4.27084 4.70424 4.2571 4.7157 4.24565 4.72715C4.2342 4.7386 4.17924 4.72943 4.19527 4.71569C4.22046 4.69279 4.24336 4.6699 4.26855 4.647C4.28229 4.63325 4.29832 4.6218 4.30977 4.60806C4.31664 4.5989 4.32351 4.59203 4.33038 4.58516C4.33954 4.57829 4.39222 4.57371 4.38306 4.59432H4.38534ZM3.92275 3.1012C3.91359 3.12181 3.90214 3.12409 3.89298 3.14012C3.88382 3.16073 3.87236 3.1699 3.85404 3.17906C3.84488 3.17906 3.83343 3.17905 3.83343 3.16989C3.84259 3.13096 3.87237 3.08975 3.91359 3.08059C3.92275 3.08059 3.92275 3.08974 3.92275 3.1012ZM3.09603 3.75845C3.09603 3.75845 3.08687 3.74929 3.08687 3.73784C3.21741 3.56837 3.31588 3.40806 3.40519 3.22944C3.53573 3.16074 3.64336 3.05768 3.74412 2.95005C3.91359 2.77142 4.09222 2.61112 4.3029 2.51035C4.38306 2.48058 4.48153 2.48974 4.56168 2.51951C4.53191 2.55845 4.48153 2.54929 4.4426 2.57906C4.43343 2.57906 4.42198 2.57906 4.41282 2.5699C4.42198 2.56074 4.42199 2.54928 4.42199 2.54012C4.32122 2.65005 4.18153 2.70043 4.10367 2.82868C4.04413 2.92944 4.0029 3.05768 3.87466 3.08746C3.83573 3.09662 3.88382 3.05769 3.8655 3.06685C3.55634 3.25692 3.33649 3.48593 3.09832 3.75387L3.09603 3.75845ZM4.62122 3.97829C4.60061 3.97829 4.56168 3.98745 4.57084 3.96913C4.58 3.91875 4.651 3.91875 4.68993 3.90043C4.71054 3.89127 4.74031 3.87066 4.75863 3.87982C4.77924 3.90959 4.80901 3.90043 4.82733 3.91875C4.76778 3.97829 4.68764 3.94852 4.61894 3.97829H4.62122ZM6.15328 4.69279C6.21053 4.63554 6.26779 4.576 6.32504 4.51417C6.43038 4.39508 6.53573 4.28058 6.6571 4.17524C6.69374 4.14089 6.73038 4.11341 6.76474 4.08822C6.7739 4.07906 6.7739 4.05844 6.78535 4.04928C6.73496 4.06989 6.70519 4.10883 6.65481 4.12944C6.64565 4.12944 6.6342 4.12028 6.64565 4.10883C6.68229 4.08135 6.71664 4.05615 6.75328 4.02867C6.75328 4.02867 6.7487 4.02867 6.74641 4.02867C6.73725 4.02867 6.73726 4.01951 6.73726 4.00806C6.60672 3.98745 6.50824 4.07676 6.41893 4.15692C6.39832 4.16608 6.38 4.14775 6.36855 4.14775C6.2197 4.19814 6.10977 4.32638 5.95862 4.38822V4.36761C5.89908 4.38822 5.84183 4.42485 5.78 4.43631C5.69069 4.45692 5.61053 4.44547 5.53038 4.44547C5.40901 4.45692 5.28764 4.4844 5.16855 4.50959C5.16397 4.50959 5.16168 4.50959 5.1571 4.51188C5.09298 4.5302 5.03114 4.5531 4.9716 4.58745C4.96931 4.58745 4.96702 4.58974 4.96473 4.59203C4.96015 4.5989 4.95557 4.60348 4.95099 4.61035C4.93038 4.63325 4.91206 4.65616 4.88229 4.6699C4.82046 4.70196 4.77008 4.75462 4.71741 4.80043C4.71283 4.80272 4.70824 4.80501 4.70138 4.80501C4.6487 4.85539 4.59603 4.90806 4.54107 4.95844C4.53649 4.96302 4.52275 4.96303 4.5113 4.96303C4.5113 4.96074 4.51588 4.95615 4.51817 4.95386C4.52733 4.94012 4.5342 4.92638 4.54336 4.91264C4.55252 4.89661 4.56397 4.88058 4.57313 4.86684C4.58687 4.84623 4.60061 4.82562 4.61664 4.80501C4.62122 4.80043 4.61893 4.79585 4.61664 4.79127C4.61435 4.78898 4.60748 4.78669 4.6029 4.78669C4.65329 4.73859 4.71282 4.69738 4.77007 4.66074C4.7632 4.66074 4.75405 4.65844 4.75863 4.65157C4.7655 4.64241 4.77007 4.63325 4.77694 4.62409C4.77694 4.6218 4.77695 4.61722 4.77924 4.61493C4.77695 4.61264 4.77466 4.61035 4.77237 4.60806C4.75634 4.61951 4.73802 4.62867 4.72657 4.64013C4.70367 4.66074 4.68305 4.70654 4.6487 4.70425C4.64641 4.70425 4.63955 4.70425 4.63268 4.70425C4.6281 4.70425 4.62351 4.70424 4.62122 4.69966C4.62122 4.69966 4.62122 4.69967 4.62122 4.69738C4.62122 4.69738 4.62122 4.69737 4.62122 4.69508C4.62122 4.69508 4.62122 4.69508 4.62122 4.69279C4.62122 4.6905 4.62352 4.68822 4.62581 4.68364C4.62581 4.68135 4.62809 4.67676 4.63038 4.67447C4.63038 4.67447 4.63267 4.66989 4.63496 4.6676C4.63725 4.66302 4.63954 4.65844 4.64183 4.65386C4.64183 4.65158 4.64642 4.64699 4.64642 4.6447C4.651 4.63783 4.65557 4.63096 4.66016 4.6218C4.66016 4.61722 4.66473 4.61493 4.66703 4.61035C4.67161 4.60348 4.67389 4.5989 4.67847 4.59203C4.68305 4.58287 4.67847 4.576 4.6716 4.57371C4.68992 4.55081 4.71283 4.5302 4.74031 4.51417H4.73802C4.77695 4.49585 4.81359 4.47066 4.85252 4.45005C4.8571 4.44547 4.86397 4.44089 4.86855 4.43631C4.8113 4.45463 4.76092 4.48211 4.71054 4.51417C4.71054 4.51417 4.69679 4.51875 4.6945 4.52333C4.6945 4.52333 4.68306 4.52791 4.66932 4.51417C4.66932 4.51417 4.66703 4.50959 4.66703 4.5073C4.67619 4.48669 4.70596 4.47753 4.72657 4.45691C4.73573 4.45691 4.74718 4.45692 4.74718 4.46608C5.0655 4.21646 5.50519 4.276 5.87389 4.14775C5.90366 4.12714 5.93344 4.10883 5.96321 4.08822C6.01359 4.06761 6.05252 4.01951 6.11206 3.98745C6.19222 3.92791 6.25176 3.85692 6.28153 3.75845C6.28153 3.74928 6.27237 3.73784 6.27237 3.73784C6.14184 3.87753 5.99298 3.98745 5.83267 4.06761C5.62428 4.17753 5.39298 4.15692 5.17542 4.18669C5.18458 4.16608 5.20519 4.16608 5.2258 4.16608C5.2258 4.13631 5.24641 4.12714 5.26473 4.10653H5.2945C5.2945 4.10653 5.30366 4.08592 5.31511 4.08592C5.33572 4.08592 5.3655 4.07676 5.35405 4.07676C5.32428 4.03783 5.26473 4.10653 5.21435 4.07676C5.23496 4.05615 5.22351 4.02639 5.24412 4.01722H5.28306C5.28306 3.99661 5.30367 3.97829 5.30367 3.97829C5.45252 3.88898 5.59221 3.81798 5.73191 3.74012C5.70214 3.74012 5.68153 3.76989 5.65176 3.74928C5.67237 3.74928 5.65175 3.71951 5.67237 3.71951C5.78229 3.68974 5.8716 3.6302 5.98153 3.58898C5.9426 3.58898 5.91283 3.61875 5.87161 3.58898C5.89222 3.57982 5.90137 3.55921 5.93114 3.55921V3.52944C5.93114 3.52944 5.9403 3.52028 5.95175 3.52028C5.94259 3.52028 5.93114 3.51111 5.93114 3.51111C5.94031 3.4905 5.97008 3.50196 5.99069 3.48135C5.98153 3.48135 5.96092 3.48135 5.96092 3.47219C5.99069 3.43325 6.04107 3.4218 6.09145 3.41264C6.08229 3.39203 6.05252 3.41264 6.05252 3.39203C6.05252 3.38287 6.06168 3.38287 6.07313 3.38287H6.05252C6.03191 3.37371 6.04336 3.3531 6.04336 3.34394C6.10291 3.27524 6.1029 3.18363 6.13267 3.10348C6.12351 3.10348 6.11206 3.10349 6.11206 3.09433C6.0113 3.20425 5.85328 3.24318 5.70443 3.2844H5.65405C5.60367 3.30501 5.53497 3.30501 5.48458 3.27524C5.44565 3.25463 5.42504 3.22486 5.38382 3.19509C5.30367 3.14471 5.22352 3.10577 5.1342 3.076C4.88458 2.99585 4.6258 2.95692 4.36703 2.96608C4.47695 2.90654 4.59832 2.90196 4.71511 2.86532C4.88458 2.81494 5.04489 2.75539 5.22351 2.76455C5.19374 2.75539 5.15481 2.76455 5.12275 2.76455C4.98305 2.75539 4.84336 2.79432 4.6945 2.82409C4.59374 2.8447 4.50443 2.88363 4.40595 2.90425C4.34641 2.92486 4.31664 2.9844 4.24565 2.97295V2.94318C4.34642 2.8241 4.4655 2.70501 4.62351 2.69356C4.80214 2.66379 4.9716 2.69356 5.15252 2.71417C5.28305 2.72333 5.40214 2.7531 5.53038 2.78287C5.58076 2.78287 5.58992 2.86303 5.63115 2.87219C5.69069 2.8928 5.75023 2.87218 5.80977 2.91112C5.80977 2.8905 5.80061 2.87219 5.80977 2.85158C5.8487 2.81265 5.89909 2.86074 5.94031 2.84242C6.02046 2.79203 5.8716 2.70272 5.83038 2.63402C5.83038 2.62486 5.83954 2.61341 5.83954 2.61341C5.9197 2.68211 5.97924 2.76226 6.08 2.81264C6.13038 2.83325 6.24947 2.86302 6.22886 2.80348C6.17848 2.69356 6.08 2.60425 5.99985 2.50348V2.46456C5.97924 2.46456 5.97924 2.4554 5.97008 2.44395V2.40501C5.93115 2.3844 5.94031 2.34547 5.9197 2.31569C5.88993 2.26531 5.91054 2.19661 5.88993 2.13707C5.86931 2.07753 5.86015 2.02715 5.85099 1.96761C5.82122 1.79814 5.78229 1.64929 5.76168 1.48898C5.74107 1.29891 5.8716 1.15005 5.96092 0.980585C6.02962 0.861501 6.10977 0.742421 6.24031 0.662268C6.27008 0.543184 6.35023 0.442418 6.43038 0.343944C6.51053 0.247761 6.64336 0.188221 6.73726 0.144709C6.87695 0.0828771 7.0029 0.0439453 7.0029 0.0439453H0.160156V5.32028H5.00595C5.19603 5.18287 5.38611 5.11875 5.64947 4.98821C5.77542 4.92638 6.06168 4.79585 6.15787 4.69738L6.15328 4.69279Z" fill="#293173"/>
<path d="M14.6653 0.0394017H8.99045C8.99045 0.0394017 9.0019 0.0393983 9.04541 0.0645891C9.09121 0.08978 9.15075 0.121838 9.18968 0.140159C9.26297 0.17909 9.33396 0.227184 9.37976 0.300466C9.40037 0.330237 9.43014 0.389781 9.40953 0.431002C9.38892 0.481384 9.37976 0.561535 9.32937 0.579856C9.26983 0.609627 9.18968 0.609626 9.12098 0.600466C9.08205 0.600466 9.04083 0.591306 9.0019 0.579856C9.15075 0.639398 9.29045 0.710388 9.39121 0.850083C9.40037 0.870693 9.44159 0.879855 9.48052 0.879855C9.48968 0.879855 9.48968 0.900467 9.48968 0.909627C9.46907 0.930238 9.45075 0.9394 9.45991 0.969171H9.48968C9.54006 0.94856 9.52862 0.850084 9.59961 0.879855C9.64999 0.909626 9.66831 0.980617 9.63854 1.02871C9.59961 1.06764 9.55839 1.09741 9.51946 1.12947C9.51029 1.15008 9.51029 1.17986 9.51946 1.19818C9.54923 1.23711 9.55839 1.27833 9.56984 1.31726C9.59961 1.38596 9.60877 1.46611 9.63854 1.5371C9.67747 1.68596 9.71869 1.83711 9.70724 1.98596C9.70724 2.06612 9.66831 2.13482 9.69808 2.21497C9.71869 2.29512 9.76678 2.35466 9.808 2.42336C9.84693 2.4829 9.88816 2.52413 9.91793 2.58367C9.97747 2.68443 10.0874 2.78291 10.037 2.90199C10.0072 2.9707 9.89732 2.96153 9.82862 3.00275C9.76907 3.05313 9.81946 3.13329 9.84923 3.18138C9.89961 3.2707 9.78968 3.33024 9.71869 3.36001C9.7393 3.38978 9.77823 3.38062 9.78739 3.39894C9.79655 3.44932 9.84693 3.47909 9.81716 3.52947C9.77823 3.58901 9.65686 3.61878 9.7164 3.7081C9.75533 3.7768 9.73014 3.85466 9.70724 3.92794C9.67747 4.01726 9.59731 4.05848 9.52861 4.0768C9.46907 4.09741 9.39808 4.09741 9.33854 4.08596C9.31793 4.0768 9.2996 4.06535 9.27899 4.06535C9.10953 4.04474 8.94006 3.99665 8.7706 3.99665C8.72021 4.00581 8.66984 4.01726 8.6309 4.03558C8.5851 4.06764 8.54617 4.10428 8.50953 4.14321C8.50266 4.15008 8.49579 4.15924 8.48892 4.1684C8.48434 4.17298 8.47976 4.17756 8.47518 4.18443C8.47289 4.18672 8.46831 4.1913 8.46602 4.19588C8.43625 4.23253 8.41106 4.27146 8.38816 4.31039C8.38816 4.31268 8.38586 4.31497 8.38357 4.31726C8.38128 4.32184 8.37899 4.32642 8.3767 4.331C8.34464 4.39054 8.31945 4.45237 8.30113 4.5142C8.23243 4.74321 8.2622 4.93786 8.3103 4.98596C8.32404 4.9997 8.64006 5.09588 8.85991 5.19435C8.96297 5.24015 9.03625 5.27451 9.09579 5.31344H14.6698V0.0371094L14.6653 0.0394017Z" fill="#E10814"/>
<path d="M9.3273 1.96344C9.36624 1.9726 9.42807 1.9726 9.42807 1.99321C9.40746 2.07336 9.28837 2.09397 9.22883 2.17184H9.19906C9.16929 2.19245 9.17845 2.24053 9.14868 2.24053C9.11891 2.23137 9.08913 2.24054 9.05936 2.2497C9.09829 2.28863 9.14867 2.31839 9.20822 2.30923C9.21738 2.30923 9.23799 2.32985 9.23799 2.34817C9.23799 2.34817 9.24715 2.34817 9.2586 2.33901C9.26776 2.33901 9.27921 2.33901 9.27921 2.34817V2.3871C9.24944 2.42603 9.19906 2.40771 9.16013 2.41687C9.24028 2.43748 9.32043 2.43748 9.38913 2.41687C9.44868 2.39626 9.38914 2.29779 9.42807 2.2474C9.40746 2.2474 9.42806 2.21763 9.40745 2.21763C9.42806 2.19702 9.44638 2.16726 9.467 2.1581C9.48761 2.1581 9.51738 2.14893 9.52654 2.12832C9.52654 2.10771 9.48761 2.09855 9.49677 2.07794C9.55631 2.03901 9.60669 1.97718 9.58608 1.91763C9.57692 1.88786 9.49677 1.88786 9.44639 1.86725C9.396 1.84664 9.33646 1.86725 9.27692 1.87641C9.22654 1.87641 9.17615 1.90618 9.12806 1.91534C9.05936 1.93595 8.99753 1.97488 8.93799 2.0161C9.00669 1.98633 9.07768 1.97718 9.15783 1.95657C9.21738 1.95657 9.26776 1.94283 9.3273 1.95657V1.96344Z" fill="#9D9D9C"/>
</g>
<defs>
<clipPath id="clip0_6159_49020">
<rect width="180" height="30" fill="white"/>
</clipPath>
</defs>
</svg>
