<?xml version="1.0" encoding="UTF-8"?>
<svg width="68px" height="51px" viewBox="0 0 68 51" version="1.1" xmlns="http://www.w3.org/2000/svg" xmlns:xlink="http://www.w3.org/1999/xlink">
    <title>183-Site Police nationale</title>
    <g id="0_Recherche" stroke="none" stroke-width="1" fill="none" fill-rule="evenodd">
        <g id="[RWD]/Locataire/MonCompte/Validé_MonCommisseriat/v0.3bis" transform="translate(-1204.000000, -531.000000)" fill-rule="nonzero">
            <g id="Group-5" transform="translate(893.000000, 531.000000)">
                <g id="183-Site-Police-nationale" transform="translate(311.000000, 0.000000)">
                    <path d="M41.8005618,25.4146921 C41.1305533,27.6421106 40.2637592,29.773043 39.195494,31.6568765 C37.8332215,34.0584407 36.2823628,36.182313 34.2969356,38.0885031 C33.6913511,43.0045912 31.6075311,47.4570749 28.5128419,51 C35.7095759,47.5853308 41.6810846,42.0091362 45.6367113,35.1174352 L45.6472536,35.1174352 C45.6788796,35.0609555 45.7069919,35.0009457 45.7397895,34.9432894 C46.0162265,34.4549752 46.2762649,33.9548946 46.5327892,33.4524604 C46.6710076,33.1818286 46.8115688,32.91355 46.9427593,32.6393882 C47.1781992,32.1522505 47.3984118,31.6568765 47.613939,31.1579724 C47.7474723,30.8496872 47.8786627,30.5402257 48.0039966,30.2284104 C48.1960969,29.7483329 48.3788264,29.2647256 48.5533565,28.7752348 C48.6786904,28.4234132 48.796996,28.066885 48.9129591,27.7091801 C49.062891,27.2443991 49.2093089,26.777265 49.3428419,26.3042476 C49.4260073,26.0100823 49.4986308,25.7123872 49.5735967,25.4146921 L41.8005618,25.4146921" id="Path" fill="#ED1C24"></path>
                    <path d="M39.68043,25.4146921 C38.9998795,27.5821008 38.1049732,29.6812633 36.9839976,31.6568765 C33.7136067,37.42369 28.6698018,42.1444523 22.6865795,44.9837342 C31.5794188,41.5890685 35.9239315,37.42369 39.195494,31.6568765 C40.2637592,29.773043 41.1305533,27.6421106 41.8005618,25.4146921 L39.68043,25.4146921" id="Path" fill="#D7D9DA"></path>
                    <path d="M31.9542487,25.4146921 C31.9202799,25.5029415 31.8886535,25.5923677 31.8535134,25.6806173 C31.7668338,25.8959463 31.6766404,26.1089217 31.5852755,26.3218972 C31.4365151,26.6654821 31.2842403,27.0055373 31.1225951,27.342062 C31.0312301,27.5303277 30.9351801,27.7162403 30.8403011,27.9021525 C30.6634284,28.2480908 30.4842127,28.5916757 30.2932839,28.9293771 C30.2710283,28.9682071 30.2522868,29.00939 30.2300312,29.0493966 L30.2218317,29.0493966 C29.4569445,30.382553 28.5784371,31.64158 27.6050507,32.8194172 C27.3414985,37.3036707 25.6571065,41.5831852 22.6865795,44.9837342 C28.6698018,42.1444523 33.7136067,37.42369 36.9839976,31.6568765 C38.1049732,29.6812633 38.9998795,27.5821008 39.68043,25.4146921 L31.9542487,25.4146921" id="Path" fill="#FFFFFF"></path>
                    <path d="M22.5401617,25.4146921 L22.5401617,29.0493966 C22.5401617,33.2441916 20.9799322,37.0659852 18.4264036,39.9911635 C23.3847002,37.6378423 27.4984583,33.7960453 30.2218317,29.0493966 L30.2300312,29.0493966 C30.2522868,29.00939 30.2710283,28.9682071 30.2932839,28.9293771 C30.4842127,28.5916757 30.6634284,28.2480908 30.8403011,27.9021525 C30.9351801,27.7162403 31.0312301,27.5303277 31.1225951,27.342062 C31.2842403,27.0055373 31.4365151,26.6654821 31.5852755,26.3218972 C31.6766404,26.1089217 31.7668338,25.8959463 31.8535134,25.6806173 C31.8886535,25.5923677 31.9202799,25.5029415 31.9542487,25.4146921 L22.5401617,25.4146921" id="Path" fill="#064694"></path>
                    <path d="M3.73307158,4.99139407 L6.94372385,4.99139407 C7.42866018,4.99139407 7.78943395,4.88078812 8.02487391,4.65957593 C8.26031386,4.43718716 8.37861947,4.07124564 8.37861947,3.55939821 C8.36222081,2.66278299 7.88431269,2.21447508 6.94372385,2.21447508 L3.73424285,2.21447508 L3.73307158,4.99139407 Z M0,10.9288236 L0,0.117666059 L7.28458486,0.117666059 C9.02988642,0.117666059 10.2902519,0.417714585 11.0645102,1.01781133 C11.7778583,1.56966508 12.1339467,2.40627083 12.1339467,3.52998177 C12.1339467,4.16890854 12.0250118,4.72311546 11.8047992,5.19142652 C11.5845867,5.6585607 11.3186916,6.01508893 11.0071141,6.26218751 C10.6955369,6.5081098 10.3054796,6.69990525 9.8357707,6.83757476 C9.22784368,7.00466041 8.56017778,7.08820339 7.83160232,7.08820339 C7.29981225,7.08820339 6.49978461,7.04466702 5.42917687,6.9564174 C4.35974039,6.8669912 3.79398144,6.81286466 3.73307158,6.79286151 L3.73307158,10.9288236 L0,10.9288236" id="Shape" fill="#231F20"></path>
                    <path d="M17.2866865,3.0863808 C17.1566673,3.33230279 17.0547603,3.6582377 16.9786231,4.06183235 C16.9024858,4.46542701 16.8650028,4.92079443 16.8650028,5.42793522 C16.8650028,5.93507601 16.8767161,6.32925739 16.8989717,6.60930246 C16.9223986,6.88934783 16.9598816,7.14821316 17.0137632,7.38472186 C17.0664739,7.62123056 17.1461253,7.81537948 17.2527173,7.96834551 C17.3581383,8.12013465 17.4834722,8.25427411 17.6275472,8.36723353 C17.7716225,8.48019294 17.9578662,8.56608909 18.1851067,8.62609886 C18.6255318,8.73435163 19.1795775,8.78730128 19.8472431,8.78730128 C20.514909,8.78730128 21.0314713,8.74611809 21.3957592,8.66257511 C21.7600468,8.57903243 22.0669389,8.41665312 22.3187778,8.17543777 C22.5682739,7.93422243 22.7392899,7.61181728 22.8306548,7.20704603 C22.9208482,6.80462826 22.967702,6.28219096 22.967702,5.6420876 C22.967702,5.00198424 22.9325618,4.48778334 22.8646237,4.09830891 C22.7955144,3.71001076 22.6971215,3.38642903 22.5682739,3.13109375 C22.439426,2.8745819 22.2449831,2.68513931 21.9872876,2.56276661 C21.729592,2.43921733 21.4496409,2.35567435 21.1450916,2.31213798 C20.8417136,2.26624814 20.4352576,2.24389182 19.9268944,2.24389182 C19.4185315,2.24389182 19.0202747,2.26271839 18.7321241,2.29566489 C18.4439738,2.33096455 18.1628514,2.40980089 17.8899281,2.53217359 C17.6158339,2.65572287 17.4143628,2.84045851 17.2866865,3.0863808 Z M13.2900627,7.51768443 C13.1846416,6.84816463 13.13076,6.18335147 13.13076,5.52442154 C13.13076,4.86431473 13.1916698,4.25598128 13.3134896,3.69942089 C13.4341377,3.14403709 13.5981258,2.67101939 13.803111,2.28154496 C14.0069249,1.89324681 14.2763337,1.56025179 14.6113381,1.28491336 C14.9451709,1.00957464 15.2860319,0.791892501 15.6362634,0.634220133 C15.9853238,0.476547463 16.40935,0.354174762 16.910685,0.265925143 C17.715398,0.117666059 18.5763355,0.0435363665 19.4946688,0.0435363665 C20.413002,0.0435363665 21.0958953,0.0588328789 21.5445196,0.0882496195 C21.9908017,0.117666059 22.4698811,0.177675824 22.978244,0.265925143 C23.4866072,0.354174762 23.9118049,0.476547463 24.2538372,0.634220133 C24.5946979,0.791892501 24.9320448,1.00957464 25.2658779,1.28491336 C25.5997107,1.56025179 25.8656057,1.89089364 26.0635627,2.27448484 C26.4875889,3.13109375 26.7007735,4.23833129 26.7007735,5.59737435 C26.7007735,7.242346 26.3435139,8.50725591 25.6313371,9.39328156 C25.2658779,9.86629897 24.6825487,10.2498905 23.8778357,10.5464089 C23.0578953,10.8405739 21.7366199,10.9888333 19.9163524,10.9888333 C18.0632869,10.9888333 16.7513823,10.8511638 15.9771244,10.5758254 C15.1419566,10.2898968 14.5504282,9.9204255 14.2013677,9.46741095 C13.701204,8.83789776 13.3966547,8.18720423 13.2900627,7.51768443" id="Shape" fill="#231F20"></path>
                    <path d="M27.8369765,8.74376491 L27.8369765,0.117666059 L31.5712194,0.117666059 L31.5712194,7.9612854 C31.5712194,8.33428703 31.7305221,8.56138245 32.0491275,8.64021878 C32.2763683,8.70022825 32.5879455,8.72964499 32.9815169,8.72964499 L38.240849,8.72964499 L38.240849,10.9300001 L31.4341723,10.9300001 C30.3565363,10.9300001 29.4873996,10.760561 28.8279332,10.4205062 C28.1661242,10.0804513 27.8369765,9.52153749 27.8369765,8.74376491" id="Path" fill="#231F20"></path>
                    <polyline id="Path" fill="#231F20" points="39.3208275 10.9300001 39.3208275 0.118842644 43.0550703 0.118842644 43.0550703 10.9300001 39.3208275 10.9300001"></polyline>
                    <path d="M44.08351,5.4950048 C44.08351,4.5889763 44.1713609,3.81355689 44.3458909,3.16874689 C44.520421,2.52393689 44.8191137,1.95443316 45.2454827,1.46258919 C46.0642518,0.487137333 47.5823129,0 49.7984947,0 C51.1490536,0 52.2302036,0.0376531389 53.0431158,0.111782831 C53.8548568,0.184735637 54.7392211,0.325934908 55.6950374,0.533027172 L55.6950374,2.42274423 C55.4830243,2.41333094 55.2850673,2.4003876 55.103509,2.38626768 C54.9207794,2.37097116 54.7122801,2.35685124 54.4780115,2.34155442 C54.2414002,2.3274345 53.9755052,2.30978481 53.6803267,2.28978136 C53.3839768,2.2697782 53.0841129,2.25565827 52.7807349,2.24624499 C52.0978416,2.21565197 51.5133415,2.20153204 51.0284051,2.20153204 C50.5422975,2.20153204 50.1932373,2.20741527 49.9812243,2.22388836 C49.7680396,2.23800829 49.5396276,2.26742503 49.2971597,2.31213798 C49.0546915,2.35567435 48.8649337,2.4250974 48.7278866,2.51923025 C48.5908395,2.61218651 48.4584778,2.73808927 48.3296299,2.89458505 C48.2007822,3.0534343 48.0988753,3.24875981 48.022738,3.48526852 C47.8856906,4.02770927 47.8177529,4.81489513 47.8177529,5.84917987 C47.8177529,6.8834643 48.0192239,7.63652707 48.4209948,8.10954478 C48.8227654,8.5813856 49.6309925,8.81789431 50.8456756,8.81789431 C52.2571443,8.81907119 53.6463578,8.78965445 55.0121441,8.73082157 L55.6950374,8.68493173 L55.6950374,10.577002 C54.4206157,10.8723438 52.6671147,11.0194263 50.4357055,11.0194263 C50.2225209,11.0194263 50.0105078,11.0194263 49.7984947,11.0194263 C47.7181888,10.9994232 46.2387819,10.5122856 45.3591029,9.55683716 C44.5087078,8.64139537 44.08351,7.28705895 44.08351,5.4950048" id="Path" fill="#231F20"></path>
                    <path d="M56.7305049,8.68493173 L56.7305049,2.48157711 C56.7305049,1.41905252 57.3454602,0.709526411 58.5741997,0.355351347 C59.1516719,0.197678979 59.8333936,0.118842644 60.6228792,0.118842644 C64.220075,0.157672368 66.6798962,0.236508703 68,0.355351347 L68,2.37920756 L61.6478048,2.37920756 C61.0867312,2.37920756 60.7376707,2.46745718 60.6006236,2.645133 C60.509259,2.78280222 60.4635765,2.96989133 60.4635765,3.20640003 L60.4635765,4.43248052 L66.9305635,4.57956301 L66.9305635,6.58812272 L60.4635765,6.72108529 L60.4635765,7.94716547 C60.4635765,8.32134369 60.6228792,8.54843911 60.9426559,8.62727544 C61.1698967,8.68493173 61.4814739,8.71552506 61.8762166,8.71552506 L68,8.71552506 L68,10.7240845 C66.9071367,10.822924 64.7143818,10.9017603 61.420564,10.9605935 L60.8512913,10.9747134 C60.7294716,10.9747134 60.5853962,10.9747134 60.4190653,10.9747134 C60.2515634,10.9747134 60.0348647,10.9676533 59.7701412,10.9523568 C59.5042462,10.9382368 59.1704134,10.8864638 58.7674712,10.7982142 C58.3657004,10.7099645 58.0236681,10.5864152 57.7437169,10.4287429 C57.4625945,10.2710702 57.2236405,10.0427982 57.0268548,9.74274968 C56.8288978,9.44152457 56.7305049,9.08970298 56.7305049,8.68493173" id="Path" fill="#231F20"></path>
                    <polyline id="Path" fill="#231F20" points="0 19.4572595 0 13.9069516 0.865622869 13.9069516 4.2074656 18.1605794 4.2074656 13.9069516 5.05434697 13.9069516 5.05434697 19.4572595 4.2074656 19.4572595 0.855080853 15.2118681 0.855080853 19.4572595 0 19.4572595"></polyline>
                    <path d="M10.4284706,17.3333872 L12.4537233,17.3333872 L11.4592528,14.9082895 L10.4284706,17.3333872 Z M8.5964895,19.4572595 L11.0176564,13.9069516 L11.9113913,13.9069516 L14.2318228,19.4572595 L13.264293,19.4572595 L12.7114189,17.9934937 L10.1614043,17.9934937 L9.58158925,19.4572595 L8.5964895,19.4572595" id="Shape" fill="#231F20"></path>
                    <polyline id="Path" fill="#231F20" points="16.6518182 14.5823546 16.6518182 13.9069516 21.4109866 13.9069516 21.4109866 14.5823546 19.4325876 14.5823546 19.4325876 19.4572595 18.584535 19.4572595 18.584535 14.5823546 16.6518182 14.5823546"></polyline>
                    <polyline id="Path" fill="#231F20" points="24.9624999 19.4572595 24.9624999 13.9069516 25.8105525 13.9069516 25.8105525 19.4572595 24.9624999 19.4572595"></polyline>
                    <path d="M30.4420443,15.6742956 C30.4115895,15.8096117 30.3916768,15.9649309 30.382306,16.1402532 C30.3729353,16.314399 30.3682499,16.5214913 30.3682499,16.76153 C30.3682499,17.0015688 30.3776206,17.2192509 30.3963621,17.4134001 C30.4139321,17.6087256 30.4420443,17.7816948 30.4795273,17.933484 C30.515839,18.0852731 30.569721,18.2111759 30.6400016,18.3123688 C30.7102822,18.4135615 30.788762,18.4982811 30.8742702,18.5665275 C30.9609495,18.6335971 31.0710559,18.6865467 31.2057602,18.7218467 C31.4458858,18.7830331 31.7234942,18.8124495 32.0397567,18.8124495 C32.3560196,18.8124495 32.5949737,18.8030362 32.7577905,18.7830331 C32.920607,18.761853 33.0717105,18.7230233 33.213443,18.665367 C33.3551755,18.6065338 33.4687957,18.530051 33.554304,18.4335646 C33.639812,18.3382552 33.7136067,18.2111759 33.7756878,18.0546801 C33.885794,17.771105 33.9408472,17.3275037 33.9408472,16.7203468 C33.9408472,16.2708626 33.9209344,15.9508109 33.8811086,15.7613687 C33.8412831,15.5707495 33.8073142,15.423667 33.7803732,15.3177674 C33.752261,15.2118681 33.7112639,15.1189118 33.6550394,15.0412524 C33.5999862,14.9624161 33.5484471,14.8953465 33.4992508,14.8400434 C33.4500542,14.7835636 33.3821165,14.7376738 33.2966085,14.7000207 C33.2099289,14.6611909 33.1349629,14.6329511 33.070539,14.6129479 C33.0072866,14.5929445 32.9159216,14.577648 32.7999588,14.5670581 C32.6266,14.5517616 32.4426989,14.5435249 32.2470847,14.5435249 C32.0502991,14.5435249 31.9109091,14.5458781 31.8277436,14.5470549 C31.7445782,14.5505847 31.6450141,14.5564682 31.529051,14.5670581 C31.4119167,14.577648 31.3217233,14.5929445 31.2572993,14.6129479 C31.1928757,14.6329511 31.1167381,14.6600144 31.0312301,14.695314 C30.9457221,14.730614 30.8777841,14.7765035 30.8285878,14.8318067 C30.7793912,14.8882864 30.7255096,14.9553559 30.6681138,15.0330157 C30.6095465,15.111852 30.5650356,15.2036314 30.5345805,15.309531 C30.5029542,15.4166069 30.4724994,15.537803 30.4420443,15.6742956 Z M29.5213685,16.6062108 C29.5213685,16.1767298 29.5658794,15.783725 29.6549015,15.4271971 C29.7439236,15.0706688 29.8575442,14.7929769 29.9957625,14.5941214 C30.1339812,14.3940889 30.32491,14.2387697 30.5708922,14.1269869 C30.8168742,14.0163809 31.054657,13.9446047 31.2842403,13.915188 C31.5149949,13.884595 31.7820612,13.8692984 32.0854392,13.8692984 C32.3899885,13.8692984 32.6324567,13.8763583 32.814015,13.8916548 C32.9944017,13.9069516 33.1818167,13.9375446 33.3750882,13.9822579 C33.5683601,14.0293243 33.7300054,14.0916872 33.8623671,14.1728767 C33.9947291,14.2540662 34.1235768,14.3646725 34.2500819,14.5058717 C34.3754157,14.6482476 34.4749798,14.8176867 34.5487745,15.0141891 C34.7080772,15.45426 34.7888998,16.0225872 34.7888998,16.7203468 C34.7888998,17.5393026 34.6811362,18.1405762 34.4656091,18.5241677 C34.3613596,18.7265534 34.2395398,18.8924624 34.1024927,19.0218949 C33.9642741,19.1501512 33.7874011,19.2478138 33.5730455,19.3137068 C33.2099289,19.4290197 32.7413915,19.4866759 32.1639193,19.4866759 C31.3228946,19.4866759 30.7430798,19.389013 30.4233028,19.1925109 C30.0976695,18.994832 29.8739428,18.7218467 29.7521231,18.3723783 C29.598677,17.9487805 29.5213685,17.3592736 29.5213685,16.6062108" id="Shape" fill="#231F20"></path>
                    <polyline id="Path" fill="#231F20" points="38.4891738 19.4572595 38.4891738 13.9069516 39.3547967 13.9069516 42.6978107 18.1605794 42.6978107 13.9069516 43.5435208 13.9069516 43.5435208 19.4572595 42.6978107 19.4572595 39.3454259 15.2118681 39.3454259 19.4572595 38.4891738 19.4572595"></polyline>
                    <path d="M48.9188157,17.3333872 L50.9452397,17.3333872 L49.9495979,14.9082895 L48.9188157,17.3333872 Z M47.0868346,19.4572595 L49.5080015,13.9069516 L50.4017363,13.9069516 L52.7209963,19.4572595 L51.7546381,19.4572595 L51.201764,17.9934937 L48.6517494,17.9934937 L48.0719343,19.4572595 L47.0868346,19.4572595" id="Shape" fill="#231F20"></path>
                    <path d="M56.1483473,18.4712178 L56.1483473,13.9069516 L56.9952287,13.9069516 L56.9952287,18.3876751 C56.9952287,18.5806474 57.0596524,18.69596 57.1896716,18.7371432 C57.2810365,18.7677362 57.40637,18.7830331 57.5668443,18.7830331 L60.2457065,18.7830331 L60.2457065,19.4572595 L57.4368251,19.4572595 C56.8113276,19.4572595 56.4154136,19.2984103 56.2490827,18.9795352 C56.1823162,18.8430425 56.1483473,18.6736034 56.1483473,18.4712178" id="Path" fill="#231F20"></path>
                    <path d="M65.0072178,13.9069516 C65.0259593,13.9069516 65.5026958,13.9257782 66.4350852,13.9610778 C67.3674745,13.9963778 67.8898939,14.0187341 68,14.0293243 L68,14.5894147 L65.1548069,14.5894147 C64.9287377,14.5894147 64.7870052,14.6353043 64.731952,14.7259074 C64.694469,14.796507 64.6768988,14.892993 64.6768988,15.0141891 L64.6768988,16.3485221 L67.6134568,16.4320651 L67.6134568,16.9933321 L64.6768988,17.0686384 L64.6768988,18.4041482 C64.6827554,18.5947674 64.7471794,18.7112565 64.8701704,18.7512632 C64.9673919,18.7830331 65.093897,18.797153 65.2473431,18.797153 L68,18.797153 L68,19.3513599 L65.1641776,19.4796161 C65.1149814,19.4796161 65.0657848,19.4796161 65.0177598,19.4796161 C64.2259316,19.4796161 63.8288461,19.1466211 63.8288461,18.4794545 L63.8288461,14.9388828 C63.8288461,14.5647046 63.9436379,14.2987795 64.1743925,14.1422837 C64.4051471,13.9857876 64.6827554,13.9069516 65.0072178,13.9069516" id="Path" fill="#231F20"></path>
                </g>
            </g>
        </g>
    </g>
</svg>