<?xml version="1.0" encoding="utf-8"?>
<!-- Generator: Adobe Illustrator 16.0.0, SVG Export Plug-In . SVG Version: 6.00 Build 0)  -->
<!DOCTYPE svg PUBLIC "-//W3C//DTD SVG 1.1//EN" "http://www.w3.org/Graphics/SVG/1.1/DTD/svg11.dtd">
<svg version="1.1" id="Layer_1" xmlns="http://www.w3.org/2000/svg" xmlns:xlink="http://www.w3.org/1999/xlink" x="0px" y="0px"
	 width="138.452px" height="45.188px" viewBox="0 0 138.452 45.188" enable-background="new 0 0 138.452 45.188"
	 xml:space="preserve">
<g>
	<defs>
		<rect id="SVGID_1_" width="138.452" height="45.188"/>
	</defs>
	<clipPath id="SVGID_2_">
		<use xlink:href="#SVGID_1_"  overflow="visible"/>
	</clipPath>
	<path clip-path="url(#SVGID_2_)" fill="#183B68" d="M5.336,39.452v0.517c-0.739-0.394-1.46-0.589-2.167-0.589
		c-0.759,0-1.387,0.256-1.899,0.771c-0.508,0.517-0.759,1.156-0.759,1.929c0,0.777,0.251,1.42,0.764,1.923
		C1.793,44.5,2.439,44.75,3.236,44.75c0.657,0,1.379-0.204,2.167-0.622v0.491c-0.725,0.378-1.446,0.568-2.155,0.568
		c-0.93,0-1.706-0.299-2.317-0.888C0.307,43.703,0,42.966,0,42.079c0-0.895,0.313-1.644,0.951-2.236
		c0.623-0.601,1.376-0.9,2.247-0.9C3.884,38.942,4.594,39.112,5.336,39.452"/>
	<path clip-path="url(#SVGID_2_)" fill="#183B68" d="M9.268,38.942c0.901,0,1.668,0.304,2.288,0.911
		c0.627,0.606,0.94,1.344,0.94,2.214s-0.313,1.606-0.94,2.213c-0.62,0.609-1.387,0.907-2.288,0.907
		c-0.891,0-1.656-0.298-2.275-0.907c-0.626-0.606-0.933-1.343-0.933-2.213s0.307-1.607,0.933-2.214
		C7.611,39.246,8.376,38.942,9.268,38.942 M9.289,44.75c0.756,0,1.396-0.257,1.919-0.774c0.519-0.518,0.774-1.154,0.774-1.908
		c0-0.755-0.255-1.391-0.774-1.911c-0.523-0.514-1.163-0.776-1.919-0.776c-0.768,0-1.402,0.263-1.931,0.776
		c-0.531,0.521-0.794,1.156-0.794,1.911c0,0.754,0.263,1.391,0.794,1.908C7.887,44.493,8.521,44.75,9.289,44.75"/>
	<polygon clip-path="url(#SVGID_2_)" fill="#183B68" points="19.129,39.023 19.129,45.108 18.745,45.108 14.12,39.789 14.12,45.108 
		13.645,45.108 13.645,39.023 14.049,39.023 18.663,44.341 18.663,39.023 	"/>
	<polygon clip-path="url(#SVGID_2_)" fill="#183B68" points="26.014,39.023 26.014,45.108 25.631,45.108 20.998,39.789 
		20.998,45.108 20.531,45.108 20.531,39.023 20.928,39.023 25.547,44.341 25.547,39.023 	"/>
	<polygon clip-path="url(#SVGID_2_)" fill="#183B68" points="30.746,39.023 30.746,39.411 27.899,39.411 27.899,41.848 
		30.67,41.848 30.67,42.245 27.899,42.245 27.899,44.714 30.813,44.714 30.813,45.108 27.425,45.108 27.425,39.023 	"/>
	<path clip-path="url(#SVGID_2_)" fill="#183B68" d="M36.857,39.452v0.517c-0.733-0.394-1.46-0.589-2.167-0.589
		c-0.756,0-1.384,0.256-1.896,0.771c-0.508,0.517-0.768,1.156-0.768,1.929c0,0.777,0.26,1.42,0.777,1.923
		c0.506,0.498,1.16,0.748,1.954,0.748c0.658,0,1.382-0.204,2.164-0.622v0.491c-0.721,0.378-1.437,0.568-2.161,0.568
		c-0.924,0-1.689-0.299-2.317-0.888c-0.616-0.597-0.924-1.333-0.924-2.221c0-0.895,0.322-1.644,0.95-2.236
		c0.623-0.601,1.379-0.9,2.25-0.9C35.403,38.942,36.118,39.112,36.857,39.452"/>
	<polygon clip-path="url(#SVGID_2_)" fill="#183B68" points="42.2,39.023 42.2,39.411 39.921,39.411 39.921,45.108 39.446,45.108 
		39.446,39.411 37.161,39.411 37.161,39.023 	"/>
	<polygon clip-path="url(#SVGID_2_)" fill="#183B68" points="46.275,39.023 46.275,39.411 43.424,39.411 43.424,41.848 
		46.205,41.848 46.205,42.245 43.424,42.245 43.424,44.714 46.345,44.714 46.345,45.108 42.956,45.108 42.956,39.023 	"/>
	<polygon clip-path="url(#SVGID_2_)" fill="#183B68" points="53.125,39.023 53.125,39.411 50.279,39.411 50.279,41.848 
		53.055,41.848 53.055,42.245 50.279,42.245 50.279,44.714 53.201,44.714 53.201,45.108 49.814,45.108 49.814,39.023 	"/>
	<polygon clip-path="url(#SVGID_2_)" fill="#183B68" points="56.951,41.849 59.27,39.023 59.744,39.023 59.744,45.108 59.27,45.108 
		59.27,39.71 56.951,42.552 54.63,39.71 54.63,45.108 54.161,45.108 54.161,39.023 54.63,39.023 	"/>
	<path clip-path="url(#SVGID_2_)" fill="#183B68" d="M61.138,39.022h1.674c0.642,0,1.141,0.145,1.477,0.43s0.506,0.681,0.506,1.18
		c0,0.503-0.17,0.899-0.506,1.193c-0.348,0.294-0.852,0.439-1.521,0.439h-1.161v2.843h-0.469V39.022z M61.607,39.411v2.464h1.132
		c0.507,0,0.892-0.111,1.159-0.326c0.263-0.212,0.397-0.52,0.397-0.91c0-0.375-0.134-0.674-0.392-0.894
		c-0.254-0.222-0.628-0.334-1.106-0.334H61.607z"/>
	<polygon clip-path="url(#SVGID_2_)" fill="#183B68" points="66.159,39.023 66.159,44.714 69.175,44.714 69.175,45.108 65.7,45.108 
		65.7,39.023 	"/>
	<path clip-path="url(#SVGID_2_)" fill="#183B68" d="M72.836,38.942c0.906,0,1.668,0.304,2.29,0.911
		c0.632,0.606,0.94,1.344,0.94,2.214s-0.309,1.606-0.94,2.213c-0.622,0.609-1.384,0.907-2.29,0.907
		c-0.894,0-1.651-0.298-2.278-0.907c-0.616-0.606-0.932-1.343-0.932-2.213s0.315-1.607,0.932-2.214
		C71.185,39.246,71.942,38.942,72.836,38.942 M72.861,44.75c0.753,0,1.394-0.257,1.914-0.774c0.522-0.518,0.785-1.154,0.785-1.908
		c0-0.755-0.263-1.391-0.785-1.911c-0.521-0.514-1.161-0.776-1.914-0.776c-0.762,0-1.41,0.263-1.933,0.776
		c-0.529,0.521-0.792,1.156-0.792,1.911c0,0.754,0.263,1.391,0.792,1.908C71.451,44.493,72.1,44.75,72.861,44.75"/>
	<rect x="77.223" y="39.023" clip-path="url(#SVGID_2_)" fill="#183B68" width="0.466" height="6.085"/>
	<polygon clip-path="url(#SVGID_2_)" fill="#183B68" points="84.889,39.023 84.889,39.411 82.046,39.411 82.046,41.848 
		84.815,41.848 84.815,42.245 82.046,42.245 82.046,44.714 84.962,44.714 84.962,45.108 81.569,45.108 81.569,39.023 	"/>
	<polygon clip-path="url(#SVGID_2_)" fill="#183B68" points="90.313,39.023 90.313,39.411 88.025,39.411 88.025,45.108 
		87.556,45.108 87.556,39.411 85.265,39.411 85.265,39.023 	"/>
	<polygon clip-path="url(#SVGID_2_)" fill="#183B68" points="94.005,39.023 94.005,44.714 97.019,44.714 97.019,45.108 
		93.534,45.108 93.534,39.023 	"/>
	<path clip-path="url(#SVGID_2_)" fill="#183B68" d="M100.687,38.942c0.898,0,1.66,0.304,2.286,0.911
		c0.619,0.606,0.938,1.344,0.938,2.214s-0.319,1.606-0.938,2.213c-0.626,0.609-1.388,0.907-2.286,0.907
		c-0.906,0-1.661-0.298-2.284-0.907c-0.623-0.606-0.937-1.343-0.937-2.213s0.313-1.607,0.937-2.214
		C99.025,39.246,99.78,38.942,100.687,38.942 M100.705,44.75c0.752,0,1.389-0.257,1.911-0.774c0.526-0.518,0.782-1.154,0.782-1.908
		c0-0.755-0.256-1.391-0.782-1.911c-0.522-0.514-1.159-0.776-1.911-0.776c-0.759,0-1.411,0.263-1.933,0.776
		c-0.529,0.521-0.792,1.156-0.792,1.911c0,0.754,0.263,1.391,0.792,1.908C99.294,44.493,99.946,44.75,100.705,44.75"/>
	<path clip-path="url(#SVGID_2_)" fill="#183B68" d="M110.167,39.461v0.53c-0.725-0.406-1.446-0.612-2.155-0.612
		c-0.779,0-1.42,0.256-1.923,0.764c-0.519,0.517-0.773,1.153-0.773,1.924c0,0.77,0.255,1.411,0.762,1.921
		c0.504,0.507,1.189,0.761,2.065,0.761c0.616,0,1.181-0.118,1.659-0.369v-1.647h-1.279v-0.389h1.753v2.335
		c-0.709,0.339-1.436,0.51-2.153,0.51c-0.944,0-1.738-0.299-2.366-0.898c-0.634-0.6-0.951-1.345-0.951-2.24
		c0-0.889,0.317-1.628,0.934-2.221c0.617-0.588,1.399-0.887,2.335-0.887C108.709,38.942,109.414,39.112,110.167,39.461"/>
	<polygon clip-path="url(#SVGID_2_)" fill="#183B68" points="114.812,39.023 114.812,39.411 111.964,39.411 111.964,41.848 
		114.742,41.848 114.742,42.245 111.964,42.245 111.964,44.714 114.882,44.714 114.882,45.108 111.496,45.108 111.496,39.023 	"/>
	<polygon clip-path="url(#SVGID_2_)" fill="#183B68" points="118.641,41.849 120.951,39.023 121.43,39.023 121.43,45.108 
		120.953,45.108 120.953,39.71 118.638,42.552 116.321,39.71 116.321,45.108 115.843,45.108 115.843,39.023 116.321,39.023 	"/>
	<polygon clip-path="url(#SVGID_2_)" fill="#183B68" points="126.156,39.023 126.156,39.411 123.312,39.411 123.312,41.848 
		126.087,41.848 126.087,42.245 123.312,42.245 123.312,44.714 126.228,44.714 126.228,45.108 122.836,45.108 122.836,39.023 	"/>
	<polygon clip-path="url(#SVGID_2_)" fill="#183B68" points="132.686,39.023 132.686,45.108 132.302,45.108 127.664,39.789 
		127.664,45.108 127.193,45.108 127.193,39.023 127.592,39.023 132.215,44.341 132.215,39.023 	"/>
	<polygon clip-path="url(#SVGID_2_)" fill="#183B68" points="138.452,39.023 138.452,39.411 136.168,39.411 136.168,45.108 
		135.702,45.108 135.702,39.411 133.416,39.411 133.416,39.023 	"/>
	<rect y="31.842" clip-path="url(#SVGID_2_)" fill="#183B68" width="138.452" height="0.448"/>
	<polygon clip-path="url(#SVGID_2_)" fill="#183B68" points="17.928,6.58 21.513,6.58 13.684,25.551 10.775,25.551 2.946,6.58 
		6.604,6.58 12.282,21.059 	"/>
	<rect x="24.934" y="6.58" clip-path="url(#SVGID_2_)" fill="#183B68" width="3.307" height="18.834"/>
	<path clip-path="url(#SVGID_2_)" fill="#183B68" d="M40.541,14.493c3.985,0.97,6.056,2.394,6.056,5.545
		c0,3.547-2.775,5.646-6.728,5.646c-2.879,0-5.601-0.995-7.863-3.013l1.998-2.366c1.802,1.56,3.604,2.449,5.95,2.449
		c2.045,0,3.33-0.944,3.33-2.396c0-1.373-0.753-2.099-4.252-2.908c-4.008-0.967-6.264-2.149-6.264-5.645
		c0-3.286,2.688-5.495,6.429-5.495c2.74,0,4.923,0.836,6.836,2.372l-1.779,2.502c-1.694-1.269-3.391-1.937-5.109-1.937
		c-1.943,0-3.073,0.995-3.073,2.259C36.071,12.987,36.936,13.629,40.541,14.493"/>
	<path clip-path="url(#SVGID_2_)" fill="#183B68" d="M68.123,25.416h-3.498l-1.914-4.55h-8.9l-1.94,4.55h-3.393l8.287-18.967h3.069
		L68.123,25.416z M58.248,10.403l-3.23,7.534h6.484L58.248,10.403z"/>
	<polygon clip-path="url(#SVGID_2_)" fill="#183B68" points="71.352,6.58 74.668,6.58 74.668,22.404 84.567,22.404 84.567,25.416 
		71.352,25.416 	"/>
	<polygon clip-path="url(#SVGID_2_)" fill="#183B68" points="101.981,9.538 91.324,9.538 91.324,14.437 100.768,14.437 
		100.768,17.399 91.324,17.399 91.324,22.453 102.111,22.453 102.111,25.416 88.014,25.416 88.014,6.58 101.981,6.58 	"/>
	<rect x="105.46" y="21.732" clip-path="url(#SVGID_2_)" fill="#183B68" width="3.57" height="3.684"/>
	<path clip-path="url(#SVGID_2_)" fill="#E4104D" d="M121.887,7.953h-4.857c-0.277,0-0.521,0.104-0.723,0.304
		c-0.195,0.2-0.295,0.44-0.295,0.716v8.38c0,0.28,0.1,0.522,0.295,0.721c0.202,0.2,0.445,0.298,0.723,0.298
		c0.276,0,0.517-0.098,0.713-0.298c0.197-0.199,0.297-0.441,0.297-0.721v-2.825h2.704c0.275,0,0.518-0.105,0.721-0.301
		c0.188-0.197,0.284-0.437,0.284-0.718c0-0.284-0.096-0.525-0.284-0.719c-0.194-0.196-0.442-0.293-0.721-0.293h-2.704V9.984h3.848
		c0.28,0,0.52-0.098,0.725-0.298c0.197-0.199,0.298-0.439,0.298-0.713c0-0.276-0.101-0.522-0.298-0.716
		C122.415,8.057,122.167,7.953,121.887,7.953"/>
	<path clip-path="url(#SVGID_2_)" fill="#E4104D" d="M129.438,14.608c0.572-0.269,1.048-0.68,1.413-1.22
		c0.386-0.578,0.585-1.23,0.585-1.939c0-0.954-0.34-1.779-1.011-2.461c-0.678-0.68-1.507-1.028-2.456-1.035h-2.928
		c-0.289,0-0.529,0.098-0.725,0.293c-0.196,0.197-0.305,0.442-0.305,0.721v8.386c0,0.28,0.108,0.522,0.305,0.721
		c0.205,0.2,0.444,0.298,0.725,0.298c0.266,0,0.506-0.098,0.71-0.298c0.196-0.199,0.295-0.441,0.295-0.721v-2.406h1.091l2.293,3.024
		l0.039,0.051c0.133,0.176,0.237,0.317,0.501,0.35c0.049,0.008,0.096,0.013,0.148,0.013c0.26,0,0.549-0.084,0.732-0.22
		c0.22-0.159,0.351-0.388,0.386-0.668c0.045-0.281-0.023-0.536-0.195-0.75L129.438,14.608z M129.408,11.449
		c0,0.4-0.14,0.739-0.421,1.03c-0.292,0.285-0.628,0.429-1.03,0.436h-1.911V9.984h1.911c0.405,0.007,0.738,0.148,1.022,0.434
		C129.269,10.712,129.408,11.049,129.408,11.449"/>
	<path clip-path="url(#SVGID_2_)" fill="#E4104D" d="M130.357,17.245c0.085-0.347,0.198-1.146,0.198-1.146l3.791-0.015
		c0.634,0,1.146,0.515,1.146,1.152v2.355c0,0.416-0.217,0.796-0.576,1.001l-10.641,6.123c-0.342,0.2-0.802,0.2-1.148,0l-10.65-6.179
		c0,0-0.234-0.145-0.345-0.328c-0.128-0.21-0.196-0.552-0.196-0.815V7.291c0-0.413,0.223-0.797,0.585-1.003l10.622-6.141
		C123.323,0.046,123.522,0,123.727,0c0.196,0,0.394,0.046,0.568,0.147l10.64,6.141c0.263,0.154,0.456,0.403,0.529,0.702
		c0.087,0.301,0.046,0.609-0.107,0.875c-0.159,0.272-0.404,0.461-0.7,0.541c-0.305,0.082-0.615,0.039-0.884-0.117l-9.997-5.776
		l-0.049-0.029L114.3,7.93l-0.059,0.03v10.942l9.418,5.449l0.047,0.03l9.43-5.429l0.052-0.024v-0.536l-3.151-0.003L130.357,17.245z"
		/>
</g>
</svg>
