<?xml version="1.0" encoding="utf-8"?>
<!-- Generator: Adobe Illustrator 22.0.1, SVG Export Plug-In . SVG Version: 6.00 Build 0)  -->
<svg version="1.1"
	 id="svg2" inkscape:version="0.48.1 " sodipodi:docname="Aa.svg" xmlns:cc="http://creativecommons.org/ns#" xmlns:dc="http://purl.org/dc/elements/1.1/" xmlns:inkscape="http://www.inkscape.org/namespaces/inkscape" xmlns:rdf="http://www.w3.org/1999/02/22-rdf-syntax-ns#" xmlns:sodipodi="http://sodipodi.sourceforge.net/DTD/sodipodi-0.dtd" xmlns:svg="http://www.w3.org/2000/svg"
	 xmlns="http://www.w3.org/2000/svg" xmlns:xlink="http://www.w3.org/1999/xlink" x="0px" y="0px" viewBox="0 0 1594 361.9"
	 style="enable-background:new 0 0 1594 361.9;" xml:space="preserve">
<style type="text/css">
	.st0{fill:#FFFFFF;}
	.st1{fill:#E2011C;}
	.st2{fill:#003189;}
	.st3{fill:#7F7F7F;}
	.st4{fill:#333333;}
</style>
<sodipodi:namedview  bordercolor="#666666" borderopacity="1" fit-margin-bottom="0" fit-margin-left="0" fit-margin-right="0" fit-margin-top="0" gridtolerance="10" guidetolerance="10" id="namedview9" inkscape:current-layer="svg2" inkscape:cx="969.33049" inkscape:cy="459.95334" inkscape:pageopacity="0" inkscape:pageshadow="2" inkscape:window-height="1004" inkscape:window-maximized="1" inkscape:window-width="1280" inkscape:window-x="-8" inkscape:window-y="-8" inkscape:zoom="0.5" objecttolerance="10" pagecolor="#ffffff" showgrid="false">
	</sodipodi:namedview>
<g>
	<g>
		<rect id="rect6" x="28" y="21" class="st0" width="543.1" height="183.6"/>
		<path id="path8" inkscape:connector-curvature="0" d="M461.7,340.7c-0.3-0.1-0.3-0.4-0.1-1.2c0.3-0.9,0.5-1,1.7-0.8
			c1.1,0.1,1.4,0,1.9-0.6c0.9-1.3,0.2-2.2-1.4-1.9c-1.2,0.2-1.3,0.2-1-0.7c0.8-3,0.8-2.9-1.4-3.3c-2.7-0.5-5.3-2-7.3-4.3
			c-3-3.3-4-6.7-3.7-12c0.2-2.7,0.4-3.8,1.2-5.7c2.6-5.8,8.7-8.8,16.8-8.3c1.8,0.1,4,0.4,5,0.7l1.8,0.5l0.1,3.3l0.1,3.3h-1.1
			c-0.6,0-1.1-0.2-1.1-0.4c0-0.9-2.2-3-3.7-3.6c-2-0.8-5.8-0.6-7.7,0.3c-4.4,2.1-6.4,7.6-5.1,13.9c0.6,2.9,1.6,4.9,3.6,6.9
			c1.9,1.9,3.7,2.7,6.5,2.7c3,0,5-1.2,6.3-3.6c0.9-1.7,1.2-1.9,2.1-1.3c0.4,0.3,0.4,0.8,0,3.5l-0.5,3.2l-1.6,0.6
			c-0.9,0.3-2.9,0.7-4.5,0.8c-2.8,0.2-2.9,0.3-2.9,1c0,0.6,0.2,0.8,0.8,0.8c1.2,0,2.3,0.9,2.5,2.1c0.3,1.4-0.7,3.4-2,4.1
			C466.3,340.9,462.6,341.1,461.7,340.7L461.7,340.7z M251.6,339.2c-3.1-0.9-5.7-2.3-8.9-4.6l-2.7-2l-4.2-0.2
			c-4.7-0.2-6.3-0.8-9.4-3c-6.7-4.9-6.9-17.4-0.5-23.5c4.9-4.6,13.5-5.5,19.6-2.2c8.3,4.5,9.2,17.9,1.6,24.9c-1.2,1.1-2.3,2-2.6,2
			c-0.7,0,7.6,4.5,10,5.5c2.7,1,5.8,1.2,8.1,0.4c1.7-0.6,2-0.5,2.2,0.6c0.2,0.6-0.1,0.9-1.8,1.7C260.5,340,254.9,340.2,251.6,339.2
			L251.6,339.2z M241.2,328.3c5.9-3.1,7-13,2.2-19.3c-4.5-5.9-12.4-5-15.3,1.7c-2.7,6,0.4,15.4,5.8,17.9
			C236.2,329.6,239,329.5,241.2,328.3z M55.7,332c-1.6-0.7-3.4-2.9-6.2-7.7c-4.3-7.3-5.1-8.4-6.3-8.4h-1l0,4c0,7.3,0.7,9.7,3,10.3
			c0.6,0.2,0.8,0.5,0.8,1.1v0.9h-7.2h-7.2v-0.8c0-0.6,0.3-0.9,1.1-1.2c0.6-0.2,1.4-0.8,1.9-1.3c0.7-1,0.7-1.3,0.7-14.7
			c0-13.4,0-13.7-0.7-14.7c-0.4-0.5-1.2-1.1-1.9-1.3c-0.8-0.2-1.1-0.5-1.1-1.1c0-0.8,0-0.8,9-1c9.5-0.2,11.6-0.1,14.3,1.2
			c2.3,1.1,4.3,4.6,4.3,7.6c0,3.4-2.5,7.3-5.9,9l-1.8,0.9l3.9,5.8c4.6,6.9,6,8.7,7.4,9.4c1.3,0.7,1.4,2.1,0.2,2.4
			C61.4,332.6,56.8,332.5,55.7,332L55.7,332z M46.8,312.3c4.7-1.3,6.3-7.9,2.7-11.3c-1.7-1.6-3.5-2.2-5.8-1.9l-1.8,0.2v6.7v6.7
			l1.7,0C44.7,312.7,46.1,312.5,46.8,312.3L46.8,312.3z M128.2,332c-1.9-0.7-3.8-1.9-4.7-3.2c-1.8-2.3-1.9-3.5-2-12.9
			c0-9.8-0.2-10.9-2-11.7c-0.7-0.3-1.1-0.8-1.1-1.2c0-0.7,0.2-0.7,6-0.7c6,0,6,0,6,0.8c0,0.5-0.2,0.8-0.6,0.8c-0.4,0-1,0.4-1.5,0.9
			l-0.9,0.9v9.6c0,9,0,9.7,0.7,11c1.1,2.1,3.2,3.1,6,2.9c3-0.2,4.6-1.2,5.8-3.8c0.9-2,0.9-2.1,0.9-10.6c0-7.7-0.1-8.8-0.6-9.6
			c-0.3-0.5-1-1-1.5-1.2c-0.5-0.1-0.9-0.5-0.9-0.9c0-0.6,0.3-0.7,4.8-0.7s4.8,0,4.8,0.7c0,0.4-0.3,0.8-0.9,0.9
			c-1.6,0.4-1.8,1.2-1.9,11.4l-0.2,9.6l-1.1,2.1c-1.3,2.5-3.3,4.1-5.9,4.9C135.1,332.6,130,332.6,128.2,332L128.2,332z M265.9,332
			c-2-0.7-3.8-1.9-4.8-3.2c-1.7-2.2-1.9-3.8-1.9-13c0-9.6-0.2-10.7-2-11.5c-0.7-0.3-1.1-0.8-1.1-1.2c0-0.7,0.2-0.7,6-0.7
			c5.9,0,6,0,6,0.8c0,0.5-0.2,0.8-0.8,0.9c-0.4,0.1-1.1,0.6-1.5,1.1c-0.7,0.9-0.7,1.5-0.9,9.3c-0.1,9.5,0.1,11.5,1.7,13.2
			c2.9,3,9,2.1,10.7-1.5c1.1-2.3,1.4-5.1,1.2-12.6c-0.1-7.9-0.4-8.9-2.2-9.4c-0.5-0.1-0.9-0.5-0.9-0.9c0-0.6,0.3-0.7,4.8-0.7
			c4.4,0,4.8,0,4.8,0.7c0,0.4-0.4,0.8-1,1.1c-0.6,0.2-1.2,0.7-1.3,1c-0.1,0.3-0.4,4.9-0.5,10.1l-0.2,9.6L281,327
			c-1.3,2.5-3.3,4.1-5.9,4.9C272.8,332.6,267.7,332.6,265.9,332L265.9,332z M377.7,332c-1.4-0.6-3.1-2.7-5.7-7.1
			c-3.4-5.7-3.7-6.2-4.6-6.2c-0.8,0-0.8,0.1-0.8,4.4c0,5.3,0.4,6.8,2.1,7.1c0.8,0.2,1.1,0.4,1.1,1.1v0.8h-6h-6v-0.8
			c0-0.7,0.2-0.9,1.1-1.1c2-0.4,2.2-1.4,2-13.7l-0.1-10.9l-0.9-0.9c-0.5-0.5-1.1-0.9-1.5-0.9c-0.4,0-0.6-0.3-0.6-0.7
			c0-0.6,0.4-0.7,2.6-0.9c1.4-0.1,5.4-0.2,8.7-0.1c5.5,0.1,6.3,0.2,7.6,0.9c2.3,1.2,3.6,3.6,3.6,6.7c0,2.9-1.7,5.4-4.7,7.2
			c-1,0.5-1.6,1.1-1.4,1.2c0.2,0.1,1.8,2.3,3.5,4.9c3.3,5,5.2,7.3,6,7.3c0.7,0,0.6,1.6-0.1,1.9C382.7,332.6,378.8,332.5,377.7,332
			L377.7,332z M371.2,315.4c1.4-0.7,2.8-2.5,3-3.9c0.3-1.8-0.4-4.1-1.8-5.4c-1.2-1.2-2.5-1.5-4.5-1.3l-1.3,0.1v5.4v5.4h1.8
			C369.4,315.9,370.6,315.6,371.2,315.4L371.2,315.4z M528.3,331.9c-1.1-0.3-2-0.6-2.1-0.7c-0.1-0.1-0.3-1.7-0.6-3.5l-0.4-3.4h1
			c0.5,0,1,0.1,1,0.3c0,0.9,2.3,3.6,3.7,4.3c3.6,1.8,8,0.1,8-3c0-2.1-1-3.3-4.4-5.4c-4.8-3-6.6-4.6-7.6-6.5
			c-0.9-1.9-1.1-4.9-0.4-7.1c0.5-1.4,2.7-3.6,4.6-4.4c1.9-0.8,7.8-0.8,10.2,0l1.9,0.6v3.1v3.1h-1c-0.8,0-1.1-0.2-1.2-0.9
			c-0.4-1.5-2.3-3.3-3.8-3.7c-4.2-1.1-7.6,3.2-5,6.4c0.5,0.6,2.8,2.4,5.1,3.9c4.5,3,6.1,4.7,6.7,6.7c1.2,4.4-0.8,8.2-5.2,9.9
			C536.4,332.6,531.3,332.7,528.3,331.9L528.3,331.9z M65.7,331.2c0-0.6,0.2-0.8,0.9-0.8c0.5,0,1.2-0.4,1.6-0.9
			c0.7-0.9,0.7-1.3,0.7-12c0-7.8-0.1-11.3-0.4-11.9c-0.5-1-1.4-1.6-2.1-1.6c-0.4,0-0.6-0.3-0.6-0.9v-0.9h10.6h10.6v3.7v3.7l-0.9-0.1
			c-0.7-0.1-1-0.4-1.3-1.3c-0.7-2.1-1.9-2.6-6.1-2.8l-3.7-0.1v5v5l2.8-0.2c3.1-0.2,4.7-0.9,4.9-2.3c0.1-0.6,0.4-0.8,1.1-0.8l0.9,0
			v4.6v4.6l-1,0c-0.8,0-1-0.2-1-0.8c0-1.6-1.2-2.2-4.6-2.3l-3.1-0.1v5c0,6,0.1,6.1,4.1,6.1c4,0,6-1,7.1-3.4c0.5-1.2,1.7-1.6,2.1-0.6
			c0.2,0.6-0.7,4.8-1.5,6.2l-0.5,1L76,332.1L65.7,332V331.2L65.7,331.2z M92.9,331.3c0-0.6,0.2-0.9,1-1c1.9-0.4,2-0.9,2.1-12.2
			c0.1-11.8,0-12.9-2-13.8c-0.8-0.4-1.1-0.8-1.1-1.4l0-0.8l8,0.1c8.7,0.2,9.4,0.3,11.7,2.3c2.6,2.2,3.3,6.5,1.5,9.7
			c-1.5,2.8-4.2,4.3-8.4,4.7l-2.2,0.2l-0.5-1.4l-0.5-1.4l1.3-0.2c1.7-0.2,3.5-1.3,4.4-2.6c0.5-0.7,0.7-1.5,0.7-2.8
			c0-3.4-2-5.5-5.4-5.8l-1.9-0.2l0.1,11.8c0.1,12.9,0.2,13.2,2.1,13.6c0.7,0.1,1,0.4,1,1v0.8h-6h-6V331.3L92.9,331.3z M151.5,331.2
			c0-0.5,0.2-0.8,0.7-0.8c0.4,0,1-0.3,1.5-0.7l0.8-0.7l0.1-10.9c0.1-12.3,0-13.2-2-13.9c-0.6-0.2-1.1-0.7-1.1-1
			c0-0.6,0.5-0.6,5.4-0.7c10.3-0.2,12.5-0.1,14.1,0.8c2.2,1.1,3.2,2.6,3.4,5.1c0.1,1.1,0,2.4-0.1,2.9c-0.3,1.4-2,3.1-3.8,3.9
			l-1.7,0.8l1.4,0.4c3.4,1,5.6,4.6,5.1,8.4c-0.4,3.2-1.8,5-5,6.5c-1.7,0.8-2.1,0.8-10.3,0.8l-8.6,0L151.5,331.2L151.5,331.2z
			 M167.1,328.5c1.8-1.2,2.5-2.8,2.3-5.3c-0.3-3.7-2.9-5.9-7-5.9h-2.2l0.1,5.3c0.1,5.1,0.1,5.4,0.9,6
			C162.6,329.6,165.5,329.5,167.1,328.5L167.1,328.5z M165.7,313.8c2.2-0.8,3.3-2.5,3.1-4.6c-0.3-2.8-2.5-4.3-6.2-4.3h-2.1v4.8v4.8
			l1.9,0C163.2,314.4,164.8,314.2,165.7,313.8L165.7,313.8z M180.1,331.2c0-0.6,0.2-0.8,0.9-0.9c0.5-0.1,1.3-0.5,1.7-1.1
			c0.7-1,0.7-1.4,0.7-11.8c0-8.7-0.1-11-0.5-11.7c-0.6-1.1-1.4-1.7-2.2-1.8c-0.4,0-0.6-0.3-0.6-0.8c0-0.8,0-0.8,6.4-0.8
			c6.4,0,6.4,0,6.4,0.8c0,0.6-0.2,0.8-0.7,0.8c-0.4,0-1.1,0.4-1.7,0.9l-1,0.9l-0.1,11.1l-0.1,11.1l0.9,0.6c0.7,0.5,1.5,0.6,3.7,0.4
			c3.4-0.2,4.9-1,5.9-3.1c0.6-1.4,1.3-1.7,2.2-1.1c0.3,0.2,0.3,0.9-0.3,3.1c-0.4,1.5-1,3.2-1.3,3.6l-0.5,0.8L190,332l-9.9-0.1
			L180.1,331.2z M204.9,331.3c0-0.7,0.2-0.9,1.1-1.1c1.9-0.4,2.1-1.4,2.1-13.2c0-9.8,0-10.6-0.7-11.7c-0.4-0.6-1.1-1.2-1.6-1.4
			c-0.6-0.2-0.9-0.5-0.9-1c0-0.7,0.1-0.8,6-0.8s6,0,6,0.8c0,0.5-0.3,0.8-0.9,1c-0.5,0.1-1.2,0.6-1.5,1.2c-0.6,0.9-0.6,2-0.6,11.7
			c0,12,0.1,13,2,13.3c0.8,0.2,1,0.4,1,1v0.8h-6h-6V331.3z M289.3,331.2c0-0.6,0.3-0.8,1.1-1c2-0.4,2.1-1.4,2.1-13.2
			c0-10.4,0-10.6-0.8-11.8c-0.4-0.7-1.2-1.3-1.6-1.3c-0.6-0.1-0.8-0.4-0.8-1v-0.9h10.4h10.4v3.7c0,3.7,0,3.7-0.8,3.7
			c-0.7,0-0.9-0.2-1.1-1.2c-0.4-2.1-1.8-2.8-6.1-3l-3.6-0.1l-0.2,1.7c-0.1,0.9-0.2,3.2-0.2,5v3.4l3-0.2c3.3-0.2,4.6-0.8,5-2.2
			c0.2-0.6,0.5-0.9,1.1-0.9h0.8v4.6v4.6h-0.9c-0.6,0-0.9-0.2-0.9-0.6c0-1.7-1.7-2.6-5.3-2.6H298l0.1,5c0.1,6,0.1,6,4.4,6
			c3.7,0,5.7-0.9,6.7-3.1c0.5-1.1,0.9-1.5,1.5-1.5c0.4,0,0.9,0.2,1,0.4c0.3,0.5-1.2,6.3-1.9,6.9c-0.4,0.4-2.2,0.5-10.5,0.4l-10-0.1
			L289.3,331.2L289.3,331.2z M328.1,331.3c0-0.6,0.3-1,1.1-1.3c0.6-0.3,1.5-1,1.9-1.5c0.7-1,0.7-1.4,0.7-14.3c0-15,0-15.1-2.5-16
			c-1-0.3-1.2-0.6-1.2-1.3v-0.9h12.4h12.4v4.4v4.4h-1.1c-0.9,0-1.1-0.1-1.1-0.8c0-1.3-1.3-3.1-2.7-3.7c-0.8-0.4-2.8-0.6-5.3-0.7
			l-4-0.2v6v6l2.9,0c3.9,0,5.2-0.5,6-2.2c0.5-1.1,0.8-1.3,1.7-1.3h1v5.3v5.3l-1.1-0.1c-0.8-0.1-1.2-0.3-1.3-0.8c-0.6-2.1-2.7-3-7-3
			h-2.3l0.1,6.3c0.2,7.2,0.5,8.2,2.6,9c0.9,0.3,1.2,0.7,1.2,1.3v0.8h-7.2h-7.2V331.3L328.1,331.3z M384.6,331.2
			c0-0.6,0.2-0.9,0.7-0.9c1.1,0,2.3-2.2,5-8.9c3.6-9,7-18.1,7-18.8c0-0.4,0.4-0.6,1.7-0.6l1.7,0l4.8,12.2
			c5.2,13.3,6.1,15.3,7.3,15.8c0.5,0.2,0.8,0.7,0.8,1.1c0,0.8,0,0.8-6,0.8h-6v-0.8c0-0.6,0.2-0.9,1-1c1.5-0.3,1.6-1.3,0.4-4.8l-1-3
			h-4.2h-4.2l-0.8,2.5c-1.1,3.1-1,5.2,0.2,5.4c0.6,0.1,0.8,0.3,0.8,1v0.9h-4.6h-4.6V331.2L384.6,331.2z M400.8,318.9
			c0-0.5-2.6-7.6-2.8-7.6c-0.1,0-0.5,0.7-0.8,1.5c-0.3,0.8-1,2.6-1.5,3.9l-0.9,2.4h3C399.5,319.1,400.8,319,400.8,318.9z M416,331.3
			c0-0.6,0.2-0.9,1-1c1.9-0.4,2-0.9,2.1-12.4c0.2-11.9,0-12.9-2.1-13.7c-0.6-0.2-1.1-0.7-1.1-1c0-0.6,0.4-0.6,4-0.6l4,0l2.3,2.9
			c1.3,1.6,4.5,5.5,7.2,8.7s5.3,6.3,5.8,6.9l0.8,1.1l-0.1-8c-0.1-8.7-0.3-9.6-2.2-10.1c-0.5-0.1-0.9-0.5-0.9-0.9
			c0-0.6,0.3-0.7,4.8-0.7c4.5,0,4.8,0,4.8,0.7c0,0.4-0.3,0.7-0.8,0.8c-0.4,0.1-1.1,0.6-1.5,1.1c-0.7,1-0.7,1.4-0.8,14l-0.1,13h-1.5
			c-1.4,0-1.7-0.1-2.7-1.5c-0.9-1.2-15.9-19.7-16.5-20.4c-0.1-0.1-0.1,3.8,0,8.7c0.2,9.8,0.4,11,2.1,11.4c0.8,0.2,1,0.4,1,1v0.8
			h-4.8H416L416,331.3L416,331.3z M477.8,331.2c0-0.5,0.2-0.9,0.5-0.9c0.7,0,2-1.7,2.9-3.7c1.3-2.9,7.3-18.5,8.4-21.6l1-2.9l1.6,0.1
			l1.6,0.1l4.7,12c2.6,6.6,5,12.6,5.3,13.2c0.8,1.6,1.9,2.8,2.5,2.8c0.3,0,0.5,0.4,0.5,0.9v0.9h-6h-6v-0.9c0-0.6,0.2-0.9,0.6-0.9
			c1.7,0,1.9-1.5,0.6-5.4l-0.9-2.7h-4.1h-4.1l-0.8,2.4c-1.4,4.5-1.4,5.7,0.3,5.7c0.5,0,0.7,0.3,0.7,0.9v0.9h-4.6h-4.6V331.2z
			 M492.8,315.4c-0.7-2-1.3-3.9-1.4-4.1c-0.1-0.3-0.8,1-1.8,3.4c-0.8,2.1-1.5,4-1.6,4.1c0,0.1,1.3,0.3,3,0.3h3L492.8,315.4z
			 M508.9,331.2c0-0.7,0.2-0.9,0.8-0.9c0.5,0,1.1-0.3,1.5-0.7c0.6-0.7,0.7-1.5,0.8-11.7c0.1-6,0-11.4-0.1-11.8
			c-0.3-1-1.5-2.2-2.4-2.2c-0.4,0-0.6-0.3-0.6-0.8c0-0.8,0-0.8,6-0.8c5.8,0,6,0,6,0.7c0,0.4-0.4,0.9-1,1.2c-0.6,0.2-1.2,0.9-1.4,1.4
			c-0.5,1.4-0.8,12.4-0.5,18.3c0.2,4.2,0.4,5.1,0.9,5.7c0.4,0.4,1,0.7,1.3,0.7c0.5,0,0.7,0.3,0.7,0.9v0.9h-6h-6L508.9,331.2
			L508.9,331.2z M548.4,331.2c0-0.6,0.2-0.8,0.9-0.8c0.5,0,1.2-0.4,1.6-0.9c0.7-0.9,0.7-1.3,0.7-12c0-7.8-0.1-11.3-0.4-11.9
			c-0.5-1-1.4-1.6-2.1-1.6c-0.4,0-0.6-0.3-0.6-0.9v-0.9H559h10.6v3.7v3.7l-0.9-0.1c-0.7-0.1-1-0.4-1.3-1.3c-0.7-2.1-1.9-2.6-6.1-2.8
			l-3.7-0.1v5v5l2.2,0c3.1,0,4.6-0.6,5.2-2c0.4-0.8,0.8-1.1,1.4-1.1l0.9,0v4.6v4.6l-1,0c-0.8,0-1-0.2-1-0.8c0-1.6-1.2-2.2-4.6-2.3
			l-3.1-0.1v5c0,6,0.1,6.1,4.1,6.1c4,0,6-1,7.1-3.4c0.5-1.2,1.7-1.6,2.1-0.6c0.2,0.6-0.7,4.8-1.5,6.2l-0.5,1l-10.2-0.1l-10.2-0.1
			V331.2L548.4,331.2z M75.3,299l-0.9-0.7l2.1-3.2c1.2-1.8,2.3-3.2,2.6-3.2c1.2,0,5,0.8,4.9,1.1c-0.2,0.5-7.2,6.7-7.5,6.7
			C76.3,299.6,75.8,299.3,75.3,299L75.3,299z M30.4,274.6h537.8v3.2H30.4L30.4,274.6L30.4,274.6z M235.1,267.3
			c-2.8-1-4.4-3.6-3.9-6.5c0.3-1.9,1.4-3.2,3.3-4.1l1.7-0.8l-1-0.6c-0.6-0.3-1-0.9-1-1.3c0-0.6,2.6-3.2,3.2-3.2
			c0.2,0-0.1-0.6-0.5-1.3c-1.8-3.1-0.4-7.5,3-9.2c1.8-0.9,2.4-1,8.8-0.6c3.7,0.2,3.8,0.3,3.6,1c-0.1,0.4-0.2,0.9-0.2,1
			c0,0.1-0.6,0.3-1.4,0.3h-1.4l0.2,2.1c0.4,4.5-2.8,7.5-7.9,7.6c-2.7,0-4,0.6-2.9,1.3c0.3,0.2,2,0.8,3.8,1.4
			c5.8,1.9,6.9,2.8,6.7,5.9c-0.3,3.2-2.8,5.9-6.5,7C240.7,268,236.9,268,235.1,267.3L235.1,267.3z M243,265.2
			c2.9-1.4,4.1-4.2,2.5-5.6c-1.1-1-5.6-2.4-6.8-2.2c-2.4,0.5-4.7,3.4-4.3,5.6C235,265.9,239.3,267,243,265.2L243,265.2z
			 M243.9,249.2c2.2-1.3,3-5,1.5-6.9c-2-2.5-5.8,0.3-5.8,4.3c0,1.2,0.2,1.7,1,2.4C241.8,250,242.5,250.1,243.9,249.2z M257.3,257.4
			c-1.6-0.3-2.4-1.4-2.6-3.2c-0.5-4.7,3.5-11.6,7.9-13.8c2.3-1.2,6.8-1.3,9.9-0.3c0.3,0.1,0.1,1.3-0.6,3.8
			c-1.4,4.9-2.1,9.7-1.7,10.6c0.3,0.6,0.5,0.6,1.4,0.3c0.9-0.3,1.2-0.3,1.4,0.1c0.5,0.8,0.2,1.1-1.8,1.8c-2.7,0.9-4,0.7-4.4-0.6
			l-0.3-1.1l-1.4,0.8C262.7,257.1,259.3,257.8,257.3,257.4L257.3,257.4z M263.4,254.2c1-0.5,2.1-1.2,2.4-1.7c0.5-0.7,1.9-6,2.5-9.1
			c0.2-1.3,0.2-1.3-1.1-1.7c-2.4-0.7-4.8,1.1-6.7,4.8c-2,3.9-2.5,7.4-1.2,8.4C260.2,255.6,260.7,255.5,263.4,254.2z M430.6,257.3
			c-1.6-0.4-2.1-0.9-2.6-2.5c-0.7-2.4,0.9-7.1,3.4-10.5c3.1-4.1,6.5-5.5,11.6-4.7c1.3,0.2,2.5,0.5,2.7,0.6c0.1,0.1-0.3,2.4-1,5
			c-0.7,2.6-1.3,5.8-1.3,7.1l-0.1,2.3l1.5-0.1c1.3-0.1,1.5,0,1.5,0.7c0,0.7-0.3,0.9-2,1.4c-2.8,0.8-4.1,0.7-4.3-0.6
			c-0.1-0.5-0.2-1-0.3-1c-0.1,0-1,0.4-2.1,0.8c-1.7,0.7-5.1,1.7-5.8,1.6C431.9,257.6,431.2,257.4,430.6,257.3z M436.5,254.2
			c0.9-0.4,1.8-1.1,2.2-1.5c0.8-0.9,2.2-5.5,2.9-9.6c0.2-1.1,0.1-1.2-1.2-1.5c-1.1-0.3-1.6-0.3-2.6,0.2c-2.2,1.1-4.5,4.7-5.6,9.1
			C431,255.3,432.4,256.3,436.5,254.2L436.5,254.2z M53.5,256.5c-0.1-0.4,0.5-3.7,1.4-7.3c1.7-7.1,1.7-7.6-0.2-7.1
			c-0.9,0.3-1,0.2-1-0.5c0-0.7,0.3-0.9,2-1.4c1.1-0.3,2.6-0.6,3.3-0.7c1.2-0.1,1.2,0,1.3,1.1c0.1,0.7-0.5,3.9-1.4,7.2
			c-0.8,3.3-1.4,6.2-1.3,6.5c0.2,0.4,0.5,0.5,1.8,0.3c1.5-0.2,1.6-0.2,1.5,0.6c-0.1,0.6-0.5,0.9-2.1,1.4c-1.1,0.3-2.7,0.6-3.6,0.6
			C54,257.3,53.7,257.2,53.5,256.5L53.5,256.5z M67.1,256.6l-0.8-0.7l2.7-12c1.5-6.6,2.7-12.5,2.6-13c-0.1-1-0.2-1.1-1.6-0.7
			c-0.7,0.2-0.8,0.1-0.8-0.6c0-1,1.2-1.5,4.7-1.9c2-0.2,2-0.2,2,0.6c0,0.5-0.6,3.4-1.2,6.5c-0.7,3.1-1.2,5.8-1.2,6.1
			c0,0.3,0.4,0.3,1.5-0.2c3.9-1.7,7.4-1.6,8.6,0.2c1.2,1.8,0.6,6.3-1.3,10c-1,1.9-3.9,5-5.4,5.7C74.8,257.5,68.3,257.5,67.1,256.6
			L67.1,256.6z M76.1,254.4c1.8-1.3,3.7-5.5,4.3-9.2c0.6-3.7-1.9-4.5-5.9-1.8c-0.8,0.6-1.5,1.4-1.9,2.4c-0.6,1.7-2,7.4-2,8.4
			C70.7,255.6,74.1,255.8,76.1,254.4L76.1,254.4z M89.5,256.2c-1-1-1-1.3-1-3.6c0.1-6,3.4-11.3,8.1-12.8c2.3-0.7,4.4-0.5,5.8,0.7
			c0.8,0.7,1,1.1,1,2.6c0,3.6-3.3,6.4-8.1,6.7c-1.4,0.1-2.6,0.4-2.8,0.6c-0.4,0.6-0.3,2.6,0.1,3.5c0.9,1.7,2.1,1.7,5.2,0.2
			c1.9-1,2.3-1.1,2.6-0.6c0.6,1,0.3,1.3-2.4,2.6c-2.3,1.1-3.1,1.3-5.1,1.3C90.8,257.3,90.5,257.2,89.5,256.2z M95.9,247.7
			c3-0.8,5-4,3.4-5.6c-1-1-1.9-0.9-3.1,0.1c-1,0.8-2.6,3.5-3.1,5.1c-0.2,0.7-0.1,0.8,0.6,0.8C94.1,248.1,95.1,247.9,95.9,247.7z
			 M107.8,257.1c0-0.1,0.6-2.8,1.4-6.1c0.8-3.3,1.4-6.7,1.4-7.5l0-1.5l-1.4,0.2c-1.3,0.2-1.4,0.1-1.4-0.5c0-0.8,1.1-1.4,4-2.1
			c2-0.5,2.7-0.2,2.7,1.2v0.8l1.3-0.9c2.2-1.5,3.6-1.8,5.2-1c0.8,0.3,1.3,0.8,1.3,1c-1,3.4-1.5,4.4-2.3,4.4c-0.7,0-0.8-0.2-0.8-1.2
			c0-2.6-2.2-2.6-3.9,0c-1,1.6-2.1,5.2-2.9,10c-0.2,1.4-0.6,2.6-0.8,2.7C110.9,256.9,107.8,257.3,107.8,257.1L107.8,257.1z
			 M125.5,256.8c-0.4-0.5-0.2-1.7,1.8-10.9l0.8-3.8H127c-0.7,0-1.2-0.1-1.2-0.2c0-0.6,0.8-1.6,1.2-1.6c0.9,0,2.5-1.7,3.2-3.2
			c0.8-1.8,1.1-2,2.2-2c0.8,0,0.8,0.1,0.6,1.1c-0.1,0.6-0.3,1.7-0.4,2.5l-0.2,1.3h1.6c1.7,0,1.9,0.3,1.4,1.6
			c-0.2,0.4-0.7,0.6-1.9,0.6c-2,0-1.6-0.7-3.2,7c-1.2,5.7-1.1,6.2,0.8,5.7c1.6-0.5,1.7-0.4,1.6,0.5c-0.1,0.6-0.5,0.9-1.9,1.4
			C128.7,257.3,126,257.4,125.5,256.8z M139.7,256.3c-2.6-2.8-0.7-10.7,3.4-14.4c1.7-1.5,4.3-2.7,6-2.7c1.1,0,3.5,1.1,3.8,1.8
			c0.6,1.1,0.4,3.6-0.3,4.8c-1.5,2.4-4.7,4-8.2,4h-2.1v1.9c0,3.6,1.5,4.3,5.5,2.3c1.3-0.6,2.4-1.1,2.4-1c0.1,0.1,0.2,0.5,0.3,0.9
			c0.1,0.6-0.4,1-2.5,2c-2.3,1.2-2.9,1.3-5,1.3C140.8,257.3,140.5,257.2,139.7,256.3L139.7,256.3z M145.9,247.7
			c1.9-0.6,3.2-1.7,3.7-3.1c0.5-1.1,0.5-1.3-0.2-2.2c-1-1.3-1.9-1.3-3.4,0c-1.1,1-3.1,4.3-3.1,5.3
			C143.1,248.2,144.4,248.2,145.9,247.7L145.9,247.7z M278.5,257c-0.5-0.5-0.2-2.6,1.5-9.8c2.3-9.8,3.5-15.6,3.5-16.5
			c0-0.7-0.1-0.7-1.2-0.6c-1.1,0.2-1.2,0.1-1.2-0.6c0-0.9,0.9-1.3,4.4-1.9c1.8-0.3,2.3-0.1,2.3,1.1c0,0.5-1.2,6.1-2.6,12.4
			c-1.5,6.3-2.6,12-2.6,12.6l0,1.2l1.6-0.2c1.5-0.2,1.6-0.2,1.5,0.6c-0.1,0.6-0.6,0.9-2.1,1.4C281.6,257.2,279,257.4,278.5,257
			L278.5,257z M291.9,256.8c-0.4-0.7-0.2-2.2,1.3-8.1c0.8-3.1,1.4-5.9,1.3-6.2c-0.1-0.6-0.2-0.6-1.8-0.3c-0.8,0.2-1,0.1-1-0.5
			c0-0.8,1.5-1.6,4.3-2.1c2-0.4,2.8-0.2,2.8,0.6c0,0.3-0.7,3.6-1.6,7.2c-0.9,3.7-1.5,6.8-1.4,7c0.1,0.2,0.8,0.3,1.8,0.2
			c1.5-0.2,1.6-0.2,1.5,0.6c-0.1,0.6-0.6,0.9-2.1,1.4C294.7,257.3,292.2,257.4,291.9,256.8L291.9,256.8z M304.9,256.7
			c-0.1-0.3,0-1.5,0.2-2.6c0.8-3.6,2.5-11.7,2.5-11.9c0-0.1-0.5-0.2-1.1-0.2c-1.5,0-1.2-1,0.6-1.9c1.1-0.6,1.7-1.3,2.6-2.9
			c1-1.9,1.3-2.2,2.2-2.2h1l-0.5,2.2c-0.3,1.2-0.5,2.3-0.5,2.5c0,0.1,0.8,0.3,1.8,0.3c1.8,0,1.9,0,1.5,1.3c-0.2,0.7-0.4,0.8-2,0.8
			h-1.8l-1.2,6c-0.7,3.3-1.1,6.2-1,6.5c0.2,0.4,0.4,0.5,1.4,0.2c1.6-0.5,1.7-0.4,1.7,0.5c0,0.7-0.3,0.9-2.1,1.4
			C307.4,257.5,305.2,257.4,304.9,256.7L304.9,256.7z M319.4,256.5c-0.9-0.8-1-1.2-1.2-3.1c-0.3-4.4,1.8-9.5,4.8-11.8
			c3.3-2.5,7-2.9,9-0.8c0.9,0.9,1,1.2,0.9,2.8c-0.3,3.5-3.7,6-8.3,6.3c-2.9,0.1-3.2,0.5-2.6,3c0.6,2.7,1.7,3,5.3,1.3
			c2.3-1.1,2.9-1.1,2.9,0c0,1.1-4.2,2.9-7.3,3.1C320.7,257.3,320.4,257.2,319.4,256.5L319.4,256.5z M327,247c2.2-1.1,3.1-3.6,1.9-5
			c-1.6-1.7-4.5,0.5-5.9,4.6l-0.5,1.5l1.6-0.2C324.9,247.8,326.3,247.4,327,247L327,247z M411.4,257.1c0-0.1,0.6-2.8,1.4-6.1
			s1.4-6.7,1.4-7.5l0-1.5l-1.4,0.2c-1.2,0.2-1.4,0.1-1.4-0.5c0-0.9,0.6-1.2,3.5-1.9c2.5-0.6,3.2-0.4,3.2,1.1v0.8l1.3-0.9
			c2.2-1.5,3.6-1.8,5.1-1.1c0.8,0.3,1.4,0.7,1.4,0.8c0,0.1-0.4,1.2-0.8,2.4c-0.7,1.8-0.9,2.2-1.6,2.2c-0.7,0-0.8-0.2-0.8-1.2
			c0-2.4-2.1-2.6-3.6-0.3c-1.2,1.7-1.8,3.6-2.7,8.6c-0.4,2.2-0.9,4.2-1,4.3C415.1,256.8,411.4,257.3,411.4,257.1L411.4,257.1z
			 M452.2,256.7c-0.3-0.8,0-2.9,1.4-9.2l1.2-5.3l-1-0.1c-1.2-0.1-1.4-1.3-0.3-1.7c1.2-0.4,2.7-1.8,3.4-3.4c0.8-1.8,1.1-2,2.2-2
			c0.8,0,0.8,0.1,0.6,1.1c-0.1,0.6-0.3,1.7-0.4,2.5L459,240h1.6c1.7,0,1.9,0.3,1.4,1.6c-0.2,0.4-0.7,0.6-1.9,0.6c-2,0-1.6-0.7-3.2,7
			c-1.2,5.7-1.1,6.2,0.8,5.7c1.6-0.5,1.7-0.4,1.6,0.5c-0.1,0.6-0.5,0.9-1.9,1.4C455.2,257.4,452.4,257.4,452.2,256.7L452.2,256.7z
			 M466.4,256.3c-2.7-2.7-0.8-10.7,3.3-14.4c1.7-1.5,4.3-2.7,6-2.7c1.1,0,3.5,1.1,3.8,1.8c0.6,1.1,0.4,3.6-0.3,4.8
			c-1.5,2.5-4.7,4-8.2,4h-2.1l0.2,2.2c0.2,3.4,1.5,3.9,5.4,2c1.3-0.6,2.4-1.1,2.4-1c0.1,0.1,0.2,0.5,0.3,0.9c0.1,0.6-0.4,1-2.5,2
			c-2.2,1.1-2.9,1.3-5,1.3C467.6,257.3,467.2,257.1,466.4,256.3L466.4,256.3z M473.8,247.1c2.5-1.2,3.6-4.1,2-5.2
			c-1-0.8-1.8-0.6-3.1,0.5c-1.1,1-3,4.3-3,5.3C469.7,248.3,472.1,248,473.8,247.1L473.8,247.1z M484.5,257c0-0.1,0.6-3,1.4-6.4
			c0.8-3.4,1.4-6.6,1.3-7.2c-0.1-1.1-0.2-1.1-1.4-1.1c-1,0.1-1.3-0.1-1.5-0.6c-0.1-0.6,0.2-0.8,1.6-1.4c1-0.4,2.4-0.8,3.1-0.9
			c1.4-0.2,1.3-0.3,2.2,1.8c0,0,1-0.4,2.1-1c2.4-1.2,2.8-1.3,4.3-0.4l1.1,0.7l-0.8,2.3c-0.6,1.9-0.9,2.3-1.6,2.3
			c-0.7,0-0.8-0.2-0.8-1.2c0-3.1-2.9-2.5-4.5,0.9c-0.4,0.9-1.2,3.8-1.8,6.6c-0.6,2.8-1.1,5.1-1.2,5.1
			C488.1,257,484.5,257.2,484.5,257L484.5,257z M502.2,257c0-0.2,0.6-2.5,1.3-5.2c0.8-3,1.3-5.9,1.3-7.4l0.1-2.5l-1.3,0.1
			c-1,0.1-1.3,0-1.5-0.6c-0.1-0.5,0.2-0.8,1.6-1.2c3.2-1,4-1,4.6-0.4c0.3,0.3,0.6,1,0.6,1.4c0,0.5,0.1,0.9,0.1,0.9
			c0.1,0,1.1-0.5,2.3-1c2.8-1.3,6.6-2.1,7.7-1.4c0.7,0.4,0.8,0.6,0.6,2.2c-0.1,1-0.7,3.7-1.3,6.1c-0.6,2.4-1.1,4.8-1.1,5.5
			c-0.1,1.2-0.1,1.2,1.4,1.2c1,0,1.5,0.1,1.7,0.5c0.3,0.7-0.1,1-2.3,1.6c-2.5,0.7-4.8,0.7-5.1,0c-0.1-0.3,0.4-3.4,1.2-6.8
			c1.6-6.9,1.6-7.7,0.9-8c-0.8-0.3-3.5,1-5.1,2.5c-1.3,1.2-1.5,1.6-2.3,5.1c-0.5,2.1-1,4.5-1.1,5.5c-0.1,0.9-0.4,1.8-0.6,1.8
			C504.9,257,502.2,257.2,502.2,257L502.2,257z M526.4,256.7c-0.1-0.3,0.5-3.6,1.4-7.3c0.9-3.7,1.5-6.9,1.4-7.2
			c-0.1-0.4-0.5-0.4-1.3-0.1c-0.6,0.2-1.2,0.3-1.3,0.3c0,0-0.1-0.4-0.1-0.8c0-0.7,0.3-0.9,1.9-1.4c4.2-1.3,5.5-1.1,5.1,0.8
			c-0.1,0.5-0.8,3.5-1.6,6.8c-0.8,3.3-1.3,6.2-1.2,6.5c0.2,0.4,0.6,0.5,1.8,0.3c1.5-0.2,1.6-0.2,1.5,0.6
			C533.7,256.7,526.9,258,526.4,256.7L526.4,256.7z M539.7,256.7c-0.2-0.6,0.1-2.3,1.4-8.4c1.5-6.8,1.5-6.2,0.2-6.2
			c-1.6,0-1.3-1,0.5-1.9c1-0.5,1.7-1.3,2.5-2.8c0.9-1.7,1.3-2.1,2.1-2.2c1.1-0.1,1.1,0,0.3,3.7l-0.2,1.1h1.8c1.5,0,1.8,0.1,1.6,0.6
			c-0.1,0.3-0.2,0.8-0.2,1.1c0,0.4-0.5,0.5-1.9,0.5h-1.9l-1.2,5.9c-0.6,3.3-1.1,6.2-0.9,6.5c0.2,0.5,0.4,0.5,1.4,0.2
			c1.6-0.5,1.7-0.4,1.7,0.5c0,0.7-0.3,0.9-2.1,1.4C542.3,257.4,540,257.4,539.7,256.7L539.7,256.7z M554.2,256.4c-1-0.9-1-1-1-4.4
			c0-3.3,0.1-3.6,1.3-6.2c1.6-3.2,3.4-4.9,6.2-5.9c5-1.9,8.6,1.3,6.4,5.7c-1.3,2.5-4.6,4.2-8,4.2c-2,0-2.2,0.1-2.4,0.9
			c-0.3,1.2,0.1,2.9,0.8,3.8c0.8,0.9,2.2,0.8,4.6-0.5c1.8-0.9,2.2-1,2.5-0.6c0.6,1,0.3,1.4-2,2.5c-1.8,0.9-3,1.2-4.9,1.3
			C555.5,257.3,555.2,257.2,554.2,256.4L554.2,256.4z M561.9,246.9c2.4-1.3,3.2-4,1.5-5.1c-0.7-0.4-1.1-0.5-1.9-0.2
			c-1.2,0.4-3,2.7-3.8,4.9l-0.6,1.7l1.6-0.2C559.8,247.8,561.2,247.4,561.9,246.9z M28,256.3c0.1-0.3,0.4-0.7,0.8-0.7
			c1-0.2,2-1.1,2.7-2.7c0.9-2.1,3.9-16.9,4-19.9c0.1-2.6,0.1-2.6-1.1-3.4c-2.2-1.4-1.6-1.6,4.5-1.6c4.8,0,5.6,0.1,5.6,0.5
			c0,0.3-0.4,0.6-1.1,0.8c-2.3,0.5-3.1,2.7-5.2,13.6c-2,10.2-2,10-1.1,10.9c0.7,0.7,1,0.7,3.8,0.6c3.7-0.2,5-0.8,6.3-3
			c1-1.7,1.1-1.7,1.8-1.3c0.4,0.3,0.4,0.6-0.1,2c-0.3,0.9-0.9,2.4-1.4,3.1l-0.8,1.4l-9.5,0.1C28.5,256.9,27.9,256.9,28,256.3
			L28,256.3z M206.6,256.4c0-0.3,0.6-0.8,1.3-1.1c0.9-0.5,1.6-1.1,2.1-2.2c1-2.1,4.1-17.1,4.1-20.3c0-2.4,0-2.5-1.1-3.2
			c-2.4-1.5-1.8-1.6,8.9-1.6c9.9,0,10.1,0,9.9,0.7c-0.1,0.4-0.4,1.8-0.7,3.1c-0.4,2-0.6,2.4-1.2,2.5c-0.6,0.1-0.8-0.1-0.8-0.8
			c0-2.3-1.4-3-6.3-3h-3.4l-1,4.5c-0.5,2.5-1.1,4.8-1.2,5.1c-0.2,0.6,0.1,0.6,2.9,0.6c3.5,0,4.6-0.4,5.6-2c0.9-1.5,2.1-1.6,1.8-0.2
			c-0.1,0.5-0.5,2.4-0.8,4.2c-0.5,2.6-0.8,3.3-1.2,3.3c-0.4,0-0.7-0.4-0.8-1c-0.1-0.6-0.6-1.2-1-1.5c-0.8-0.5-6.4-0.7-6.8-0.2
			c-0.2,0.2-1.3,5.3-1.7,8.5c-0.2,1.5-0.2,1.7,0.7,2.3c0.7,0.5,1.5,0.6,4,0.4c3.7-0.2,5-0.8,6.5-2.9c0.7-0.9,1.3-1.5,1.6-1.4
			c0.7,0.3,0.6,0.9-0.4,3.4c-1.5,3.7-0.7,3.4-11.5,3.4C208.2,256.9,206.6,256.8,206.6,256.4L206.6,256.4z M386,256.4
			c0-0.3,0.5-0.7,1.1-0.9c2.2-0.8,3-2.8,5.2-14.2c1.9-9.8,1.9-11.4-0.4-12.1c-0.4-0.1-0.7-0.4-0.6-0.6c0.1-0.3,2.9-0.4,9.9-0.5
			c9.6-0.1,9.8-0.1,9.6,0.6c-0.1,0.4-0.4,1.8-0.7,3.1c-0.4,2-0.6,2.4-1.2,2.5c-0.7,0.1-0.8-0.1-0.8-1c0-2.2-1.7-3-6.5-2.8l-2.8,0.1
			l-1,4.6c-0.5,2.5-1,4.8-1,5c0,0.7,5.4,0.6,6.7-0.1c0.5-0.3,1.2-1,1.4-1.6c0.3-0.7,0.7-1.1,1.1-1.1c0.8,0,0.8-0.3-0.1,4.5
			c-0.6,3.3-0.9,4-1.4,4c-0.4,0-0.6-0.3-0.6-0.6c0-1.6-3.3-2.9-6.4-2.4l-1.3,0.2l-0.7,3.9c-1.3,7-1.2,7.6,0.7,8.4
			c2.1,0.9,0.9,1.2-4.8,1.3C386.9,256.9,386,256.8,386,256.4L386,256.4z M178.9,248.8c-1.6-0.7-3-2.9-3-4.7c0-2.8,2.5-5.3,5.2-5.3
			c3.3,0,5.3,2,5.3,5.3C186.5,248.2,182.7,250.6,178.9,248.8L178.9,248.8z M358.6,249c-0.6-0.3-1.6-1.1-2.1-1.8
			c-0.8-1.1-1-1.7-1-3.2c0-3.2,2.1-5.2,5.3-5.2c1.6,0,2.1,0.2,3.2,1.1c2.4,2,2.8,5.2,0.9,7.6C363.3,249.4,360.8,250,358.6,249
			L358.6,249z M147.5,236.4c-0.7-0.8-0.7-0.7,3.3-5.3l1.4-1.5l2,0.5c1.1,0.2,2,0.6,2,0.7c0,0.2-7.6,6.4-7.9,6.4
			C148.2,237.1,147.8,236.8,147.5,236.4L147.5,236.4z M327.1,236.4l-0.8-0.6l2.7-3c1.5-1.7,2.8-3,3-3c0.9,0,3.9,0.9,3.8,1.1
			c-0.1,0.2-6.7,5.5-7.5,6C328.1,237,327.6,236.8,327.1,236.4L327.1,236.4z M561.9,236.4l-0.9-0.6l2.8-3c1.5-1.7,2.9-3,3-3
			c0.7,0,3.9,0.8,3.9,1c0,0.2-6.7,5.6-7.6,6.1C562.9,237,562.3,236.8,561.9,236.4z M57.9,234.6c-1.4-1.4,0-4.2,2.1-4.2
			c1.5,0,2.3,0.8,2.3,2.3C62.3,235.1,59.6,236.3,57.9,234.6z M296.2,234.9c-0.9-0.7-0.8-2.8,0.1-3.7c1.5-1.5,4.2-0.5,4.2,1.4
			C300.6,234.7,297.9,236.1,296.2,234.9z M530.8,234.6c-1.5-1.5,0-4.2,2.2-4.2c2.2,0,3.2,2.5,1.6,4.1
			C533.4,235.6,531.8,235.6,530.8,234.6L530.8,234.6z M221.4,224.5c-0.5-0.6-0.4-0.8,2.1-3.6l2.7-3l2,0.5c1.1,0.2,2,0.5,2,0.7
			c0,0.3-7.1,5.8-7.7,5.9C222.2,225.1,221.7,224.9,221.4,224.5L221.4,224.5z"/>
		<path id="path10" inkscape:connector-curvature="0" class="st1" d="M338.8,204.6l0.8-2.1c1.4-3.8,2.8-6.8,4.9-10
			c2.2-3.4,7.1-8.4,9.1-9.4c2.5-1.2,5.6-1.6,9.4-1.3c3.3,0.3,13.4,1.9,17.5,2.9c3.1,0.7,7.6,0.8,9.8,0.1c4.1-1.2,6.6-3.5,7.7-7.3
			c0.9-2.9,0.9-5.6,0-7.4c-1.2-2.4-1-3,1.9-5.8c1.5-1.4,2.7-2.7,2.7-2.9c0-0.9-2-4.7-2.5-4.7c-0.3,0-0.9-0.3-1.4-0.7l-0.8-0.7
			l1.8-0.9c2.4-1.2,4.2-3.1,4.2-4.5c0-0.6-0.5-2-1.1-3.2c-1.2-2.2-1.5-4.3-0.8-5.6c0.4-0.8,1.2-1.2,4.9-2.2c3.1-0.9,4.3-1.8,4.7-3.8
			c0.4-1.7,0.2-2.8-0.8-4.8c-0.8-1.7-6.3-10-7.8-12c-2.1-2.7-4.7-7.4-5.5-10c-0.8-2.5-0.8-2.6-0.2-5.9c1.2-6.8,0.5-12.5-2.8-23.5
			c-2.5-8.2-3.1-10.2-3.9-11.7c-1.4-2.8-1.2-3.4,1.7-5.8c1.4-1.1,2.6-2.3,2.8-2.7c0.9-1.6-0.1-4.7-1.7-5.6c-1-0.6-1.6-0.2-2.7,1.8
			c-0.8,1.5-1.1,1.7-2,1.7c-1.4,0-1.6-0.6-0.7-1.8c1-1.4,1-1.6-0.7-1.8c-1.2-0.2-1.9-0.6-4.5-3.3c-3.5-3.6-5.9-5.3-10.7-7.4
			c-2.2-1-2.9-1.5-2.1-1.3c0.7,0.1,3.1,0.3,5.3,0.4c6.6,0.3,8.1-0.5,9.7-5.3c1-3.2,1.5-4.7-0.8-6.9l-8.7-8.2h195.9v183.6H338.8z"/>
		<path id="path12" inkscape:connector-curvature="0" class="st2" d="M171.7,204.6c-1.4-0.1-2.7-0.2-2.7-0.3
			c-0.1-0.1,1.5-1.2,8.8-5.7c2.4-1.4,3.3-2.2,3-2.4c-0.3-0.1-2.3-0.4-4.6-0.5c-3.3-0.2-4.3-0.1-5.3,0.3c-0.7,0.3-3.3,1.1-5.9,1.8
			c-6.4,1.7-8.5,2.8-10.6,5.7l-0.8,1.1H28V21h249.4l-4.8,3.2c-2.7,1.3-5.8,3.2-6.9,4.1c-3.8,3.1-8.9,10.2-10.2,14.2
			c-0.5,1.4-0.9,2-2.3,3c-2.2,1.5-4.8,4.4-7,7.6c-3,4.4-8.6,14.4-9.7,17.1c-1.7,4.3-1.6,7.5,1,20.3c1.1,5.6,2.3,11.4,2.7,12.7
			c0.4,1.4,0.8,3.7,0.9,5.1c0.2,2.6,0.4,3.2,1.9,6.4c0.4,0.9,0.8,1.9,0.8,2.2c0,0.3,0.3,0.8,0.7,1.1c0.4,0.3,0.7,0.8,0.7,1.3
			c0,0.6,0.8,1.8,2.6,3.7c4,4.4,7,8.6,7,9.9c0,1.1-1.6,1.4-4.1,0.7c-3-0.7-5.4-2.3-9.2-6c-1.6-1.6-2.9-2.6-2.9-2.3
			c0,0.3,1.1,1.7,2.4,3.2c2.7,3,3.1,3.8,2.5,4.9c-0.5,0.9-1.7,1.2-3.4,0.8c-1.9-0.5-3,0.2-2.7,1.8c0.2,1,0.1,1.1-0.4,0.9
			c-1.1-0.4-3.5-0.9-5.6-1.1c-2-0.2-2.1-0.3-3.3-2c-0.9-1.3-1.6-1.8-2.5-2.1c-3.5-1-12.2-2.5-18.1-3.1c-10.3-1.1-12.8-1.2-17.7-0.6
			c-3.8,0.5-4.8,0.7-6.9,1.8c-3.7,1.9-10,7.7-10,9.2c0,0.7,1.4,0.5,3-0.5c4.9-3,21.5-7.3,29.7-7.6c4-0.2,3.8,0-1,0.9
			c-1.3,0.2-4.5,1.1-7.1,1.8c-2.5,0.8-6.9,1.9-9.7,2.6s-6,1.5-7.1,1.9l-1.9,0.7l3,0c15.3,0.2,32.7,5,39.8,11.1
			c3.1,2.6,4.2,2.9,8.7,2.5c6.2-0.6,14.1-3.6,17.6-6.5c1.5-1.3,2.8-1.8,2.8-1.1c0,1.2-2,7.4-2.9,8.9c-1,1.7-1,2-0.5,2.3
			c0.3,0.2,0.5,0.5,0.4,0.6c-0.1,0.1,0.1,0.3,0.5,0.4c1.2,0.4,0.9,0.7-1,1.2c-1.8,0.5-3.2,1.3-3.2,1.8c0,0.2,0.2,0.3,0.6,0.3
			c0.9,0,0.2,0.6-1,0.9c-0.8,0.2-1,0.3-0.6,0.6c0.4,0.2,0.4,0.3,0,0.3c-0.2,0-0.4,0.4-0.4,0.8c0,0.5-0.3,0.9-1.1,1.3
			c-1.8,0.8-1.3,1.2,1.1,1c1.2-0.1,2-0.1,1.7,0c-0.3,0.1-2.3,1-4.4,2c-2.1,1-4.9,2.2-6.2,2.6c-1.4,0.5-2.3,1-2.4,1.4
			c-0.1,0.6,0.5,0.6,2.2-0.1c0.3-0.1,0.6-0.1,0.6,0.1c0,0.2-3.7,2.3-8.2,4.7c-4.5,2.4-8.7,4.9-9.3,5.6c-0.6,0.6-1.5,1.1-1.8,1.1
			c-0.4,0-0.8,0.4-1.1,0.9c-0.7,1.5-0.5,1.7,1.1,1.4c2.4-0.4,3.5-0.4,3.7,0.1c0.1,0.3-0.1,0.4-0.5,0.4c-0.4,0-0.9,0.2-1.1,0.5
			s-0.8,0.6-1.4,0.6c-0.6,0.1-1.2,0.5-1.7,1.2c-0.4,0.6-1,1.2-1.4,1.3c-0.4,0.1,0.2,0.1,1.2,0c15.9-1.2,18.8-1.8,25.2-5
			c5.5-2.8,11.1-6.9,15.2-11c1.2-1.2,2.2-2.2,2.4-2.2c0.5,0,0.3,2-0.6,3.7c-1.4,3-4.3,5.8-10.4,9.8c-3.1,2-6.3,3.9-7.3,4.2
			c-3,1-7.9,2-13.1,2.7c-16.7,2.4-23.1,4.3-29.5,8.4c-1.1,0.7-2.2,1.2-2.5,1.2c-0.3-0.1-1.1,0.4-1.8,1c-1.9,1.6-0.5,1.4,3.4-0.7
			c4.1-2.1,5.9-2.4,2.8-0.5c-3.9,2.4-6.9,3.9-9.8,3.9H171.7z M151,184.1c0.6-0.3,2.7-1.4,4.7-2.6c1.9-1.2,4.2-2.5,5.1-2.9
			c0.9-0.4,3.3-1.5,5.5-2.5c4.5-2,11-3.9,11.4-3.3c0.1,0.2,1.1,0.5,2.2,0.5c1.5,0.1,1.8,0.2,1.1,0.4c-0.4,0.2-0.8,0.4-0.8,0.6
			c0,0.6,3.3,0.4,4.7-0.3c0.5-0.3,1.8-0.6,2.7-0.7c1.2-0.1,1.7-0.4,1.7-0.7c0-0.4,0.3-0.5,1.4-0.3c1.5,0.3,4.7-0.4,13.3-2.5
			c5.8-1.5,10.2-2.9,14.1-4.7l2.8-1.3l-2.8-1.8c-6.8-4.4-13.7-7.1-28.8-11.3c-2.6-0.7-4.9-1.5-5.1-1.7c-0.2-0.2-0.1-0.3,0.4-0.1
			c1.5,0.5,2.6,0.6,2.6,0.2c0-0.5-1.1-0.9-3.4-1.3c-2-0.3-3.4-0.9-1.9-0.9c2.2,0-1.6-1.4-5.8-2.1c-3.1-0.5-3.3-0.7-2-1.3
			c1.1-0.6,2.4-2.6,2-3.5c-0.3-0.7-0.6-0.6-2.3,0.5c-3.3,2.2-6.3,5.8-7.9,9.5c-1,2.1-0.6,2.3,4.3,2.5c4,0.2,4.1,0.2,3.1,0.7
			c-0.6,0.3-1.8,0.7-2.6,0.8c-2.9,0.4-4.5,1.8-3,2.6c0.4,0.2,0.3,0.4-0.8,0.9c-1.2,0.6-1.2,0.7-0.7,1c0.3,0.2,1.4,0.3,2.3,0.2
			c1.2-0.1,1.8,0,2.4,0.6l0.8,0.7l-1.6,1c-0.9,0.5-1.8,1.5-2.2,2.1c-0.3,0.6-1.5,2.1-2.6,3.3c-1.1,1.2-2,2.4-2,2.7
			c0,0.3-1.6,1.9-3.6,3.5c-5.4,4.3-7.7,6.6-7.7,7.8c0,0.6-0.3,1.1-0.8,1.5c-1.7,1.1-2.5,2.4-1.6,2.4
			C149.6,184.6,150.3,184.4,151,184.1L151,184.1z M192.3,180c1.3-0.2,2.9-0.6,3.4-0.9l1-0.6l-1.7-0.8l-1.7-0.8l-1.7,0.7
			c-0.9,0.4-2.2,0.9-2.9,1.1c-2.6,1-2.9,2.3-0.5,1.9C189.1,180.4,190.9,180.2,192.3,180L192.3,180z M132.5,163.9
			c7.9-8.2,13.4-13.1,20.5-18c2.4-1.7,4.1-2.6,4.2-2.4c0.2,0.7,1.3,0.5,2.9-0.6c1.9-1.2,2.9-2.5,5.3-6.8c2.5-4.5,3.4-5.6,7-8.4
			c1.7-1.3,4.2-3.2,5.5-4.3c1.9-1.5,2.4-1.8,2.2-1.2c-0.1,0.5,0,0.8,0.2,0.8c0.8,0,4.6-1.6,4.7-2c0.2-0.6-3.6-1.3-6.5-1.1
			c-2.2,0.1-3,0.4-5.7,1.9c-6.4,3.4-11,7.1-19.7,15.9c-6.3,6.3-11.3,10.5-13.8,11.7c-0.8,0.4-1.4,1.2-2.4,3.2
			c-1.9,3.9-5.4,9.5-8.6,14.1c-3.1,4.3-3.8,5.8-1.4,3C127.7,169,130.2,166.3,132.5,163.9L132.5,163.9z M211.2,202.6
			c9.5-2,10.5-2.1,17.1-2.4c7.4-0.3,8.4-0.5,12.9-2.6c1.4-0.7,2-0.8,2.2-0.5c0.3,0.6,2.8-0.8,7.5-4.1c1.9-1.4,4.7-3.1,6.1-3.9
			c2.1-1.2,2.8-1.4,3.8-1.2c1.1,0.2,1.4,0.1,2.8-1.2c3.9-3.4,7.2-5,10.5-5c1,0,1.3,0.1,1.3,0.6c0,0.4,0.2,0.5,0.5,0.4
			c1-0.4,0.5,0.1-2,1.9c-2.9,2.2-2.6,2.8,0.3,0.8c2.9-2,2.9-2,2.9-1.2c0,0.5-1.1,1.6-3.1,3.3c-4.6,3.8-7.8,7-12.7,12.4l-4.4,4.7
			h-55.9L211.2,202.6z M211.3,130.7c0.3-0.1,0.9-0.1,1.2,0c0.3,0.1,0.1,0.2-0.6,0.2C211.2,130.8,211,130.8,211.3,130.7z"/>
		<path id="path14" inkscape:connector-curvature="0" class="st3" d="M376,117.2c-1.5-0.2-0.7-0.8,1.1-0.8c1.9,0,2.9-0.7,2.9-2.1
			c0-0.6-0.1-0.7-0.7-0.6c-0.5,0.2-0.9,0-1.2-0.5c-0.3-0.5-1.1-0.8-2.2-0.9c-2-0.3-5.3-2.2-4.7-2.8c0.2-0.2,1.2-0.4,2.3-0.5
			c1.8-0.2,2-0.2,2.3-1.4c0.3-0.8,0.7-1.3,1.3-1.4c0.5-0.1,1.3-0.6,1.8-1c0.5-0.4,2.1-1.6,3.5-2.5c2.4-1.6,4-3.3,3.4-3.8
			c-0.6-0.6-5.9-1.2-8.4-1c-2.9,0.2-7.9,1.3-10,2.1c-2.1,0.8-1.5,0.1,1.4-1.6c4-2.4,11.6-4.6,15.9-4.6c1.6,0,7.1,1.3,7.8,1.8
			c1.3,1.1-0.1,4.8-2.5,6.7l-1,0.8l0.8,0.9l0.8,0.9l-0.8,0.7c-0.5,0.4-1.1,0.7-1.4,0.7s-1.1,0.5-1.7,1.1c-1,0.9-1.1,1.2-0.8,2
			c0.2,0.6,0.2,1.1-0.1,1.6c-0.2,0.4-0.3,1.5-0.2,2.6c0.3,2.4-0.1,3.2-1.8,3.7C382.7,117.5,378,117.5,376,117.2L376,117.2z"/>
	</g>
	<g>
		<path class="st4" d="M757.8,146.7c0,10.9-3.4,20.3-10.2,28.2c-7.1,8.3-16,12.4-26.8,12.4c-8.8,0-16.8-3.4-23.9-10.2v8.2h-19.4
			V77.9h19.4v38.5c7-7,15.2-10.6,24.5-10.6c10.9,0,19.8,4.2,26.7,12.5C754.6,126.1,757.8,135.6,757.8,146.7z M738.3,146.5
			c0-6.4-1.9-11.7-5.7-16c-3.9-4.5-9-6.7-15.3-6.7c-6.4,0-11.6,2.2-15.6,6.5c-3.8,4.2-5.7,9.6-5.7,16.1c0,6.5,1.9,12,5.6,16.3
			c4,4.5,9.2,6.8,15.6,6.8c6.3,0,11.4-2.3,15.3-6.9C736.4,158.2,738.3,152.9,738.3,146.5z"/>
		<path class="st4" d="M851.7,148.5l-0.1,3.7h-62.4c0.9,5.7,3.4,10.1,7.4,13.2c4,3.1,8.9,4.7,14.8,4.7c7.3,0,13.5-2.5,18.7-7.6
			l16.4,7.7c-8,11.4-19.7,17-35,17c-11.9,0-21.8-3.8-29.5-11.3c-7.8-7.5-11.7-17.2-11.7-29.1c0-11.7,3.8-21.5,11.3-29.4
			c7.5-7.9,17.1-11.8,28.8-11.8c12.2,0,22.1,3.9,29.8,11.7C848.1,125.6,851.9,135.9,851.7,148.5z M832,136.8
			c-1.3-4.5-3.9-8-7.7-10.6c-3.8-2.6-8.1-3.9-12.9-3.9c-5.4,0-10.1,1.5-14.2,4.5c-2.6,1.9-4.9,5.2-7.1,10H832z"/>
		<path class="st4" d="M900.6,124.6h-11.5v60.7h-19.5v-60.7h-10v-16.8h10V79.2h19.5v28.6h11.5V124.6z"/>
		<path class="st4" d="M987.8,185.4h-19.5v-8.2c-7.2,6.8-15.1,10.2-23.9,10.2c-10.7,0-19.7-4.1-26.8-12.4
			c-6.8-7.9-10.2-17.3-10.2-28.2c0-11.2,3.2-20.6,9.7-28.4c6.9-8.3,15.8-12.5,26.7-12.5c9.4,0,17.5,3.5,24.4,10.6v-8.6h19.5V185.4z
			 M969.3,146.5c0-6.5-1.9-11.9-5.8-16.2c-3.9-4.3-9-6.4-15.5-6.4c-6.3,0-11.4,2.2-15.3,6.7c-3.7,4.3-5.6,9.6-5.6,16
			c0,6.3,1.9,11.7,5.7,16.1c4,4.6,9.1,6.9,15.3,6.9c6.4,0,11.7-2.3,15.6-6.8C967.4,158.4,969.3,153,969.3,146.5z"/>
		<path class="st4" d="M1019.7,166.8c2.2,0,4.1,0.8,5.6,2.5c1.5,1.7,2.3,3.8,2.3,6.4c0,3.7-0.9,6.6-2.7,8.7c-1.8,2.1-4,3.2-6.7,3.2
			c-2.2,0-4.1-0.8-5.6-2.4c-1.5-1.6-2.3-3.6-2.3-6c0-3.6,1.1-6.7,3.2-9.4C1015.1,167.8,1017.2,166.8,1019.7,166.8z"/>
		<path class="st4" d="M1122.8,174.3c0,13.1-2.6,22.7-7.9,28.9c-7.1,8.4-17.8,12.5-32,12.5c-14.3,0-25.1-3.7-32.3-11.2
			c-3.6-3.7-6.2-8.2-7.9-13.5h21.4c3.8,4.5,9.8,6.7,18,6.7c9.9,0,16.4-2.9,19.4-8.7c1.3-2.6,1.9-7,1.9-13.3
			c-6.4,6.4-14.2,9.6-23.5,9.6c-10.9,0-19.9-3.9-26.9-11.8c-6.8-7.6-10.2-16.9-10.2-27.9c0-12.3,3.8-22.2,11.4-29.7
			c6.9-6.7,15.1-10.1,24.6-10.1c8.9,0,17.1,3.5,24.6,10.6v-8.6h19.5V174.3z M1104.3,145.8c0-6.3-1.9-11.6-5.8-15.6
			c-3.9-4.1-9-6.1-15.3-6.1c-6.2,0-11.2,2-15.2,6.1c-4,4.1-5.9,9.2-5.9,15.5c0,6.3,2,11.6,6,15.8c4,4.2,9.2,6.3,15.5,6.3
			c6.3,0,11.3-2.1,15.1-6.3C1102.4,157.3,1104.3,152.2,1104.3,145.8z"/>
		<path class="st4" d="M1220,146.5c0,7.3-1.8,14.2-5.4,20.5c-3.6,6.4-8.6,11.3-14.9,14.9c-6.3,3.6-13.2,5.4-20.8,5.4
			c-11.3,0-20.8-4-28.6-11.9c-7.8-7.9-11.7-17.5-11.7-28.8c0-12.2,4.4-22.3,13.3-30.3c7.7-7,16.7-10.6,26.9-10.6
			c7.3,0,14.2,1.8,20.6,5.5c6.4,3.6,11.5,8.6,15.1,14.9C1218.2,132.5,1220,139.3,1220,146.5z M1200.3,146.6c0-6.4-1.9-11.8-5.8-16
			c-3.8-4.2-9-6.4-15.3-6.4c-6.3,0-11.4,2.2-15.3,6.5c-3.8,4.2-5.7,9.5-5.7,15.8c0,6.4,1.9,11.8,5.6,16c3.9,4.4,9,6.6,15.3,6.6
			s11.5-2.2,15.4-6.6C1198.3,158.3,1200.3,153,1200.3,146.6z"/>
		<path class="st4" d="M1304,140.7c0,13.5-1.1,22.8-3.2,27.8c-5.4,12.6-15.7,18.9-30.9,18.9c-16.6,0-27.2-7.2-31.7-21.6
			c-1.5-4.8-2.3-13.4-2.3-25.7v-32.3h19.7v37.3c0,5.6,0.2,9.5,0.6,11.8c0.9,4.6,2.7,7.9,5.7,9.9c2.2,1.6,4.9,2.3,8.1,2.3
			c6.6,0,11-3,13.2-9.1c0.8-2.2,1.2-7,1.2-14.3v-37.9h19.6V140.7z"/>
		<path class="st4" d="M1393.9,107.8l-33,77.6h-12.6l-33.1-77.6h19.8l19.6,45.8l19.5-45.8H1393.9z"/>
		<path class="st4" d="M1417.5,166.8c2.2,0,4.1,0.8,5.6,2.5c1.5,1.7,2.3,3.8,2.3,6.4c0,3.7-0.9,6.6-2.7,8.7c-1.8,2.1-4,3.2-6.7,3.2
			c-2.2,0-4.1-0.8-5.6-2.4c-1.5-1.6-2.3-3.6-2.3-6c0-3.6,1.1-6.7,3.2-9.4C1412.9,167.8,1414.9,166.8,1417.5,166.8z"/>
		<path class="st4" d="M1451.8,119h20.4c3.4-14.3,7.2-24.9,11.5-31.8c4.3-7,10-12.4,16.9-16.5c7-4,13.5-6,19.7-6
			c3.5,0,6.1,0.7,7.9,2.1c1.8,1.4,2.7,3,2.7,4.9c0,1.7-0.6,3.1-1.8,4.3c-1.2,1.1-2.8,1.7-4.7,1.7c-2,0-5.8-0.6-11.3-1.8
			c-2.7-0.6-4.9-0.9-6.4-0.9c-3.8,0-7.2,2.3-10.2,7c-3,4.6-5.5,10.9-7.3,18.9l-4.3,18.2h22.7l-1.4,6.1h-23l-13.4,54.6
			c-4.2,16.6-10.8,29.2-20,37.7c-9.2,8.6-19.1,12.8-29.8,12.8c-3.6,0-6.3-0.7-8.2-2.1c-1.9-1.4-2.8-3.1-2.8-5.2
			c0-1.8,0.6-3.2,1.9-4.2c1.3-1.1,3.1-1.6,5.5-1.6c1.2,0,3,0.1,5.3,0.4c4,0.5,7.8,0.8,11.5,0.8c5.6,0,9.8-1.3,12.3-4
			c2.6-2.7,5.1-9.1,7.7-19.5l17.4-69.8h-20.4L1451.8,119z"/>
		<path class="st4" d="M1520.8,185.4H1508l6-23c2.9-11.3,5.4-22,7.6-32.2c0.5-2.5,0.8-4.1,0.8-4.7c0-1.4-0.6-2.1-1.9-2.1
			c-0.9,0-2.2,0.6-3.9,1.8c-1.8,1.2-5,4.1-9.6,8.7l-2.7-3c5.5-5.9,10.9-10.3,16.4-13.2c5.4-2.9,9.6-4.4,12.5-4.4
			c1,0,1.8,0.2,2.4,0.7c0.6,0.5,0.9,1.1,0.9,1.8c0,0.7-0.4,2.7-1.1,5.9l-3.7,15.4c5.8-9.1,12.3-16.9,19.5-23.4
			c3.5-3.1,6.4-4.6,8.7-4.6c1.7,0,3.1,0.6,4.3,1.7c1.1,1.1,1.7,2.4,1.7,3.9c0,1.5-0.6,2.9-1.7,3.9c-1.1,1.1-3.9,2.4-8.3,3.8
			c-4.2,1.4-7.7,3.1-10.3,5.1c-2.7,2-5.6,5-8.7,9.2c-3.2,4.1-5.4,7.7-6.6,10.7c-1.3,3-3.2,10.1-5.7,21.3L1520.8,185.4z"/>
	</g>
</g>
</svg>
