<?xml version="1.0" encoding="UTF-8"?>
<svg width="183px" height="56px" viewBox="0 0 183 56" version="1.1" xmlns="http://www.w3.org/2000/svg" xmlns:xlink="http://www.w3.org/1999/xlink">
    <title>DossierFacile/Logo/XL/Dark</title>
    <g id="DossierFacile/Logo/XL/Dark" stroke="none" stroke-width="1" fill="none" fill-rule="evenodd">
        <g id="Group" transform="translate(0, 20.000000)" fill="#161616" fill-rule="nonzero">
            <g id="Dossier" transform="translate(0.000000, 0.574932)">
                <path d="M0,14.4250682 L2.47070312,0.206318204 L6.16210938,0.216083829 C7.32096354,0.216083829 8.3186849,0.505797371 9.15527344,1.08522445 C9.99186198,1.66465154 10.5924479,2.46380518 10.9570312,3.48268539 C11.3216146,4.5015656 11.4290365,5.64251612 11.2792969,6.90553695 L11.1816406,7.61842758 C10.8951823,9.68874008 10.0911458,11.3407583 8.76953125,12.5744823 C7.44791667,13.8082062 5.78776042,14.4250682 3.7890625,14.4250682 L0,14.4250682 Z M4.03320312,1.74928695 L2.09960938,12.8918651 L3.90625,12.9016307 C5.28645833,12.9016307 6.45670573,12.4719432 7.41699219,11.6125682 C8.37727865,10.7531932 9.00065104,9.57480779 9.28710938,8.07741195 C9.51497396,6.87949529 9.59309896,5.86061508 9.52148438,5.02077133 C9.42382812,4.01165675 9.08854167,3.22226873 8.515625,2.65260727 C7.94270833,2.08294581 7.17447917,1.78509425 6.2109375,1.75905258 L4.03320312,1.74928695 Z" id="Shape"></path>
                <path d="M18.4179688,3.66334945 C19.3033854,3.67637029 20.061849,3.9172557 20.6933594,4.3860057 C21.3248698,4.8547557 21.7919922,5.50091456 22.0947266,6.32448227 C22.3974609,7.14804998 22.5,8.04811508 22.4023438,9.02467758 L22.3828125,9.23952133 C22.2591146,10.2681672 21.953125,11.1975291 21.4648438,12.0276073 C20.9765625,12.8576854 20.3450521,13.5038442 19.5703125,13.9660838 C18.7955729,14.4283234 17.9459635,14.6464224 17.0214844,14.6203807 C16.1425781,14.6073599 15.3857422,14.3664745 14.7509766,13.8977245 C14.1162109,13.4289745 13.6523438,12.7909536 13.359375,11.983662 C13.0664063,11.1763703 12.9622396,10.2876984 13.046875,9.31764633 C13.1445313,8.22389633 13.4407552,7.24082341 13.9355469,6.36842758 C14.4303385,5.49603175 15.0667318,4.82057602 15.8447266,4.34206039 C16.6227214,3.86354477 17.4804688,3.63730779 18.4179688,3.66334945 Z M14.8242188,9.32741195 C14.7786458,9.7375682 14.7786458,10.1640005 14.8242188,10.6067088 C14.8893229,11.374938 15.1188151,11.9869172 15.5126953,12.4426463 C15.9065755,12.8983755 16.4322917,13.1360057 17.0898438,13.155537 C17.6757813,13.1750682 18.2161458,13.0302114 18.7109375,12.7209666 C19.2057292,12.4117219 19.6223958,11.9445995 19.9609375,11.3195995 C20.2994792,10.6945995 20.5175781,10.0012401 20.6152344,9.23952133 C20.6673177,8.640563 20.6770833,8.1360057 20.6445313,7.72584945 C20.5664063,6.93808904 20.328776,6.31634425 19.9316406,5.86061508 C19.5345052,5.40488591 19.0071615,5.1640005 18.3496094,5.13795883 C17.438151,5.11842758 16.6634115,5.4765005 16.0253906,6.21217758 C15.3873698,6.94785466 14.9934896,7.91139633 14.84375,9.10280258 L14.8242188,9.32741195 Z" id="Shape"></path>
                <path d="M30.2539063,11.5637401 C30.3515625,10.8345734 29.9511719,10.3202505 29.0527344,10.0207713 L27.2167969,9.48366195 C25.6673177,8.94980779 24.9186198,8.06439112 24.9707031,6.82741195 C25.016276,5.89642237 25.4410807,5.13307602 26.2451172,4.53737289 C27.0491536,3.94166977 27.9947917,3.65032862 29.0820313,3.66334945 C30.1497396,3.67637029 31.0172526,3.98724268 31.6845703,4.59596664 C32.351888,5.2046906 32.672526,5.99733383 32.6464844,6.97389633 L30.8886719,6.9641307 C30.9016927,6.43678695 30.7356771,6.00709945 30.390625,5.6750682 C30.0455729,5.34303695 29.5865885,5.17051091 29.0136719,5.15749008 C28.4016927,5.14446925 27.874349,5.29420883 27.4316406,5.60670883 C27.0214844,5.89967758 26.7838542,6.28379216 26.71875,6.75905258 C26.6341146,7.37103175 27.0084635,7.81699529 27.8417969,8.0969432 L28.7304688,8.34108383 C29.9414063,8.65358383 30.8007813,9.06048487 31.3085938,9.56178695 C31.8164063,10.063089 32.0507813,10.6848338 32.0117188,11.4270213 C31.9726563,12.0845734 31.7578125,12.6574901 31.3671875,13.1457713 C30.9765625,13.6340526 30.4557292,14.0067739 29.8046875,14.2639354 C29.1536458,14.5210969 28.4602865,14.639912 27.7246094,14.6203807 C26.6048177,14.6073599 25.6803385,14.2802114 24.9511719,13.6389354 C24.2220052,12.9976594 23.8704427,12.172464 23.8964844,11.1633495 L25.6640625,11.1731151 C25.6640625,11.765563 25.8528646,12.2408234 26.2304688,12.5988963 C26.6080729,12.9569692 27.125651,13.1360057 27.7832031,13.1360057 C28.4277344,13.1490265 28.984375,13.0139354 29.453125,12.7307323 C29.921875,12.4475291 30.1888021,12.0585317 30.2539063,11.5637401 Z" id="Path"></path>
                <path d="M40.3515625,11.5637401 C40.4492188,10.8345734 40.0488281,10.3202505 39.1503906,10.0207713 L37.3144531,9.48366195 C35.764974,8.94980779 35.016276,8.06439112 35.0683594,6.82741195 C35.1139323,5.89642237 35.538737,5.13307602 36.3427734,4.53737289 C37.1468099,3.94166977 38.0924479,3.65032862 39.1796875,3.66334945 C40.2473958,3.67637029 41.1149089,3.98724268 41.7822266,4.59596664 C42.4495443,5.2046906 42.7701823,5.99733383 42.7441406,6.97389633 L40.9863281,6.9641307 C40.999349,6.43678695 40.8333333,6.00709945 40.4882813,5.6750682 C40.1432292,5.34303695 39.6842448,5.17051091 39.1113281,5.15749008 C38.499349,5.14446925 37.9720052,5.29420883 37.5292969,5.60670883 C37.1191406,5.89967758 36.8815104,6.28379216 36.8164063,6.75905258 C36.7317708,7.37103175 37.1061198,7.81699529 37.9394531,8.0969432 L38.828125,8.34108383 C40.0390625,8.65358383 40.8984375,9.06048487 41.40625,9.56178695 C41.9140625,10.063089 42.1484375,10.6848338 42.109375,11.4270213 C42.0703125,12.0845734 41.8554688,12.6574901 41.4648438,13.1457713 C41.0742188,13.6340526 40.5533854,14.0067739 39.9023438,14.2639354 C39.2513021,14.5210969 38.5579427,14.639912 37.8222656,14.6203807 C36.702474,14.6073599 35.7779948,14.2802114 35.0488281,13.6389354 C34.3196615,12.9976594 33.968099,12.172464 33.9941406,11.1633495 L35.7617188,11.1731151 C35.7617188,11.765563 35.9505208,12.2408234 36.328125,12.5988963 C36.7057292,12.9569692 37.2233073,13.1360057 37.8808594,13.1360057 C38.5253906,13.1490265 39.0820313,13.0139354 39.5507813,12.7307323 C40.0195313,12.4475291 40.2864583,12.0585317 40.3515625,11.5637401 Z" id="Path"></path>
                <path d="M45.8203125,14.4250682 L44.0625,14.4250682 L45.8984375,3.85866195 L47.65625,3.85866195 L45.8203125,14.4250682 Z M47.2753906,0.00124007937 C47.5748698,-0.011780754 47.8238932,0.0777374752 48.0224609,0.269794767 C48.2210286,0.461852059 48.3203125,0.714130704 48.3203125,1.0266307 C48.3138021,1.33262029 48.2145182,1.58327133 48.0224609,1.77858383 C47.8304036,1.97389633 47.5813802,2.078063 47.2753906,2.09108383 C46.969401,2.10410466 46.71875,2.01621404 46.5234375,1.82741195 C46.328125,1.63860987 46.233724,1.39121404 46.2402344,1.08522445 C46.2467448,0.779234871 46.344401,0.525328621 46.5332031,0.323505704 C46.7220052,0.121682788 46.969401,0.0142609127 47.2753906,0.00124007937 Z" id="Shape"></path>
                <path d="M53.28125,14.6203807 C51.9661458,14.594339 50.9375,14.109313 50.1953125,13.1653026 C49.453125,12.2212922 49.140625,11.0136099 49.2578125,9.5422557 L49.3066406,9.12233383 C49.4173177,8.07415675 49.7281901,7.1171255 50.2392578,6.25124008 C50.7503255,5.38535466 51.3736979,4.73268539 52.109375,4.29323227 C52.8450521,3.85377914 53.6393229,3.6438182 54.4921875,3.66334945 C55.5794271,3.68939112 56.4322917,4.05071925 57.0507813,4.74733383 C57.6692708,5.44394841 58.0078125,6.38795883 58.0664063,7.57936508 C58.0859375,8.00254216 58.0729167,8.42571925 58.0273438,8.84889633 L57.9199219,9.6594432 L51.015625,9.6594432 C50.8984375,10.6164745 51.0563151,11.4302765 51.4892578,12.1008495 C51.9222005,12.7714224 52.5683594,13.1197297 53.4277344,13.1457713 C54.469401,13.171813 55.4329427,12.703063 56.3183594,11.7395213 L57.3339844,12.5988963 C56.891276,13.2369172 56.319987,13.7365916 55.6201172,14.0979198 C54.9202474,14.4592479 54.140625,14.6334015 53.28125,14.6203807 Z M54.4042969,5.13795883 C53.6751302,5.11842758 53.038737,5.36582341 52.4951172,5.88014633 C51.9514974,6.39446925 51.5201823,7.1594432 51.2011719,8.1750682 L56.3378906,8.18483383 L56.3769531,8.02858383 C56.4811198,7.20827133 56.3492839,6.52630518 55.9814453,5.98268539 C55.6136068,5.4390656 55.0878906,5.15749008 54.4042969,5.13795883 Z" id="Shape"></path>
                <path d="M65.6542969,5.46999008 L64.8242188,5.38209945 C63.6914062,5.38209945 62.7994792,5.89316716 62.1484375,6.91530258 L60.8496094,14.4250682 L59.0820312,14.4250682 L60.9179688,3.85866195 L62.6269531,3.84889633 L62.3632812,5.07936508 C63.1119792,4.09629216 63.9941406,3.61777654 65.0097656,3.6438182 C65.2246094,3.6438182 65.5045573,3.69264633 65.8496094,3.79030258 L65.6542969,5.46999008 Z" id="Path"></path>
            </g>
            <g id=".fr" transform="translate(122.131836, 5.864995)">
                <path d="M0.650390625,7.90453603 C0.841796875,7.90062978 1,7.95922353 1.125,8.08031728 C1.25,8.20141103 1.31054688,8.35766103 1.30664062,8.54906728 C1.30273438,8.74047353 1.23828125,8.89574697 1.11328125,9.0148876 C0.98828125,9.13402822 0.83203125,9.19750478 0.64453125,9.20531728 C0.45703125,9.21312978 0.302734375,9.15941885 0.181640625,9.04418447 C0.060546875,8.9289501 0,8.77562978 0,8.58422353 C0,8.39281728 0.060546875,8.2336376 0.181640625,8.10668447 C0.302734375,7.97973135 0.458984375,7.91234853 0.650390625,7.90453603 Z" id="Path"></path>
                <path d="M3.50976562,9.13500478 L4.47070312,3.63305166 L3.4921875,3.63305166 L3.63867188,2.79516103 L4.61132812,2.79516103 L4.71679688,2.04516103 C4.81835938,1.40844228 5.06445312,0.910395408 5.45507812,0.551020408 C5.86523438,0.176020408 6.38867188,-0.00757334184 7.02539062,0.000239158163 C7.22460938,0.000239158163 7.4765625,0.0334422832 7.78125,0.0998485332 L7.65234375,0.984614158 C7.46484375,0.945551658 7.27539062,0.922114158 7.08398438,0.914301658 C6.71679688,0.914301658 6.41894531,1.02855947 6.19042969,1.2570751 C5.96191406,1.48559072 5.8203125,1.78930166 5.765625,2.16820791 L5.671875,2.79516103 L6.984375,2.79516103 L6.83789062,3.63305166 L5.52539062,3.63305166 L4.5703125,9.13500478 L3.50976562,9.13500478 Z" id="Path"></path>
                <path d="M11.0390625,3.76195791 L10.5410156,3.70922353 C9.86132812,3.70922353 9.32617188,4.01586416 8.93554688,4.62914541 L8.15625,9.13500478 L7.09570312,9.13500478 L8.19726562,2.79516103 L9.22265625,2.78930166 L9.06445312,3.52758291 C9.51367188,2.93773916 10.0429688,2.65062978 10.6523438,2.66625478 C10.78125,2.66625478 10.9492188,2.69555166 11.15625,2.75414541 L11.0390625,3.76195791 Z" id="Path"></path>
            </g>
            <g id="Facile" transform="translate(68.104492, 0.000000)">
                <polygon id="Path" points="8.5546875 9.18945312 2.9296875 9.18945312 2.9296875 15 0 15 0 0.78125 9.2578125 0.78125 9.2578125 3.15429688 2.9296875 3.15429688 2.9296875 6.82617188 8.5546875 6.82617188"></polygon>
                <path d="M16.5625,15 C16.4322917,14.7460938 16.3378906,14.4303385 16.2792969,14.0527344 C15.5957031,14.8144531 14.7070312,15.1953125 13.6132812,15.1953125 C12.578125,15.1953125 11.7203776,14.8958333 11.0400391,14.296875 C10.3597005,13.6979167 10.0195312,12.9427083 10.0195312,12.03125 C10.0195312,10.9114583 10.4345703,10.0520833 11.2646484,9.453125 C12.0947266,8.85416667 13.2942708,8.55143229 14.8632812,8.54492188 L16.1621094,8.54492188 L16.1621094,7.93945312 C16.1621094,7.45117188 16.0367839,7.06054688 15.7861328,6.76757812 C15.5354818,6.47460938 15.139974,6.328125 14.5996094,6.328125 C14.124349,6.328125 13.7516276,6.44205729 13.4814453,6.66992188 C13.211263,6.89778646 13.0761719,7.21028646 13.0761719,7.60742188 L10.2539062,7.60742188 C10.2539062,6.99544271 10.4427083,6.42903646 10.8203125,5.90820312 C11.1979167,5.38736979 11.7317708,4.97884115 12.421875,4.68261719 C13.1119792,4.38639323 13.8867188,4.23828125 14.7460938,4.23828125 C16.0481771,4.23828125 17.0817057,4.56542969 17.8466797,5.21972656 C18.6116536,5.87402344 18.9941406,6.79361979 18.9941406,7.97851562 L18.9941406,12.5585938 C19.000651,13.5611979 19.140625,14.3196615 19.4140625,14.8339844 L19.4140625,15 L16.5625,15 Z M14.2285156,13.0371094 C14.6451823,13.0371094 15.0292969,12.9443359 15.3808594,12.7587891 C15.7324219,12.5732422 15.9928385,12.3242188 16.1621094,12.0117188 L16.1621094,10.1953125 L15.1074219,10.1953125 C13.6946615,10.1953125 12.9427083,10.6835938 12.8515625,11.6601562 L12.8417969,11.8261719 C12.8417969,12.1777344 12.9654948,12.4674479 13.2128906,12.6953125 C13.4602865,12.9231771 13.7988281,13.0371094 14.2285156,13.0371094 Z" id="Shape"></path>
                <path d="M25.5566406,12.9199219 C26.077474,12.9199219 26.500651,12.7766927 26.8261719,12.4902344 C27.1516927,12.203776 27.3209635,11.8229167 27.3339844,11.3476562 L29.9804688,11.3476562 C29.9739583,12.0638021 29.7786458,12.7197266 29.3945312,13.3154297 C29.0104167,13.9111328 28.4847005,14.3733724 27.8173828,14.7021484 C27.1500651,15.0309245 26.4127604,15.1953125 25.6054688,15.1953125 C24.0950521,15.1953125 22.9036458,14.7151693 22.03125,13.7548828 C21.1588542,12.7945964 20.7226562,11.468099 20.7226562,9.77539062 L20.7226562,9.58984375 C20.7226562,7.96223958 21.155599,6.66341146 22.0214844,5.69335938 C22.8873698,4.72330729 24.0755208,4.23828125 25.5859375,4.23828125 C26.9075521,4.23828125 27.9671224,4.61425781 28.7646484,5.36621094 C29.5621745,6.11816406 29.9674479,7.11914062 29.9804688,8.36914062 L27.3339844,8.36914062 C27.3209635,7.82226562 27.1516927,7.37792969 26.8261719,7.03613281 C26.500651,6.69433594 26.0709635,6.5234375 25.5371094,6.5234375 C24.8795573,6.5234375 24.383138,6.76269531 24.0478516,7.24121094 C23.7125651,7.71972656 23.5449219,8.49609375 23.5449219,9.5703125 L23.5449219,9.86328125 C23.5449219,10.9505208 23.7109375,11.7317708 24.0429688,12.2070312 C24.375,12.6822917 24.8795573,12.9199219 25.5566406,12.9199219 Z" id="Path"></path>
                <path d="M34.5703125,15 L31.7382812,15 L31.7382812,4.43359375 L34.5703125,4.43359375 L34.5703125,15 Z M31.5722656,1.69921875 C31.5722656,1.27604167 31.7138672,0.927734375 31.9970703,0.654296875 C32.2802734,0.380859375 32.6660156,0.244140625 33.1542969,0.244140625 C33.6360677,0.244140625 34.0201823,0.380859375 34.3066406,0.654296875 C34.593099,0.927734375 34.7363281,1.27604167 34.7363281,1.69921875 C34.7363281,2.12890625 34.5914714,2.48046875 34.3017578,2.75390625 C34.0120443,3.02734375 33.6295573,3.1640625 33.1542969,3.1640625 C32.6790365,3.1640625 32.2965495,3.02734375 32.0068359,2.75390625 C31.7171224,2.48046875 31.5722656,2.12890625 31.5722656,1.69921875 Z" id="Shape"></path>
                <polygon id="Path" points="39.8730469 15 37.0410156 15 37.0410156 0 39.8730469 0"></polygon>
                <path d="M47.0605469,15.1953125 C45.5110677,15.1953125 44.2496745,14.7200521 43.2763672,13.7695312 C42.3030599,12.8190104 41.8164062,11.5527344 41.8164062,9.97070312 L41.8164062,9.69726562 C41.8164062,8.63606771 42.0214844,7.68717448 42.4316406,6.85058594 C42.8417969,6.0139974 43.4228516,5.36946615 44.1748047,4.91699219 C44.9267578,4.46451823 45.7845052,4.23828125 46.7480469,4.23828125 C48.1933594,4.23828125 49.3310547,4.69401042 50.1611328,5.60546875 C50.9912109,6.51692708 51.40625,7.80924479 51.40625,9.48242188 L51.40625,10.6347656 L44.6777344,10.6347656 C44.7688802,11.3248698 45.0439453,11.8782552 45.5029297,12.2949219 C45.9619141,12.7115885 46.5429688,12.9199219 47.2460938,12.9199219 C48.3333333,12.9199219 49.1829427,12.5260417 49.7949219,11.7382812 L51.1816406,13.2910156 C50.7584635,13.889974 50.1855469,14.3570964 49.4628906,14.6923828 C48.7402344,15.0276693 47.9394531,15.1953125 47.0605469,15.1953125 Z M46.7382812,6.5234375 C46.1783854,6.5234375 45.7242839,6.71223958 45.3759766,7.08984375 C45.0276693,7.46744792 44.8046875,8.0078125 44.7070312,8.7109375 L48.6328125,8.7109375 L48.6328125,8.48632812 C48.6197917,7.86132812 48.4505208,7.37792969 48.125,7.03613281 C47.7994792,6.69433594 47.3372396,6.5234375 46.7382812,6.5234375 Z" id="Shape"></path>
            </g>
        </g>
    </g>
</svg>